<svg width="279" height="344" viewBox="0 0 279 344" fill="none" xmlns="http://www.w3.org/2000/svg">
<path d="M106.776 76.283C102.885 77.5329 99.8969 78.5926 96.8588 79.462C85.8923 82.6139 75.0246 86.6352 63.8975 88.6051C44.6443 92.0015 27.5276 86.3907 12.6709 71.1205C-1.25955 56.8285 -2.37103 39.208 8.83015 23.3808C12.9056 17.6205 17.8084 12.4716 22.8841 7.82536C28.5526 2.63567 35.4191 0.448398 42.7548 1.69827C44.916 2.06508 47.2377 3.11117 48.979 4.59199C59.5504 13.6128 69.9365 22.9189 80.4708 31.9805C89.7454 39.9552 99.1682 47.7126 108.492 55.6194C112.753 59.2331 117.199 59.8852 122.522 58.9071C127.931 57.9153 133.587 58.7848 139.132 58.6761C141.071 58.6354 143.133 58.4995 144.912 57.7115C169.389 46.8974 193.965 36.4773 219.356 28.6792C229.112 25.6768 238.263 26.4783 246.636 33.339C251.564 37.374 254.984 42.387 254.157 49.8863C253.996 51.3399 254.021 52.8343 254.157 54.3016C255.021 64.056 250.946 70.645 243.993 75.6445C234.286 82.6275 223.493 85.331 212.353 84.6109C201.584 83.9045 190.865 81.8123 180.195 79.7745C171.093 78.0355 162.102 75.5086 153.062 73.3485C152.432 73.1991 151.79 73.1855 150.938 73.6474C151.506 74.1501 152.074 74.6799 152.667 75.1554C163.844 84.1898 175.724 92.2868 185.999 102.462C198.435 114.784 207.759 130.109 210.686 149.278C212.773 162.945 208.303 174.873 202.449 186.312C197.348 196.284 192.446 206.406 187.024 216.146C182.702 223.917 183.504 231.104 188.135 237.788C192.544 244.146 197.595 249.947 202.362 255.979C202.424 256.061 202.511 256.129 202.585 256.197C211.427 265.951 210.624 268.614 206.203 281.466C205.993 282.077 204.486 282.756 203.955 282.485C190.334 275.271 178.256 266.168 174.748 247.977C172.958 238.698 174.477 229.515 176.502 220.453C178.651 210.807 181.504 201.297 182.788 191.502C187.432 156.207 177.848 126.305 154.964 102.028C147.48 94.0937 139.601 86.6352 131.771 79.136C128.054 75.5766 126.807 75.7532 123.522 79.8424C110.888 95.5337 99.8845 112.516 92.7093 132.337C88.0905 145.107 86.8062 158.612 89.0291 172.02C94.0678 202.357 99.3782 232.639 105.43 262.731C109.011 280.528 106.368 295.853 95.0187 308.637C85.8553 318.962 76.136 328.662 66.4909 338.403C64.5644 340.346 61.9092 341.582 59.4145 342.506C58.2784 342.927 56.6976 341.813 55.3144 341.392C55.8084 340.115 56.1542 338.715 56.8211 337.574C61.4152 329.667 66.2439 321.91 70.6775 313.881C73.4314 308.895 74.0242 303.121 74.3083 297.266C75.4321 274.659 72.2088 252.637 68.0346 230.669C65.046 214.964 62.7119 199.11 63.4158 182.889C64.3174 162.375 69.072 143.07 78.4207 125.571C86.7197 110.03 95.9203 95.1126 104.713 79.9103C105.232 79.0001 105.738 78.0899 106.776 76.2422V76.283ZM94.463 65.5097C94.4383 65.17 94.4259 64.8304 94.4013 64.4907C93.9443 64.3277 93.475 64.1783 93.0181 64.0017C83.2001 60.32 73.4067 56.6926 64.7249 49.9678C55.6108 42.9169 46.4844 35.8524 37.0863 29.3177C24.823 20.786 13.0414 27.8776 9.00305 41.504C8.12622 44.4656 8.20032 47.4544 10.1022 49.8183C13.1032 53.5408 16.1288 57.3311 19.525 60.5645C27.6881 68.3626 37.7408 70.2103 47.8305 69.9929C60.8101 69.7212 73.7772 68.2539 86.7444 67.1671C89.3379 66.9497 91.8942 66.0802 94.463 65.5097ZM161.201 68.1317C161.658 68.4577 161.88 68.743 162.115 68.7702C178.28 70.5906 194.323 74.3131 210.723 71.5688C222.801 69.5446 234.039 65.1021 244.376 57.8202C245.673 56.91 246.809 54.7227 247.031 52.9702C247.772 47.1556 244.376 42.618 238.979 43.1886C232.409 43.8814 225.753 45.1041 219.454 47.305C203.424 52.9158 187.58 59.2467 171.624 65.17C168.302 66.4063 164.819 67.1127 161.188 68.1317H161.201Z" fill="#E5A9AB"/>
</svg>
