<svg width="361" height="208" viewBox="0 0 361 208" fill="none" xmlns="http://www.w3.org/2000/svg">
<g clip-path="url(#clip0_504_255)">
<path d="M90.5659 72.2977C94.7051 74.131 98.8695 75.9055 102.984 77.7977C110.247 81.1355 117.567 84.325 124.659 88.0441C126.893 89.2092 128.919 91.5221 130.331 93.9365C132.834 98.2224 131.316 102.146 126.85 102.797C121.708 103.554 116.543 103.456 111.392 103.724C103.53 104.117 95.6682 104.416 87.8001 104.935C86.1302 105.048 84.4648 105.95 82.802 106.474C82.7671 106.862 82.7322 107.251 82.6973 107.639C84.004 108.049 85.2939 108.739 86.6375 108.84C94.8029 109.459 102.992 109.846 111.152 110.496C115.646 110.86 120.21 111.172 124.568 112.253C128.601 113.264 129.473 115.619 128.503 120.644C127.115 127.791 124.347 133.696 118.566 137.516C102.389 148.242 85.2985 154.413 67.3966 156.237C60.07 156.989 52.7228 156.776 45.3969 156.708C43.0781 156.68 40.7646 155.895 38.5628 155.083C33.0658 153.052 30.0414 148.142 29.7778 141.363C29.3902 131.33 29.1518 121.228 29.6897 111.147C31.0264 85.4442 36.5884 60.6118 45.3467 36.5864C46.565 33.259 48.0604 30.0099 49.711 26.9289C53.0225 20.7056 57.8306 18.2988 63.6385 18.7575C73.519 19.5399 82.4534 23.7587 91.3199 28.108C104.903 34.7664 116.941 44.2397 127.419 56.3519C129.823 59.1386 131.619 62.7217 133.548 66.0592C134.212 67.1963 134.638 68.6561 134.845 70.0629C135.787 76.1676 135.141 78.9132 129.247 77.6042C119.731 75.4795 110.183 73.5387 100.605 71.6875C97.4071 71.0696 94.1112 71.0344 90.8593 70.7385C90.774 71.2446 90.6589 71.7457 90.5587 72.2492L90.5659 72.2977Z" fill="#9CA066"/>
<path d="M230.258 131.379C228.876 130.326 227.601 128.913 226.073 128.276C218.812 125.191 211.5 122.319 204.199 119.385C199.732 117.591 195.21 115.945 190.801 113.987C188.909 113.148 186.805 111.942 186.88 108.958C186.966 105.724 188.92 103.293 191.219 102.529C196.293 100.814 201.495 99.2462 206.678 98.606C214.8 97.578 222.951 97.375 231.095 96.7607C232.165 96.6729 233.232 96.2377 234.317 95.9634C234.342 95.6363 234.379 95.3271 234.403 95C231.234 94.2134 228.109 93.1661 224.89 92.6709C214.995 91.1605 205.056 89.9107 195.15 88.4616C190.675 87.8019 190.233 86.5287 192.433 81.4585C194.975 75.626 199.41 72.3519 204.016 69.6904C220.368 60.1928 237.472 54.7647 255.201 53.8738C262.416 53.5129 269.685 53.9182 276.804 54.8502C283.519 55.7299 287.495 61.0685 287.877 69.1445C288.344 79.1591 288.517 89.2819 287.994 99.3661C286.643 125.066 281.081 149.898 272.379 173.949C271.808 175.525 271.165 177.072 270.507 178.617C265.697 190.013 259.634 193.88 249.661 191.284C226.248 185.177 205.833 172.714 189.128 152.565C187.578 150.696 186.134 148.654 184.789 146.566C181.138 140.841 181.521 134.219 183.085 127.385C183.763 124.456 185.487 122.838 187.819 123.152C192.455 123.761 197.093 124.542 201.621 125.7C208.873 127.569 216.034 129.88 223.248 131.885C225.364 132.478 227.598 132.65 229.768 133.016C229.935 132.476 230.103 131.937 230.273 131.382L230.258 131.379Z" fill="#9CA066"/>
<path d="M178.198 108.772C176.718 115.824 175.388 122.902 173.747 129.912C172.151 136.661 168.842 139.241 163.178 138.381C156.724 137.404 150.273 136.316 143.855 135.124C138.252 134.085 135.74 130.491 136.764 123.598C138.894 109.243 141.308 94.9197 144 80.6748C145.284 73.8731 148.861 71.3375 154.525 72.1977C160.979 73.1753 167.43 74.2628 173.848 75.4551C179.451 76.4943 181.71 80.0453 180.981 87.0035C180.229 94.2734 179.148 101.504 178.195 108.787L178.198 108.772Z" fill="#9CA066"/>
</g>
<defs>
<clipPath id="clip0_504_255">
<rect width="339.44" height="153.013" fill="white" transform="translate(25.436) rotate(9.56887)"/>
</clipPath>
</defs>
</svg>
