<svg width="278" height="234" viewBox="0 0 278 234" fill="none" xmlns="http://www.w3.org/2000/svg">
<path fill-rule="evenodd" clip-rule="evenodd" d="M228.718 31.0904C230.193 31.993 231.603 32.5333 231.851 32.2911C232.099 32.0489 232.199 32.5133 232.074 33.3237C231.925 34.2876 232.64 35.1284 234.144 35.7573C235.407 36.2855 236.392 37.0343 236.332 37.4223C236.273 37.8093 237.57 38.615 239.214 39.2122C240.859 39.8087 242.021 40.5725 241.797 40.9085C241.573 41.2445 242.182 42.1648 243.149 42.9537C244.117 43.7427 245.194 45.8791 245.543 47.7C245.892 49.5218 246.472 51.0569 246.829 51.1114C247.187 51.1659 247.367 51.5076 247.23 51.8698C247.092 52.232 247.25 53.6163 247.581 54.9453C247.976 56.5362 247.753 59.926 246.927 64.8653C245.7 72.2048 244.97 74.502 244.153 73.5899C243.929 73.3401 243.552 74.0088 243.314 75.0736C243.076 76.1393 242.475 78.2905 241.978 79.8533C241.171 82.3908 241.255 82.7876 242.757 83.5586C243.683 84.0334 244.279 84.6664 244.082 84.9654C243.884 85.2646 244.724 85.6899 245.946 85.9124C248.339 86.3466 255.603 92.4736 257.034 95.2646C263.435 107.751 264.332 110.512 263.672 115.7C263.43 117.606 263.349 119.603 263.493 120.136C263.637 120.669 263.535 122.223 263.268 123.589C263 124.955 263.039 126.111 263.355 126.159C263.672 126.207 263.646 126.673 263.299 127.195C262.952 127.717 262.21 130.214 261.65 132.744C261.091 135.274 260.282 137.753 259.853 138.252C259.423 138.752 259.209 139.415 259.375 139.726C259.542 140.038 257.002 142.859 253.731 145.997C249.415 150.137 247.466 151.505 246.623 150.987C245.964 150.582 244.874 150.848 244.101 151.604C243.308 152.379 242.097 152.664 241.203 152.285C240.358 151.928 239.615 151.975 239.551 152.389C239.487 152.804 239.012 152.839 238.495 152.467C237.978 152.095 237.802 151.349 238.104 150.809C238.406 150.269 238.101 150.476 237.428 151.269C235.928 153.032 232.623 152.68 232.374 150.731C232.273 149.949 231.899 149.264 231.541 149.21C231.183 149.155 231.005 149.504 231.144 149.984C231.832 152.361 217.509 145.765 213.245 141.743C210.229 138.896 207.926 137.919 202.267 137.084C199.547 136.682 197.498 136.088 197.714 135.763C198.387 134.752 189.695 134.526 186.78 135.479C185.257 135.977 183.795 136.286 183.53 136.167C183.265 136.046 182.551 136.109 181.944 136.305C177.298 137.804 168.082 139.588 167.624 139.077C167.314 138.73 166.898 138.813 166.699 139.261C166.502 139.708 163.743 140.6 160.57 141.243C150.242 143.335 140.311 145.894 139.104 146.775C137.661 147.828 129.089 151.251 127.373 151.459C126.689 151.543 124.682 152.051 122.911 152.59C120.493 153.326 119.501 153.28 118.922 152.404C118.325 151.5 118.1 151.582 117.917 152.766C117.787 153.606 117.413 153.994 117.085 153.628C116.757 153.262 116.405 153.498 116.302 154.151C116.019 155.938 105.695 161.551 103.243 161.25C102.629 161.175 101.642 161.677 101.05 162.366C100.456 163.057 99.4681 163.306 98.8421 162.921C98.2193 162.538 97.4464 162.62 97.1245 163.103C96.8025 163.587 96.0146 163.902 95.3729 163.804C94.7312 163.706 92.9905 164.41 91.5045 165.369C90.0187 166.326 87.6415 167.505 86.222 167.987C84.8026 168.469 81.8132 169.974 79.579 171.331C77.3439 172.688 75.2429 173.756 74.9091 173.705C73.6558 173.515 67.0801 180.673 64.7712 184.741C58.0677 196.553 55.4008 199.957 50.3082 203.202C47.5549 204.956 45.008 206.346 44.6475 206.291C44.2878 206.236 43.9354 206.564 43.8651 207.019C43.6192 208.613 37.0183 210.864 34.1017 210.349C29.4309 209.525 28.6097 209.078 27.3567 206.68C26.7034 205.43 25.8467 204.357 25.4535 204.298C25.0596 204.238 24.805 203.755 24.8866 203.226C24.9682 202.698 24.6889 202.47 24.2658 202.722C23.8426 202.974 23.5617 202.757 23.6413 202.241C23.7211 201.724 22.9821 200.546 21.9991 199.621C21.0161 198.697 20.1353 197.002 20.0425 195.856C19.9491 194.709 19.5367 193.143 19.1262 192.376C18.7149 191.609 18.6114 190.632 18.896 190.205C19.1798 189.779 18.9934 189.365 18.4821 189.287C17.2335 189.097 17.7668 182.867 19.6081 176.125C20.5898 172.529 22.8856 168.089 24.6605 166.354C25.2364 165.792 26.6067 163.98 27.7055 162.329C29.2362 160.03 29.5676 159.011 29.1212 157.969C28.8006 157.221 28.7059 156.105 28.9108 155.488C29.39 154.045 25.4233 151.723 19.664 150.074C14.3704 148.559 11.9411 146.761 12.2742 144.602C12.4066 143.745 12.1327 142.463 11.6655 141.755C11.1984 141.047 10.9346 139.701 11.0793 138.763C11.2241 137.824 11.0969 137.019 10.7972 136.974C10.09 136.866 12.9858 118.609 13.9294 117.226C14.3248 116.647 14.4808 116.147 14.2767 116.116C13.6507 116.021 17.8611 107.582 19.4051 105.836C20.2032 104.933 21.0757 104.441 21.3451 104.742C21.6144 105.043 21.9335 104.651 22.0537 103.873C22.6886 99.7587 29.635 96.9123 35.9247 98.1893C38.3108 98.6736 40.2088 99.4183 40.1429 99.8453C40.0772 100.271 40.3457 100.429 40.7395 100.195C41.1335 99.9599 41.5702 100.164 41.7102 100.647C41.8501 101.13 43.0336 101.972 44.3398 102.518C45.6466 103.065 47.8723 104.453 49.2865 105.603C50.7005 106.754 53.3265 108.871 55.1223 110.31C56.9183 111.748 58.3347 113.263 58.2707 113.678C58.2068 114.092 58.3979 114.384 58.6944 114.328C58.9911 114.271 60.8986 115.665 62.9326 117.426C67.3743 121.269 71.6937 122.121 77.1724 120.233C80.7973 118.983 81.3489 118.858 83.8635 118.714C85.1874 118.638 88.3957 117.888 90.9939 117.048C93.5915 116.207 95.6885 115.703 95.6539 115.928C95.6191 116.153 97.1978 115.603 99.1614 114.705C101.125 113.808 104.04 112.75 105.638 112.354C107.236 111.959 108.912 111.352 109.361 111.006C109.811 110.66 110.97 110.28 111.937 110.162C112.904 110.043 117.79 108.685 122.793 107.142C127.797 105.6 132.095 104.567 132.346 104.847C132.596 105.126 132.979 104.93 133.198 104.41C133.439 103.838 134.29 103.82 135.356 104.367C136.347 104.875 136.858 105.656 136.527 106.154C136.175 106.682 136.31 106.817 136.863 106.488C137.523 106.095 137.633 105.573 137.243 104.666C136.849 103.745 137.032 103.123 137.907 102.411C138.571 101.871 139.065 101.786 139.003 102.223C138.942 102.659 139.221 102.533 139.624 101.941C140.026 101.349 141.316 100.918 142.488 100.982C143.66 101.047 144.54 100.821 144.441 100.479C144.343 100.138 145.137 99.7779 146.205 99.6793C147.273 99.5807 148.957 99.347 149.946 99.1611C150.936 98.9743 152.068 98.7674 152.462 98.7019C152.857 98.6365 154.376 97.9595 155.838 97.1993C159.694 95.1932 162.9 93.7864 163.708 93.7457C164.095 93.7266 165.316 93.3807 166.422 92.9772C167.527 92.5746 170.25 91.842 172.473 91.3493C179.232 89.8533 182.395 87.6291 183.017 83.9336C183.164 83.0606 183.612 82.3969 184.013 82.4579C184.437 82.5225 184.676 81.7621 184.585 80.6408C184.499 79.5805 184.802 78.2663 185.259 77.7212C185.716 77.1762 186.573 75.0239 187.165 72.9381C187.756 70.8522 188.427 69.3542 188.656 69.6093C188.884 69.8646 189.233 69.3969 189.429 68.5695C190.006 66.1522 190.831 63.6417 191.662 61.771C195.339 53.5026 202.345 40.3454 203.266 39.9817C203.577 39.858 203.939 39.0577 204.071 38.2028C204.203 37.3479 205.726 35.1714 207.454 33.3657C210.199 30.4976 212.538 29.3884 215.729 29.4439C216.208 29.4526 216.637 29.2205 216.682 28.9289C216.85 27.8423 226.133 29.5093 228.718 31.0904ZM221.748 33.9966C221.893 34.2678 222.857 34.7615 223.89 35.0946C227.645 36.3045 229.688 37.632 230.628 39.4722C231.421 41.0241 234.781 42.4853 235.936 41.7806C236.103 41.6778 236.71 42.3346 237.283 43.2393C237.856 44.1439 238.823 45.2193 239.433 45.6301C240.042 46.0401 240.433 47.0695 240.302 47.918C240.171 48.7666 240.313 49.2178 240.617 48.92C240.922 48.6224 241.738 50.1583 242.432 52.333C243.575 55.9198 243.571 56.8927 242.381 62.7919C241.659 66.3698 240.91 70.4226 240.717 71.8001C240.524 73.1776 240.072 74.2589 239.711 74.204C239.351 74.1491 239.057 74.4186 239.059 74.8021C239.061 75.1855 238.708 76.1965 238.277 77.0476C237.845 77.8986 237.632 78.8575 237.804 79.1784C237.976 79.4994 237.557 80.3088 236.874 80.9765C236.19 81.6442 235.703 82.749 235.79 83.4299C235.878 84.1119 235.636 84.7548 235.254 84.8593C234.383 85.0967 233.125 88.5448 232.513 92.3665C232.252 93.9977 231.597 95.4303 231.026 95.6204C230.464 95.8063 230.126 96.3778 230.274 96.8905C230.422 97.4022 229.852 98.1698 229.007 98.5963C227.716 99.2476 226.261 102.841 227.229 102.989C228.286 103.15 231.252 101.333 231.054 100.646C230.921 100.189 231.371 99.9001 232.053 100.004C232.915 100.135 233.745 99.0604 234.783 96.468C237.075 90.743 238.541 88.9736 240.271 89.8462C241.086 90.2557 242.072 91.0476 242.465 91.6049C242.857 92.163 243.827 92.4986 244.62 92.3516C245.413 92.2046 246.183 92.5033 246.332 93.0169C246.48 93.5295 246.984 93.8332 247.451 93.6905C247.918 93.5477 248.847 93.9608 249.516 94.6085C250.185 95.2562 251.165 95.9522 251.693 96.1554C253.34 96.7885 255.421 99.1586 254.951 99.8643C254.703 100.235 255.808 103.068 257.404 106.159C259.861 110.92 260.309 112.62 260.333 117.26C260.348 120.273 260.085 123.153 259.748 123.659C259.412 124.164 258.717 126.604 258.204 129.081C257.691 131.558 256.399 134.945 255.333 136.608C254.267 138.271 253.795 139.394 254.285 139.103C254.854 138.764 254.927 138.945 254.487 139.606C254.109 140.174 253.412 140.36 252.94 140.019C252.437 139.657 251.43 140.412 250.515 141.839C249.02 144.167 246.113 146.212 244.452 146.101C244.024 146.073 243.009 146.277 242.198 146.556C237.69 148.104 236.654 148.243 235.294 147.48C234.264 146.903 234.047 146.951 234.594 147.637C235.031 148.186 235.067 148.824 234.674 149.058C234.282 149.291 233.515 148.495 232.969 147.288C232.079 145.315 231.93 145.251 231.492 146.656C231.224 147.516 230.752 147.939 230.444 147.595C230.136 147.25 230.14 146.513 230.452 145.958C230.765 145.401 230.415 145.666 229.674 146.546C228.454 147.996 228.35 147.996 228.573 146.556C228.708 145.682 228.472 145.171 228.049 145.423C227.626 145.675 227.344 145.465 227.422 144.955C227.501 144.446 226.331 143.371 224.822 142.566C223.312 141.761 221.194 140.322 220.113 139.368C219.032 138.414 217.616 137.809 216.965 138.026C216.237 138.268 216.01 138.076 216.375 137.528C216.701 137.038 216.539 136.665 216.015 136.701C215.491 136.735 214.498 136.341 213.809 135.825C213.121 135.308 211.695 134.242 210.64 133.457C209.55 132.646 206.227 131.729 202.933 131.333C193.862 130.241 193.485 130.264 192.882 131.93C192.431 133.178 192.353 133.194 192.469 132.015C192.591 130.779 192.099 130.602 189.248 130.853C187.398 131.017 185.094 131.173 184.129 131.2C181.098 131.287 178.105 131.989 176.949 132.886C176.336 133.362 175.827 133.606 175.817 133.43C175.769 132.56 170.299 133.768 169.846 134.748C169.558 135.369 168.704 135.615 167.948 135.293C167.192 134.972 166.041 135.141 165.392 135.669C164.743 136.197 164.036 136.551 163.821 136.456C163.607 136.361 163.105 136.358 162.707 136.45C161.182 136.8 154.909 136.914 154.124 136.605C153.671 136.427 153.237 136.695 153.158 137.201C153.08 137.707 152.61 137.828 152.114 137.47C150.871 136.576 141.746 139.32 134.53 142.759C131.239 144.327 128.006 145.528 127.347 145.427C126.687 145.327 125.894 145.625 125.585 146.089C125.276 146.553 124.409 146.84 123.658 146.725C122.907 146.611 122.419 146.955 122.574 147.49C122.876 148.534 122.678 148.601 119.923 148.399C118.938 148.327 117.296 148.781 116.274 149.408C115.252 150.036 113.335 150.932 112.014 151.399C110.693 151.868 109.55 152.653 109.474 153.146C109.398 153.638 108.942 153.758 108.461 153.412C107.98 153.066 106.91 153.381 106.083 154.112C105.255 154.845 104.27 155.396 103.895 155.339C102.461 155.12 93.3077 158.293 93.191 159.049C93.1236 159.486 92.7848 159.527 92.4373 159.139C92.0905 158.752 90.5182 159.26 88.9441 160.269C80.5713 165.635 75.0107 168.547 68.5372 170.955C66.9821 171.533 65.2366 173.358 63.3303 176.398C61.7529 178.913 60.4194 181.247 60.3673 181.584C60.3153 181.921 59.4474 183.589 58.438 185.289C57.4287 186.989 56.7518 188.659 56.9342 188.998C57.1158 189.338 56.9395 189.566 56.5422 189.505C56.1449 189.445 55.4936 190.288 55.0955 191.377C54.3833 193.326 49.7667 197.003 45.6625 198.891C44.5141 199.419 43.5151 200.233 43.443 200.7C43.371 201.167 43.0803 201.289 42.7966 200.972C42.5129 200.656 40.7006 201.411 38.7702 202.65C34.1077 205.643 31.2709 204.788 27.9885 199.399C26.6771 197.248 24.6896 194.221 23.5713 192.676C21.7943 190.218 21.6106 189.345 22.1102 185.745C22.4249 183.479 22.9894 181.442 23.3648 181.22C23.7394 180.997 24.1674 179.373 24.3143 177.611C24.4617 175.85 24.8587 174.451 25.1973 174.502C25.5352 174.554 25.9003 174.022 26.0087 173.319C26.1171 172.617 27.5453 170.493 29.1825 168.6C30.8197 166.707 32.2499 164.571 32.3606 163.853C32.4714 163.135 33.0173 162.396 33.5733 162.211C34.1301 162.026 35.4146 160.173 36.4282 158.092C37.4641 155.966 38.8703 154.197 39.6378 154.055C40.7787 153.843 40.9263 153.471 40.5351 151.795C40.0845 149.866 39.9755 149.834 37.6422 150.964C36.3079 151.61 34.7419 152.733 34.1614 153.461C33.1998 154.667 33.1248 154.65 33.3172 153.272C33.8484 149.468 27.018 143.98 21.9525 144.142C21.2763 144.164 20.7907 143.747 20.8726 143.216C20.9547 142.685 20.4244 142.159 19.6946 142.048C18.1197 141.808 15.4105 137.799 15.4923 135.829C15.5234 135.067 15.3894 133.898 15.1931 133.232C14.664 131.431 16.7764 118.712 17.928 116.769C18.4768 115.844 19.0519 114.268 19.2066 113.266C19.576 110.872 23.4232 106.837 27.1701 104.915C29.423 103.759 31.4807 103.546 35.4758 104.054C38.397 104.426 40.7434 105.009 40.6908 105.35C40.535 106.359 49.956 114.204 51.9146 114.697C52.9053 114.946 53.5639 115.377 53.3799 115.655C53.1951 115.934 53.7185 116.816 54.5424 117.617C55.3663 118.417 55.9911 119.394 55.9305 119.787C55.8699 120.179 56.8541 120.933 58.1176 121.461C59.3812 121.989 60.3613 122.769 60.2957 123.194C59.8554 126.047 74.7237 128.547 78.3702 126.234C79.3306 125.625 80.9558 125.055 81.9818 124.966C85.7099 124.646 96.6434 121.432 100.698 119.464C102.983 118.355 105.06 117.459 105.314 117.473C105.567 117.488 106.053 117.228 106.392 116.896C106.732 116.565 107.551 116.376 108.212 116.476C108.874 116.577 109.925 116.161 110.549 115.551C111.173 114.941 112.711 114.304 113.967 114.136C115.441 113.939 116.141 113.427 115.938 112.696C115.765 112.071 116.056 112.201 116.586 112.983C117.265 113.988 117.597 114.09 117.714 113.333C117.805 112.743 118.12 112.528 118.414 112.855C118.918 113.419 127.121 111.185 130.637 109.527C131.53 109.106 132.554 109.09 132.914 109.49C133.287 109.907 133.666 109.571 133.8 108.706C133.958 107.681 134.364 107.43 135.057 107.928C135.619 108.334 136.481 108.354 136.971 107.976C137.461 107.597 139.141 107.145 140.705 106.973C144.025 106.608 143.733 106.672 146.222 105.749C147.293 105.353 149.491 104.77 151.109 104.454C152.727 104.138 154.267 103.554 154.533 103.154C154.799 102.755 156.136 102.324 157.505 102.196C158.997 102.055 160.076 101.432 160.198 100.641C160.385 99.4335 161.432 99.1113 163.683 99.5685C164.148 99.6636 164.584 99.3896 164.65 98.9599C164.716 98.5301 167.049 97.6377 169.834 96.9776C175.357 95.668 179.091 93.3551 178.592 91.5541C178.419 90.9289 178.725 91.0825 179.275 91.8933C180.162 93.2066 180.513 93.1159 182.467 91.0629C183.705 89.7636 184.706 89.2262 184.762 89.8327C184.832 90.5835 185.399 90.5676 186.64 89.7802C188.437 88.6405 191.324 82.2642 194.694 71.9965C195.574 69.3176 196.881 65.9599 197.6 64.5351C198.318 63.1102 199.62 60.5254 200.493 58.7911C201.366 57.0569 202.12 55.3706 202.171 55.0436C202.221 54.7165 203.176 52.7056 204.293 50.5743C205.518 48.2353 206.26 45.9166 206.163 44.7256C206.04 43.2013 206.223 42.9103 206.967 43.4458C207.542 43.8588 208.204 43.5478 208.609 42.674C208.982 41.8679 209.374 41.0256 209.48 40.8027C209.586 40.5789 210.517 39.5091 211.548 38.4248C212.58 37.3397 213.474 36.1358 213.533 35.7479C213.701 34.664 221.244 33.0559 221.748 33.9966ZM229.747 45.0066C230.708 45.6309 231.443 46.4645 231.382 46.8597C231.321 47.2558 232.155 47.9649 233.235 48.4363C235.311 49.342 235.47 49.9493 234.139 51.9086C233.5 52.8499 233.14 52.848 232.515 51.901C232.073 51.2321 231.468 50.9224 231.17 51.2137C230.872 51.5049 230.691 51.3369 230.768 50.8408C230.845 50.3439 229.958 49.9782 228.798 50.0265C227.477 50.081 226.749 49.7154 226.852 49.0486C226.943 48.4635 226.649 48.2021 226.2 48.4694C224.541 49.4562 221.24 49.198 221.41 48.095C221.502 47.4954 221.122 46.3979 220.564 45.6554C219.63 44.4122 219.707 44.2537 221.532 43.6511C223.439 43.022 225.621 43.4816 226.759 44.7532C227.058 45.086 227.459 45.0245 227.652 44.6158C227.843 44.207 228.786 44.3832 229.747 45.0066ZM214.697 46.3166C214.497 47.6149 214.109 48.0197 213.491 47.575C212.899 47.1491 212.638 47.3744 212.746 48.2204C212.838 48.9356 212.232 50.211 211.4 51.0541C209.99 52.4816 205.289 60.5408 202.678 66.006C201.401 68.6765 200.859 68.8189 199.386 66.8677C198.424 65.5932 198.484 65.3207 200.495 61.9223C201.665 59.9441 202.863 58.3626 203.157 58.4074C203.451 58.4523 203.609 57.8487 203.509 57.0663C203.408 56.2838 203.685 55.6982 204.122 55.7649C204.56 55.8315 204.817 55.534 204.692 55.105C204.567 54.6749 205.739 52.9705 207.296 51.3171C208.852 49.6628 210.002 48.2915 209.85 48.2684C209.699 48.2454 210.501 47.3214 211.632 46.2151C214.145 43.7581 215.087 43.79 214.697 46.3166ZM245.951 65.308C246.415 66.3894 246.325 66.837 245.562 67.2572C245.016 67.5572 244.849 67.5029 245.19 67.1364C245.532 66.77 245.554 65.8696 245.239 65.1354C244.924 64.4012 244.821 63.8237 245.008 63.8523C245.196 63.8809 245.62 64.536 245.951 65.308ZM194.963 65.5283C194.886 66.028 194.497 66.3872 194.1 66.3267C193.703 66.2662 193.63 65.8367 193.939 65.3723C194.248 64.908 194.636 64.5486 194.802 64.5739C194.968 64.5992 195.04 65.0286 194.963 65.5283ZM241.296 77.6999C241.18 78.4494 240.965 79.0443 240.817 79.0218C240.67 78.9994 240.467 78.3408 240.366 77.5583C240.266 76.7759 240.481 76.1811 240.844 76.2364C241.208 76.2918 241.411 76.9504 241.296 77.6999ZM242.859 103.791C243.707 104.519 245.023 106.155 245.784 107.429C246.544 108.703 247.499 109.796 247.907 109.858C248.315 109.92 249.212 111.103 249.901 112.486C250.59 113.87 250.909 114.965 250.61 114.919C250.311 114.874 250.306 115.397 250.6 116.082C251.656 118.546 252.441 127.103 251.78 128.933C251.381 130.035 250.555 130.719 249.766 130.598C248.657 130.429 248.545 129.865 249.114 127.295C249.491 125.589 249.623 123.866 249.409 123.465C249.194 123.064 249.134 121.986 249.275 121.07C249.417 120.154 249.258 119.363 248.923 119.312C248.589 119.261 248.28 118.167 248.237 116.882C248.194 115.597 247.826 114.495 247.417 114.433C246.637 114.314 242.596 108.94 240.945 105.827C240.413 104.822 240.314 104.052 240.727 104.115C241.139 104.178 241.349 103.791 241.194 103.256C240.859 102.096 240.889 102.106 242.859 103.791ZM159.017 108.297C158.94 108.797 158.53 109.411 158.107 109.663C157.684 109.915 157.401 109.712 157.478 109.212C157.555 108.712 157.964 108.098 158.388 107.846C158.811 107.594 159.094 107.797 159.017 108.297ZM156.52 109.119C156.716 109.798 156.573 109.925 156.147 109.449C155.759 109.016 155.178 109.275 154.826 110.035C154.48 110.781 153.923 111.35 153.588 111.299C152.534 111.139 153.129 109.864 154.696 108.921C155.807 108.253 156.284 108.305 156.52 109.119ZM149.883 110.772C149.587 111.218 149.695 111.636 150.124 111.702C150.553 111.767 150.697 112.312 150.444 112.913C150.004 113.959 149.721 114.05 147.274 113.941C146.624 113.912 146.313 114.374 146.495 115.101C146.662 115.766 146.361 115.551 145.829 114.624C144.641 112.559 145.295 111.453 148.202 110.608C149.518 110.226 150.203 110.292 149.883 110.772ZM144.496 113.401C144.627 113.854 144.361 114.775 143.903 115.448C143.447 116.121 143.125 116.301 143.189 115.848C143.253 115.395 142.566 115.68 141.661 116.483C140.143 117.83 139.949 117.815 139.136 116.296C138.322 114.777 138.414 114.626 140.336 114.321C141.48 114.139 142.831 113.672 143.337 113.285C143.844 112.896 144.364 112.948 144.496 113.401ZM190.871 132.786C190.794 133.286 190.442 133.651 190.089 133.597C189.735 133.543 189.32 133.061 189.165 132.526C189.01 131.991 189.362 131.627 189.947 131.716C190.532 131.805 190.949 132.287 190.871 132.786ZM235.958 150.503C235.17 151.064 234.054 151.404 233.478 151.257C232.664 151.049 232.711 150.937 233.689 150.756C234.382 150.627 234.996 150.211 235.054 149.831C235.113 149.452 235.663 149.217 236.275 149.311C237.24 149.458 237.198 149.618 235.958 150.503ZM123.095 150.257C123.59 150.824 123.604 151.355 123.13 151.637C122.706 151.89 122.277 151.458 122.177 150.679C121.967 149.041 122.014 149.02 123.095 150.257ZM52.8802 187.088C52.571 187.552 52.183 187.912 52.0171 187.886C51.8512 187.861 51.7791 187.432 51.8562 186.932C51.9334 186.432 52.322 186.073 52.7194 186.134C53.1167 186.194 53.1894 186.624 52.8802 187.088ZM49.7387 191.598C49.6334 192.28 48.7328 193.833 47.7375 195.048C46.205 196.919 45.789 197.053 45.023 195.923C44.3503 194.93 44.2039 194.896 44.4522 195.79C44.6815 196.614 44.4708 196.766 43.7842 196.27C42.5572 195.388 43.2579 193.433 44.6091 193.968C45.1438 194.18 46.15 193.392 46.847 192.217C48.1987 189.937 50.0564 189.539 49.7387 191.598ZM29.6022 192.786C30.4609 194.471 30.9709 196.037 30.7356 196.267C30.0872 196.901 27.2309 191.649 27.6636 190.62C27.8719 190.126 28.7436 191.102 29.6022 192.786ZM42.3656 195.353C43.0865 196.699 42.2679 199.345 40.933 199.986C40.2063 200.335 38.2994 200.684 36.6941 200.763C34.4166 200.875 33.7345 200.582 33.5862 199.429C33.4817 198.616 33.0842 198.136 32.7025 198.363C32.3209 198.591 31.928 198.152 31.8299 197.389C31.577 195.415 32.3362 195.205 36.5042 196.095C38.984 196.625 40.4811 196.512 41.0813 195.752C41.5727 195.13 42.1503 194.95 42.3656 195.353Z" fill="#675A4B"/>
<path fill-rule="evenodd" clip-rule="evenodd" d="M221.748 33.9966C221.893 34.2678 222.857 34.7615 223.89 35.0946C227.645 36.3045 229.688 37.632 230.628 39.4722C231.421 41.0241 234.781 42.4853 235.936 41.7806C236.103 41.6778 236.71 42.3346 237.283 43.2393C237.856 44.1439 238.823 45.2193 239.433 45.6301C240.042 46.0401 240.433 47.0695 240.302 47.918C240.171 48.7666 240.313 49.2178 240.617 48.92C240.922 48.6224 241.738 50.1583 242.432 52.333C243.575 55.9198 243.571 56.8927 242.381 62.7919C241.659 66.3698 240.91 70.4226 240.717 71.8001C240.524 73.1776 240.072 74.2589 239.711 74.204C239.351 74.1491 239.057 74.4186 239.059 74.8021C239.061 75.1855 238.708 76.1965 238.277 77.0476C237.845 77.8986 237.632 78.8575 237.804 79.1784C237.976 79.4994 237.557 80.3088 236.874 80.9765C236.19 81.6442 235.703 82.749 235.79 83.4299C235.878 84.1119 235.636 84.7548 235.254 84.8593C234.383 85.0967 233.125 88.5448 232.513 92.3665C232.252 93.9977 231.597 95.4303 231.026 95.6204C230.464 95.8063 230.126 96.3778 230.274 96.8905C230.422 97.4022 229.852 98.1698 229.007 98.5963C227.716 99.2476 226.261 102.841 227.229 102.989C228.286 103.15 231.252 101.333 231.054 100.646C230.921 100.189 231.371 99.9001 232.053 100.004C232.915 100.135 233.745 99.0604 234.783 96.468C237.075 90.743 238.541 88.9736 240.271 89.8462C241.086 90.2557 242.072 91.0476 242.465 91.6049C242.857 92.163 243.827 92.4986 244.62 92.3516C245.413 92.2046 246.183 92.5033 246.332 93.0169C246.48 93.5295 246.984 93.8332 247.451 93.6905C247.918 93.5477 248.847 93.9608 249.516 94.6085C250.185 95.2562 251.165 95.9522 251.693 96.1554C253.34 96.7885 255.421 99.1586 254.951 99.8643C254.703 100.235 255.808 103.068 257.404 106.159C259.861 110.92 260.309 112.62 260.333 117.26C260.348 120.273 260.085 123.153 259.748 123.659C259.412 124.164 258.717 126.604 258.204 129.081C257.691 131.558 256.399 134.945 255.333 136.608C254.267 138.271 253.795 139.394 254.285 139.103C254.854 138.764 254.927 138.945 254.487 139.606C254.109 140.174 253.412 140.36 252.94 140.019C252.437 139.657 251.43 140.412 250.515 141.839C249.02 144.167 246.113 146.212 244.452 146.101C244.024 146.073 243.009 146.277 242.198 146.556C237.69 148.104 236.654 148.243 235.294 147.48C234.264 146.903 234.047 146.951 234.594 147.637C235.031 148.186 235.067 148.824 234.674 149.058C234.282 149.291 233.515 148.495 232.969 147.288C232.079 145.315 231.93 145.251 231.492 146.656C231.224 147.516 230.752 147.939 230.444 147.595C230.136 147.25 230.14 146.513 230.452 145.958C230.765 145.401 230.415 145.666 229.674 146.546C228.454 147.996 228.35 147.996 228.573 146.556C228.708 145.682 228.472 145.171 228.049 145.423C227.626 145.675 227.344 145.465 227.422 144.955C227.501 144.446 226.331 143.371 224.822 142.566C223.312 141.761 221.194 140.322 220.113 139.368C219.032 138.414 217.616 137.809 216.965 138.026C216.237 138.268 216.01 138.076 216.375 137.528C216.701 137.038 216.539 136.665 216.015 136.701C215.491 136.735 214.498 136.341 213.809 135.825C213.121 135.308 211.695 134.242 210.64 133.457C209.55 132.646 206.227 131.729 202.933 131.333C193.862 130.241 193.485 130.264 192.882 131.93C192.431 133.178 192.353 133.194 192.469 132.015C192.591 130.779 192.099 130.602 189.248 130.853C187.398 131.017 185.094 131.173 184.129 131.2C181.098 131.287 178.105 131.989 176.949 132.886C176.336 133.362 175.827 133.606 175.817 133.43C175.769 132.56 170.299 133.768 169.846 134.748C169.558 135.369 168.704 135.615 167.948 135.293C167.192 134.972 166.041 135.141 165.392 135.669C164.743 136.197 164.036 136.551 163.821 136.456C163.607 136.361 163.105 136.358 162.707 136.45C161.182 136.8 154.909 136.914 154.124 136.605C153.671 136.427 153.237 136.695 153.158 137.201C153.08 137.707 152.61 137.828 152.114 137.47C150.871 136.576 141.746 139.32 134.53 142.759C131.239 144.327 128.006 145.528 127.347 145.427C126.687 145.327 125.894 145.625 125.585 146.089C125.276 146.553 124.409 146.84 123.658 146.725C122.907 146.611 122.419 146.955 122.574 147.49C122.876 148.534 122.678 148.601 119.923 148.399C118.938 148.327 117.296 148.781 116.274 149.408C115.252 150.036 113.335 150.932 112.014 151.399C110.693 151.868 109.55 152.653 109.474 153.146C109.398 153.638 108.942 153.758 108.461 153.412C107.98 153.066 106.91 153.381 106.083 154.112C105.255 154.845 104.27 155.396 103.895 155.339C102.461 155.12 93.3077 158.293 93.191 159.049C93.1236 159.486 92.7848 159.527 92.4373 159.139C92.0905 158.752 90.5182 159.26 88.9441 160.269C80.5713 165.635 75.0107 168.547 68.5372 170.955C66.9821 171.533 65.2366 173.358 63.3303 176.398C61.7529 178.913 60.4194 181.247 60.3673 181.584C60.3153 181.921 59.4474 183.589 58.438 185.289C57.4287 186.989 56.7518 188.659 56.9342 188.998C57.1158 189.338 56.9395 189.566 56.5422 189.505C56.1449 189.445 55.4936 190.288 55.0955 191.377C54.3833 193.326 49.7667 197.003 45.6625 198.891C44.5141 199.419 43.5151 200.233 43.443 200.7C43.371 201.167 43.0803 201.289 42.7966 200.972C42.5129 200.656 40.7006 201.411 38.7702 202.65C34.1077 205.643 31.2709 204.788 27.9885 199.399C26.6771 197.248 24.6896 194.221 23.5713 192.676C21.7943 190.218 21.6106 189.345 22.1102 185.745C22.4249 183.479 22.9894 181.442 23.3648 181.22C23.7394 180.997 24.1674 179.373 24.3143 177.611C24.4617 175.85 24.8587 174.451 25.1973 174.502C25.5352 174.554 25.9003 174.022 26.0087 173.319C26.1171 172.617 27.5453 170.493 29.1825 168.6C30.8197 166.707 32.2499 164.571 32.3606 163.853C32.4714 163.135 33.0173 162.396 33.5733 162.211C34.1301 162.026 35.4146 160.173 36.4282 158.092C37.4641 155.966 38.8703 154.197 39.6378 154.055C40.7787 153.843 40.9263 153.471 40.5351 151.795C40.0845 149.866 39.9755 149.834 37.6422 150.964C36.3079 151.61 34.7419 152.733 34.1614 153.461C33.1998 154.667 33.1248 154.65 33.3172 153.272C33.8484 149.468 27.018 143.98 21.9525 144.142C21.2763 144.164 20.7907 143.747 20.8726 143.216C20.9547 142.685 20.4244 142.159 19.6946 142.048C18.1197 141.808 15.4105 137.799 15.4923 135.829C15.5234 135.067 15.3894 133.898 15.1931 133.232C14.664 131.431 16.7764 118.712 17.928 116.769C18.4768 115.844 19.0519 114.268 19.2066 113.266C19.576 110.872 23.4232 106.837 27.1701 104.915C29.423 103.759 31.4807 103.546 35.4758 104.054C38.397 104.426 40.7434 105.009 40.6908 105.35C40.535 106.359 49.956 114.204 51.9146 114.697C52.9053 114.946 53.5639 115.377 53.3799 115.655C53.1951 115.934 53.7185 116.816 54.5424 117.617C55.3663 118.417 55.9911 119.394 55.9305 119.787C55.8699 120.179 56.8541 120.933 58.1176 121.461C59.3812 121.989 60.3613 122.769 60.2957 123.194C59.8554 126.047 74.7237 128.547 78.3702 126.234C79.3306 125.625 80.9558 125.055 81.9818 124.966C85.7099 124.646 96.6434 121.432 100.698 119.464C102.983 118.355 105.06 117.459 105.314 117.473C105.567 117.488 106.053 117.228 106.392 116.896C106.732 116.565 107.551 116.376 108.212 116.476C108.874 116.577 109.925 116.161 110.549 115.551C111.173 114.941 112.711 114.304 113.967 114.136C115.441 113.939 116.141 113.427 115.938 112.696C115.765 112.071 116.056 112.201 116.586 112.983C117.265 113.988 117.597 114.09 117.714 113.333C117.805 112.743 118.12 112.528 118.414 112.855C118.918 113.419 127.121 111.185 130.637 109.527C131.53 109.106 132.554 109.09 132.914 109.49C133.287 109.907 133.666 109.571 133.8 108.706C133.958 107.681 134.364 107.43 135.057 107.928C135.619 108.334 136.481 108.354 136.971 107.976C137.461 107.597 139.141 107.145 140.705 106.973C144.025 106.608 143.733 106.672 146.222 105.749C147.293 105.353 149.491 104.77 151.109 104.454C152.727 104.138 154.267 103.554 154.533 103.154C154.799 102.755 156.136 102.324 157.505 102.196C158.997 102.055 160.076 101.432 160.198 100.641C160.385 99.4335 161.432 99.1113 163.683 99.5685C164.148 99.6636 164.584 99.3896 164.65 98.9599C164.716 98.5301 167.049 97.6377 169.834 96.9776C175.357 95.668 179.091 93.3551 178.592 91.5541C178.419 90.9289 178.725 91.0825 179.275 91.8933C180.162 93.2066 180.513 93.1159 182.467 91.0629C183.705 89.7636 184.706 89.2262 184.762 89.8327C184.832 90.5835 185.399 90.5676 186.64 89.7802C188.437 88.6405 191.324 82.2642 194.694 71.9965C195.574 69.3176 196.881 65.9599 197.6 64.5351C198.318 63.1102 199.62 60.5254 200.493 58.7911C201.366 57.0569 202.12 55.3706 202.171 55.0436C202.221 54.7165 203.176 52.7056 204.293 50.5743C205.518 48.2353 206.26 45.9166 206.163 44.7256C206.04 43.2013 206.223 42.9103 206.967 43.4458C207.542 43.8588 208.204 43.5478 208.609 42.674C208.982 41.8679 209.374 41.0256 209.48 40.8027C209.586 40.5789 210.517 39.5091 211.548 38.4248C212.58 37.3397 213.474 36.1358 213.533 35.7479C213.701 34.664 221.244 33.0559 221.748 33.9966ZM231.382 46.8597C231.443 46.4645 230.708 45.6309 229.747 45.0066C228.786 44.3832 227.843 44.207 227.652 44.6158C227.459 45.0245 227.058 45.086 226.759 44.7532C225.621 43.4816 223.439 43.022 221.532 43.6511C219.707 44.2537 219.63 44.4122 220.564 45.6554C221.122 46.3979 221.502 47.4954 221.41 48.095C221.24 49.198 224.541 49.4562 226.2 48.4694C226.649 48.2021 226.943 48.4635 226.852 49.0486C226.749 49.7154 227.477 50.081 228.798 50.0265C229.958 49.9782 230.845 50.3439 230.768 50.8408C230.691 51.3369 230.872 51.5049 231.17 51.2137C231.468 50.9224 232.073 51.2321 232.515 51.901C233.14 52.848 233.5 52.8499 234.139 51.9086C235.47 49.9493 235.311 49.342 233.235 48.4363C232.155 47.9649 231.321 47.2558 231.382 46.8597ZM213.491 47.575C214.109 48.0197 214.497 47.6149 214.697 46.3166C215.087 43.79 214.145 43.7581 211.632 46.2151C210.501 47.3214 209.699 48.2454 209.85 48.2684C210.002 48.2915 208.852 49.6628 207.296 51.3171C205.739 52.9705 204.567 54.6749 204.692 55.105C204.817 55.534 204.56 55.8315 204.122 55.7649C203.685 55.6982 203.408 56.2838 203.509 57.0663C203.609 57.8487 203.451 58.4523 203.157 58.4074C202.863 58.3626 201.665 59.9441 200.495 61.9223C198.484 65.3207 198.424 65.5932 199.386 66.8677C200.859 68.8189 201.401 68.6765 202.678 66.006C205.289 60.5408 209.99 52.4816 211.4 51.0541C212.232 50.211 212.838 48.9356 212.746 48.2204C212.638 47.3744 212.899 47.1491 213.491 47.575ZM245.784 107.429C245.023 106.155 243.707 104.519 242.859 103.791C240.889 102.106 240.859 102.096 241.194 103.256C241.349 103.791 241.139 104.178 240.727 104.115C240.314 104.052 240.413 104.822 240.945 105.827C242.596 108.94 246.637 114.314 247.417 114.433C247.826 114.495 248.194 115.597 248.237 116.882C248.28 118.167 248.589 119.261 248.923 119.312C249.258 119.363 249.417 120.154 249.275 121.07C249.134 121.986 249.194 123.064 249.409 123.465C249.623 123.866 249.491 125.589 249.114 127.295C248.545 129.865 248.657 130.429 249.766 130.598C250.555 130.719 251.381 130.035 251.78 128.933C252.441 127.103 251.656 118.546 250.6 116.082C250.306 115.397 250.311 114.874 250.61 114.919C250.909 114.965 250.59 113.87 249.901 112.486C249.212 111.103 248.315 109.92 247.907 109.858C247.499 109.796 246.544 108.703 245.784 107.429ZM158.107 109.663C158.53 109.411 158.94 108.797 159.017 108.297C159.094 107.797 158.811 107.594 158.388 107.846C157.964 108.098 157.555 108.712 157.478 109.212C157.401 109.712 157.684 109.915 158.107 109.663ZM156.147 109.449C156.573 109.925 156.716 109.798 156.52 109.119C156.284 108.305 155.807 108.253 154.696 108.921C153.129 109.864 152.534 111.139 153.588 111.299C153.923 111.35 154.48 110.781 154.826 110.035C155.178 109.275 155.759 109.016 156.147 109.449ZM150.124 111.702C149.695 111.636 149.587 111.218 149.883 110.772C150.203 110.292 149.518 110.226 148.202 110.608C145.295 111.453 144.641 112.559 145.829 114.624C146.361 115.551 146.662 115.766 146.495 115.101C146.313 114.374 146.624 113.912 147.274 113.941C149.721 114.05 150.004 113.959 150.444 112.913C150.697 112.312 150.553 111.767 150.124 111.702ZM143.903 115.448C144.361 114.775 144.627 113.854 144.496 113.401C144.364 112.948 143.844 112.896 143.337 113.285C142.831 113.672 141.48 114.139 140.336 114.321C138.414 114.626 138.322 114.777 139.136 116.296C139.949 117.815 140.143 117.83 141.661 116.483C142.566 115.68 143.253 115.395 143.189 115.848C143.125 116.301 143.447 116.121 143.903 115.448ZM52.0171 187.886C52.183 187.912 52.571 187.552 52.8802 187.088C53.1894 186.624 53.1167 186.194 52.7194 186.134C52.322 186.073 51.9334 186.432 51.8562 186.932C51.7791 187.432 51.8512 187.861 52.0171 187.886ZM47.7375 195.048C48.7328 193.833 49.6334 192.28 49.7387 191.598C50.0564 189.539 48.1987 189.937 46.847 192.217C46.15 193.392 45.1438 194.18 44.6091 193.968C43.2579 193.433 42.5572 195.388 43.7842 196.27C44.4708 196.766 44.6815 196.614 44.4522 195.79C44.2039 194.896 44.3503 194.93 45.023 195.923C45.789 197.053 46.205 196.919 47.7375 195.048ZM30.7356 196.267C30.9709 196.037 30.4609 194.471 29.6022 192.786C28.7436 191.102 27.8719 190.126 27.6636 190.62C27.2309 191.649 30.0872 196.901 30.7356 196.267ZM40.933 199.986C42.2679 199.345 43.0865 196.699 42.3656 195.353C42.1503 194.95 41.5727 195.13 41.0813 195.752C40.4811 196.512 38.984 196.625 36.5042 196.095C32.3362 195.205 31.577 195.415 31.8299 197.389C31.928 198.152 32.3209 198.591 32.7025 198.363C33.0842 198.136 33.4817 198.616 33.5862 199.429C33.7345 200.582 34.4166 200.875 36.6941 200.763C38.2994 200.684 40.2063 200.335 40.933 199.986Z" fill="#C2A687"/>
</svg>
