<svg width="379" height="243" viewBox="0 0 379 243" fill="none" xmlns="http://www.w3.org/2000/svg">
<path fill-rule="evenodd" clip-rule="evenodd" d="M370.838 93.2119C371.829 95.4488 373.031 97.2276 373.506 97.1643C373.981 97.1011 373.732 97.7023 372.952 98.5012C372.025 99.4515 372.189 100.985 373.428 102.941C374.469 104.583 375.016 106.24 374.643 106.622C374.27 107.004 375.132 108.984 376.558 111.021C377.985 113.058 378.724 114.879 378.203 115.067C377.681 115.255 377.661 116.788 378.156 118.474C378.652 120.161 378.217 123.441 377.19 125.762C376.163 128.084 375.626 130.278 375.995 130.637C376.365 130.996 376.304 131.527 375.862 131.817C375.419 132.106 374.514 133.78 373.852 135.537C373.06 137.641 370.143 141.233 365.316 146.049C358.144 153.206 355.5 155.157 355.274 153.459C355.213 152.994 354.254 153.425 353.145 154.414C352.034 155.403 349.653 157.299 347.855 158.626C344.935 160.782 344.719 161.293 345.846 163.406C346.54 164.708 346.73 165.911 346.267 166.079C345.806 166.248 346.439 167.422 347.673 168.69C350.089 171.171 353.65 184.06 353.109 188.365C350.687 207.622 349.553 211.447 344.722 216.68C342.947 218.602 341.288 220.76 341.035 221.475C340.783 222.189 339.447 223.836 338.067 225.136C336.686 226.435 335.825 227.756 336.151 228.074C336.477 228.391 336.083 228.889 335.273 229.181C334.464 229.473 331.65 231.637 329.02 233.991C326.391 236.345 323.513 238.433 322.627 238.631C321.74 238.83 320.973 239.39 320.921 239.875C320.868 240.361 315.728 241.387 309.498 242.156C301.278 243.17 297.959 243.069 297.394 241.789C296.952 240.786 295.489 240.175 294.004 240.372C292.483 240.575 290.864 239.882 290.131 238.714C289.439 237.611 288.545 237.043 288.146 237.451C287.747 237.86 287.173 237.503 286.869 236.657C286.565 235.811 286.947 234.832 287.719 234.483C288.49 234.133 287.978 234.109 286.58 234.431C283.469 235.146 279.937 231.997 281.179 229.616C281.677 228.66 281.782 227.584 281.413 227.225C281.044 226.866 280.565 227.106 280.348 227.757C279.276 230.98 267.95 211.679 266.194 203.64C264.953 197.951 263.066 194.939 257.202 189.288C254.384 186.571 252.489 184.199 252.993 184.017C254.561 183.452 244.724 175.949 240.619 174.579C238.474 173.864 236.547 172.989 236.335 172.634C236.124 172.279 235.252 171.753 234.4 171.465C227.871 169.261 215.854 163.561 215.727 162.608C215.642 161.964 215.098 161.709 214.518 162.042C213.939 162.377 210.061 161.069 205.901 159.138C192.362 152.854 178.913 147.422 176.831 147.396C174.342 147.366 161.781 144.03 159.641 142.831C158.787 142.354 156.075 141.246 153.613 140.369C150.25 139.173 149.142 138.293 149.163 136.835C149.185 135.329 148.861 135.231 147.721 136.399C146.913 137.227 146.177 137.348 146.086 136.666C145.996 135.985 145.405 135.953 144.773 136.596C143.045 138.351 126.748 135.995 124.159 133.613C123.511 133.018 121.981 132.754 120.758 133.028C119.531 133.303 118.197 132.756 117.778 131.805C117.361 130.859 116.406 130.305 115.657 130.575C114.906 130.846 113.751 130.54 113.088 129.895C112.426 129.251 109.868 128.583 107.404 128.412C104.941 128.24 101.278 127.57 99.2643 126.923C97.2508 126.277 92.626 125.46 88.9875 125.108C85.3475 124.757 82.0889 124.195 81.7442 123.86C80.45 122.601 67.2582 125.094 61.4064 127.702C44.4156 135.276 38.672 136.846 30.2596 136.213C25.7109 135.872 21.6861 135.297 21.314 134.935C20.9425 134.574 20.2795 134.645 19.8414 135.094C18.3078 136.665 8.93708 133.667 5.98099 130.66C1.24635 125.845 0.650809 124.662 1.08912 120.943C1.3171 119.005 1.17158 117.095 0.765564 116.7C0.358846 116.305 0.443925 115.555 0.952808 115.033C1.46169 114.512 1.31851 114.025 0.633541 113.953C-0.0514299 113.881 -0.205076 113.405 0.291565 112.896C0.789081 112.386 0.862071 110.456 0.454853 108.606C0.0476349 106.756 0.363171 104.131 1.15519 102.777C1.94738 101.421 2.70065 99.3315 2.82983 98.1338C2.95743 96.9362 3.60496 95.7606 4.26802 95.5219C4.9295 95.2834 5.03906 94.6673 4.5111 94.1539C3.22187 92.9003 8.72497 86.4003 16.136 80.4215C20.0878 77.2334 26.2164 74.1995 29.6229 73.746C30.7275 73.5997 33.7277 72.7234 36.2886 71.8003C39.8559 70.5149 41.0378 69.6546 41.3407 68.1212C41.5584 67.0199 42.3244 65.6975 43.0445 65.1809C44.7293 63.9716 41.9811 58.0746 36.6399 51.4319C31.7298 45.3272 30.3421 41.2962 32.4196 39.168C33.245 38.3225 33.9347 36.6659 33.9521 35.4869C33.9696 34.3078 34.7222 32.5868 35.6245 31.6625C36.5278 30.7372 37.0129 29.7336 36.7035 29.4327C35.9732 28.7226 53.634 10.789 55.8063 10.0345C56.7157 9.71942 57.2876 9.29256 57.0769 9.08762C56.4305 8.4591 67.9024 2.56541 71.0514 1.90689C72.6788 1.56708 74.0699 1.74655 74.1446 2.30625C74.2184 2.86684 74.8937 2.69588 75.643 1.92828C79.6022 -2.12737 89.8382 0.49495 96.0824 7.16548C98.4513 9.69592 100.054 12.1094 99.6427 12.5304C99.2326 12.9505 99.4187 13.3496 100.056 13.4175C100.694 13.4845 101.037 14.0763 100.82 14.731C100.601 15.3865 101.304 17.3129 102.381 19.0109C103.457 20.7105 104.932 24.1143 105.659 26.5758C106.385 29.0382 107.749 33.589 108.689 36.6907C109.63 39.7916 110.073 42.6627 109.674 43.0712C109.275 43.4796 109.266 43.9647 109.652 44.1495C110.038 44.3334 111.142 47.4788 112.104 51.1379C114.205 59.1276 118.514 63.68 126.307 66.1459C131.464 67.7768 132.197 68.0984 135.207 70.0354C136.792 71.0548 141.077 72.8954 144.729 74.1266C148.381 75.3562 151.192 76.5443 150.976 76.7655C150.76 76.9876 153.01 77.6917 155.976 78.3292C158.943 78.9668 163.131 80.2194 165.282 81.1119C167.434 82.0045 169.84 82.7259 170.63 82.7151C171.419 82.7042 173.052 83.2481 174.26 83.9228C175.467 84.5974 182.161 87.1589 189.135 89.6139C196.11 92.0696 201.872 94.5043 201.941 95.0251C202.011 95.5449 202.606 95.6456 203.267 95.249C203.993 94.8118 204.987 95.5023 205.786 97.0004C206.53 98.3937 206.506 99.6905 205.733 99.9695C204.913 100.265 204.963 100.528 205.859 100.622C206.927 100.735 207.463 100.244 207.726 98.9093C207.994 97.5535 208.694 97.0131 210.26 96.9495C211.449 96.901 212.085 97.2186 211.67 97.654C211.258 98.0892 211.678 98.1813 212.607 97.8573C213.534 97.5335 215.358 98.1285 216.658 99.178C217.958 100.228 219.149 100.71 219.304 100.247C219.458 99.7847 220.655 100.045 221.963 100.827C223.271 101.608 225.394 102.752 226.679 103.37C227.966 103.987 229.433 104.702 229.939 104.958C230.444 105.214 232.726 105.727 235.007 106.099C241.023 107.08 245.82 108.186 246.783 108.815C247.244 109.117 248.922 109.75 250.512 110.222C252.101 110.695 255.814 112.151 258.762 113.456C267.722 117.427 273.111 117.587 276.727 113.987C277.582 113.136 278.618 112.77 279.032 113.172C279.469 113.598 280.342 112.95 281.117 111.624C281.849 110.371 283.23 109.159 284.184 108.932C285.138 108.706 287.815 107.023 290.133 105.191C292.45 103.359 294.399 102.25 294.462 102.724C294.525 103.2 295.293 102.969 296.169 102.211C298.73 99.9975 301.65 97.8873 304.076 96.496C314.798 90.3467 333.193 81.5262 334.54 81.8893C334.995 82.011 336.041 81.4213 336.863 80.5785C337.686 79.7356 341.148 78.5796 344.556 78.009C349.968 77.102 353.534 77.8173 357.166 80.5411C357.711 80.9501 358.387 81.0494 358.668 80.7619C359.714 79.6907 369.101 89.2936 370.838 93.2119ZM360.528 90.6368C360.482 91.0599 361.206 92.4145 362.134 93.6475C365.512 98.129 366.823 101.313 366.463 104.148C366.159 106.54 368.883 110.971 370.766 111.149C371.04 111.174 371.223 112.412 371.173 113.899C371.124 115.385 371.395 117.391 371.774 118.357C372.155 119.323 371.798 120.796 370.981 121.633C370.164 122.469 369.974 123.091 370.558 123.012C371.142 122.934 370.878 125.328 369.97 128.33C368.474 133.282 367.705 134.363 361.705 139.945C358.066 143.331 354.024 147.224 352.721 148.598C351.418 149.973 350.048 150.8 349.676 150.438C349.304 150.076 348.754 150.132 348.455 150.561C348.157 150.99 346.957 151.823 345.792 152.411C344.627 153 343.629 153.891 343.575 154.392C343.522 154.893 342.404 155.446 341.093 155.62C339.782 155.794 338.354 156.619 337.92 157.451C337.486 158.284 336.703 158.799 336.18 158.596C334.991 158.134 330.836 160.928 327.133 164.678C325.553 166.278 323.674 167.329 322.866 167.064C322.073 166.802 321.235 167.157 321.004 167.853C320.773 168.546 319.514 168.926 318.206 168.697C316.207 168.346 311.712 171.138 312.71 172.109C313.802 173.171 318.645 173.62 318.955 172.689C319.161 172.068 319.906 172.122 320.61 172.807C321.5 173.672 323.3 173.167 326.53 171.143C333.662 166.674 336.74 165.925 338.048 168.341C338.665 169.477 339.181 171.182 339.196 172.131C339.209 173.08 340.063 174.263 341.092 174.761C342.121 175.259 342.774 176.234 342.542 176.931C342.311 177.626 342.654 178.385 343.304 178.616C343.954 178.846 344.7 180.082 344.962 181.361C345.224 182.641 345.807 184.234 346.256 184.901C347.657 186.981 348.195 191.359 347.099 191.753C346.524 191.96 345.573 196.039 344.986 200.816C344.082 208.172 343.265 210.442 339.651 215.633C337.304 219.004 334.742 221.995 333.957 222.278C333.173 222.56 330.458 224.699 327.923 227.032C325.389 229.366 321.244 232.064 318.71 233.028C316.178 233.992 314.753 234.85 315.545 234.934C316.467 235.031 316.409 235.294 315.383 235.663C314.503 235.981 313.554 235.607 313.277 234.833C312.981 234.009 311.229 234.011 309.056 234.838C305.507 236.187 300.554 236.04 298.727 234.531C298.255 234.143 296.926 233.524 295.772 233.158C289.365 231.123 288.062 230.413 287.095 228.428C286.361 226.926 286.072 226.799 286.165 228.02C286.238 228.995 285.778 229.738 285.142 229.67C284.507 229.603 284.248 228.075 284.567 226.274C285.089 223.332 284.967 223.137 283.36 224.338C282.377 225.074 281.502 225.151 281.417 224.51C281.332 223.869 281.914 223.051 282.711 222.692C283.508 222.333 282.896 222.336 281.353 222.699C278.809 223.297 278.69 223.211 280.076 221.791C280.917 220.929 281.046 220.164 280.361 220.092C279.676 220.019 279.516 219.549 280.007 219.047C280.497 218.545 279.992 216.371 278.885 214.215C277.777 212.059 276.466 208.687 275.97 206.722C275.473 204.757 274.315 202.901 273.396 202.6C272.367 202.262 272.256 201.859 273.106 201.553C273.867 201.278 273.973 200.728 273.341 200.33C272.71 199.931 271.875 198.664 271.487 197.513C271.099 196.363 270.293 193.986 269.694 192.23C269.075 190.417 265.965 186.623 262.481 183.433C252.888 174.649 252.435 174.359 250.434 175.715C248.935 176.729 248.832 176.681 249.891 175.464C251.001 174.189 250.573 173.58 247.092 171.482C244.832 170.121 242.056 168.373 240.922 167.599C237.363 165.166 233.363 163.453 231.327 163.488C230.248 163.507 229.47 163.354 229.597 163.149C230.224 162.141 222.975 158.924 221.683 159.637C220.864 160.089 219.687 159.651 219.069 158.661C218.45 157.672 216.993 156.901 215.829 156.948C214.668 156.995 213.575 156.8 213.403 156.515C213.23 156.23 212.655 155.808 212.124 155.578C210.092 154.697 202.776 149.591 202.114 148.591C201.731 148.015 201.021 147.951 200.534 148.45C200.047 148.949 199.411 148.691 199.119 147.879C198.389 145.845 185.724 141.291 174.711 139.104C169.69 138.106 165.024 136.748 164.343 136.086C163.662 135.424 162.515 135.094 161.794 135.354C161.074 135.614 159.85 135.209 159.074 134.455C158.299 133.701 157.467 133.678 157.226 134.404C156.755 135.819 156.474 135.729 153.459 133.206C152.38 132.304 150.132 131.439 148.463 131.286C146.793 131.133 143.881 130.532 141.993 129.952C140.104 129.372 138.17 129.293 137.696 129.779C137.222 130.264 136.603 130.018 136.321 129.231C136.038 128.444 134.558 127.902 133.031 128.027C131.503 128.153 129.936 127.946 129.549 127.569C128.068 126.13 115.033 122.03 114.305 122.775C113.885 123.206 113.463 122.969 113.367 122.247C113.271 121.525 111.061 120.78 108.456 120.591C94.5999 119.587 85.9084 118.195 76.5613 115.478C74.3165 114.825 70.8733 115.403 66.2923 117.201C62.5018 118.688 59.1338 120.178 58.8094 120.51C58.485 120.843 56.177 121.977 53.68 123.03C51.183 124.083 49.0935 125.379 49.0374 125.91C48.9798 126.44 48.5978 126.547 48.1876 126.148C47.7773 125.749 46.3658 126.145 45.0523 127.028C42.703 128.605 34.499 128.853 28.2899 127.533C26.5525 127.163 24.763 127.237 24.3136 127.697C23.8642 128.158 23.4334 128.052 23.3549 127.462C23.2765 126.872 20.5961 126.202 17.3998 125.973C9.68031 125.419 7.08306 122.099 7.52926 113.355C7.70667 109.863 7.79138 104.832 7.71569 102.176C7.59694 97.9542 8.07045 96.8274 11.4704 93.2319C13.6106 90.9692 15.8591 89.1698 16.4662 89.2347C17.0727 89.2989 18.8395 87.8463 20.3913 86.0048C21.9429 84.1649 23.4982 82.9362 23.8478 83.2762C24.1968 83.6154 25.0349 83.327 25.7108 82.6346C26.3867 81.9422 29.6985 80.7664 33.0699 80.0222C36.4414 79.278 39.7654 78.0896 40.4562 77.382C41.1469 76.6745 42.3555 76.3063 43.1413 76.564C43.9278 76.8224 46.8621 75.8277 49.6627 74.3537C52.5242 72.8482 55.5316 72.0504 56.5277 72.5318C58.0085 73.2472 58.4702 72.9558 59.3343 70.7617C60.329 68.2354 60.2281 68.1093 56.6537 67.4218C54.6098 67.0284 51.9239 66.9747 50.684 67.3019C48.6302 67.8434 48.5573 67.7619 49.8597 66.3868C53.4565 62.5898 49.8933 50.7745 43.9305 46.7293C43.1345 46.1892 42.9024 45.3193 43.413 44.7963C43.9245 44.2723 43.7257 43.2444 42.9722 42.5118C41.346 40.9305 41.3706 34.2014 43.0107 32.0738C43.6446 31.2499 44.4073 29.8353 44.7037 28.9293C45.5071 26.4807 57.9201 14.0663 60.7711 12.8614C62.1294 12.2878 64.0285 11.011 64.9929 10.023C67.2969 7.66292 74.8946 6.37548 80.7195 7.35869C84.2217 7.94982 86.7594 9.42918 90.9633 13.3284C94.0373 16.1795 96.2828 18.7871 95.9549 19.123C94.9835 20.1181 99.682 36.7212 101.552 38.9043C102.498 40.0089 102.918 41.0392 102.488 41.1954C102.056 41.3518 101.967 42.7718 102.288 44.3515C102.609 45.9312 102.563 47.5411 102.185 47.928C101.807 48.315 102.35 49.9758 103.391 51.6186C104.432 53.2613 104.95 54.9481 104.541 55.3672C101.795 58.1797 116.962 73.371 122.978 73.8347C124.562 73.9573 126.882 74.677 128.133 75.4345C132.68 78.1878 147.798 83.7259 154.013 84.9151C157.515 85.585 160.611 86.319 160.893 86.5473C161.173 86.7748 161.937 86.8906 162.588 86.804C163.239 86.718 164.331 87.1898 165.014 87.8539C165.697 88.5181 167.235 88.9312 168.432 88.7718C169.629 88.6124 171.901 89.1858 173.48 90.0471C175.333 91.0558 176.541 91.0695 176.881 90.0852C177.171 89.2447 177.405 89.6328 177.402 90.9463C177.395 92.6319 177.698 93.0241 178.427 92.2771C178.995 91.6958 179.526 91.7186 179.608 92.3288C179.747 93.3771 190.95 97.7299 196.302 98.8158C197.661 99.0915 198.853 99.9279 198.953 100.674C199.056 101.45 199.756 101.393 200.59 100.539C201.576 99.5287 202.24 99.5883 202.647 100.721C202.977 101.642 203.954 102.384 204.815 102.371C205.677 102.357 207.967 103.256 209.904 104.369C214.015 106.73 213.629 106.559 217.22 107.607C218.765 108.058 221.755 109.242 223.865 110.24C225.978 111.238 228.211 111.871 228.831 111.648C229.45 111.424 231.33 112.059 233.007 113.059C234.836 114.147 236.568 114.353 237.33 113.572C238.492 112.382 239.951 112.897 242.185 115.284C242.647 115.778 243.364 115.836 243.777 115.413C244.191 114.989 247.579 115.94 251.305 117.528C258.695 120.676 264.812 121.213 265.65 118.789C265.941 117.948 266.174 118.375 266.17 119.736C266.162 121.941 266.637 122.132 270.5 121.474C272.945 121.058 274.521 121.295 274.109 122.018C273.601 122.913 274.266 123.368 276.314 123.526C279.278 123.755 287.607 119.056 299.546 110.423C302.661 108.171 306.801 105.518 308.747 104.53C310.693 103.541 314.221 101.746 316.587 100.541C318.953 99.3363 321.146 98.0866 321.461 97.7642C321.775 97.4417 324.453 95.9967 327.412 94.553C330.659 92.9682 333.332 91.0022 334.156 89.5943C335.209 87.7919 335.649 87.6204 336.085 88.8379C336.424 89.7778 337.431 89.9842 338.583 89.3477C339.645 88.7606 340.758 88.1487 341.054 87.9884C341.352 87.8272 343.264 87.4114 345.303 87.0635C347.343 86.7147 349.317 86.1184 349.69 85.7359C350.734 84.6674 360.686 89.168 360.528 90.6368ZM361.105 109.582C361.722 111.079 361.915 112.622 361.535 113.012C361.154 113.402 361.558 114.888 362.433 116.315C364.114 119.056 363.82 119.865 360.75 120.939C359.275 121.455 358.861 121.153 358.884 119.575C358.9 118.461 358.446 117.612 357.874 117.688C357.303 117.764 357.226 117.426 357.704 116.937C358.182 116.447 357.447 115.299 356.073 114.385C354.508 113.344 353.957 112.33 354.599 111.672C355.162 111.095 355.029 110.559 354.302 110.483C351.616 110.198 348.015 107.156 349.077 106.069C349.654 105.478 350.077 103.937 350.016 102.644C349.916 100.479 350.129 100.367 352.704 101.218C355.395 102.108 357.548 104.44 357.862 106.807C357.945 107.427 358.456 107.693 358.998 107.398C359.539 107.103 360.487 108.085 361.105 109.582ZM342.739 98.4868C341.489 99.7668 340.725 99.8942 340.361 98.8828C340.014 97.9145 339.536 97.9478 338.997 98.9811C338.542 99.8552 336.843 100.771 335.223 101.016C332.479 101.432 320.74 106.493 313.444 110.406C309.878 112.318 309.141 112.024 308.975 108.62C308.866 106.397 309.15 106.144 314.133 104.033C317.033 102.804 319.653 102.041 319.957 102.336C320.261 102.631 320.917 102.091 321.415 101.135C321.913 100.179 322.691 99.7566 323.143 100.196C323.595 100.635 324.124 100.518 324.317 99.9359C324.51 99.3522 327.198 98.4302 330.289 97.8862C333.38 97.3406 335.78 96.7709 335.623 96.6188C335.468 96.4673 337.116 96.1059 339.287 95.8168C344.11 95.1746 345.171 95.9959 342.739 98.4868ZM363.845 145.729C363.53 147.32 363.076 147.745 361.866 147.576C361.002 147.455 360.853 147.256 361.534 147.132C362.215 147.008 362.946 146.023 363.16 144.942C363.373 143.861 363.707 143.131 363.901 143.319C364.094 143.508 364.069 144.592 363.845 145.729ZM304.93 103.438C304.45 103.93 303.72 104.006 303.31 103.607C302.899 103.209 303.153 102.669 303.873 102.409C304.594 102.15 305.323 102.073 305.494 102.24C305.665 102.406 305.411 102.945 304.93 103.438ZM348.758 155.657C348.037 156.396 347.322 156.879 347.17 156.731C347.018 156.583 347.3 155.68 347.798 154.723C348.297 153.768 349.012 153.285 349.387 153.649C349.763 154.015 349.48 154.918 348.758 155.657ZM330.087 186.043C330.494 187.561 330.727 190.483 330.603 192.538C330.479 194.591 330.722 196.607 331.143 197.016C331.565 197.426 331.67 199.493 331.379 201.61C331.087 203.727 330.596 205.213 330.287 204.913C329.978 204.612 329.562 205.192 329.363 206.201C328.646 209.828 322.837 220.021 320.639 221.508C319.314 222.405 317.827 222.477 317.012 221.685C315.867 220.571 316.181 219.849 318.853 217.458C320.626 215.872 322.13 214.062 322.197 213.435C322.265 212.809 323.041 211.558 323.923 210.654C324.804 209.752 325.243 208.738 324.897 208.401C324.552 208.065 325.053 206.589 326.012 205.121C326.971 203.653 327.412 202.117 326.99 201.707C326.184 200.924 325.745 191.563 326.286 186.715C326.461 185.151 326.952 184.211 327.377 184.625C327.803 185.039 328.349 184.784 328.59 184.058C329.114 182.484 329.141 182.521 330.087 186.043ZM229.961 121.12C229.48 121.613 228.527 121.957 227.842 121.884C227.157 121.812 226.99 121.349 227.471 120.857C227.952 120.364 228.905 120.02 229.59 120.093C230.275 120.165 230.442 120.628 229.961 121.12ZM226.44 119.954C226.133 120.874 225.869 120.896 225.751 120.01C225.644 119.205 224.772 119.008 223.77 119.561C222.786 120.104 221.697 120.274 221.351 119.938C220.263 118.88 221.948 117.955 224.494 118.212C226.298 118.393 226.807 118.85 226.44 119.954ZM217.497 116.26C216.805 116.509 216.602 117.066 217.045 117.496C217.488 117.927 217.225 118.655 216.463 119.113C215.135 119.912 214.737 119.778 212.005 117.615C211.278 117.04 210.558 117.296 210.197 118.258C209.867 119.138 209.69 118.648 209.804 117.17C210.056 113.878 211.676 113.191 215.688 114.674C217.505 115.346 218.243 115.992 217.497 116.26ZM209.228 114.695C209.024 115.31 207.994 116.114 206.939 116.483C205.885 116.851 205.373 116.785 205.802 116.333C206.232 115.881 205.216 115.626 203.544 115.766C200.739 116.001 200.527 115.822 200.781 113.451C201.035 111.079 201.26 110.987 203.713 112.25C205.174 113.002 207.097 113.609 207.984 113.599C208.873 113.588 209.432 114.081 209.228 114.695ZM247.445 174.991C246.965 175.484 246.273 175.597 245.908 175.242C245.543 174.887 245.442 174.003 245.683 173.278C245.924 172.552 246.617 172.44 247.221 173.027C247.825 173.614 247.926 174.499 247.445 174.991ZM285.487 232.351C284.139 232.32 282.587 231.768 282.039 231.123C281.264 230.212 281.406 230.126 282.675 230.741C283.574 231.175 284.608 231.224 284.973 230.849C285.339 230.475 286.156 230.672 286.788 231.287C287.785 232.256 287.611 232.399 285.487 232.351ZM155.656 137.922C155.781 138.968 155.38 139.571 154.613 139.49C153.925 139.417 153.771 138.579 154.267 137.626C155.31 135.626 155.38 135.641 155.656 137.922ZM45.8656 120.399C45.145 120.658 44.4161 120.735 44.2448 120.568C44.0735 120.402 44.3274 119.863 44.8083 119.37C45.2892 118.878 46.0189 118.802 46.4291 119.201C46.8393 119.6 46.5862 120.139 45.8656 120.399ZM38.7075 122.805C38.0509 123.478 35.7953 124.457 33.6952 124.981C30.4618 125.788 29.8775 125.59 29.8818 123.691C29.8854 122.024 29.7437 121.863 29.3282 123.067C28.9462 124.176 28.5842 124.17 28.1817 123.045C27.4605 121.038 29.8015 119.444 30.9384 121.167C31.3883 121.849 33.1656 121.811 34.8907 121.082C38.2366 119.669 40.6889 120.775 38.7075 122.805ZM14.577 107.331C14.2445 109.925 13.6031 112.096 13.1514 112.156C11.9069 112.322 12.737 104.085 14.0433 103.299C14.6706 102.922 14.9096 104.736 14.577 107.331ZM27.267 120.839C27.0418 122.941 24.0224 125.208 21.9815 124.808C20.8708 124.591 18.3998 123.389 16.4884 122.138C13.777 120.363 13.2208 119.467 13.9549 118.058C14.4723 117.065 14.3908 116.198 13.7728 116.133C13.1547 116.068 13.046 115.252 13.5321 114.319C14.7891 111.908 15.8292 112.307 19.9322 116.777C22.3738 119.435 24.1867 120.559 25.4747 120.212C26.5286 119.929 27.3352 120.211 27.267 120.839Z" fill="#675A4B"/>
<path fill-rule="evenodd" clip-rule="evenodd" d="M360.528 90.6368C360.482 91.0599 361.206 92.4145 362.134 93.6475C365.512 98.129 366.823 101.313 366.463 104.148C366.159 106.54 368.883 110.971 370.766 111.149C371.04 111.174 371.223 112.412 371.173 113.899C371.124 115.385 371.395 117.391 371.774 118.357C372.155 119.323 371.798 120.796 370.981 121.633C370.164 122.469 369.974 123.091 370.558 123.012C371.142 122.934 370.878 125.328 369.97 128.33C368.474 133.282 367.705 134.363 361.705 139.945C358.066 143.331 354.024 147.224 352.721 148.598C351.418 149.973 350.048 150.8 349.676 150.438C349.304 150.076 348.754 150.132 348.455 150.561C348.157 150.99 346.957 151.823 345.792 152.411C344.627 153 343.629 153.891 343.575 154.392C343.522 154.893 342.404 155.446 341.093 155.62C339.782 155.794 338.354 156.619 337.92 157.451C337.486 158.284 336.703 158.799 336.18 158.596C334.991 158.134 330.836 160.928 327.133 164.678C325.553 166.278 323.674 167.329 322.866 167.064C322.073 166.802 321.235 167.157 321.004 167.853C320.773 168.546 319.514 168.926 318.206 168.697C316.207 168.346 311.712 171.138 312.71 172.109C313.802 173.171 318.645 173.62 318.955 172.689C319.161 172.068 319.906 172.122 320.61 172.807C321.5 173.672 323.3 173.167 326.53 171.143C333.662 166.674 336.74 165.925 338.048 168.341C338.665 169.477 339.181 171.182 339.196 172.131C339.209 173.08 340.063 174.263 341.092 174.761C342.121 175.259 342.774 176.234 342.542 176.931C342.311 177.626 342.654 178.385 343.304 178.616C343.954 178.846 344.7 180.082 344.962 181.361C345.224 182.641 345.807 184.234 346.256 184.901C347.657 186.981 348.195 191.359 347.099 191.753C346.524 191.96 345.573 196.039 344.986 200.816C344.082 208.172 343.265 210.442 339.651 215.633C337.304 219.004 334.742 221.995 333.957 222.278C333.173 222.56 330.458 224.699 327.923 227.032C325.389 229.366 321.244 232.064 318.71 233.028C316.178 233.992 314.753 234.85 315.545 234.934C316.467 235.031 316.409 235.294 315.383 235.663C314.503 235.981 313.554 235.607 313.277 234.833C312.981 234.009 311.229 234.011 309.056 234.838C305.507 236.187 300.554 236.04 298.727 234.531C298.255 234.143 296.926 233.524 295.772 233.158C289.365 231.123 288.062 230.413 287.095 228.428C286.361 226.926 286.072 226.799 286.165 228.02C286.238 228.995 285.778 229.738 285.142 229.67C284.507 229.603 284.248 228.075 284.567 226.274C285.089 223.332 284.967 223.137 283.36 224.338C282.377 225.074 281.502 225.151 281.417 224.51C281.332 223.869 281.914 223.051 282.711 222.692C283.508 222.333 282.896 222.336 281.353 222.699C278.809 223.297 278.69 223.211 280.076 221.791C280.917 220.929 281.046 220.164 280.361 220.092C279.676 220.019 279.516 219.549 280.007 219.047C280.497 218.545 279.992 216.371 278.885 214.215C277.777 212.059 276.466 208.687 275.97 206.722C275.473 204.757 274.315 202.901 273.396 202.6C272.367 202.262 272.256 201.859 273.106 201.553C273.867 201.278 273.973 200.728 273.341 200.33C272.71 199.931 271.875 198.664 271.487 197.513C271.099 196.363 270.293 193.986 269.694 192.23C269.075 190.417 265.965 186.623 262.481 183.433C252.888 174.649 252.435 174.359 250.434 175.715C248.935 176.729 248.832 176.681 249.891 175.464C251.001 174.189 250.573 173.58 247.092 171.482C244.832 170.121 242.056 168.373 240.922 167.599C237.363 165.166 233.363 163.453 231.327 163.488C230.248 163.507 229.47 163.354 229.597 163.149C230.224 162.141 222.975 158.924 221.683 159.637C220.864 160.089 219.687 159.651 219.069 158.661C218.45 157.672 216.993 156.901 215.829 156.948C214.668 156.995 213.575 156.8 213.403 156.515C213.23 156.23 212.655 155.808 212.124 155.578C210.092 154.697 202.776 149.591 202.114 148.591C201.731 148.015 201.021 147.951 200.534 148.45C200.047 148.949 199.411 148.691 199.119 147.879C198.389 145.845 185.724 141.291 174.711 139.104C169.69 138.106 165.024 136.748 164.343 136.086C163.662 135.424 162.515 135.094 161.794 135.354C161.074 135.614 159.85 135.209 159.074 134.455C158.299 133.701 157.467 133.678 157.226 134.404C156.755 135.819 156.474 135.729 153.459 133.206C152.38 132.304 150.132 131.439 148.463 131.286C146.793 131.133 143.881 130.532 141.993 129.952C140.104 129.372 138.17 129.293 137.696 129.779C137.222 130.264 136.603 130.018 136.321 129.231C136.038 128.444 134.558 127.902 133.031 128.027C131.503 128.153 129.936 127.946 129.549 127.569C128.068 126.13 115.033 122.03 114.305 122.775C113.885 123.206 113.463 122.969 113.367 122.247C113.271 121.525 111.061 120.78 108.456 120.591C94.5999 119.587 85.9084 118.195 76.5613 115.478C74.3165 114.825 70.8733 115.403 66.2923 117.201C62.5018 118.688 59.1338 120.178 58.8094 120.51C58.485 120.843 56.177 121.977 53.68 123.03C51.183 124.083 49.0935 125.379 49.0374 125.91C48.9798 126.44 48.5978 126.547 48.1876 126.148C47.7773 125.749 46.3658 126.145 45.0523 127.028C42.703 128.605 34.499 128.853 28.2899 127.533C26.5525 127.163 24.763 127.237 24.3136 127.697C23.8642 128.158 23.4334 128.052 23.3549 127.462C23.2765 126.872 20.5961 126.202 17.3998 125.973C9.68031 125.419 7.08306 122.099 7.52926 113.355C7.70667 109.863 7.79138 104.832 7.71569 102.176C7.59694 97.9542 8.07045 96.8274 11.4704 93.2319C13.6106 90.9692 15.8591 89.1698 16.4662 89.2347C17.0727 89.2989 18.8395 87.8463 20.3913 86.0048C21.9429 84.1649 23.4982 82.9362 23.8478 83.2762C24.1968 83.6154 25.0349 83.327 25.7108 82.6346C26.3867 81.9422 29.6985 80.7664 33.0699 80.0222C36.4414 79.278 39.7654 78.0896 40.4562 77.382C41.1469 76.6745 42.3555 76.3063 43.1413 76.564C43.9278 76.8224 46.8621 75.8277 49.6627 74.3537C52.5242 72.8482 55.5316 72.0504 56.5277 72.5318C58.0085 73.2472 58.4702 72.9558 59.3343 70.7617C60.329 68.2354 60.2281 68.1093 56.6537 67.4218C54.6098 67.0284 51.9239 66.9747 50.684 67.3019C48.6302 67.8434 48.5573 67.7619 49.8597 66.3868C53.4565 62.5898 49.8933 50.7745 43.9305 46.7293C43.1345 46.1892 42.9024 45.3193 43.413 44.7963C43.9245 44.2723 43.7257 43.2444 42.9722 42.5118C41.346 40.9305 41.3706 34.2014 43.0107 32.0738C43.6446 31.2499 44.4073 29.8353 44.7037 28.9293C45.5071 26.4807 57.9201 14.0663 60.7711 12.8614C62.1294 12.2878 64.0285 11.011 64.9929 10.023C67.2969 7.66292 74.8946 6.37548 80.7195 7.35869C84.2217 7.94982 86.7594 9.42918 90.9633 13.3284C94.0373 16.1795 96.2828 18.7871 95.9549 19.123C94.9835 20.1181 99.682 36.7212 101.552 38.9043C102.498 40.0089 102.918 41.0392 102.488 41.1954C102.056 41.3518 101.967 42.7718 102.288 44.3515C102.609 45.9312 102.563 47.5411 102.185 47.928C101.807 48.315 102.35 49.9758 103.391 51.6186C104.432 53.2613 104.95 54.9481 104.541 55.3672C101.795 58.1797 116.962 73.371 122.978 73.8347C124.562 73.9573 126.882 74.677 128.133 75.4345C132.68 78.1878 147.798 83.7259 154.013 84.9151C157.515 85.585 160.611 86.319 160.893 86.5473C161.173 86.7748 161.937 86.8906 162.588 86.804C163.239 86.718 164.331 87.1898 165.014 87.8539C165.697 88.5181 167.235 88.9312 168.432 88.7718C169.629 88.6124 171.901 89.1858 173.48 90.0471C175.333 91.0558 176.541 91.0695 176.881 90.0852C177.171 89.2447 177.405 89.6328 177.402 90.9463C177.395 92.6319 177.698 93.0241 178.427 92.2771C178.995 91.6958 179.526 91.7186 179.608 92.3288C179.747 93.3771 190.95 97.7299 196.302 98.8158C197.661 99.0915 198.853 99.9279 198.953 100.674C199.056 101.45 199.756 101.393 200.59 100.539C201.576 99.5287 202.24 99.5883 202.647 100.721C202.977 101.642 203.954 102.384 204.815 102.371C205.677 102.357 207.967 103.256 209.904 104.369C214.015 106.73 213.629 106.559 217.22 107.607C218.765 108.058 221.755 109.242 223.865 110.24C225.978 111.238 228.211 111.871 228.831 111.648C229.45 111.424 231.33 112.059 233.007 113.059C234.836 114.147 236.568 114.353 237.33 113.572C238.492 112.382 239.951 112.897 242.185 115.284C242.647 115.778 243.364 115.836 243.777 115.413C244.191 114.989 247.579 115.94 251.305 117.528C258.695 120.676 264.812 121.213 265.65 118.789C265.941 117.948 266.174 118.375 266.17 119.736C266.162 121.941 266.637 122.132 270.5 121.474C272.945 121.058 274.521 121.295 274.109 122.018C273.601 122.913 274.266 123.368 276.314 123.526C279.278 123.755 287.607 119.056 299.546 110.423C302.661 108.171 306.801 105.518 308.747 104.53C310.693 103.541 314.221 101.746 316.587 100.541C318.953 99.3363 321.146 98.0866 321.461 97.7642C321.775 97.4417 324.453 95.9967 327.412 94.553C330.659 92.9682 333.332 91.0022 334.156 89.5943C335.209 87.7919 335.649 87.6204 336.085 88.8379C336.424 89.7778 337.431 89.9842 338.583 89.3477C339.645 88.7606 340.758 88.1487 341.054 87.9884C341.352 87.8272 343.264 87.4114 345.303 87.0635C347.343 86.7147 349.317 86.1184 349.69 85.7359C350.734 84.6674 360.686 89.168 360.528 90.6368ZM361.535 113.012C361.915 112.622 361.722 111.079 361.105 109.582C360.487 108.085 359.539 107.103 358.998 107.398C358.456 107.693 357.945 107.427 357.862 106.807C357.548 104.44 355.395 102.108 352.704 101.218C350.129 100.367 349.916 100.479 350.016 102.644C350.077 103.937 349.654 105.478 349.077 106.069C348.015 107.156 351.616 110.198 354.302 110.483C355.029 110.559 355.162 111.095 354.599 111.672C353.957 112.33 354.508 113.344 356.073 114.385C357.447 115.299 358.182 116.447 357.704 116.937C357.226 117.426 357.303 117.764 357.874 117.688C358.446 117.612 358.9 118.461 358.884 119.575C358.861 121.153 359.275 121.455 360.75 120.939C363.82 119.865 364.114 119.056 362.433 116.315C361.558 114.888 361.154 113.402 361.535 113.012ZM340.361 98.8828C340.725 99.8942 341.489 99.7668 342.739 98.4868C345.171 95.9959 344.11 95.1746 339.287 95.8168C337.116 96.1059 335.468 96.4673 335.623 96.6188C335.78 96.7709 333.38 97.3406 330.289 97.8862C327.198 98.4302 324.51 99.3522 324.317 99.9359C324.124 100.518 323.595 100.635 323.143 100.196C322.691 99.7566 321.913 100.179 321.415 101.135C320.917 102.091 320.261 102.631 319.957 102.336C319.653 102.041 317.033 102.804 314.133 104.033C309.15 106.144 308.866 106.397 308.975 108.62C309.141 112.024 309.878 112.318 313.444 110.406C320.74 106.493 332.479 101.432 335.223 101.016C336.843 100.771 338.542 99.8552 338.997 98.9811C339.536 97.9478 340.014 97.9145 340.361 98.8828ZM330.603 192.538C330.727 190.483 330.494 187.561 330.087 186.043C329.141 182.521 329.114 182.484 328.59 184.058C328.349 184.784 327.803 185.039 327.377 184.625C326.952 184.211 326.461 185.151 326.286 186.715C325.745 191.563 326.184 200.924 326.99 201.707C327.412 202.117 326.971 203.653 326.012 205.121C325.053 206.589 324.552 208.065 324.897 208.401C325.243 208.738 324.804 209.752 323.923 210.654C323.041 211.558 322.265 212.809 322.197 213.435C322.13 214.062 320.626 215.872 318.853 217.458C316.181 219.849 315.867 220.571 317.012 221.685C317.827 222.477 319.314 222.405 320.639 221.508C322.837 220.021 328.646 209.828 329.363 206.201C329.562 205.192 329.978 204.612 330.287 204.913C330.596 205.213 331.087 203.727 331.379 201.61C331.67 199.493 331.565 197.426 331.143 197.016C330.722 196.607 330.479 194.591 330.603 192.538ZM227.842 121.884C228.527 121.957 229.48 121.613 229.961 121.12C230.442 120.628 230.275 120.165 229.59 120.093C228.905 120.02 227.952 120.364 227.471 120.857C226.99 121.349 227.157 121.812 227.842 121.884ZM225.751 120.01C225.869 120.896 226.133 120.874 226.44 119.954C226.807 118.85 226.298 118.393 224.494 118.212C221.948 117.955 220.263 118.88 221.351 119.938C221.697 120.274 222.786 120.104 223.77 119.561C224.772 119.008 225.644 119.205 225.751 120.01ZM217.045 117.496C216.602 117.066 216.805 116.509 217.497 116.26C218.243 115.992 217.505 115.346 215.688 114.674C211.676 113.191 210.056 113.878 209.804 117.17C209.69 118.648 209.867 119.138 210.197 118.258C210.558 117.296 211.278 117.04 212.005 117.615C214.737 119.778 215.135 119.912 216.463 119.113C217.225 118.655 217.488 117.927 217.045 117.496ZM206.939 116.483C207.994 116.114 209.024 115.31 209.228 114.695C209.432 114.081 208.873 113.588 207.984 113.599C207.097 113.609 205.174 113.002 203.713 112.25C201.26 110.987 201.035 111.079 200.781 113.451C200.527 115.822 200.739 116.001 203.544 115.766C205.216 115.626 206.232 115.881 205.802 116.333C205.373 116.785 205.885 116.851 206.939 116.483ZM44.2448 120.568C44.4161 120.735 45.145 120.658 45.8656 120.399C46.5862 120.139 46.8393 119.6 46.4291 119.201C46.0189 118.802 45.2892 118.878 44.8083 119.37C44.3274 119.863 44.0735 120.402 44.2448 120.568ZM33.6952 124.981C35.7953 124.457 38.0509 123.478 38.7075 122.805C40.6889 120.775 38.2366 119.669 34.8907 121.082C33.1656 121.811 31.3883 121.849 30.9384 121.167C29.8015 119.444 27.4605 121.038 28.1817 123.045C28.5842 124.17 28.9462 124.176 29.3282 123.067C29.7437 121.863 29.8854 122.024 29.8818 123.691C29.8775 125.59 30.4618 125.788 33.6952 124.981ZM13.1514 112.156C13.6031 112.096 14.2445 109.925 14.577 107.331C14.9096 104.736 14.6706 102.922 14.0433 103.299C12.737 104.085 11.9069 112.322 13.1514 112.156ZM21.9815 124.808C24.0224 125.208 27.0418 122.941 27.267 120.839C27.3352 120.211 26.5286 119.929 25.4747 120.212C24.1867 120.559 22.3738 119.435 19.9322 116.777C15.8292 112.307 14.7891 111.908 13.5321 114.319C13.046 115.252 13.1547 116.068 13.7728 116.133C14.3908 116.198 14.4723 117.065 13.9549 118.058C13.2208 119.467 13.777 120.363 16.4884 122.138C18.3998 123.389 20.8708 124.591 21.9815 124.808Z" fill="#C2A687"/>
</svg>
