<svg width="282" height="229" viewBox="0 0 282 229" fill="none" xmlns="http://www.w3.org/2000/svg">
<path fill-rule="evenodd" clip-rule="evenodd" d="M90.6821 13.5212C89.0158 13.6357 87.5377 13.5065 87.398 13.2344C87.2583 12.9623 87.0017 13.2683 86.8275 13.9149C86.6202 14.6839 85.6693 15.0379 84.0746 14.9393C82.7347 14.8562 81.5704 15.0409 81.4869 15.3504C81.4037 15.6592 79.9347 15.769 78.2232 15.5943C76.5113 15.4187 75.1801 15.548 75.2645 15.8806C75.349 16.2131 74.4663 16.6656 73.3041 16.8867C72.1413 17.1076 70.399 18.2844 69.4329 19.5008C68.4665 20.7179 67.3924 21.6366 67.0469 21.5427C66.7013 21.4489 66.4158 21.6342 66.4118 21.9537C66.4084 22.2732 65.7725 23.2386 64.9981 24.0979C64.0713 25.1266 63.0691 27.7187 62.0651 31.6832C60.573 37.5743 60.4218 39.548 61.4913 39.1796C61.7839 39.0786 61.8899 39.7149 61.7278 40.5919C61.5656 41.4697 61.3489 43.2871 61.246 44.6299C61.0789 46.8101 60.8617 47.0724 59.2173 47.0793C58.2043 47.0834 57.4356 47.3281 57.5095 47.6236C57.5828 47.9189 56.6664 47.9188 55.4725 47.6249C53.1361 47.0487 44.3341 48.858 42.0363 50.3864C31.7587 57.2246 29.9591 58.9318 28.7149 63.0178C28.2579 64.5195 27.6216 66.027 27.3005 66.3676C26.9794 66.7083 26.5193 67.8956 26.2772 69.0068C26.0357 70.1182 25.5883 70.959 25.283 70.8761C24.9777 70.7931 24.8349 71.1472 24.9661 71.6636C25.0972 72.18 24.8852 74.3059 24.4952 76.3882C24.1049 78.4697 23.961 80.608 24.1748 81.1382C24.3884 81.6692 24.3484 82.2402 24.086 82.4077C23.8234 82.576 25.1355 85.6162 27.0014 89.1646C29.4634 93.8465 30.7542 95.5903 31.7065 95.523C32.4524 95.4705 33.3506 96.0761 33.7869 96.9258C34.2338 97.7963 35.2369 98.4617 36.1867 98.5166C37.084 98.5689 37.7455 98.8825 37.6564 99.213C37.5671 99.5443 37.9878 99.7479 38.5914 99.6668C39.1951 99.585 39.6211 99.0994 39.5378 98.5867C39.4544 98.0739 39.6585 98.3409 39.9906 99.1803C40.7301 101.047 43.8686 102.027 44.7897 100.678C45.1598 100.137 45.7448 99.7707 46.0903 99.8646C46.4358 99.9584 46.4743 100.283 46.1766 100.587C44.7037 102.087 60.1095 102.579 65.4272 101.201C69.1894 100.226 71.6376 100.367 77.0937 101.872C79.7169 102.594 81.7966 102.923 81.7155 102.602C81.4614 101.602 89.4666 104.695 91.785 106.493C92.996 107.432 94.2196 108.209 94.5039 108.221C94.7884 108.231 95.4172 108.545 95.9006 108.917C99.603 111.77 107.371 116.546 107.971 116.34C108.377 116.199 108.727 116.416 108.748 116.822C108.769 117.228 110.967 118.922 113.632 120.588C122.304 126.009 130.448 131.628 131.235 132.732C132.176 134.053 138.774 139.8 140.265 140.598C140.858 140.916 142.508 142.046 143.93 143.108C145.873 144.56 146.794 144.898 147.633 144.467C148.499 144.022 148.676 144.167 148.421 145.112C148.241 145.782 148.444 146.21 148.873 146.062C149.302 145.914 149.54 146.22 149.401 146.743C149.023 148.171 156.44 156.196 158.782 156.893C159.369 157.068 160.09 157.809 160.384 158.541C160.68 159.276 161.493 159.83 162.2 159.78C162.904 159.73 163.58 160.081 163.701 160.559C163.823 161.038 164.429 161.567 165.049 161.735C165.669 161.903 167.006 163.077 168.019 164.343C169.034 165.609 170.782 167.373 171.904 168.262C173.027 169.151 175.217 171.386 176.772 173.228C178.327 175.071 179.862 176.649 180.185 176.737C181.395 177.065 184.844 184.828 185.502 188.704C187.412 199.959 188.633 203.478 192.122 207.789C194.008 210.12 195.836 212.104 196.184 212.198C196.531 212.293 196.736 212.667 196.638 213.03C196.296 214.302 201.513 218.443 204.356 219.156C208.907 220.298 209.815 220.276 211.811 218.971C212.851 218.291 214.013 217.819 214.393 217.922C214.774 218.025 215.177 217.764 215.291 217.342C215.405 216.92 215.74 216.857 216.037 217.201C216.333 217.546 216.666 217.491 216.777 217.08C216.888 216.667 217.981 216.073 219.206 215.757C220.431 215.442 221.837 214.518 222.33 213.705C222.823 212.891 223.756 211.888 224.403 211.474C225.051 211.061 225.493 210.376 225.385 209.954C225.278 209.532 225.595 209.296 226.089 209.43C227.295 209.758 229.025 204.947 229.745 199.268C230.128 196.239 229.615 192.093 228.614 190.143C228.289 189.511 227.684 187.656 227.269 186.023C226.691 183.748 226.752 182.869 227.529 182.266C228.088 181.832 228.571 181.042 228.604 180.509C228.68 179.261 233.123 179.031 238.96 179.971C244.326 180.835 247.18 180.416 247.644 178.694C247.829 178.009 248.534 177.164 249.212 176.815C249.89 176.466 250.609 175.569 250.811 174.821C251.013 174.072 251.415 173.524 251.705 173.603C252.388 173.788 256.242 159.193 255.874 157.815C255.719 157.239 255.755 156.811 255.952 156.864C256.556 157.029 255.72 149.205 254.933 147.334C254.526 146.367 253.906 145.675 253.553 145.797C253.201 145.919 253.049 145.509 253.217 144.888C254.101 141.606 248.78 136.894 242.591 135.48C240.244 134.943 238.248 134.783 238.156 135.123C238.065 135.463 237.764 135.479 237.488 135.158C237.212 134.836 236.742 134.824 236.442 135.128C236.143 135.434 234.764 135.613 233.379 135.527C231.993 135.441 229.47 135.634 227.772 135.954C226.073 136.275 222.926 136.857 220.776 137.248C218.628 137.639 216.797 138.229 216.708 138.559C216.619 138.89 216.341 139.035 216.09 138.882C215.84 138.728 213.605 139.044 211.124 139.584C205.707 140.762 201.466 139.772 197.143 136.32C194.282 134.036 193.824 133.737 191.582 132.687C190.402 132.134 187.744 130.376 185.674 128.78C183.605 127.183 181.872 126.024 181.824 126.203C181.775 126.383 180.531 125.384 179.061 123.983C177.59 122.583 175.308 120.707 173.992 119.815C172.675 118.923 171.364 117.845 171.077 117.42C170.79 116.996 169.868 116.28 169.029 115.83C168.189 115.379 164.218 112.542 160.205 109.524C156.191 106.506 152.639 104.13 152.312 104.243C151.984 104.355 151.705 104.066 151.69 103.599C151.674 103.086 150.904 102.754 149.738 102.758C148.654 102.762 147.91 103.148 148.035 103.641C148.168 104.164 147.997 104.214 147.609 103.762C147.147 103.224 147.233 102.797 147.91 102.272C148.598 101.738 148.652 101.209 148.107 100.354C147.694 99.7052 147.274 99.4574 147.175 99.8039C147.076 100.149 146.866 99.9518 146.71 99.3624C146.553 98.7738 145.531 97.9711 144.439 97.5789C143.348 97.1874 142.626 96.6897 142.837 96.474C143.048 96.2582 142.453 95.6943 141.514 95.2207C140.575 94.7472 139.123 93.9428 138.287 93.4342C137.452 92.9248 136.493 92.347 136.156 92.1506C135.82 91.9542 134.676 90.8834 133.613 89.7725C130.811 86.842 128.388 84.5985 127.666 84.2655C127.32 84.1061 126.33 83.3922 125.466 82.6791C124.601 81.9666 122.379 80.4031 120.527 79.2047C114.897 75.5627 112.804 72.7307 113.552 69.763C113.728 69.0617 113.556 68.4027 113.169 68.2976C112.76 68.1864 112.812 67.5339 113.293 66.7383C113.749 65.9862 113.94 64.9 113.718 64.3254C113.495 63.7506 113.479 61.8364 113.681 60.0711C113.884 58.306 113.805 56.9457 113.506 57.0489C113.207 57.152 113.056 56.6753 113.171 55.9893C113.505 53.9844 113.646 51.8173 113.553 50.1212C113.143 42.6243 111.435 30.2609 110.725 29.6463C110.485 29.4381 110.439 28.7099 110.623 28.0279C110.807 27.3458 110.193 25.1643 109.26 23.1799C107.777 20.0282 106.039 18.3301 103.11 17.1744C102.671 17.0013 102.362 16.6686 102.424 16.4359C102.658 15.569 93.6008 13.3206 90.6821 13.5212ZM96.0028 18.2856C95.7744 18.4321 94.7197 18.4357 93.6594 18.2948C89.805 17.7815 87.4702 17.9977 85.9585 19.0067C84.6832 19.8576 81.1003 19.6787 80.2982 18.7241C80.1821 18.5853 79.3955 18.8438 78.5512 19.2983C77.7069 19.7528 76.4424 20.1857 75.7406 20.2611C75.039 20.3358 74.3163 20.9508 74.1339 21.6279C73.9514 22.3049 73.6614 22.5855 73.4903 22.2512C73.3186 21.9167 72.0277 22.747 70.6218 24.096C68.3032 26.3212 67.9615 27.0428 66.9479 31.8542C66.3334 34.7725 65.5741 38.052 65.2601 39.1437C64.9461 40.2354 64.9742 41.2053 65.3224 41.2999C65.6705 41.3944 65.8425 41.7041 65.704 41.9869C65.5661 42.27 65.5278 43.1503 65.6187 43.942C65.7096 44.7337 65.5628 45.5231 65.2918 45.6961C65.0208 45.8691 65.115 46.6251 65.5002 47.3754C65.886 48.1259 65.937 49.126 65.6155 49.5972C65.293 50.069 65.2847 50.6354 65.5961 50.8561C66.3057 51.3584 66.2261 54.3816 65.4242 57.4388C65.0817 58.7437 65.1693 60.0494 65.6228 60.4044C66.0689 60.7527 66.1741 61.3025 65.8562 61.6261C65.5391 61.9492 65.7863 62.7312 66.4049 63.3636C67.3503 64.3298 67.3981 67.5346 66.4637 67.2808C65.4423 67.0034 63.3842 64.5463 63.8096 64.1126C64.0933 63.8241 63.7859 63.4419 63.1272 63.2629C62.2943 63.0367 61.9197 61.9299 61.8954 59.6223C61.8427 54.5267 61.135 52.6674 59.2471 52.6641C58.359 52.6617 57.1777 52.8776 56.6215 53.1427C56.0658 53.4088 55.0623 53.2934 54.3912 52.8871C53.7208 52.481 52.9119 52.413 52.5938 52.7373C52.2759 53.0609 51.7086 53.0966 51.3335 52.8158C50.9583 52.535 49.9643 52.4922 49.1243 52.7207C48.2843 52.9492 47.1434 53.0967 46.5894 53.0489C44.8626 52.8997 42.1221 53.8729 42.2997 54.5715C42.3933 54.9384 40.3788 56.6207 37.824 58.3096C33.8904 60.9106 32.8763 62.0004 31.2047 65.425C30.1192 67.649 29.3343 69.8784 29.4613 70.3788C29.5885 70.8786 29.3544 72.9449 28.9409 74.9702C28.5274 76.9956 28.4998 79.9862 28.8806 81.6167C29.2607 83.247 29.2913 84.2549 28.9487 83.8561C28.5502 83.3916 28.4195 83.4984 28.5857 84.1526C28.7281 84.714 29.2971 85.1129 29.8494 85.0381C30.4369 84.9588 31.0861 85.8952 31.4126 87.2938C31.9472 89.5775 33.8704 92.1808 35.4244 92.7219C35.8247 92.8617 36.6771 93.3935 37.3179 93.9044C40.8767 96.7403 41.7726 97.2318 43.2833 97.1769C44.428 97.1362 44.6086 97.2537 43.8655 97.5559C43.2724 97.7978 43.0121 98.2568 43.2873 98.5774C43.5621 98.8971 44.545 98.5954 45.4715 97.9066C46.9851 96.7805 47.1441 96.7895 47.0432 97.9935C46.9812 98.7304 47.261 99.2203 47.6645 99.081C48.0679 98.9416 48.327 98.3951 48.2394 97.8665C48.1521 97.3371 48.3772 97.6651 48.7398 98.5936C49.3365 100.124 49.4306 100.163 49.7404 99.0139C49.9283 98.3166 50.3247 98.0275 50.6209 98.3725C50.9172 98.7174 51.2491 98.6676 51.3587 98.2609C51.4681 97.855 52.9173 97.498 54.5797 97.4688C56.2421 97.4395 58.6857 97.1689 60.0101 96.8682C61.3352 96.5676 62.8418 96.6517 63.3577 97.0563C63.9358 97.5081 64.2109 97.4514 64.0732 96.9091C63.95 96.4237 64.2301 96.2088 64.6958 96.4318C65.1611 96.6538 66.2064 96.7348 67.0183 96.6107C67.8302 96.4866 69.5091 96.2331 70.7501 96.0474C72.0324 95.8559 75.3885 96.4244 78.5329 97.3663C87.1912 99.9607 87.5273 100.119 87.4836 101.578C87.451 102.671 87.517 102.712 87.8304 101.796C88.1585 100.836 88.6706 100.889 91.1801 102.144C92.8088 102.959 94.854 103.938 95.724 104.321C98.4569 105.521 100.936 107.164 101.671 108.261C102.06 108.843 102.438 109.215 102.51 109.088C102.862 108.463 107.42 111.408 107.485 112.303C107.527 112.871 108.218 113.373 109.021 113.418C109.825 113.464 110.814 114.02 111.218 114.655C111.622 115.289 112.141 115.817 112.37 115.826C112.6 115.836 113.058 116.022 113.388 116.24C114.654 117.071 120.333 119.508 121.159 119.574C121.635 119.612 121.936 119.973 121.827 120.377C121.718 120.781 122.104 121.046 122.684 120.968C124.135 120.773 131.478 126.225 136.834 131.477C139.277 133.871 141.797 135.972 142.434 136.145C143.071 136.318 143.688 136.836 143.805 137.295C143.922 137.755 144.611 138.292 145.336 138.489C146.061 138.686 146.383 139.124 146.052 139.461C145.405 140.12 145.562 140.245 148.145 141.128C149.069 141.445 150.405 142.396 151.114 143.244C151.822 144.091 153.251 145.473 154.289 146.315C155.327 147.157 156.09 148.167 155.984 148.56C155.878 148.952 156.251 149.212 156.812 149.136C157.374 149.061 158.238 149.695 158.732 150.547C159.226 151.399 159.928 152.176 160.29 152.274C161.675 152.651 168.892 158.432 168.73 159.035C168.636 159.384 168.93 159.541 169.385 159.384C169.839 159.227 171.092 160.193 172.168 161.53C177.893 168.641 181.927 172.882 186.973 177.091C188.185 178.102 189.127 180.107 189.784 183.071C190.327 185.524 190.713 187.752 190.64 188.021C190.568 188.289 190.766 189.849 191.082 191.485C191.397 193.122 191.42 194.611 191.133 194.794C190.847 194.977 190.926 195.212 191.31 195.316C191.694 195.421 191.988 196.289 191.963 197.244C191.92 198.953 194.821 203.406 197.891 206.341C198.75 207.163 199.372 208.14 199.271 208.512C199.171 208.885 199.392 209.085 199.764 208.957C200.135 208.829 201.519 210.067 202.838 211.708C206.024 215.671 208.915 216.103 213.824 213.347C215.785 212.246 218.674 210.753 220.244 210.028C222.738 208.876 223.216 208.299 224.041 205.448C224.56 203.653 224.77 201.935 224.507 201.629C224.245 201.324 224.432 199.962 224.925 198.603C225.417 197.244 225.553 196.06 225.226 195.971C224.899 195.882 224.756 195.352 224.907 194.792C225.058 194.231 224.511 192.124 223.692 190.109C222.872 188.094 222.328 185.977 222.483 185.404C222.637 184.832 222.402 184.08 221.961 183.735C221.519 183.389 221.008 181.536 220.824 179.616C220.635 177.654 219.982 175.818 219.333 175.425C218.369 174.84 218.366 174.51 219.319 173.416C220.416 172.158 220.527 172.175 222.252 173.886C223.239 174.865 224.267 176.283 224.537 177.04C224.985 178.293 225.06 178.308 225.374 177.217C226.243 174.202 234.423 172.703 238.984 174.723C239.593 174.993 240.184 174.866 240.298 174.443C240.412 174.019 241.082 173.829 241.787 174.021C243.309 174.434 247.205 172.483 247.831 170.995C248.074 170.419 248.612 169.604 249.028 169.185C250.151 168.051 252.749 157.847 252.39 155.978C252.219 155.087 252.256 153.706 252.471 152.906C252.986 150.996 250.913 146.568 248.181 143.74C246.538 142.04 244.738 141.111 240.914 139.988C238.119 139.167 235.772 138.719 235.699 138.991C235.482 139.796 224.102 142.067 222.141 141.697C221.149 141.51 220.395 141.583 220.464 141.857C220.533 142.133 219.742 142.589 218.706 142.873C217.67 143.156 216.753 143.644 216.668 143.957C216.584 144.271 215.419 144.459 214.079 144.376C212.739 144.293 211.568 144.502 211.477 144.841C210.863 147.117 196.417 143.391 193.916 140.312C193.257 139.501 191.978 138.47 191.074 138.019C187.789 136.384 178.964 129.905 175.967 126.928C174.278 125.251 172.703 123.809 172.466 123.724C172.23 123.64 171.879 123.265 171.688 122.893C171.496 122.52 170.817 122.073 170.178 121.899C169.539 121.726 168.729 121.023 168.377 120.338C168.025 119.653 166.849 118.604 165.764 118.009C164.491 117.31 164.034 116.669 164.479 116.204C164.859 115.807 164.547 115.794 163.786 116.174C162.81 116.663 162.47 116.614 162.633 116.009C162.76 115.539 162.55 115.262 162.165 115.394C161.505 115.621 154.821 110.892 152.205 108.346C151.54 107.7 150.612 107.304 150.142 107.465C149.654 107.634 149.427 107.243 149.613 106.552C149.833 105.735 149.552 105.397 148.744 105.506C148.087 105.595 147.294 105.287 146.982 104.823C146.669 104.359 145.298 103.394 143.934 102.681C141.037 101.165 141.28 101.322 139.339 99.7058C138.504 99.0108 136.707 97.7548 135.344 96.915C133.982 96.0742 132.785 95.0638 132.685 94.6686C132.584 94.2735 131.518 93.4526 130.316 92.8443C129.006 92.1812 128.243 91.3152 128.413 90.6839C128.673 89.7206 127.833 89.0894 125.618 88.5835C125.16 88.4794 124.86 88.1132 124.953 87.7704C125.045 87.4275 123.235 85.8921 120.931 84.3592C116.361 81.3188 113.78 78.2069 114.876 77.0615C115.256 76.6638 114.922 76.6624 114.132 77.0564C112.856 77.6954 112.569 77.4967 111.517 75.2445C110.851 73.8189 110.129 73.0456 109.862 73.4733C109.531 74.0027 109.02 73.7782 108.169 72.7302C106.936 71.213 106.571 65.4119 107.151 56.5504C107.303 54.2383 107.305 51.2636 107.157 49.9397C107.008 48.6158 106.741 46.2149 106.562 44.6043C106.383 42.9937 106.295 41.4629 106.365 41.2019C106.436 40.941 106.28 39.095 106.02 37.0989C105.735 34.9087 105.884 32.9149 106.395 32.0697C107.051 30.9883 106.987 30.7042 106.118 30.8214C105.447 30.9114 104.953 30.4327 104.895 29.6344C104.842 28.898 104.784 28.1277 104.767 27.9232C104.75 27.7179 104.282 26.5771 103.727 25.3879C103.173 24.1979 102.786 22.972 102.869 22.6625C103.102 21.7978 96.7969 17.7786 96.0028 18.2856ZM84.7933 23.4324C83.6952 23.534 82.728 23.8749 82.643 24.1903C82.5578 24.5063 81.5454 24.7182 80.3929 24.6619C78.1781 24.5536 77.8175 24.9434 78.3333 26.8922C78.5813 27.8284 78.9105 27.9621 79.8174 27.4959C80.4581 27.1666 81.1197 27.1643 81.2877 27.4916C81.4557 27.8188 81.6804 27.7623 81.787 27.3665C81.8939 26.97 82.8325 27.0321 83.8732 27.503C85.0579 28.0387 85.8513 28.041 85.9947 27.5089C86.1205 27.0421 86.4812 26.9589 86.7951 27.325C87.957 28.6775 91.0589 29.7246 91.296 28.8447C91.425 28.3663 92.1623 27.6968 92.9354 27.3568C94.229 26.7871 94.2153 26.641 92.7656 25.5106C91.2503 24.3297 89.0977 23.8515 87.6075 24.3655C87.2168 24.4998 86.8726 24.3036 86.8426 23.9291C86.8133 23.5547 85.8912 23.3316 84.7933 23.4324ZM98.0489 30.0463C97.7697 31.0821 97.9795 31.5272 98.7014 31.43C99.3924 31.3369 99.5503 31.6015 99.1506 32.1868C98.8121 32.6814 98.9111 33.8526 99.3701 34.7886C100.147 36.3735 101.567 44.1001 102.003 49.1234C102.217 51.5782 102.661 51.887 104.698 50.9957C106.029 50.4136 106.07 50.1891 105.446 46.9204C105.083 45.0179 104.554 43.3984 104.27 43.3213C103.985 43.2441 104.056 42.7381 104.426 42.1967C104.796 41.6555 104.752 41.1186 104.33 41.0038C103.907 40.889 103.778 40.5725 104.045 40.3018C104.312 40.0305 103.849 38.3296 103.018 36.5224C102.188 34.7145 101.627 33.2687 101.774 33.3085C101.92 33.3481 101.518 32.3637 100.879 31.1208C99.4622 28.3602 98.5921 28.0305 98.0489 30.0463ZM62.7974 32.3768C61.9903 33.0032 61.9126 33.368 62.4592 33.9653C62.8502 34.392 63.0212 34.4142 62.8407 34.0152C62.6596 33.6159 62.9602 32.9415 63.5079 32.5162C64.0562 32.091 64.3562 31.7026 64.1749 31.6534C63.9936 31.6041 63.3736 31.9297 62.7974 32.3768ZM109.207 51.6635C109.1 52.0621 109.326 52.4737 109.71 52.578C110.094 52.6822 110.313 52.3917 110.196 51.9321C110.08 51.4725 109.854 51.0611 109.693 51.0176C109.533 50.9741 109.315 51.2648 109.207 51.6635ZM62.6341 43.2924C62.4729 43.8904 62.4577 44.4113 62.6001 44.45C62.7426 44.4887 63.162 44.0775 63.5322 43.5363C63.9017 42.9949 63.9168 42.4739 63.566 42.3786C63.2146 42.2832 62.7952 42.6944 62.6341 43.2924ZM51.9277 62.0126C50.8954 62.2324 49.1135 62.9495 47.9667 63.6073C46.8208 64.2645 45.5608 64.715 45.1671 64.6081C44.7728 64.501 43.5342 65.0397 42.4136 65.805C41.2931 66.5703 40.6131 67.2607 40.9019 67.3392C41.1907 67.4176 41.0086 67.8069 40.4971 68.2031C38.6581 69.6305 34.8981 75.6681 34.8507 77.2701C34.8219 78.2355 35.3318 79.0507 36.0941 79.2577C37.1656 79.5488 37.468 79.1727 37.8638 77.0577C38.1267 75.6542 38.619 74.3294 38.9575 74.1132C39.2959 73.8971 39.734 73.1223 39.9311 72.3909C40.128 71.6603 40.5536 71.1341 40.8773 71.222C41.2004 71.3098 41.8713 70.6169 42.3674 69.682C42.8634 68.7471 43.5916 68.0697 43.9859 68.1768C44.7396 68.3815 50.3352 65.9208 52.9483 64.2362C53.7911 63.6926 54.1548 63.1597 53.7566 63.0515C53.3583 62.9434 53.3038 62.5785 53.6354 62.2407C54.3544 61.508 54.3229 61.5041 51.9277 62.0126ZM126.767 96.7922C126.66 97.1909 126.814 97.7992 127.111 98.1441C127.407 98.4891 127.737 98.445 127.845 98.0464C127.952 97.6477 127.798 97.0394 127.501 96.6944C127.205 96.3495 126.875 96.3935 126.767 96.7922ZM128.751 98.337C128.331 98.7657 128.416 98.9134 128.974 98.721C129.481 98.5461 129.919 98.9553 129.97 99.6497C130.02 100.331 130.326 100.962 130.649 101.05C131.667 101.326 131.578 100.16 130.485 98.8746C129.71 97.9633 129.256 97.8229 128.751 98.337ZM134.214 102.049C134.326 102.49 134.079 102.759 133.665 102.647C133.25 102.534 132.925 102.884 132.942 103.423C132.971 104.362 133.196 104.536 135.466 105.373C136.069 105.595 136.188 106.053 135.763 106.523C135.375 106.953 135.725 106.906 136.541 106.42C138.358 105.337 138.156 104.274 135.806 102.559C134.742 101.782 134.093 101.574 134.214 102.049ZM138.191 106.015C137.91 106.301 137.826 107.082 138.003 107.752C138.18 108.421 138.409 108.675 138.512 108.316C138.615 107.956 139.14 108.426 139.679 109.359C140.584 110.924 140.766 110.986 142.048 110.168C143.33 109.349 143.3 109.203 141.657 108.256C140.678 107.692 139.613 106.84 139.289 106.363C138.965 105.886 138.472 105.729 138.191 106.015ZM89.0125 102.966C88.9051 103.364 89.0962 103.766 89.4377 103.859C89.7793 103.952 90.3294 103.751 90.6611 103.413C90.9927 103.076 90.801 102.673 90.2359 102.52C89.6708 102.366 89.12 102.567 89.0125 102.966ZM41.6033 99.1648C42.1215 99.8757 43.0181 100.546 43.5957 100.653C44.4118 100.804 44.4091 100.704 43.5817 100.203C42.9959 99.848 42.584 99.3098 42.6656 99.0068C42.7473 98.7038 42.3295 98.3243 41.738 98.1636C40.8056 97.9104 40.7871 98.0446 41.6033 99.1648ZM144.592 141.313C143.939 141.547 143.738 141.935 144.069 142.322C144.367 142.668 144.911 142.509 145.28 141.97C146.054 140.836 146.018 140.803 144.592 141.313ZM195.509 194.901C195.626 195.361 195.852 195.772 196.012 195.816C196.172 195.859 196.391 195.568 196.498 195.17C196.605 194.771 196.379 194.359 195.995 194.255C195.611 194.151 195.392 194.441 195.509 194.901ZM196.769 199.417C196.622 199.961 196.891 201.448 197.366 202.72C198.098 204.679 198.43 204.934 199.53 204.385C200.496 203.903 200.642 203.933 200.098 204.501C199.596 205.025 199.734 205.216 200.536 205.107C201.968 204.914 202.025 203.205 200.603 203.094C200.04 203.05 199.403 202.09 199.185 200.959C198.764 198.765 197.211 197.774 196.769 199.417ZM214.705 207.848C213.323 208.773 212.301 209.74 212.434 209.999C212.8 210.711 217.272 207.896 217.244 206.972C217.229 206.529 216.088 206.924 214.705 207.848ZM202.155 204.961C201.019 205.686 200.824 207.951 201.814 208.926C202.352 209.457 203.966 210.43 205.402 211.091C207.439 212.028 208.165 212.067 208.71 211.269C209.095 210.707 209.628 210.501 209.895 210.812C210.162 211.124 210.676 210.947 211.037 210.418C211.97 209.053 211.353 208.612 207.236 207.708C204.786 207.17 203.461 206.525 203.185 205.737C202.958 205.093 202.495 204.743 202.155 204.961Z" fill="#675A4B"/>
<path fill-rule="evenodd" clip-rule="evenodd" d="M96.0028 18.2856C95.7744 18.4321 94.7197 18.4357 93.6594 18.2948C89.805 17.7815 87.4702 17.9977 85.9585 19.0067C84.6832 19.8576 81.1003 19.6787 80.2982 18.7241C80.1821 18.5853 79.3955 18.8438 78.5512 19.2983C77.7069 19.7528 76.4424 20.1857 75.7406 20.2611C75.039 20.3358 74.3163 20.9508 74.1339 21.6279C73.9514 22.3049 73.6614 22.5855 73.4903 22.2512C73.3186 21.9167 72.0277 22.747 70.6218 24.096C68.3032 26.3212 67.9615 27.0428 66.9479 31.8542C66.3334 34.7725 65.5741 38.052 65.2601 39.1437C64.9461 40.2354 64.9742 41.2053 65.3224 41.2999C65.6705 41.3944 65.8425 41.7041 65.704 41.9869C65.5661 42.27 65.5278 43.1503 65.6187 43.942C65.7096 44.7337 65.5628 45.5231 65.2918 45.6961C65.0208 45.8691 65.115 46.6251 65.5002 47.3754C65.886 48.1259 65.937 49.126 65.6155 49.5972C65.293 50.069 65.2847 50.6354 65.5961 50.8561C66.3057 51.3584 66.2261 54.3816 65.4242 57.4388C65.0817 58.7437 65.1693 60.0494 65.6228 60.4044C66.0689 60.7527 66.1741 61.3025 65.8562 61.6261C65.5391 61.9492 65.7863 62.7312 66.4049 63.3636C67.3503 64.3298 67.3981 67.5346 66.4637 67.2808C65.4423 67.0034 63.3842 64.5463 63.8096 64.1126C64.0933 63.8241 63.7859 63.4419 63.1272 63.2629C62.2943 63.0367 61.9197 61.9299 61.8954 59.6223C61.8427 54.5267 61.135 52.6674 59.2471 52.6641C58.359 52.6617 57.1777 52.8776 56.6215 53.1427C56.0658 53.4088 55.0623 53.2934 54.3912 52.8871C53.7208 52.481 52.9119 52.413 52.5938 52.7373C52.2759 53.0609 51.7086 53.0966 51.3335 52.8158C50.9583 52.535 49.9643 52.4922 49.1243 52.7207C48.2843 52.9492 47.1434 53.0967 46.5894 53.0489C44.8626 52.8997 42.1221 53.8729 42.2997 54.5715C42.3933 54.9384 40.3788 56.6207 37.824 58.3096C33.8904 60.9106 32.8763 62.0004 31.2047 65.425C30.1192 67.649 29.3343 69.8784 29.4613 70.3788C29.5885 70.8786 29.3544 72.9449 28.9409 74.9702C28.5274 76.9956 28.4998 79.9862 28.8806 81.6167C29.2607 83.247 29.2913 84.2549 28.9487 83.8561C28.5502 83.3916 28.4195 83.4984 28.5857 84.1526C28.7281 84.714 29.2971 85.1129 29.8494 85.0381C30.4369 84.9588 31.0861 85.8952 31.4126 87.2938C31.9472 89.5775 33.8704 92.1808 35.4244 92.7219C35.8247 92.8617 36.6771 93.3935 37.3179 93.9044C40.8767 96.7403 41.7726 97.2318 43.2833 97.1769C44.428 97.1362 44.6086 97.2537 43.8655 97.5559C43.2724 97.7978 43.0121 98.2568 43.2873 98.5774C43.5621 98.8971 44.545 98.5954 45.4715 97.9066C46.9851 96.7805 47.1441 96.7895 47.0432 97.9935C46.9812 98.7304 47.261 99.2203 47.6645 99.081C48.0679 98.9416 48.327 98.3951 48.2394 97.8665C48.1521 97.3371 48.3772 97.6651 48.7398 98.5936C49.3365 100.124 49.4306 100.163 49.7404 99.0139C49.9283 98.3166 50.3247 98.0275 50.6209 98.3725C50.9172 98.7174 51.2491 98.6676 51.3587 98.2609C51.4681 97.855 52.9173 97.498 54.5797 97.4688C56.2421 97.4395 58.6857 97.1689 60.0101 96.8682C61.3352 96.5676 62.8418 96.6517 63.3577 97.0563C63.9358 97.5081 64.2109 97.4514 64.0732 96.9091C63.95 96.4237 64.2301 96.2088 64.6958 96.4318C65.1611 96.6538 66.2064 96.7348 67.0183 96.6107C67.8302 96.4866 69.5091 96.2331 70.7501 96.0474C72.0324 95.8559 75.3885 96.4244 78.5329 97.3663C87.1912 99.9607 87.5273 100.119 87.4836 101.578C87.451 102.671 87.517 102.712 87.8304 101.796C88.1585 100.836 88.6706 100.889 91.1801 102.144C92.8088 102.959 94.854 103.938 95.724 104.321C98.4569 105.521 100.936 107.164 101.671 108.261C102.06 108.843 102.438 109.215 102.51 109.088C102.862 108.463 107.42 111.408 107.485 112.303C107.527 112.871 108.218 113.373 109.021 113.418C109.825 113.464 110.814 114.02 111.218 114.655C111.622 115.289 112.141 115.817 112.37 115.826C112.6 115.836 113.058 116.022 113.388 116.24C114.654 117.071 120.333 119.508 121.159 119.574C121.635 119.612 121.936 119.973 121.827 120.377C121.718 120.781 122.104 121.046 122.684 120.968C124.135 120.773 131.478 126.225 136.834 131.477C139.277 133.871 141.797 135.972 142.434 136.145C143.071 136.318 143.688 136.836 143.805 137.295C143.922 137.755 144.611 138.292 145.336 138.489C146.061 138.686 146.383 139.124 146.052 139.461C145.405 140.12 145.562 140.245 148.145 141.128C149.069 141.445 150.405 142.396 151.114 143.244C151.822 144.091 153.251 145.473 154.289 146.315C155.327 147.157 156.09 148.167 155.984 148.56C155.878 148.952 156.251 149.212 156.812 149.136C157.374 149.061 158.238 149.695 158.732 150.547C159.226 151.399 159.928 152.176 160.29 152.274C161.675 152.651 168.892 158.432 168.73 159.035C168.636 159.384 168.93 159.541 169.385 159.384C169.839 159.227 171.092 160.193 172.168 161.53C177.893 168.641 181.927 172.882 186.973 177.091C188.185 178.102 189.127 180.107 189.784 183.071C190.327 185.524 190.713 187.752 190.64 188.021C190.568 188.289 190.766 189.849 191.082 191.485C191.397 193.122 191.42 194.611 191.133 194.794C190.847 194.977 190.926 195.212 191.31 195.316C191.694 195.421 191.988 196.289 191.963 197.244C191.92 198.953 194.821 203.406 197.891 206.341C198.75 207.163 199.372 208.14 199.271 208.512C199.171 208.885 199.392 209.085 199.764 208.957C200.135 208.829 201.519 210.067 202.838 211.708C206.024 215.671 208.915 216.103 213.824 213.347C215.785 212.246 218.674 210.753 220.244 210.028C222.738 208.876 223.216 208.299 224.041 205.448C224.56 203.653 224.77 201.935 224.507 201.629C224.245 201.324 224.432 199.962 224.925 198.603C225.417 197.244 225.553 196.06 225.226 195.971C224.899 195.882 224.756 195.352 224.907 194.792C225.058 194.231 224.511 192.124 223.692 190.109C222.872 188.094 222.328 185.977 222.483 185.404C222.637 184.832 222.402 184.08 221.961 183.735C221.519 183.389 221.008 181.536 220.824 179.616C220.635 177.654 219.982 175.818 219.333 175.425C218.369 174.84 218.366 174.51 219.319 173.416C220.416 172.158 220.527 172.175 222.252 173.886C223.239 174.865 224.267 176.283 224.537 177.04C224.985 178.293 225.06 178.308 225.374 177.217C226.243 174.202 234.423 172.703 238.984 174.723C239.593 174.993 240.184 174.866 240.298 174.443C240.412 174.019 241.082 173.829 241.787 174.021C243.309 174.434 247.205 172.483 247.831 170.995C248.074 170.419 248.612 169.604 249.028 169.185C250.151 168.051 252.749 157.847 252.39 155.978C252.219 155.087 252.256 153.706 252.471 152.906C252.986 150.996 250.913 146.568 248.181 143.74C246.538 142.04 244.738 141.111 240.914 139.988C238.119 139.167 235.772 138.719 235.699 138.991C235.482 139.796 224.102 142.067 222.141 141.697C221.149 141.51 220.395 141.583 220.464 141.857C220.533 142.133 219.742 142.589 218.706 142.873C217.67 143.156 216.753 143.644 216.668 143.957C216.584 144.271 215.419 144.459 214.079 144.376C212.739 144.293 211.568 144.502 211.477 144.841C210.863 147.117 196.417 143.391 193.916 140.312C193.257 139.501 191.978 138.47 191.074 138.019C187.789 136.384 178.964 129.905 175.967 126.928C174.278 125.251 172.703 123.809 172.466 123.724C172.23 123.64 171.879 123.265 171.688 122.893C171.496 122.52 170.817 122.073 170.178 121.899C169.539 121.726 168.729 121.023 168.377 120.338C168.025 119.653 166.849 118.604 165.764 118.009C164.491 117.31 164.034 116.669 164.479 116.204C164.859 115.807 164.547 115.794 163.786 116.174C162.81 116.663 162.47 116.614 162.633 116.009C162.76 115.539 162.55 115.262 162.165 115.394C161.505 115.621 154.821 110.892 152.205 108.346C151.54 107.7 150.612 107.304 150.142 107.465C149.654 107.634 149.427 107.243 149.613 106.552C149.833 105.735 149.552 105.397 148.744 105.506C148.087 105.595 147.294 105.287 146.982 104.823C146.669 104.359 145.298 103.394 143.934 102.681C141.037 101.165 141.28 101.322 139.339 99.7058C138.504 99.0108 136.707 97.7548 135.344 96.915C133.982 96.0742 132.785 95.0638 132.685 94.6686C132.584 94.2735 131.518 93.4526 130.316 92.8443C129.006 92.1812 128.243 91.3152 128.413 90.6839C128.673 89.7206 127.833 89.0894 125.618 88.5835C125.16 88.4794 124.86 88.1132 124.953 87.7704C125.045 87.4275 123.235 85.8921 120.931 84.3592C116.361 81.3188 113.78 78.2069 114.876 77.0615C115.256 76.6638 114.922 76.6624 114.132 77.0564C112.856 77.6954 112.569 77.4967 111.517 75.2445C110.851 73.8189 110.129 73.0456 109.862 73.4733C109.531 74.0027 109.02 73.7782 108.169 72.7302C106.936 71.213 106.571 65.4119 107.151 56.5504C107.303 54.2383 107.305 51.2636 107.157 49.9397C107.008 48.6158 106.741 46.2149 106.562 44.6043C106.383 42.9937 106.295 41.4629 106.365 41.2019C106.436 40.941 106.28 39.095 106.02 37.0989C105.735 34.9087 105.884 32.9149 106.395 32.0697C107.051 30.9883 106.987 30.7042 106.118 30.8214C105.447 30.9114 104.953 30.4327 104.895 29.6344C104.842 28.898 104.784 28.1277 104.767 27.9232C104.75 27.7179 104.282 26.5771 103.727 25.3879C103.173 24.1979 102.786 22.972 102.869 22.6625C103.102 21.7978 96.7969 17.7786 96.0028 18.2856ZM82.643 24.1903C82.728 23.8749 83.6952 23.534 84.7933 23.4324C85.8912 23.3316 86.8133 23.5547 86.8426 23.9291C86.8726 24.3036 87.2168 24.4998 87.6075 24.3655C89.0977 23.8515 91.2503 24.3297 92.7656 25.5106C94.2153 26.641 94.229 26.7871 92.9354 27.3568C92.1623 27.6968 91.425 28.3663 91.296 28.8447C91.0589 29.7246 87.957 28.6775 86.7951 27.325C86.4812 26.9589 86.1205 27.0421 85.9947 27.5089C85.8513 28.041 85.0579 28.0387 83.8732 27.503C82.8325 27.0321 81.8939 26.97 81.787 27.3665C81.6804 27.7623 81.4557 27.8188 81.2877 27.4916C81.1197 27.1643 80.4581 27.1666 79.8174 27.4959C78.9105 27.9621 78.5813 27.8284 78.3333 26.8922C77.8175 24.9434 78.1781 24.5536 80.3929 24.6619C81.5454 24.7182 82.5578 24.5063 82.643 24.1903ZM98.7014 31.43C97.9795 31.5272 97.7697 31.0821 98.0489 30.0463C98.5921 28.0305 99.4622 28.3602 100.879 31.1208C101.518 32.3637 101.92 33.3481 101.774 33.3085C101.627 33.2687 102.188 34.7145 103.018 36.5224C103.849 38.3296 104.312 40.0305 104.045 40.3018C103.778 40.5725 103.907 40.889 104.33 41.0038C104.752 41.1186 104.796 41.6555 104.426 42.1967C104.056 42.7381 103.985 43.2441 104.27 43.3213C104.554 43.3984 105.083 45.0179 105.446 46.9204C106.07 50.1891 106.029 50.4136 104.698 50.9957C102.661 51.887 102.217 51.5782 102.003 49.1234C101.567 44.1001 100.147 36.3735 99.3701 34.7886C98.9111 33.8526 98.8121 32.6814 99.1506 32.1868C99.5503 31.6015 99.3924 31.3369 98.7014 31.43ZM47.9667 63.6073C49.1135 62.9495 50.8954 62.2324 51.9277 62.0126C54.3229 61.5041 54.3544 61.508 53.6354 62.2407C53.3038 62.5785 53.3583 62.9434 53.7566 63.0515C54.1548 63.1597 53.7911 63.6926 52.9483 64.2362C50.3352 65.9208 44.7396 68.3815 43.9859 68.1768C43.5916 68.0697 42.8634 68.7471 42.3674 69.682C41.8713 70.6169 41.2004 71.3098 40.8773 71.222C40.5536 71.1341 40.128 71.6603 39.9311 72.3909C39.734 73.1223 39.2959 73.8971 38.9575 74.1132C38.619 74.3294 38.1267 75.6542 37.8638 77.0577C37.468 79.1727 37.1656 79.5488 36.0941 79.2577C35.3318 79.0507 34.8219 78.2355 34.8507 77.2701C34.8981 75.6681 38.6581 69.6305 40.4971 68.2031C41.0086 67.8069 41.1907 67.4176 40.9019 67.3392C40.6131 67.2607 41.2931 66.5703 42.4136 65.805C43.5342 65.0397 44.7728 64.501 45.1671 64.6081C45.5608 64.715 46.8208 64.2645 47.9667 63.6073ZM127.111 98.1441C126.814 97.7992 126.66 97.1909 126.767 96.7922C126.875 96.3935 127.205 96.3495 127.501 96.6944C127.798 97.0394 127.952 97.6477 127.845 98.0464C127.737 98.445 127.407 98.4891 127.111 98.1441ZM128.974 98.721C128.416 98.9134 128.331 98.7657 128.751 98.337C129.256 97.8229 129.71 97.9633 130.485 98.8746C131.578 100.16 131.667 101.326 130.649 101.05C130.326 100.962 130.02 100.331 129.97 99.6497C129.919 98.9553 129.481 98.5461 128.974 98.721ZM133.665 102.647C134.079 102.759 134.326 102.49 134.214 102.049C134.093 101.574 134.742 101.782 135.806 102.559C138.156 104.274 138.358 105.337 136.541 106.42C135.725 106.906 135.375 106.953 135.763 106.523C136.188 106.053 136.069 105.595 135.466 105.373C133.196 104.536 132.971 104.362 132.942 103.423C132.925 102.884 133.25 102.534 133.665 102.647ZM138.003 107.752C137.826 107.082 137.91 106.301 138.191 106.015C138.472 105.729 138.965 105.886 139.289 106.363C139.613 106.84 140.678 107.692 141.657 108.256C143.3 109.203 143.33 109.349 142.048 110.168C140.766 110.986 140.584 110.924 139.679 109.359C139.14 108.426 138.615 107.956 138.512 108.316C138.409 108.675 138.18 108.421 138.003 107.752ZM196.012 195.816C195.852 195.772 195.626 195.361 195.509 194.901C195.392 194.441 195.611 194.151 195.995 194.255C196.379 194.359 196.605 194.771 196.498 195.17C196.391 195.568 196.172 195.859 196.012 195.816ZM197.366 202.72C196.891 201.448 196.622 199.961 196.769 199.417C197.211 197.774 198.764 198.765 199.185 200.959C199.403 202.09 200.04 203.05 200.603 203.094C202.025 203.205 201.968 204.914 200.536 205.107C199.734 205.216 199.596 205.025 200.098 204.501C200.642 203.933 200.496 203.903 199.53 204.385C198.43 204.934 198.098 204.679 197.366 202.72ZM212.434 209.999C212.301 209.74 213.323 208.773 214.705 207.848C216.088 206.924 217.229 206.529 217.244 206.972C217.272 207.896 212.8 210.711 212.434 209.999ZM201.814 208.926C200.824 207.951 201.019 205.686 202.155 204.961C202.495 204.743 202.958 205.093 203.185 205.737C203.461 206.525 204.786 207.17 207.236 207.708C211.353 208.612 211.97 209.053 211.037 210.418C210.676 210.947 210.162 211.124 209.895 210.812C209.628 210.501 209.095 210.707 208.71 211.269C208.165 212.067 207.439 212.028 205.402 211.091C203.966 210.43 202.352 209.457 201.814 208.926Z" fill="#C2A687"/>
</svg>
