<svg width="327" height="241" viewBox="0 0 327 241" fill="none" xmlns="http://www.w3.org/2000/svg">
<path fill-rule="evenodd" clip-rule="evenodd" d="M316.121 116.032C316.564 117.903 317.241 119.439 317.626 119.445C318.011 119.451 317.723 119.894 316.986 120.429C316.109 121.067 316.005 122.289 316.686 123.968C317.258 125.378 317.438 126.742 317.085 126.998C316.732 127.254 317.112 128.908 317.927 130.673C318.744 132.438 319.051 133.953 318.611 134.04C318.17 134.126 317.921 135.327 318.055 136.708C318.19 138.089 317.347 140.612 316.183 142.312C315.019 144.014 314.261 145.673 314.498 145.998C314.735 146.323 314.606 146.732 314.213 146.908C313.819 147.082 312.85 148.29 312.06 149.592C311.114 151.149 308.264 153.626 303.72 156.841C296.967 161.617 294.582 162.839 294.662 161.48C294.685 161.108 293.862 161.334 292.835 161.98C291.808 162.626 289.639 163.835 288.017 164.666C285.383 166.016 285.135 166.392 285.703 168.182C286.053 169.284 286.02 170.25 285.629 170.328C285.239 170.407 285.56 171.402 286.341 172.541C287.872 174.77 288.722 185.298 287.64 188.612C282.796 203.437 281.318 206.306 276.708 209.846C275.014 211.147 273.375 212.646 273.067 213.177C272.758 213.708 271.453 214.844 270.166 215.702C268.878 216.56 267.996 217.496 268.206 217.783C268.415 218.071 268.028 218.415 267.344 218.55C266.66 218.684 264.109 220.053 261.674 221.592C259.24 223.131 256.65 224.433 255.92 224.485C255.189 224.538 254.498 224.887 254.383 225.262C254.267 225.637 250.053 225.841 245.016 225.716C238.371 225.55 235.765 225.083 235.514 224.013C235.318 223.174 234.255 222.523 233.053 222.505C231.821 222.486 230.648 221.753 230.247 220.751C229.868 219.804 229.249 219.254 228.872 219.528C228.494 219.802 228.095 219.455 227.984 218.756C227.873 218.056 228.324 217.333 228.986 217.149C229.649 216.965 229.247 216.887 228.094 216.975C225.529 217.173 223.22 214.289 224.562 212.566C225.101 211.874 225.348 211.043 225.111 210.718C224.874 210.393 224.46 210.525 224.189 211.011C222.853 213.414 216.846 196.947 216.683 190.435C216.569 185.826 215.538 183.243 211.767 178.124C209.956 175.662 208.82 173.58 209.246 173.496C210.57 173.236 203.945 166.2 200.911 164.645C199.326 163.833 197.938 162.921 197.824 162.618C197.712 162.315 197.104 161.8 196.474 161.475C191.654 158.982 183.032 153.105 183.077 152.343C183.108 151.827 182.718 151.564 182.209 151.758C181.701 151.952 178.838 150.473 175.846 148.472C166.112 141.958 156.319 136.124 154.679 135.861C152.718 135.546 143.307 131.461 141.799 130.269C141.198 129.795 139.225 128.609 137.414 127.633C134.941 126.301 134.2 125.482 134.438 124.34C134.685 123.161 134.444 123.047 133.366 123.83C132.602 124.385 132.002 124.393 132.035 123.848C132.067 123.303 131.605 123.209 131.008 123.639C129.377 124.815 116.866 121.06 115.184 118.889C114.763 118.346 113.595 117.961 112.588 118.033C111.577 118.105 110.607 117.52 110.421 116.725C110.236 115.933 109.566 115.388 108.933 115.512C108.299 115.636 107.434 115.261 107.008 114.678C106.583 114.095 104.665 113.272 102.746 112.85C100.827 112.427 98.0363 111.473 96.5448 110.73C95.0532 109.987 91.5256 108.806 88.706 108.105C85.8852 107.403 83.3976 106.582 83.1764 106.278C82.346 105.14 71.5499 105.553 66.5321 106.915C51.9628 110.871 47.1884 111.431 40.6419 109.951C37.102 109.152 34.0114 108.23 33.7726 107.902C33.5343 107.575 32.9999 107.554 32.5857 107.855C31.1356 108.908 24.1923 105.46 22.3157 102.755C19.3099 98.4243 19.0197 97.4265 19.9318 94.5603C20.4067 93.0665 20.5825 91.5509 20.322 91.1937C20.061 90.8359 20.2424 90.2574 20.7235 89.9079C21.2047 89.5585 21.1657 89.1599 20.6359 89.023C20.106 88.886 20.0571 88.4947 20.5267 88.1536C20.9972 87.8119 21.3485 86.3064 21.3086 84.8072C21.2686 83.3079 21.9172 81.2857 22.7488 80.3155C23.5807 79.3441 24.4935 77.7933 24.7778 76.8687C25.0608 75.944 25.7511 75.0974 26.311 74.9877C26.8696 74.8779 27.0499 74.4073 26.7111 73.9428C25.8839 72.8086 31.2186 68.3524 37.9806 64.5282C41.5863 62.4889 46.8875 60.8252 49.6464 60.8676C50.5409 60.882 53.0434 60.5453 55.2061 60.1205C58.2186 59.529 59.2828 58.9923 59.7554 57.8247C60.0949 56.9861 60.901 56.0382 61.5483 55.717C63.0627 54.9652 61.7901 50.0175 58.5835 44.1815C55.6354 38.8179 55.1531 35.4931 57.1174 34.0664C57.8979 33.4995 58.6947 32.2804 58.8879 31.3575C59.0811 30.4345 59.9373 29.1723 60.7905 28.5526C61.6446 27.9323 62.1804 27.2016 61.9819 26.9294C61.5133 26.2869 78.1884 14.2818 80.0186 13.9438C80.7847 13.8029 81.3012 13.5349 81.166 13.3495C80.7512 12.7808 90.7069 9.49811 93.2937 9.34963C94.6305 9.2733 95.7017 9.57674 95.6755 10.0246C95.6484 10.473 96.2077 10.4179 96.9162 9.90324C100.66 7.18424 108.343 10.4383 112.259 16.4017C113.744 18.664 114.642 20.7448 114.254 21.027C113.866 21.3087 113.952 21.6436 114.445 21.7713C114.939 21.8985 115.119 22.4029 114.848 22.8911C114.576 23.3799 114.838 24.9734 115.429 26.4315C116.021 27.8908 116.668 30.7336 116.867 32.7498C117.066 34.7666 117.45 38.4964 117.72 41.0398C117.991 43.5826 117.904 45.8869 117.527 46.1607C117.15 46.4345 117.069 46.8141 117.345 47.0041C117.622 47.1936 118.015 49.7904 118.218 52.7736C118.661 59.2876 121.37 63.3629 127.149 66.2087C130.973 68.0911 131.503 68.4291 133.585 70.3007C134.681 71.2858 137.784 73.2308 140.481 74.6237C143.178 76.0155 145.217 77.2762 145.013 77.4246C144.808 77.5735 146.477 78.3889 148.723 79.2359C150.968 80.0829 154.085 81.5553 155.648 82.5071C157.211 83.4589 159.001 84.3062 159.626 84.39C160.251 84.4738 161.458 85.0915 162.309 85.7619C163.159 86.4324 168.055 89.2247 173.189 91.9661C178.323 94.7081 182.502 97.292 182.477 97.7086C182.453 98.1246 182.908 98.2732 183.49 98.0393C184.13 97.7812 184.81 98.4392 185.213 99.7079C185.588 100.888 185.372 101.903 184.719 102.031C184.027 102.167 184.026 102.379 184.719 102.558C185.545 102.772 186.043 102.449 186.454 101.432C186.872 100.4 187.507 100.058 188.754 100.191C189.7 100.292 190.153 100.615 189.76 100.909C189.368 101.202 189.686 101.323 190.468 101.178C191.25 101.032 192.6 101.712 193.467 102.687C194.333 103.664 195.2 104.18 195.393 103.836C195.585 103.491 196.49 103.835 197.404 104.601C198.318 105.367 199.821 106.513 200.742 107.148C201.664 107.783 202.713 108.515 203.074 108.775C203.434 109.035 205.158 109.704 206.902 110.263C211.503 111.735 215.123 113.164 215.788 113.77C216.106 114.061 217.334 114.754 218.518 115.31C219.701 115.867 222.411 117.443 224.54 118.812C231.011 122.975 235.242 123.73 238.645 121.328C239.45 120.761 240.324 120.595 240.589 120.959C240.87 121.344 241.658 120.938 242.472 119.988C243.241 119.09 244.515 118.301 245.303 118.235C246.091 118.169 248.461 117.161 250.57 115.995C252.679 114.829 254.386 114.186 254.364 114.566C254.341 114.947 254.983 114.855 255.79 114.363C258.149 112.926 260.776 111.612 262.903 110.804C272.306 107.233 288.174 102.463 289.182 102.906C289.523 103.054 290.438 102.714 291.216 102.149C291.994 101.584 294.904 101.082 297.682 101.032C302.094 100.954 304.8 101.931 307.254 104.493C307.622 104.878 308.141 105.035 308.406 104.842C309.395 104.124 315.346 112.755 316.121 116.032ZM308.372 112.807C308.271 113.133 308.637 114.281 309.182 115.357C311.167 119.268 311.718 121.919 311.002 124.101C310.398 125.942 311.875 129.737 313.335 130.097C313.547 130.148 313.503 131.141 313.238 132.302C312.972 133.462 312.881 135.067 313.034 135.87C313.187 136.672 312.681 137.786 311.909 138.347C311.137 138.908 310.892 139.373 311.364 139.38C311.838 139.387 311.265 141.234 310.091 143.483C308.156 147.193 307.384 147.951 301.797 151.63C298.408 153.86 294.624 156.442 293.386 157.368C292.148 158.294 290.94 158.783 290.701 158.456C290.462 158.128 290.02 158.107 289.719 158.409C289.418 158.711 288.344 159.224 287.334 159.549C286.324 159.875 285.401 160.457 285.282 160.844C285.164 161.231 284.197 161.534 283.135 161.517C282.073 161.501 280.82 161.981 280.351 162.583C279.881 163.186 279.185 163.498 278.803 163.278C277.934 162.777 274.228 164.483 270.733 166.992C269.242 168.063 267.598 168.667 267.001 168.365C266.414 168.067 265.699 168.247 265.41 168.766C265.122 169.283 264.07 169.434 263.072 169.101C261.547 168.592 257.573 170.257 258.214 171.136C258.914 172.096 262.67 173.015 263.057 172.321C263.314 171.858 263.893 171.987 264.345 172.606C264.916 173.39 266.415 173.204 269.273 171.994C275.585 169.321 278.129 169.093 278.795 171.142C279.109 172.105 279.256 173.503 279.124 174.249C278.99 174.995 279.484 176.023 280.221 176.535C280.958 177.045 281.325 177.887 281.036 178.406C280.748 178.925 280.903 179.56 281.381 179.817C281.859 180.074 282.261 181.131 282.273 182.165C282.285 183.2 282.503 184.518 282.756 185.094C283.545 186.889 283.304 190.387 282.379 190.568C281.893 190.663 280.521 193.752 279.331 197.431C277.497 203.097 276.506 204.782 272.863 208.432C270.496 210.803 268.018 212.849 267.355 212.979C266.694 213.109 264.224 214.47 261.867 216.005C259.511 217.539 255.827 219.171 253.68 219.631C251.533 220.092 250.277 220.598 250.89 220.757C251.603 220.941 251.517 221.14 250.651 221.31C249.908 221.456 249.216 221.052 249.115 220.412C249.007 219.731 247.623 219.528 245.781 219.923C242.773 220.566 238.884 219.872 237.671 218.474C237.358 218.114 236.402 217.474 235.547 217.051C230.797 214.706 229.876 213.996 229.415 212.326C229.064 211.061 228.855 210.928 228.742 211.897C228.652 212.671 228.176 213.199 227.683 213.072C227.192 212.945 227.221 211.716 227.747 210.341C228.607 208.094 228.54 207.926 227.088 208.681C226.2 209.143 225.497 209.101 225.528 208.589C225.558 208.076 226.142 207.502 226.826 207.313C227.51 207.125 227.026 207.056 225.753 207.16C223.653 207.332 223.572 207.251 224.883 206.298C225.678 205.721 225.896 205.135 225.366 204.998C224.837 204.861 224.782 204.474 225.246 204.137C225.709 203.801 225.642 202.036 225.095 200.215C224.549 198.394 224.026 195.595 223.934 193.996C223.841 192.396 223.209 190.805 222.528 190.461C221.768 190.075 221.741 189.746 222.459 189.605C223.102 189.479 223.269 189.06 222.831 188.673C222.393 188.287 221.927 187.195 221.796 186.247C221.664 185.299 221.389 183.34 221.183 181.893C220.971 180.397 219.092 177.057 216.827 174.147C210.588 166.134 210.275 165.854 208.489 166.683C207.151 167.304 207.076 167.255 208.098 166.423C209.169 165.553 208.923 165.025 206.494 162.972C204.917 161.64 202.99 159.944 202.213 159.204C199.772 156.879 196.875 155.067 195.262 154.857C194.407 154.746 193.816 154.535 193.947 154.389C194.596 153.671 189.361 150.3 188.233 150.708C187.517 150.967 186.655 150.486 186.317 149.637C185.979 148.789 184.945 148.013 184.02 147.914C183.095 147.816 182.262 147.535 182.17 147.29C182.077 147.047 181.687 146.649 181.302 146.406C179.832 145.478 174.832 140.616 174.461 139.754C174.247 139.257 173.696 139.124 173.235 139.459C172.775 139.793 172.311 139.517 172.205 138.845C171.938 137.164 162.63 132.111 154.267 129.108C150.454 127.737 146.976 126.126 146.539 125.527C146.102 124.928 145.246 124.536 144.638 124.655C144.029 124.774 143.125 124.314 142.627 123.632C142.129 122.95 141.476 122.834 141.175 123.375C140.588 124.431 140.379 124.327 138.383 121.995C137.668 121.161 136.025 120.22 134.73 119.905C133.435 119.589 131.227 118.778 129.824 118.102C128.421 117.426 126.906 117.138 126.458 117.464C126.009 117.789 125.558 117.523 125.455 116.873C125.351 116.223 124.265 115.625 123.04 115.544C121.814 115.464 120.609 115.118 120.36 114.777C119.41 113.475 109.741 108.735 109.053 109.234C108.655 109.523 108.358 109.287 108.392 108.71C108.427 108.133 106.795 107.29 104.767 106.837C93.978 104.429 87.3269 102.321 80.3594 99.0968C78.6862 98.3217 75.8794 98.3729 71.9884 99.2476C68.7689 99.9714 65.8827 100.746 65.5759 100.969C65.2692 101.192 63.2741 101.812 61.1421 102.346C59.01 102.881 57.1628 103.653 57.0378 104.063C56.9116 104.472 56.5937 104.511 56.3305 104.15C56.0672 103.79 54.8923 103.935 53.7208 104.474C51.6256 105.437 45.1097 104.672 40.4077 102.91C39.092 102.417 37.6677 102.266 37.2428 102.575C36.8178 102.883 36.4938 102.75 36.5216 102.278C36.5494 101.806 34.5348 100.967 32.0458 100.414C26.0345 99.0765 24.4888 96.1683 26.172 89.3601C26.8436 86.6411 27.6762 82.7037 28.0207 80.6113C28.5694 77.2851 29.1148 76.4565 32.3468 74.0331C34.3812 72.5081 36.4305 71.3593 36.9001 71.4812C37.3692 71.6025 38.9854 70.6694 40.491 69.4061C41.9962 68.144 43.4114 67.3618 43.6358 67.6694C43.8596 67.9764 44.5654 67.848 45.2045 67.3839C45.8435 66.9197 48.6376 66.3844 51.4131 66.1947C54.1886 66.005 56.9943 65.4613 57.6475 64.9869C58.3006 64.5125 59.311 64.365 59.8922 64.659C60.4739 64.9537 62.9424 64.5164 65.3782 63.6874C67.8669 62.8408 70.3631 62.5665 71.0763 63.0606C72.1368 63.795 72.5457 63.6204 73.562 62C74.7319 60.1343 74.6715 60.0236 71.9536 59.0663C70.3995 58.5187 68.2868 58.1625 67.2579 58.2742C65.5538 58.459 65.5086 58.3865 66.7463 57.46C70.1643 54.9015 69.149 45.2152 65.0561 41.3444C64.5098 40.8276 64.4589 40.118 64.9417 39.7673C65.4254 39.416 65.4248 38.5864 64.9413 37.9235C63.8979 36.4928 64.9415 31.2163 66.5603 29.7388C67.1863 29.1666 68.0039 28.1459 68.3758 27.4697C69.3829 25.6426 81.0741 17.3541 83.5088 16.7421C84.6686 16.4509 86.3626 15.6712 87.2745 15.0089C89.453 13.4266 95.6484 13.3048 100.098 14.7572C102.774 15.6304 104.553 17.0878 107.279 20.6384C109.272 23.2346 110.648 25.543 110.338 25.7681C109.42 26.4353 110.603 40.0106 111.747 41.942C112.326 42.9191 112.501 43.7766 112.138 43.8489C111.773 43.9212 111.487 45.0248 111.5 46.3017C111.513 47.5786 111.231 48.8362 110.874 49.0956C110.517 49.355 110.692 50.7215 111.265 52.132C111.837 53.5426 111.989 54.9264 111.602 55.2075C109.006 57.093 118.67 70.7846 123.35 71.8518C124.582 72.1331 126.305 72.969 127.177 73.7097C130.348 76.4013 141.443 82.5137 146.17 84.1733C148.833 85.1083 151.167 86.0462 151.354 86.2582C151.541 86.4696 152.127 86.6497 152.653 86.6578C153.181 86.6665 153.971 87.1643 154.41 87.7652C154.848 88.3661 156 88.8701 156.969 88.885C157.939 88.8999 159.645 89.6154 160.761 90.4757C162.07 91.4836 163.022 91.6356 163.44 90.9032C163.798 90.2777 163.923 90.6095 163.721 91.6396C163.459 92.9613 163.639 93.3044 164.328 92.8036C164.865 92.4139 165.281 92.4939 165.253 92.9822C165.203 93.8209 173.386 98.5457 177.448 100.023C178.479 100.399 179.293 101.194 179.258 101.791C179.221 102.412 179.783 102.449 180.571 101.877C181.504 101.199 182.019 101.324 182.168 102.26C182.288 103.021 182.947 103.717 183.629 103.808C184.312 103.898 185.983 104.871 187.343 105.97C190.23 108.304 189.951 108.124 192.628 109.366C193.778 109.9 195.959 111.179 197.474 112.209C198.99 113.238 200.657 113.997 201.181 113.894C201.704 113.791 203.091 114.509 204.264 115.489C205.542 116.557 206.879 116.92 207.599 116.397C208.698 115.599 209.772 116.174 211.172 118.308C211.462 118.75 212.019 118.879 212.41 118.595C212.801 118.311 215.332 119.454 218.032 121.135C223.389 124.468 228.137 125.605 229.168 123.801C229.525 123.175 229.644 123.537 229.434 124.605C229.092 126.334 229.438 126.539 232.589 126.475C234.583 126.435 235.791 126.805 235.356 127.323C234.818 127.966 235.275 128.401 236.867 128.764C239.173 129.29 246.466 126.578 257.207 121.2C260.009 119.798 263.682 118.201 265.369 117.653C267.056 117.105 270.115 116.109 272.167 115.44C274.219 114.771 276.14 114.047 276.438 113.831C276.736 113.615 279.07 112.794 281.626 112.008C284.431 111.144 286.842 109.914 287.706 108.906C288.812 107.615 289.185 107.532 289.345 108.538C289.469 109.315 290.233 109.595 291.24 109.23C292.168 108.893 293.139 108.543 293.398 108.452C293.657 108.361 295.23 108.258 296.894 108.223C298.558 108.188 300.207 107.951 300.56 107.695C301.547 106.978 308.72 111.673 308.372 112.807ZM305.944 127.738C306.204 128.985 306.122 130.218 305.762 130.479C305.401 130.741 305.495 131.954 305.968 133.175C306.878 135.522 306.523 136.123 303.935 136.607C302.692 136.839 302.412 136.553 302.67 135.318C302.852 134.446 302.623 133.727 302.16 133.719C301.697 133.712 301.688 133.438 302.139 133.11C302.591 132.782 302.186 131.796 301.239 130.918C300.163 129.918 299.882 129.058 300.489 128.617C301.021 128.23 300.997 127.794 300.435 127.649C298.358 127.112 295.977 124.304 296.981 123.575C297.527 123.179 298.095 122.02 298.244 120.998C298.494 119.288 298.68 119.225 300.584 120.193C302.573 121.206 303.918 123.288 303.806 125.181C303.777 125.678 304.14 125.946 304.613 125.778C305.085 125.61 305.684 126.491 305.944 127.738ZM293.13 116.886C291.949 117.744 291.326 117.755 291.193 116.919C291.066 116.118 290.683 116.088 290.101 116.836C289.608 117.469 288.127 117.989 286.81 117.992C284.581 117.997 274.54 120.595 268.183 122.812C265.077 123.895 264.54 123.578 264.927 120.889C265.179 119.131 265.442 118.966 269.698 117.893C272.174 117.267 274.36 116.975 274.555 117.242C274.75 117.51 275.35 117.162 275.889 116.471C276.428 115.779 277.106 115.538 277.396 115.936C277.686 116.333 278.122 116.303 278.363 115.869C278.605 115.434 280.867 115.024 283.391 114.959C285.914 114.892 287.896 114.726 287.796 114.588C287.696 114.451 289.053 114.36 290.811 114.387C294.717 114.448 295.429 115.216 293.13 116.886ZM302.606 156.417C302.116 157.629 301.692 157.909 300.763 157.635C300.099 157.439 300.012 157.266 300.568 157.248C301.124 157.231 301.852 156.543 302.185 155.72C302.518 154.897 302.893 154.363 303.017 154.533C303.141 154.704 302.957 155.552 302.606 156.417ZM262.522 116.35C262.067 116.68 261.479 116.654 261.216 116.293C260.953 115.932 261.235 115.539 261.843 115.419C262.452 115.3 263.039 115.325 263.149 115.476C263.259 115.626 262.976 116.019 262.522 116.35ZM289.182 162.442C288.5 162.938 287.862 163.233 287.765 163.1C287.667 162.966 288.028 162.29 288.566 161.598C289.106 160.906 289.744 160.611 289.984 160.941C290.225 161.271 289.865 161.947 289.182 162.442ZM269.814 184.099C269.905 185.338 269.644 187.657 269.233 189.255C268.823 190.852 268.708 192.461 268.978 192.832C269.249 193.202 269.017 194.836 268.465 196.463C267.912 198.09 267.298 199.198 267.1 198.927C266.902 198.655 266.485 199.061 266.175 199.829C265.056 202.591 258.918 209.909 256.956 210.819C255.773 211.367 254.588 211.25 254.065 210.533C253.33 209.526 253.689 208.996 256.162 207.433C257.803 206.395 259.267 205.151 259.415 204.668C259.563 204.184 260.367 203.293 261.201 202.687C262.034 202.082 262.535 201.338 262.313 201.034C262.091 200.73 262.712 199.63 263.693 198.59C264.674 197.551 265.255 196.397 264.985 196.026C264.468 195.317 265.546 187.922 266.711 184.182C267.086 182.975 267.617 182.295 267.89 182.67C268.163 183.044 268.633 182.908 268.934 182.367C269.587 181.193 269.603 181.225 269.814 184.099ZM200.632 121.458C200.177 121.788 199.372 121.946 198.842 121.809C198.312 121.672 198.25 121.29 198.705 120.96C199.16 120.629 199.965 120.471 200.495 120.608C201.025 120.745 201.086 121.127 200.632 121.458ZM198.028 120.131C197.646 120.817 197.434 120.803 197.476 120.094C197.514 119.45 196.856 119.193 195.98 119.51C195.121 119.822 194.235 119.828 194.013 119.523C193.315 118.566 194.786 118.038 196.757 118.536C198.154 118.89 198.487 119.307 198.028 120.131ZM191.529 116.187C190.945 116.302 190.7 116.715 190.984 117.104C191.268 117.494 190.95 118.034 190.279 118.305C189.109 118.776 188.815 118.625 186.986 116.609C186.5 116.072 185.892 116.189 185.461 116.902C185.066 117.553 185.001 117.148 185.316 116.002C186.016 113.448 187.4 113.099 190.342 114.732C191.674 115.471 192.159 116.064 191.529 116.187ZM185.238 113.993C184.983 114.451 184.047 114.962 183.158 115.128C182.27 115.294 181.876 115.182 182.283 114.877C182.691 114.573 181.928 114.254 180.587 114.168C178.336 114.025 178.195 113.86 178.757 112.029C179.319 110.198 179.51 110.152 181.255 111.43C182.295 112.191 183.72 112.891 184.422 112.987C185.126 113.083 185.492 113.535 185.238 113.993ZM206.239 165.766C205.784 166.097 205.221 166.104 204.987 165.783C204.752 165.462 204.807 164.757 205.108 164.216C205.409 163.675 205.973 163.668 206.361 164.199C206.748 164.731 206.694 165.436 206.239 165.766ZM227.548 215.216C226.489 215.034 225.347 214.419 225.012 213.849C224.539 213.044 224.664 212.993 225.573 213.624C226.216 214.07 227.025 214.228 227.371 213.977C227.717 213.726 228.332 213.977 228.738 214.533C229.377 215.41 229.218 215.502 227.548 215.216ZM139.4 125.952C139.339 126.787 138.931 127.214 138.337 127.061C137.806 126.923 137.811 126.247 138.348 125.558C139.476 124.11 139.529 124.131 139.4 125.952ZM55.372 99.3681C54.7635 99.4875 54.1762 99.4626 54.0663 99.3119C53.9564 99.1612 54.2389 98.7681 54.6936 98.4379C55.1483 98.1076 55.736 98.1332 55.9993 98.4941C56.2625 98.855 55.9805 99.2487 55.372 99.3681ZM49.3534 100.419C48.7326 100.87 46.8025 101.375 45.0643 101.54C42.3883 101.795 41.957 101.572 42.2494 100.082C42.506 98.7748 42.4186 98.6324 41.9072 99.5284C41.4368 100.354 41.1519 100.307 41.0053 99.3772C40.7413 97.7181 42.8324 96.741 43.4678 98.2261C43.7193 98.8137 45.1286 98.9911 46.6017 98.6213C49.4588 97.9037 51.2269 99.0585 49.3534 100.419ZM32.6541 85.4574C31.9967 87.4537 31.1598 89.0823 30.794 89.0767C29.7861 89.0612 31.6951 82.6961 32.8463 82.2318C33.3989 82.0098 33.3115 83.4612 32.6541 85.4574ZM40.6187 97.5396C40.121 99.1618 37.3918 100.587 35.841 100.035C34.997 99.7349 33.2287 98.5034 31.9098 97.2984C30.039 95.5883 29.7361 94.8209 30.5302 93.8011C31.0899 93.0824 31.1575 92.393 30.6793 92.2697C30.2012 92.1465 30.2396 91.4934 30.7653 90.8183C32.1249 89.0739 32.8855 89.5081 35.4451 93.4946C36.9685 95.8659 38.229 96.9596 39.2989 96.8381C40.1741 96.7393 40.7682 97.0544 40.6187 97.5396Z" fill="#675A4B"/>
<path fill-rule="evenodd" clip-rule="evenodd" d="M308.372 112.807C308.271 113.133 308.637 114.281 309.182 115.357C311.167 119.268 311.718 121.919 311.002 124.101C310.398 125.942 311.875 129.737 313.335 130.097C313.547 130.148 313.503 131.141 313.238 132.302C312.972 133.462 312.881 135.067 313.034 135.87C313.187 136.672 312.681 137.786 311.909 138.347C311.137 138.908 310.892 139.373 311.364 139.38C311.838 139.387 311.265 141.234 310.091 143.483C308.156 147.193 307.384 147.951 301.797 151.63C298.408 153.86 294.624 156.442 293.386 157.368C292.148 158.294 290.94 158.783 290.701 158.456C290.462 158.128 290.02 158.107 289.719 158.409C289.418 158.711 288.344 159.224 287.334 159.549C286.324 159.875 285.401 160.457 285.282 160.844C285.164 161.231 284.197 161.534 283.135 161.517C282.073 161.501 280.82 161.981 280.351 162.583C279.881 163.186 279.185 163.498 278.803 163.278C277.934 162.777 274.228 164.483 270.733 166.992C269.242 168.063 267.598 168.667 267.001 168.365C266.414 168.067 265.699 168.247 265.41 168.766C265.122 169.283 264.07 169.434 263.072 169.101C261.547 168.592 257.573 170.257 258.214 171.136C258.914 172.096 262.67 173.015 263.057 172.321C263.314 171.858 263.893 171.987 264.345 172.606C264.916 173.39 266.415 173.204 269.273 171.994C275.585 169.321 278.129 169.093 278.795 171.142C279.109 172.105 279.256 173.503 279.124 174.249C278.99 174.995 279.484 176.023 280.221 176.535C280.958 177.045 281.325 177.887 281.036 178.406C280.748 178.925 280.903 179.56 281.381 179.817C281.859 180.074 282.261 181.131 282.273 182.165C282.285 183.2 282.503 184.518 282.756 185.094C283.545 186.889 283.304 190.387 282.379 190.568C281.893 190.663 280.521 193.752 279.331 197.431C277.497 203.097 276.506 204.782 272.863 208.432C270.496 210.803 268.018 212.849 267.355 212.979C266.694 213.109 264.224 214.47 261.867 216.005C259.511 217.539 255.827 219.171 253.68 219.631C251.533 220.092 250.277 220.598 250.89 220.757C251.603 220.941 251.517 221.14 250.651 221.31C249.908 221.456 249.216 221.052 249.115 220.412C249.007 219.731 247.623 219.528 245.781 219.923C242.773 220.566 238.884 219.872 237.671 218.474C237.358 218.114 236.402 217.474 235.547 217.051C230.797 214.706 229.876 213.996 229.415 212.326C229.064 211.061 228.855 210.928 228.742 211.897C228.652 212.671 228.176 213.199 227.683 213.072C227.192 212.945 227.221 211.716 227.747 210.341C228.607 208.094 228.54 207.926 227.088 208.681C226.2 209.143 225.497 209.101 225.528 208.589C225.558 208.076 226.142 207.502 226.826 207.313C227.51 207.125 227.026 207.056 225.753 207.16C223.653 207.332 223.572 207.251 224.883 206.298C225.678 205.721 225.896 205.135 225.366 204.998C224.837 204.861 224.782 204.474 225.246 204.137C225.709 203.801 225.642 202.036 225.095 200.215C224.549 198.394 224.026 195.595 223.934 193.996C223.841 192.396 223.209 190.805 222.528 190.461C221.768 190.075 221.741 189.746 222.459 189.605C223.102 189.479 223.269 189.06 222.831 188.673C222.393 188.287 221.927 187.195 221.796 186.247C221.664 185.299 221.389 183.34 221.183 181.893C220.971 180.397 219.092 177.057 216.827 174.147C210.588 166.134 210.275 165.854 208.489 166.683C207.151 167.304 207.076 167.255 208.098 166.423C209.169 165.553 208.923 165.025 206.494 162.972C204.917 161.64 202.99 159.944 202.213 159.204C199.772 156.879 196.875 155.067 195.262 154.857C194.407 154.746 193.816 154.535 193.947 154.389C194.596 153.671 189.361 150.3 188.233 150.708C187.517 150.967 186.655 150.486 186.317 149.637C185.979 148.789 184.945 148.013 184.02 147.914C183.095 147.816 182.262 147.535 182.17 147.29C182.077 147.047 181.687 146.649 181.302 146.406C179.832 145.478 174.832 140.616 174.461 139.754C174.247 139.257 173.696 139.124 173.235 139.459C172.775 139.793 172.311 139.517 172.205 138.845C171.938 137.164 162.63 132.111 154.267 129.108C150.454 127.737 146.976 126.126 146.539 125.527C146.102 124.928 145.246 124.536 144.638 124.655C144.029 124.774 143.125 124.314 142.627 123.632C142.129 122.95 141.476 122.834 141.175 123.375C140.588 124.431 140.379 124.327 138.383 121.995C137.668 121.161 136.025 120.22 134.73 119.905C133.435 119.589 131.227 118.778 129.824 118.102C128.421 117.426 126.906 117.138 126.458 117.464C126.009 117.789 125.558 117.523 125.455 116.873C125.351 116.223 124.265 115.625 123.04 115.544C121.814 115.464 120.609 115.118 120.36 114.777C119.41 113.475 109.741 108.735 109.053 109.234C108.655 109.523 108.358 109.287 108.392 108.71C108.427 108.133 106.795 107.29 104.767 106.837C93.978 104.429 87.3269 102.321 80.3594 99.0968C78.6862 98.3217 75.8794 98.3729 71.9884 99.2476C68.7689 99.9714 65.8827 100.746 65.5759 100.969C65.2692 101.192 63.2741 101.812 61.1421 102.346C59.01 102.881 57.1628 103.653 57.0378 104.063C56.9116 104.472 56.5937 104.511 56.3305 104.15C56.0672 103.79 54.8923 103.935 53.7208 104.474C51.6256 105.437 45.1097 104.672 40.4077 102.91C39.092 102.417 37.6677 102.266 37.2428 102.575C36.8178 102.883 36.4938 102.75 36.5216 102.278C36.5494 101.806 34.5348 100.967 32.0458 100.414C26.0345 99.0765 24.4888 96.1683 26.172 89.3601C26.8436 86.6411 27.6762 82.7037 28.0207 80.6113C28.5694 77.2851 29.1148 76.4565 32.3468 74.0331C34.3812 72.5081 36.4305 71.3593 36.9001 71.4812C37.3692 71.6025 38.9854 70.6694 40.491 69.4061C41.9962 68.144 43.4114 67.3618 43.6358 67.6694C43.8596 67.9764 44.5654 67.848 45.2045 67.3839C45.8435 66.9197 48.6376 66.3844 51.4131 66.1947C54.1886 66.005 56.9943 65.4613 57.6475 64.9869C58.3006 64.5125 59.311 64.365 59.8922 64.659C60.4739 64.9537 62.9424 64.5164 65.3782 63.6874C67.8669 62.8408 70.3631 62.5665 71.0763 63.0606C72.1368 63.795 72.5457 63.6204 73.562 62C74.7319 60.1343 74.6715 60.0236 71.9536 59.0663C70.3995 58.5187 68.2868 58.1625 67.2579 58.2742C65.5538 58.459 65.5086 58.3865 66.7463 57.46C70.1643 54.9015 69.149 45.2152 65.0561 41.3444C64.5098 40.8276 64.4589 40.118 64.9417 39.7673C65.4254 39.416 65.4248 38.5864 64.9413 37.9235C63.8979 36.4928 64.9415 31.2163 66.5603 29.7388C67.1863 29.1666 68.0039 28.1459 68.3758 27.4697C69.3829 25.6426 81.0741 17.3541 83.5088 16.7421C84.6686 16.4509 86.3626 15.6712 87.2745 15.0089C89.453 13.4266 95.6484 13.3048 100.098 14.7572C102.774 15.6304 104.553 17.0878 107.279 20.6384C109.272 23.2346 110.648 25.543 110.338 25.7681C109.42 26.4353 110.603 40.0106 111.747 41.942C112.326 42.9191 112.501 43.7766 112.138 43.8489C111.773 43.9212 111.487 45.0248 111.5 46.3017C111.513 47.5786 111.231 48.8362 110.874 49.0956C110.517 49.355 110.692 50.7215 111.265 52.132C111.837 53.5426 111.989 54.9264 111.602 55.2075C109.006 57.093 118.67 70.7846 123.35 71.8518C124.582 72.1331 126.305 72.969 127.177 73.7097C130.348 76.4013 141.443 82.5137 146.17 84.1733C148.833 85.1083 151.167 86.0462 151.354 86.2582C151.541 86.4696 152.127 86.6497 152.653 86.6578C153.181 86.6665 153.971 87.1643 154.41 87.7652C154.848 88.3661 156 88.8701 156.969 88.885C157.939 88.8999 159.645 89.6154 160.761 90.4757C162.07 91.4836 163.022 91.6356 163.44 90.9032C163.798 90.2777 163.923 90.6095 163.721 91.6396C163.459 92.9613 163.639 93.3044 164.328 92.8036C164.865 92.4139 165.281 92.4939 165.253 92.9822C165.203 93.8209 173.386 98.5457 177.448 100.023C178.479 100.399 179.293 101.194 179.258 101.791C179.221 102.412 179.783 102.449 180.571 101.877C181.504 101.199 182.019 101.324 182.168 102.26C182.288 103.021 182.947 103.717 183.629 103.808C184.312 103.898 185.983 104.871 187.343 105.97C190.23 108.304 189.951 108.124 192.628 109.366C193.778 109.9 195.959 111.179 197.474 112.209C198.99 113.238 200.657 113.997 201.181 113.894C201.704 113.791 203.091 114.509 204.264 115.489C205.542 116.557 206.879 116.92 207.599 116.397C208.698 115.599 209.772 116.174 211.172 118.308C211.462 118.75 212.019 118.879 212.41 118.595C212.801 118.311 215.332 119.454 218.032 121.135C223.389 124.468 228.137 125.605 229.168 123.801C229.525 123.175 229.644 123.537 229.434 124.605C229.092 126.334 229.438 126.539 232.589 126.475C234.583 126.435 235.791 126.805 235.356 127.323C234.818 127.966 235.275 128.401 236.867 128.764C239.173 129.29 246.466 126.578 257.207 121.2C260.009 119.798 263.682 118.201 265.369 117.653C267.056 117.105 270.115 116.109 272.167 115.44C274.219 114.771 276.14 114.047 276.438 113.831C276.736 113.615 279.07 112.794 281.626 112.008C284.431 111.144 286.842 109.914 287.706 108.906C288.812 107.615 289.185 107.532 289.345 108.538C289.469 109.315 290.233 109.595 291.24 109.23C292.168 108.893 293.139 108.543 293.398 108.452C293.657 108.361 295.23 108.258 296.894 108.223C298.558 108.188 300.207 107.951 300.56 107.695C301.547 106.978 308.72 111.673 308.372 112.807ZM305.762 130.479C306.122 130.218 306.204 128.985 305.944 127.738C305.684 126.491 305.085 125.61 304.613 125.778C304.14 125.946 303.777 125.678 303.806 125.181C303.918 123.288 302.573 121.206 300.584 120.193C298.68 119.225 298.494 119.288 298.244 120.998C298.095 122.02 297.527 123.179 296.981 123.575C295.977 124.304 298.358 127.112 300.435 127.649C300.997 127.794 301.021 128.23 300.489 128.617C299.882 129.058 300.163 129.918 301.239 130.918C302.186 131.796 302.591 132.782 302.139 133.11C301.688 133.438 301.697 133.712 302.16 133.719C302.623 133.727 302.852 134.446 302.67 135.318C302.412 136.553 302.692 136.839 303.935 136.607C306.523 136.123 306.878 135.522 305.968 133.175C305.495 131.954 305.401 130.741 305.762 130.479ZM291.193 116.919C291.326 117.755 291.949 117.744 293.13 116.886C295.429 115.216 294.717 114.448 290.811 114.387C289.053 114.36 287.696 114.451 287.796 114.588C287.896 114.726 285.914 114.892 283.391 114.959C280.867 115.024 278.605 115.434 278.363 115.869C278.122 116.303 277.686 116.333 277.396 115.936C277.106 115.538 276.428 115.779 275.889 116.471C275.35 117.162 274.75 117.51 274.555 117.242C274.36 116.975 272.174 117.267 269.698 117.893C265.442 118.966 265.179 119.131 264.927 120.889C264.54 123.578 265.077 123.895 268.183 122.812C274.54 120.595 284.581 117.997 286.81 117.992C288.127 117.989 289.608 117.469 290.101 116.836C290.683 116.088 291.066 116.118 291.193 116.919ZM269.233 189.255C269.644 187.657 269.905 185.338 269.814 184.099C269.603 181.225 269.587 181.193 268.934 182.367C268.633 182.908 268.163 183.044 267.89 182.67C267.617 182.295 267.086 182.975 266.711 184.182C265.546 187.922 264.468 195.317 264.985 196.026C265.255 196.397 264.674 197.551 263.693 198.59C262.712 199.63 262.091 200.73 262.313 201.034C262.535 201.338 262.034 202.082 261.201 202.687C260.367 203.293 259.563 204.184 259.415 204.668C259.267 205.151 257.803 206.395 256.162 207.433C253.689 208.996 253.33 209.526 254.065 210.533C254.588 211.25 255.773 211.367 256.956 210.819C258.918 209.909 265.056 202.591 266.175 199.829C266.485 199.061 266.902 198.655 267.1 198.927C267.298 199.198 267.912 198.09 268.465 196.463C269.017 194.836 269.249 193.202 268.978 192.832C268.708 192.461 268.823 190.852 269.233 189.255ZM198.842 121.809C199.372 121.946 200.177 121.788 200.632 121.458C201.086 121.127 201.025 120.745 200.495 120.608C199.965 120.471 199.16 120.629 198.705 120.96C198.25 121.29 198.312 121.672 198.842 121.809ZM197.476 120.094C197.434 120.803 197.646 120.817 198.028 120.131C198.487 119.307 198.154 118.89 196.757 118.536C194.786 118.038 193.315 118.566 194.013 119.523C194.235 119.828 195.121 119.822 195.98 119.51C196.856 119.193 197.514 119.45 197.476 120.094ZM190.984 117.104C190.7 116.715 190.945 116.302 191.529 116.187C192.159 116.064 191.674 115.471 190.342 114.732C187.4 113.099 186.016 113.448 185.316 116.002C185.001 117.148 185.066 117.553 185.461 116.902C185.892 116.189 186.5 116.072 186.986 116.609C188.815 118.625 189.109 118.776 190.279 118.305C190.95 118.034 191.268 117.494 190.984 117.104ZM183.158 115.128C184.047 114.962 184.983 114.451 185.238 113.993C185.492 113.535 185.126 113.083 184.422 112.987C183.72 112.891 182.295 112.191 181.255 111.43C179.51 110.152 179.319 110.198 178.757 112.029C178.195 113.86 178.336 114.025 180.587 114.168C181.928 114.254 182.691 114.573 182.283 114.877C181.876 115.182 182.27 115.294 183.158 115.128ZM54.0663 99.3119C54.1762 99.4626 54.7635 99.4875 55.372 99.3681C55.9805 99.2487 56.2625 98.855 55.9993 98.4941C55.736 98.1332 55.1483 98.1076 54.6936 98.4379C54.2389 98.7681 53.9564 99.1612 54.0663 99.3119ZM45.0643 101.54C46.8025 101.375 48.7326 100.87 49.3534 100.419C51.2269 99.0585 49.4588 97.9037 46.6017 98.6213C45.1286 98.9911 43.7193 98.8137 43.4678 98.2261C42.8324 96.741 40.7413 97.7181 41.0053 99.3772C41.1519 100.307 41.4368 100.354 41.9072 99.5284C42.4186 98.6324 42.506 98.7748 42.2494 100.082C41.957 101.572 42.3883 101.795 45.0643 101.54ZM30.794 89.0767C31.1598 89.0823 31.9967 87.4537 32.6541 85.4574C33.3115 83.4612 33.3989 82.0098 32.8463 82.2318C31.6951 82.6961 29.7861 89.0612 30.794 89.0767ZM35.841 100.035C37.3918 100.587 40.121 99.1618 40.6187 97.5396C40.7682 97.0544 40.1741 96.7393 39.2989 96.8381C38.229 96.9596 36.9685 95.8659 35.4451 93.4946C32.8855 89.5081 32.1249 89.0739 30.7653 90.8183C30.2396 91.4934 30.2012 92.1465 30.6793 92.2697C31.1575 92.393 31.0899 93.0824 30.5302 93.8011C29.7361 94.8209 30.039 95.5883 31.9098 97.2984C33.2287 98.5034 34.997 99.7349 35.841 100.035Z" fill="#C2A687"/>
</svg>
