<svg width="365" height="337" viewBox="0 0 365 337" fill="none" xmlns="http://www.w3.org/2000/svg">
<path d="M182.135 1.76502C186.132 1.61015 190.314 1.42431 194.7 1.22814C217.283 0.175053 259.778 0.175048 261.873 0.175048C261.873 0.175048 289.832 -1.01225 323.105 2.79746C324.608 2.97297 330.196 4.54228 331.187 4.89331C332.363 5.30629 355.874 15.7133 362.762 41.896C366.396 55.6997 362.426 75.2336 362.169 71.238C361.913 67.2425 357.253 55.2352 344.211 41.5863C331.752 28.5466 311 27.7516 311 27.7516C307.012 27.225 300.823 27.5967 277.312 31.7471C260.494 34.7206 251.351 35.7323 237.407 37.7972C208.776 42.0405 206.398 41.9063 199.74 42.4845C196.53 42.7633 189.306 43.1762 182.144 43.5376C174.982 43.1762 167.758 42.7633 164.548 42.4845C157.899 41.9063 155.512 42.0405 126.881 37.7972C112.937 35.7323 103.794 34.7206 86.9765 31.7471C63.4742 27.5967 57.2758 27.2147 53.288 27.7516C53.288 27.7516 32.5356 28.5466 20.0771 41.5863C7.03499 55.2352 2.38405 67.1599 2.11878 71.238C1.85352 75.3161 -2.10773 55.6997 1.52638 41.896C8.41437 15.7133 31.9255 5.30629 33.1015 4.89331C34.0919 4.54228 39.6712 2.97297 41.1832 2.79746C74.4561 -1.00193 102.415 0.175048 102.415 0.175048C104.502 0.175048 146.997 0.175053 169.588 1.22814C173.974 1.43463 178.156 1.61015 182.153 1.76502H182.135Z" fill="#F4D0D1"/>
<path d="M362.152 71.7747C361.887 67.6965 357.236 55.7718 344.194 42.123C331.735 29.0832 310.983 28.2882 310.983 28.2882C306.995 27.7617 300.806 28.1334 277.294 32.2838C260.477 35.2572 251.334 36.269 237.39 38.3339C208.759 42.5772 206.381 42.443 199.723 43.0212C196.513 43.2999 189.289 43.7129 182.127 44.0743C174.965 43.7129 167.741 43.2999 164.531 43.0212C157.882 42.443 155.494 42.5772 126.864 38.3339C112.92 36.269 103.777 35.2572 86.9592 32.2838C63.4569 28.1334 57.2586 27.7514 53.2708 28.2882C53.2708 28.2882 32.5184 29.0832 20.0599 42.123C7.01777 55.7718 2.36683 67.6965 2.10156 71.7747V337H362.143V71.7747H362.152Z" fill="url(#paint0_linear_509_335)"/>
<defs>
<linearGradient id="paint0_linear_509_335" x1="2.10156" y1="77.9773" x2="362.152" y2="77.9773" gradientUnits="userSpaceOnUse">
<stop stop-color="#836F59"/>
<stop offset="1" stop-color="#554B43"/>
</linearGradient>
</defs>
</svg>
