<svg width="509" height="713" viewBox="0 0 509 713" fill="none" xmlns="http://www.w3.org/2000/svg">
<path d="M0 0H509V694.172H0V0Z" fill="#FEF4EB"/>
<path d="M509 694.172H0V712.847L11.3305 704.193C11.3305 704.193 16.2887 713.215 21.3536 712.847C26.0371 712.507 30.0693 704.193 30.0693 704.193C30.0693 704.193 35.9375 713.312 41.3998 712.847C46.3306 712.427 50.9872 704.193 50.9872 704.193C50.9872 704.193 55.9453 713.215 61.0103 712.847C65.6938 712.507 69.726 704.193 69.726 704.193C69.726 704.193 75.5942 713.312 81.0565 712.847C85.9873 712.427 90.6438 704.193 90.6438 704.193C90.6438 704.193 95.602 713.215 100.667 712.847C105.35 712.507 109.383 704.193 109.383 704.193C109.383 704.193 115.251 713.312 120.713 712.847C125.644 712.427 130.301 704.193 130.301 704.193C130.301 704.193 135.259 713.215 140.324 712.847C145.007 712.507 149.039 704.193 149.039 704.193C149.039 704.193 154.908 713.312 160.37 712.847C165.301 712.427 169.957 704.193 169.957 704.193C169.957 704.193 174.915 713.215 179.98 712.847C184.664 712.507 188.696 704.193 188.696 704.193C188.696 704.193 194.564 713.312 200.027 712.847C204.957 712.427 209.614 704.193 209.614 704.193C209.614 704.193 214.572 713.215 219.637 712.847C224.32 712.507 228.353 704.193 228.353 704.193C228.353 704.193 234.221 713.312 239.683 712.847C244.614 712.427 249.271 704.193 249.271 704.193C249.271 704.193 254.229 713.215 259.294 712.847C263.977 712.507 268.009 704.193 268.009 704.193C268.009 704.193 273.878 713.312 279.34 712.847C284.271 712.427 288.927 704.193 288.927 704.193C288.927 704.193 293.885 713.215 298.95 712.847C303.634 712.507 307.666 704.193 307.666 704.193C307.666 704.193 313.534 713.312 318.997 712.847C323.927 712.427 328.584 704.193 328.584 704.193C328.584 704.193 333.542 713.215 338.607 712.847C343.291 712.507 347.323 704.193 347.323 704.193C347.323 704.193 353.191 713.312 358.653 712.847C363.584 712.427 368.241 704.193 368.241 704.193C368.241 704.193 373.199 713.215 378.264 712.847C382.947 712.507 386.979 704.193 386.979 704.193C386.979 704.193 392.848 713.312 398.31 712.847C403.241 712.427 407.897 704.193 407.897 704.193C407.897 704.193 412.847 712.632 417.92 712.847C423.26 713.074 428.815 704.193 428.815 704.193C428.815 704.193 436.308 714.357 442.324 712.847C446.771 711.732 450.604 704.193 450.604 704.193C450.604 704.193 457.378 713.527 463.242 712.847C468.289 712.262 473.265 704.193 473.265 704.193C473.265 704.193 480.027 713.399 485.903 712.847C491.092 712.36 496.362 704.193 496.362 704.193L509 712.847V694.172Z" fill="#FEF4EB"/>
<path fill-rule="evenodd" clip-rule="evenodd" d="M309.115 564.011C308.798 576.117 308.539 597.024 308.539 610.472V634.921H313.282C315.89 634.921 318.284 634.481 318.602 633.943C318.92 633.406 318.889 612.499 318.536 587.483L317.891 542H313.791H309.69L309.115 564.011ZM322.485 588.489C322.485 629.154 322.647 634.921 323.792 634.921C324.936 634.921 325.099 629.212 325.099 589.013C325.099 549.047 324.93 543.038 323.792 542.581C322.641 542.119 322.485 547.591 322.485 588.489ZM336.43 587.929C336.43 628.408 336.589 634.01 337.745 634.01C338.903 634.01 339.034 628.553 338.835 588.308C338.658 552.727 338.367 542.523 337.519 542.228C336.657 541.927 336.43 551.47 336.43 587.929ZM350.951 560.447C350.637 570.594 350.379 591.295 350.378 606.452L350.375 634.01L353.643 633.997C355.442 633.991 357.795 633.737 358.873 633.436L360.834 632.886V587.443V542H356.179H351.523L350.951 560.447ZM364.439 587.547C364.746 631.668 364.808 633.092 366.423 633.096C368.041 633.099 368.072 632.237 367.512 602.888C367.195 586.271 366.935 565.774 366.935 557.338C366.935 543.829 366.767 542 365.528 542C364.248 542 364.149 546.099 364.439 587.547ZM371.293 587.549C371.293 627.431 371.456 633.099 372.6 633.099C373.745 633.099 373.908 627.431 373.908 587.549C373.908 547.668 373.745 542 372.6 542C371.456 542 371.293 547.668 371.293 587.549ZM122.6 569.557C121.639 614.156 121.831 635.832 123.188 635.832C124.127 635.832 124.468 630.084 124.931 606.452C125.859 559.006 125.71 542.911 124.342 542.911C123.406 542.911 123.06 548.203 122.6 569.557ZM128.793 587.848C128.665 612.563 128.69 633.493 128.85 634.359C129.011 635.224 129.599 635.773 130.158 635.578C130.91 635.317 131.232 623.229 131.4 589.068C131.597 548.668 131.463 542.911 130.327 542.911C129.195 542.911 128.997 548.745 128.793 587.848ZM139.454 589.371V635.832H142.94H146.426V589.371V542.911H142.94H139.454V589.371ZM149.907 583.222C149.903 605.393 149.65 626.301 149.344 629.682C148.815 635.543 148.876 635.832 150.658 635.832H152.527V589.371C152.527 548.68 152.365 542.911 151.22 542.911C150.077 542.911 149.912 548 149.907 583.222ZM158.628 589.429V635.947L161.461 635.661L164.294 635.376L164.519 589.144L164.745 542.911H161.687H158.628V589.429ZM170.652 585.272C170.554 608.57 170.456 629.375 170.434 631.504L170.395 635.376L175.406 635.649L180.418 635.923V589.417V542.911H175.624H170.831L170.652 585.272ZM183.92 589.371L183.875 635.832H186.94H190.005V589.371V542.911H186.985H183.965L183.92 589.371ZM196.22 589.371L195.94 635.832H198.622H201.304L201.538 589.371L201.771 542.911H199.136H196.499L196.22 589.371ZM210.045 558.17C210.042 566.562 209.784 587.47 209.472 604.63C208.974 631.995 209.065 635.832 210.209 635.832C211.323 635.832 211.598 632.126 212.088 610.552C212.405 596.647 212.664 575.741 212.664 564.091C212.666 545.871 212.483 542.911 211.359 542.911C210.249 542.911 210.051 545.217 210.045 558.17ZM216.022 588.005C215.949 612.806 215.852 633.612 215.804 634.237C215.755 634.871 216.915 635.498 218.416 635.651L221.114 635.926L221.684 627.54C221.997 622.928 222.253 601.999 222.253 581.032V542.911H219.203H216.152L216.022 588.005ZM229.78 547.138C229.475 549.462 229.226 570.369 229.226 593.598V635.832H233.968C236.577 635.832 238.966 635.4 239.278 634.872C239.59 634.344 239.557 613.437 239.205 588.412L238.565 542.911H234.449H230.335L229.78 547.138ZM243.171 588.916C243.171 629.201 243.333 634.921 244.479 634.921C245.624 634.921 245.786 629.201 245.786 588.916C245.786 548.63 245.624 542.911 244.479 542.911C243.333 542.911 243.171 548.63 243.171 588.916ZM249.272 565.538C249.272 577.983 249.013 598.685 248.697 611.543L248.121 634.921H250.004H251.887V588.916C251.887 548.63 251.725 542.911 250.58 542.911C249.453 542.911 249.272 546.032 249.272 565.538ZM257.692 558.626C257.379 567.268 257.121 587.97 257.119 604.63C257.117 629.431 257.329 634.921 258.291 634.921C260.038 634.921 260.603 621.316 260.603 579.208C260.603 549.443 260.392 542.911 259.432 542.911C258.521 542.911 258.136 546.379 257.692 558.626ZM266.704 588.916C266.704 629.201 266.866 634.921 268.011 634.921C269.156 634.921 269.319 629.201 269.319 588.916C269.319 548.63 269.156 542.911 268.011 542.911C266.866 542.911 266.704 548.63 266.704 588.916ZM274.45 585.955C274.397 609.629 274.205 630.331 274.025 631.96L273.697 634.921H278.916H284.135V620.493C284.135 612.559 284.395 591.856 284.712 574.489L285.289 542.911H279.919H274.548L274.45 585.955ZM287.622 588.916V634.921H290.812H294.003L293.427 608.809C293.11 594.448 292.851 573.746 292.851 562.804V542.911H290.236H287.622V588.916ZM301.567 588.916C301.567 629.201 301.729 634.921 302.874 634.921C304.019 634.921 304.182 629.201 304.182 588.916C304.182 548.63 304.019 542.911 302.874 542.911C301.729 542.911 301.567 548.63 301.567 588.916ZM342.531 588.46C342.531 628.341 342.694 634.01 343.838 634.01C344.983 634.01 345.146 628.341 345.146 588.46C345.146 548.579 344.983 542.911 343.838 542.911C342.694 542.911 342.531 548.579 342.531 588.46Z" fill="#836F59"/>
</svg>
