<svg width="531" height="379" viewBox="0 0 531 379" fill="none" xmlns="http://www.w3.org/2000/svg">
<path d="M75.422 141.513L116.369 192.923C156.04 176.597 209.086 167.195 267.176 168.394C327.558 169.641 382.024 182.108 421.392 201.283L457.669 159.408L520.493 155.621L483.621 287.888L483.192 287.674C469.108 338.206 375.492 375.674 262.944 373.351C142.951 370.873 46.324 324.092 45.1078 268.401L44.189 268.813L6.7417 129.859L75.422 141.513Z" fill="#9CA066"/>
<ellipse cx="266.636" cy="121.873" rx="261.5" ry="116.5" transform="rotate(1.18279 266.636 121.873)" fill="#CBD089"/>
<ellipse cx="266.487" cy="108.057" rx="225.951" ry="91.829" transform="rotate(1.18279 266.487 108.057)" fill="#6A6D46"/>
<path fill-rule="evenodd" clip-rule="evenodd" d="M279.981 245.636C279.66 245.688 278.295 245.247 276.948 244.658C273.168 243.006 268.946 243.2 267.6 245.088C266.93 246.028 265.893 246.771 265.297 246.74C264.701 246.709 262.834 247.988 261.148 249.581C259.463 251.175 257.499 253.007 256.785 253.653C256.071 254.299 255.874 255.915 256.349 257.242C256.824 258.57 256.922 260.062 256.568 260.559C255.299 262.339 255.485 267.409 256.859 268.507C257.63 269.122 258.264 270.218 258.268 270.943C258.278 272.649 265.542 276.035 270.385 276.593C272.359 276.821 274.525 277.334 275.198 277.734C277.486 279.096 284.261 278.418 287.516 276.502C291.029 274.434 294.768 269.182 295.092 265.858C295.557 261.106 292.925 256.54 287.181 252.13C284.65 250.186 282.126 247.91 281.572 247.07C281.018 246.23 280.302 245.585 279.981 245.636ZM309.553 271.603C305.405 269.936 299.283 269.662 298.258 271.099C297.862 271.655 297.008 271.97 296.36 271.8C294.747 271.378 289.305 278.436 289.079 281.241C288.979 282.493 289.546 285.281 290.34 287.436C291.605 290.874 292.531 291.803 297.851 294.965C301.387 297.067 305.702 298.892 308.195 299.339C312.833 300.172 318.452 298.151 319.436 295.297C319.764 294.345 320.426 293.803 320.907 294.092C321.388 294.381 321.778 294.109 321.775 293.487C321.771 292.864 321.158 292.324 320.413 292.285C319.597 292.243 319.577 292.01 320.362 291.7C321.08 291.417 321.899 291.608 322.183 292.124C323.321 294.189 325.281 287.893 324.729 283.949C324.172 279.98 323.823 279.548 318.606 276.379C315.564 274.531 311.49 272.382 309.553 271.603ZM271.598 251.961C267.861 254.253 262.833 261.446 262.297 265.266C262.041 267.095 262.107 268.756 262.443 268.957C262.779 269.159 263.477 269.837 263.992 270.463C264.508 271.089 267.682 271.292 271.046 270.915C276.733 270.276 277.43 269.914 280.974 265.767C283.249 263.103 284.427 261.092 283.896 260.774C283.409 260.481 281.848 258.705 280.428 256.829C276.092 251.094 274.469 250.2 271.598 251.961ZM310.59 277.412C302.863 274.583 301.629 274.446 300.105 276.248C299.379 277.107 298.144 277.911 297.36 278.035C296.435 278.182 295.809 279.398 295.572 281.508C294.654 289.676 301.637 295.539 310.246 293.829C315.212 292.842 315.968 292.11 319.918 284.458C320.686 282.97 315.902 279.356 310.59 277.412ZM322.868 306.046C321.618 305.553 320.348 305.493 320.046 305.916C319.745 306.339 319.28 306.288 319.013 305.804C317.899 303.78 312.305 304.161 307.584 306.58C302.578 309.146 300.674 311.399 298.649 317.156C297.126 321.489 301.489 328.343 308.016 331.867C308.787 332.283 310.349 333.186 311.486 333.873C312.623 334.56 314.156 334.743 314.893 334.278C315.63 333.815 316.42 333.775 316.648 334.19C317.489 335.717 326.255 333.177 330.483 330.182C334.551 327.301 334.881 326.839 335.462 323.18C336.233 318.323 334.663 314.521 330.612 311.445C328.901 310.146 326.97 308.601 326.32 308.014C325.672 307.425 324.117 306.54 322.868 306.046ZM236.238 255.474C230.031 253.122 223.935 252.222 222.292 253.417C221.48 254.007 219.179 256.402 217.179 258.74C214.386 262.002 213.775 263.273 214.544 264.207C215.095 264.876 215.275 265.83 214.943 266.328C213.7 268.189 214.923 271.695 217.768 274.429C225.215 281.589 230.746 284.02 237.612 283.152C238.66 283.02 239.835 283.101 240.223 283.334C241.632 284.181 247.742 279.567 248.607 277.003C249.083 275.593 249.83 274.689 250.291 274.965C251.749 275.842 253.182 272.689 252.642 269.792C252.354 268.251 251.528 266.958 250.805 266.921C250.082 266.883 249.714 266.538 249.989 266.153C250.613 265.278 245.514 259.857 242.538 258.233C241.316 257.565 238.481 256.324 236.238 255.474ZM314.604 309.26C312.301 309.402 311.011 310.395 307.913 314.408C304.236 319.17 304.141 319.52 305.641 322.733C307.306 326.299 313.91 331.08 315.573 329.923C316.078 329.573 318.508 328.844 320.975 328.304C326.523 327.089 330.016 322.921 328.922 318.827C328.527 317.346 327.701 316.11 327.087 316.079C326.472 316.047 325.966 315.491 325.962 314.843C325.952 313.05 317.833 309.059 314.604 309.26ZM267.875 281.928C266.751 281.506 263.781 281.509 261.275 281.934C258.768 282.359 254.561 282.946 251.927 283.239C249.292 283.532 245.948 284.213 244.496 284.752C243.043 285.291 240.356 286.134 238.523 286.626C236.691 287.118 234.496 287.976 233.645 288.532C232.793 289.087 231.676 289.29 231.161 288.98C230.647 288.672 229.87 288.918 229.435 289.528C229.001 290.138 227.596 290.804 226.314 291.007C223.988 291.377 217.161 294.17 212.535 296.644C211.192 297.363 208.329 300.04 206.172 302.594L202.252 307.236L204.584 315.163C206.86 322.902 209.252 326.059 215.975 330.195C218.035 331.462 224.436 332.856 224.942 332.147C225.188 331.803 227.012 331.803 228.995 332.149C230.978 332.495 233.237 332.268 234.014 331.644C234.794 331.02 236.141 330.666 237.011 330.858C238.987 331.293 242.05 335.379 241.268 336.536C239.523 339.118 254.954 353.073 258.157 351.809C258.812 351.55 259.6 351.797 259.909 352.359C261.209 354.718 266.999 355.88 270.833 354.551C276.572 352.562 279.823 349.799 284.88 342.614C288.877 336.935 289.455 335.437 289.917 329.56C290.205 325.908 290.216 322.62 289.944 322.254C289.672 321.887 289.914 320.934 290.482 320.137C291.05 319.34 291.089 317.988 290.567 317.131C290.045 316.276 289.786 315.471 289.991 315.344C290.78 314.852 291.474 309.681 290.804 309.279C290.415 309.045 290.302 307.48 290.553 305.801C290.805 304.123 290.432 302.402 289.726 301.978C289.02 301.554 288.706 300.837 289.029 300.385C289.351 299.933 289.049 299.533 288.358 299.497C287.666 299.462 287.235 298.786 287.399 297.996C287.775 296.202 272.569 283.689 267.875 281.928ZM225.84 258.252C225.484 258.752 224.245 259.381 223.089 259.648C219.935 260.379 218.712 265.373 220.602 269.807C222.887 275.17 227.468 278.382 233.159 278.615C237.966 278.811 243.699 275.722 243.645 272.964C243.63 272.165 243.356 271.854 243.036 272.271C242.713 272.694 242.437 272.464 242.416 271.752C242.377 270.519 231.717 260.483 228.205 258.373C227.261 257.807 226.197 257.752 225.84 258.252ZM266.482 291.132C265.395 290.666 263.742 290.13 262.81 289.939C260.842 289.536 259.851 289.247 258.677 288.735C257.414 288.184 245.542 290.234 241.061 291.776C238.906 292.52 233.805 294.366 229.727 295.881C225.649 297.396 221.718 298.646 220.992 298.658C220.266 298.67 220.025 298.899 220.454 299.166C220.885 299.434 220.447 299.85 219.483 300.089C218.518 300.329 215.891 302.427 213.646 304.753C209.686 308.856 209.593 309.108 210.503 313.297C211.381 317.336 214.909 323.087 218.147 325.758C219.941 327.237 233.445 325.344 237.375 323.062C239.539 321.804 241.098 321.696 243.291 322.652C246.816 324.189 246.994 324.507 247.235 329.684C247.518 335.757 254.077 343.805 261.65 347.368C263.996 348.473 271.1 343.961 275.368 338.657C278.969 334.181 279.657 332.578 280.517 326.634C282.038 316.127 281.093 302.618 278.624 299.593C276.586 297.098 270.476 292.84 266.482 291.132Z" fill="#644E3D"/>
</svg>
