<svg width="336" height="314" viewBox="0 0 336 314" fill="none" xmlns="http://www.w3.org/2000/svg">
<path d="M83.718 247.295C79.1244 256.538 76.1364 266.566 69.9216 275.012C64.1419 269.603 68.1965 264.057 70.341 259.12C76.2679 245.545 75.6723 231.025 77.3961 216.878C79.1676 202.311 80.1465 187.616 71.2614 174.453C72.194 173.907 73.1422 173.374 74.0904 172.841C73.8333 172.563 73.3791 172.031 73.3387 172.064C72.4531 172.648 71.6184 173.315 70.7824 173.967C65.8357 165.537 67.6069 160.16 76.5642 154.934C84.9862 150.017 94.668 149.794 103.819 147.279C97.975 146.787 91.4876 148.71 86.674 146.701C81.4692 144.528 76.3661 143.292 70.6111 142.046C81.0096 140.664 88.0968 129.466 99.3131 132.69C110.604 135.936 116.596 131.632 113.73 119.606C111.056 108.395 109.753 96.5395 103.609 86.4257C99.9217 80.3489 97.6081 68.8171 90.4192 70.6617C80.9435 73.1063 84.7806 84.3819 86.4071 91.4684C90.534 109.452 83.8612 120.597 67.8156 128.907C50.2525 138.004 48.0973 144.853 53.7266 163.444C59.695 183.195 66.9612 202.596 68.5657 223.47C69.3089 233.037 67.378 241.057 61.3647 249.025C53.0962 259.959 45.3383 271.722 49.6271 286.775L48.9063 286.799C44.7229 286.282 39.3297 288.779 37.9315 281.815C35.5877 270.113 32.4011 258.835 33.3996 246.378C35.045 225.777 31.6589 205.025 29.875 184.555C28.5092 169.058 27.2306 154.501 31.2616 139.35C35.2303 124.464 38.2472 108.359 38.7024 93.9423C39.2576 76.0843 44.1918 59.7585 46.9118 42.791C48.2079 34.7871 51.7952 26.5418 62.7925 26.627C65.2378 26.6442 66.2533 24.6544 66.7316 22.4847C90.8026 19.4756 108.542 30.6673 122.845 48.1374C134.455 62.3104 139.122 79.5689 141.942 97.3292C142.242 98.8522 142.528 100.377 142.83 101.914C144.033 112.859 157.193 117.239 157.668 128.582C153.239 129.165 149.469 128.424 146.868 124.242C145.609 122.205 141.886 119.478 141.225 121.707C138.978 129.282 133.537 125.81 129.174 126.473C124.425 127.187 125.209 130.962 125.34 134.239C113.798 144.184 103.733 156.017 96.6117 168.87C84.4245 190.866 84.7879 215.661 87.2937 240.171C86.0975 242.551 84.9012 244.931 83.705 247.31L83.718 247.295Z" fill="#5F3A2B"/>
<path d="M241.567 60.4672C243.46 59.6578 245.352 58.8342 247.246 58.0249C253.833 60.4234 260.375 58.1458 266.877 57.6144C272.283 57.1848 275.34 59.7813 279.667 62.5912C296.022 73.1703 292.438 89.9775 293.954 104.756C294.805 113.001 299.132 122.623 293.496 130.015C289.281 135.533 289.729 140.517 290.07 146.203C287.821 151.697 281.041 157.136 284.746 162.84C290.558 171.748 286.934 180.077 286.61 188.819C285.745 212.632 280.227 235.38 273.279 258.058C269.554 270.241 264.392 267.422 257.445 262.076C250.436 242.752 247.934 223.068 249.808 202.387C250.567 193.993 248.879 186.949 261.352 190.069C256.583 177.997 259.863 161.938 241.092 162.34C236.816 157.135 237.757 152.411 242.469 148.071L247.622 147.55C250.678 146.575 256.056 148.941 255.905 143.44C255.826 140.581 258.572 134.408 251.25 134.77C250.065 133.772 248.866 132.774 247.681 131.775C255.365 125.086 249.218 124.187 243.973 122.931C241.988 122.453 239.821 122.323 238.838 119.779C241.738 114.959 247.586 114.186 252.362 110.373C247.254 108.283 244.365 102.849 238.202 103.637C226.233 105.179 227.443 100.718 233.277 93.4514C234.966 91.365 236.981 88.1538 235.254 85.4914C233.295 82.4906 230.11 84.7159 227.377 85.1424C218.552 86.5085 209.709 87.6747 200.873 88.9123C205.973 71.1003 222.628 68.9643 236.277 62.7582C238.266 62.516 240.365 62.5372 241.568 60.4814L241.567 60.4672Z" fill="#5F3A2B"/>
<path d="M257.193 262.094C264.184 267.444 269.377 270.264 273.134 258.063C280.138 235.352 285.704 212.573 286.587 188.728C286.917 179.974 290.569 171.633 284.722 162.717C280.982 157.008 287.823 151.557 290.09 146.055C289.75 140.362 289.301 135.371 293.546 129.844C299.224 122.454 294.873 112.808 294.02 104.553C292.503 89.77 296.119 72.9392 279.66 62.3402C275.292 59.5301 272.23 56.9304 266.789 57.3633C260.242 57.8843 253.657 60.1824 247.028 57.784C268.94 46.4072 290.056 52.1762 314.289 60.5109C309.069 60.9953 307.064 61.0516 305.1 61.3925C302.196 61.8927 297.705 59.0075 296.915 64.2139C296.342 68.016 300.345 68.2934 302.855 69.4592C307.07 71.4039 311.273 73.5227 313.934 77.4141C316.525 81.182 313.151 81.2933 310.705 81.7366C309.448 81.1323 308.159 79.5505 306.84 81.3887C305.635 83.0578 307.167 84.1412 308.112 85.2791C316.778 94.9719 309.536 107.323 313.519 117.826C313.708 118.313 314.299 119.383 312.125 119.801C306.51 120.855 306.203 121.446 306.987 124.43C308.256 129.229 310.416 133.801 311.644 138.619C312.941 143.704 318.509 147.916 310.931 154.315C304.575 159.692 306.193 169.649 307.341 178.122C308.077 183.562 307.597 183.693 301.458 185.488C297.825 186.546 298.945 189.427 299.134 191.616C300.009 202.291 299.687 212.227 289.402 219.223C284.328 222.678 288.142 228.712 287.921 233.188C287.072 250.223 280.636 266.436 281.321 283.632C281.629 291.635 277.492 287.419 277.492 287.419C276.27 291.858 267.653 290.495 267.653 290.495C267.653 290.495 266.34 291.929 259.73 284.915C256.521 279.633 253.8 274.161 253.189 267.887C256.599 267.384 256.951 264.784 257.193 262.094Z" fill="#2D3030"/>
<path d="M35.933 305.141C25.8249 288.03 22.0443 275.206 21.2658 255.39C19.9679 222.622 21.3685 189.819 18.7628 157.043C17.524 141.503 21.2208 125.62 23.4058 110.192C24.9437 99.3738 16.7346 90.7368 20.6611 80.615C20.7905 80.2873 20.3673 79.7956 20.4338 79.4164C22.5138 68.8058 23.4088 57.7886 26.9883 47.6846C33.5308 29.2844 48.8898 22.9373 67.5083 22.6015C67.0268 24.7698 66.0058 26.7587 63.5497 26.7427C52.5049 26.677 48.882 34.9053 47.5907 42.9029C44.836 59.8611 39.8865 76.1763 39.3202 94.0219C38.8547 108.414 35.818 124.523 31.8245 139.401C27.7553 154.558 29.047 169.104 30.41 184.575C32.2063 205.028 35.5818 225.751 33.9205 246.353C32.9128 258.815 36.1213 270.069 38.4555 281.762C39.8565 288.72 45.2892 286.222 49.4766 286.737C51.2579 297.951 48.4366 302.4 37.4397 305.719" fill="#2D3030"/>
<path d="M50.1755 286.724C45.8738 271.641 53.6331 259.881 61.8869 248.937C67.8895 240.963 69.8013 232.936 69.0713 223.358C67.4642 202.462 60.2055 183.053 54.2399 163.265C48.6275 144.638 50.7649 137.798 68.3 128.696C84.32 120.381 90.9661 109.227 86.8552 91.2226C85.2296 84.1283 81.3955 72.84 90.8566 70.3952C98.0331 68.536 100.347 80.0947 104.031 86.1787C110.184 96.3174 111.473 108.187 114.145 119.396C117.009 131.436 111.027 135.743 99.752 132.491C88.5658 129.259 81.476 140.454 71.0944 141.849C76.8269 143.099 81.9385 144.35 87.1348 146.513C91.9418 148.525 98.4193 146.602 104.255 147.095C95.1179 149.61 85.4503 149.832 77.0419 154.752C68.099 159.981 66.3317 165.363 71.2731 173.803L71.7658 174.289C80.6396 187.453 79.6655 202.163 77.9001 216.746C76.1822 230.907 76.7803 245.442 70.8654 259.029C68.7238 263.958 64.6766 269.508 70.4504 274.938C70.2635 278.837 67.8751 282.351 64.4209 280.601C56.4651 276.552 54.2821 283.368 50.1755 286.724Z" fill="#B8784A"/>
<path d="M157.725 128.835C157.254 117.555 144.153 113.201 142.956 102.316C143.651 101.58 144.345 100.845 145.041 100.123C146.686 99.8562 148.318 99.6048 149.964 99.3379C151.639 99.2396 153.299 99.1426 154.975 99.0442C159.076 102.134 163.912 99.6429 168.172 100.719C171.296 101.5 176.767 101.349 174.894 107.078C172.82 113.425 176.456 117.7 178.59 123.015C182.184 131.963 186.468 141.205 184.123 151.462C181.046 150.877 177.967 150.277 174.89 149.691C162.781 148.73 150.727 148.206 140.004 155.513C135.431 156.809 130.841 158.063 126.287 159.414C122.21 160.62 121.2 162.913 124.012 166.38C121.93 169.7 118.311 170.879 115.197 172.839C106.492 178.316 100.874 196.574 104.943 207.849C108.531 217.812 118.151 215.377 125.922 216.441C125.083 219.033 124.245 221.638 123.42 224.228C121.21 225.233 118.999 226.223 116.789 227.228C106.777 230.713 98.4806 238.109 87.6851 239.825C85.1787 215.452 84.8338 190.793 96.9685 168.918C104.06 156.136 114.081 144.367 125.571 134.475C128.933 142.16 135.765 145.511 143.227 144.632C151.627 143.639 156.972 137.788 157.755 128.847L157.725 128.835Z" fill="#B8784A"/>
<path d="M184.468 151.226C186.816 140.867 182.511 131.543 178.9 122.529C176.755 117.167 173.103 112.853 175.183 106.452C177.06 100.674 171.582 100.822 168.43 100.034C164.139 98.9488 159.299 101.458 155.18 98.3396C170.224 95.8487 186.484 98.503 199.676 88.045C198.89 91.4024 198.103 94.7598 197.316 98.1172C195.051 98.4714 192.773 98.8413 190.508 99.1955C182.044 105.484 181.268 106.146 186.988 112.818C200.409 128.485 203.079 145.739 197.083 164.907C190.818 176.984 201.665 182.978 206.481 191.117C204.31 191.549 202.14 191.995 199.969 192.427C195.941 187.802 192.801 185.112 188.916 193.237C184.908 201.603 172.46 206.533 174.239 216.667C177.385 234.685 169.44 243.762 153.995 249.258C149.479 246.378 141.133 249.89 140.224 241.028C140.574 240.593 140.937 240.141 141.288 239.72C142.794 240.372 144.24 241.16 145.801 241.634C152.019 243.535 167.632 236.886 166.942 232.412C165.686 224.332 167.201 215.894 163.876 208.093C171.93 199.422 183.353 193.566 186.86 181.053C187.745 178.133 186.134 175.877 184.89 173.529C189.265 166.007 185.85 158.646 184.498 151.238L184.468 151.226Z" fill="#E5D5C2"/>
<path d="M153.254 249.168C168.781 243.651 176.769 234.541 173.61 216.463C171.823 206.293 184.353 201.344 188.368 192.949C192.275 184.796 195.43 187.481 199.465 192.136C199.973 199.49 206.13 202.431 210.839 206.518C206.543 208.608 205.534 212.604 204.83 216.76C196.502 222.36 196.93 231.354 195.76 239.731C194.106 239.913 192.43 240.011 190.787 240.308C187.872 240.839 182.844 238.79 183.074 243.77C183.289 248.592 188.079 248.075 191.894 248.17C200.223 248.365 208.532 248.823 216.859 249.163C211.311 258.885 199.507 263.204 186.737 259.604C175.489 256.442 164.417 252.671 153.268 249.167L153.254 249.168Z" fill="#E3E2E2"/>
<path d="M257.566 262.054C257.323 264.746 256.97 267.347 253.55 267.852C248.073 265.099 248.122 259.063 245.658 254.545C242.531 248.818 238.509 244.559 231.605 243.93C231.975 238.384 237.38 233.799 234.711 227.698C236.391 222.045 237.322 216.446 233.08 211.371C231.082 207.344 229.082 203.301 227.099 199.272C226.762 196.894 226.425 194.515 226.074 192.138C227.621 190.206 229.166 188.259 230.712 186.326C231.044 186.151 231.362 185.977 231.694 185.802C231.382 185.254 231.084 184.704 230.772 184.156C230.812 182.709 230.865 181.247 230.905 179.801C229.601 171.221 243.979 171.589 241.129 162.129C260.076 161.712 256.755 177.82 261.576 189.912C248.987 186.794 250.686 193.851 249.915 202.263C248.009 222.987 250.506 242.71 257.582 262.067L257.566 262.054Z" fill="#B8784A"/>
<path d="M197.272 98.211C198.035 94.8259 198.798 91.4408 199.56 88.0558C200.202 88.098 200.723 88.3694 201.152 88.8675C209.866 87.6373 218.6 86.4779 227.288 85.1193C229.983 84.6948 233.118 82.4414 235.059 85.4884C236.768 88.179 234.787 91.4154 233.126 93.5175C227.386 100.839 226.189 105.34 238.006 103.807C244.083 103.025 246.945 108.516 251.988 110.635C247.285 114.473 241.52 115.256 238.667 120.099C239.657 122.668 241.781 122.805 243.739 123.292C248.915 124.556 254.98 125.476 247.416 132.225C248.587 133.235 249.772 134.245 250.942 135.255C249.768 139.551 248.58 143.848 247.391 148.144C245.691 148.302 243.994 148.489 242.31 148.66C239.104 144.349 229.733 150.408 229.77 141.945C229.859 121.687 212.601 113.447 203.057 99.9274C202.128 98.6181 199.25 98.7543 197.273 98.2254L197.272 98.211Z" fill="#B8784A"/>
<path d="M234.478 227.391C237.113 233.456 231.776 238 231.428 243.498C228.45 244.046 225.484 244.579 222.506 245.127C215.168 235.965 204.908 240.579 195.871 239.444C197.017 231.154 196.604 222.236 204.779 216.713C215.375 238.349 219.973 240.011 234.478 227.391Z" fill="#D7B08F"/>
<path d="M87.5124 240.39C98.3698 238.636 106.678 230.788 116.734 227.11C116.959 230.002 118.479 233.277 121.083 231.526C131.917 224.222 136.38 232.363 141.25 240.055C140.901 240.514 140.539 240.975 140.192 241.45C122.189 231.118 105.875 236.81 89.8863 246.621C88.229 247.644 85.9453 247.536 83.9577 247.964C85.143 245.445 86.3285 242.925 87.5138 240.405L87.5124 240.39Z" fill="#E5D5C2"/>
<path d="M195.803 240.078C205.105 241.118 215.717 236.603 223.205 245.396C221.18 246.59 219.14 247.772 217.115 248.967C208.693 248.673 200.261 248.283 191.825 248.156C187.96 248.087 183.104 248.607 182.912 244.005C182.708 239.266 187.792 241.194 190.746 240.658C192.413 240.365 194.097 240.264 195.789 240.08L195.803 240.078Z" fill="#6B6B6B"/>
<path d="M241.812 61.1086C240.6 63.2762 238.469 63.2322 236.452 63.4797C237.646 61.2686 239.44 60.5127 241.812 61.1086Z" fill="#2D3030"/>
<path d="M145.001 100.107C144.446 100.802 143.892 101.498 143.336 102.18C143.072 100.724 142.82 99.2677 142.555 97.7988C143.373 98.5587 144.182 99.3332 145 100.093L145.001 100.107Z" fill="#E5D5C2"/>
<path d="M154.93 98.877C153.075 98.9814 151.235 99.0843 149.379 99.1887C151.053 96.2696 152.909 96.1653 154.93 98.877Z" fill="#E5D5C2"/>
<path d="M157.707 128.802C156.936 137.684 151.65 143.494 143.338 144.478C135.969 145.346 129.194 142.017 125.864 134.382C125.735 131.145 124.961 127.415 129.639 126.711C133.937 126.057 139.285 129.505 141.509 122.007C142.159 119.804 145.813 122.501 147.068 124.512C149.631 128.644 153.345 129.377 157.707 128.802Z" fill="#864C24"/>
<path d="M71.5278 173.989C72.3565 173.33 73.1573 172.674 74.0194 172.07C74.0727 172.036 74.5044 172.578 74.7565 172.86C73.8317 173.397 72.907 173.934 71.9975 174.484L71.5137 173.99L71.5278 173.989Z" fill="#B8784A"/>
<path d="M196.626 98.3618C198.624 98.8794 201.55 98.737 202.473 100.029C212.098 113.366 229.537 121.46 229.398 141.442C229.342 149.796 238.835 143.794 242.068 148.041C237.367 152.379 236.426 157.072 240.692 162.256C243.515 171.663 229.301 171.289 230.593 179.806C228.005 173.863 226.215 166.311 217.265 173.224L216.853 172.961C216.317 169.037 218.282 166.875 221.124 164.129C225.11 160.274 224.037 156.285 217.713 155.337C226.19 148.582 224.949 140.922 220.365 132.468C215.607 123.685 208.425 117.824 199.787 113.418C193.994 110.47 189.068 106.982 189.857 99.4204C192.104 99.0684 194.364 98.7009 196.611 98.3489L196.626 98.3618Z" fill="#864C24"/>
<path d="M247.644 148.006C248.914 143.488 250.168 138.971 251.437 134.453C259.12 134.061 256.245 140.608 256.332 143.655C256.496 149.492 250.852 146.991 247.644 148.006Z" fill="#864C24"/>
<path d="M186.03 181.65C182.546 194.114 171.205 199.945 163.185 208.583C155.116 212.202 158.701 219.102 158.788 224.834C158.872 230.538 156.023 234.362 151.5 236.719C146.785 239.166 142.282 235.393 141.189 232.28C137.687 222.258 130.386 224.241 123.116 225.016C123.952 222.413 124.786 219.795 125.608 217.193C121.584 203.244 123.661 189.863 128.595 176.46C129.938 172.819 129.28 168.044 123.682 166.87C120.888 163.384 121.882 161.096 125.95 159.871C130.493 158.517 135.075 157.259 139.638 155.961C140.026 160.144 140.413 164.313 140.801 168.496C134.192 179.643 139.14 189.919 147.602 195.175C155.103 199.832 165.5 198.695 172.26 188.869C175.059 184.806 180.236 181.757 186.043 181.634L186.03 181.65Z" fill="#864C24"/>
<path d="M123.797 166.337C129.486 167.475 130.146 172.225 128.771 175.841C123.721 189.151 121.578 202.433 125.638 216.264C117.75 215.202 107.981 217.661 104.356 207.732C100.258 196.496 105.978 178.283 114.824 172.807C117.989 170.848 121.665 169.667 123.784 166.352L123.797 166.337Z" fill="#B26631"/>
<path d="M123.365 224.698C130.699 223.918 138.067 221.932 141.589 231.921C142.689 235.024 147.227 238.78 151.986 236.336C156.551 233.98 159.444 230.164 159.351 224.478C159.269 218.748 155.659 211.872 163.805 208.269C167.147 216.014 165.606 224.398 166.858 232.423C167.547 236.88 151.882 243.485 145.648 241.602C144.082 241.132 142.632 240.351 141.123 239.704C136.295 232.512 131.892 224.894 120.995 231.814C118.381 233.473 116.877 230.394 116.67 227.695C118.896 226.687 121.123 225.693 123.349 224.685L123.365 224.698Z" fill="#B26631"/>
<path d="M184.119 151.223C185.489 158.815 188.925 166.377 184.574 174.056C181.209 173.498 177.844 172.939 174.479 172.381C169.967 159.458 159.729 164.186 150.968 164.409C153.395 157.661 159.614 159.519 164.476 157.961C168.789 156.586 176.276 158.223 174.86 149.352C177.955 149.965 181.051 150.593 184.146 151.206L184.119 151.223Z" fill="#864C24"/>
<path d="M175.264 150.027C176.653 158.441 169.148 156.911 164.822 158.251C159.946 159.754 153.725 158.006 151.263 164.439C149.323 164.927 147.234 165.219 146.518 167.498C144.767 167.689 143.016 167.879 141.264 168.056C140.885 163.973 140.506 159.891 140.129 155.822C150.943 148.643 163.061 149.115 175.264 150.027Z" fill="#B26631"/>
<path d="M189.803 98.9807C188.974 106.629 194.047 110.125 200.018 113.089C208.921 117.518 216.333 123.417 221.209 132.274C225.905 140.799 227.17 148.528 218.425 155.362C216.755 156.343 215.085 157.323 213.417 158.317C212.687 157.299 212.001 157.088 211.432 158.443C208.617 160.152 205.334 161.282 203.752 164.484C201.313 164.667 198.873 164.835 196.434 165.018C202.604 145.741 199.902 128.417 186.192 112.678C180.348 105.982 181.144 105.315 189.817 98.9794L189.803 98.9807Z" fill="#B8784A"/>
<path d="M140.964 168.156C142.719 167.964 144.474 167.772 146.23 167.595C147.527 176.723 148.493 186.185 161.273 185.952C170.237 185.785 175.213 181.624 174.586 172.203C177.963 172.742 181.341 173.281 184.718 173.821C185.968 176.176 187.588 178.438 186.697 181.368C180.824 181.494 175.589 184.58 172.757 188.673C165.916 198.57 155.415 199.718 147.817 195.033C139.262 189.743 134.262 179.399 140.951 168.172L140.964 168.156Z" fill="#5F3A2B"/>
<path d="M197.088 165.102C199.388 164.931 201.689 164.774 203.989 164.604C204.601 173.306 210.521 173.665 216.988 173.15C216.988 173.15 217.389 173.411 217.375 173.412C215.969 181.563 214.831 189.59 225.733 192.07C226.062 194.411 226.39 196.751 226.719 199.091C218.849 199.069 213.909 191.379 206.182 190.946C201.517 182.918 191.035 176.992 197.06 165.105L197.088 165.102Z" fill="#864C24"/>
<path d="M205.918 191.017C214.001 191.461 219.187 199.447 227.435 199.463C229.455 203.583 231.475 207.702 233.48 211.823C225.918 210.224 218.342 208.626 210.781 207.027C206.038 202.865 199.85 199.84 199.314 192.337C201.525 191.896 203.72 191.442 205.916 191.002L205.918 191.017Z" fill="#D7B08F"/>
<path d="M210.967 207.233C218.435 208.715 225.916 210.182 233.385 211.678C237.586 216.587 236.655 221.987 234.965 227.456C220.249 239.796 215.605 238.206 204.96 217.133C205.67 213.107 206.686 209.247 210.967 207.233Z" fill="#2D3030"/>
<path d="M225.751 192.486C214.495 189.938 215.672 181.664 217.128 173.291C226.112 166.264 227.92 173.955 230.528 180.008C230.492 181.486 230.441 182.952 230.405 184.43C230.344 185.166 230.34 185.897 230.364 186.625C228.831 188.578 227.299 190.546 225.767 192.5L225.751 192.486Z" fill="#5F3A2B"/>
<path d="M231.14 186.435C231.118 185.694 231.143 184.95 231.2 184.202C231.535 184.765 231.87 185.328 232.19 185.892C231.829 186.074 231.485 186.254 231.124 186.436L231.14 186.435Z" fill="#864C24"/>
<path d="M217.265 173.249C210.365 173.802 204.051 173.456 203.431 164.527C205.022 161.306 208.326 160.17 211.158 158.45L212.162 158.357L213.171 158.322C214.851 157.336 216.53 156.35 218.209 155.349C224.772 156.298 225.877 160.347 221.731 164.271C218.775 167.065 216.731 169.264 217.28 173.248L217.265 173.249Z" fill="#B26631"/>
<path d="M173.994 172.035C174.661 181.779 169.915 186.046 161.314 186.157C149.052 186.308 148.061 176.519 146.752 167.074C147.419 164.65 149.426 164.359 151.289 163.858C159.743 163.671 169.573 158.932 173.98 172.036L173.994 172.035Z" fill="#2D3030"/>
</svg>
