<svg width="795" height="703" viewBox="0 0 795 703" fill="none" xmlns="http://www.w3.org/2000/svg">
<g clip-path="url(#clip0_503_244)">
<path d="M365.522 668.251C363.3 668.29 361.096 668.329 358.893 668.349C336.913 667.13 314.44 668.467 293.126 663.946C274.794 660.075 256.139 656.497 238.036 650.365C217.386 643.368 197.383 632.165 174.587 633.816C157.66 635.035 143.185 628.254 129.526 619.331C124.815 616.245 120.028 614.201 114.994 612.02C93.0907 602.507 70.1996 607.872 47.8025 606.123C43.0913 605.75 34.7518 607.754 34.8278 602.31C26.2792 593.702 23.2018 585.152 17.6167 577.054C11.3668 568.013 2.26739 560.545 7.79544 549.42C13.0575 538.846 24.6835 545.686 33.46 544.467C34.3338 549.715 36.8794 550.835 41.6286 548.693C45.124 547.121 50.481 542.698 48.1824 553.017C47.0996 557.93 52.5897 555.159 53.6725 553.941C63.9877 542.286 87.3726 543.288 84.8081 518.72C84.2952 513.846 91.248 510.052 95.7882 506.75C98.6377 504.667 103.311 503.37 100.062 497.1C87.3347 498.928 79.1091 510.779 66.9322 513.629C65.2985 505.355 68.8129 496.373 63.7027 488.57C57.6048 479.293 59.5425 471.294 65.1655 461.958C71.8713 450.814 80.9708 439.63 73.999 424.103C71.3394 418.187 77.8743 414.119 81.8636 410.326C83.9912 408.321 87.5436 406.827 88.8544 410.149C93.5846 422.256 100.043 413.706 106.255 412.547C115.811 410.758 123.903 399.752 134.01 405.314C140.905 409.107 145.275 406.749 150.613 404.017C166.741 395.781 182.869 387.546 198.997 379.291C201.277 395.152 188.568 410.09 194.989 426.717C201.125 424.713 201.676 417.401 209.199 417.047C207.299 432.299 205.779 447.296 203.462 462.154C199.643 486.703 199.415 486.663 221.698 480.885C221.983 492.678 209.502 497.513 207.204 507.36C214.328 511.173 216.113 499.95 221.964 503.291C224.681 508.48 219.533 515.084 225.156 518.916C232.565 518.504 233.571 509.6 240.125 508.303C240.999 521.57 240.334 534.994 249.13 548.378C259.901 526.719 268.867 506.573 282.488 489.336C293.335 507.202 304.182 525.049 316.511 545.352C319.151 532.635 321.146 523.024 324.034 509.227C327.168 520.882 330.113 528.351 331.043 536.075C332.62 549.341 335.831 555.474 349.679 546.649C355.207 543.131 362.996 539.357 371.24 543.19C368.448 551.661 362.882 556.201 356.974 560.328C354.447 562.097 349.641 561.842 350.61 566.578C351.37 570.234 355.074 571.335 358.38 572.101C363.205 573.202 367.992 574.696 372.893 575.207C388.299 576.818 403.763 578.057 419.359 579.472C417.934 586.999 410.222 585.545 408.018 593.584C426.616 585.938 441.015 588.473 445.917 613.14C450.096 603.489 446.391 595.883 451.16 590.498C459.974 592.66 458.739 617.896 474.393 600.168C474.81 599.696 478.458 601.544 479.997 602.998C489.172 611.685 501.14 615.321 511.474 621.866C514.438 623.753 518.408 629.021 520.84 623.203C524.829 613.67 529.692 618.741 533.681 621.611C541.166 626.996 549.031 629.256 558.13 630.593C579.368 633.718 593.217 647.496 601.158 667.818C594.509 674.245 589.646 683.856 578.134 681.596C576.785 663.573 564.931 657.284 550.094 653.962C559.897 663.455 569.547 672.575 568.578 688.043C547.112 687.04 525.855 691.109 504.16 682.618C486.532 675.739 468.998 664.399 448.443 667.917C420.803 660.291 393.201 667.74 365.579 668.212L365.522 668.251Z" fill="#EBAF81"/>
<path d="M198.96 379.331C182.831 387.566 166.703 395.801 150.575 404.056C145.237 406.788 140.887 409.147 133.972 405.353C123.866 399.791 115.773 410.798 106.218 412.586C100.006 413.746 93.5469 422.295 88.8167 410.188C87.5249 406.867 83.9535 408.36 81.8259 410.365C77.8366 414.159 71.3017 418.207 73.9612 424.143C80.933 439.67 71.8336 450.834 65.1278 461.997C59.5048 471.353 57.5861 479.333 63.665 488.61C68.7751 496.393 65.2608 505.394 66.8945 513.649C64.5389 515.772 62.1833 517.895 59.8277 520.017C60.8345 503.665 49.5695 489.238 53.1219 472.316C54.2617 466.852 53.6918 461.349 58.289 456.966C68.9271 446.805 68.6422 435.68 59.9607 424.261C62.9811 422.119 68.1103 417.264 63.836 416.085C54.3566 413.471 49.8734 402.916 38.4184 403.073C25.7096 403.25 12.9248 399.103 0.178036 396.823C-0.429859 393.541 -0.448856 390.003 -1.74063 387.035C-9.90922 368.089 -9.30132 366.575 9.52442 361.996C15.9643 360.423 32.5294 338.587 31.6556 332.082C31.2377 328.878 30.0409 325.065 27.8752 323.021C25.2347 320.525 20.4665 320.014 23.506 314.569C32.8334 308.477 35.6259 300.064 34.885 288.567C33.3083 263.704 44.3074 244.953 64.2729 231.51C75.8229 223.727 87.107 215.668 96.3964 204.878C98.8279 202.048 102.399 198.667 105.667 198.412C139.538 195.719 171.889 175.121 206.9 187.582C232.508 196.702 258.97 204.662 279.221 225.083C279.107 231.962 278.499 239.116 288.434 238.939C292.955 238.861 295.349 241.475 295.9 246.015C294.076 250.535 292.233 255.075 290.41 259.596C286.99 260.48 285.965 263.036 286.021 266.337C285.699 272.961 281.234 277.521 278.347 282.867C236.82 297.234 208.534 330.332 202.322 371.548C201.923 374.26 200.118 376.736 198.96 379.311V379.331ZM103.9 374.614C150.366 360.895 218.222 313.331 222.895 292.222C207.983 298.767 192.748 305.155 177.721 312.093C160.168 320.191 140.279 322.195 124.303 334.283C121.092 336.72 114.006 340.317 119.591 343.756C131.673 351.225 120.883 354.154 118.205 358.713C114.823 364.472 106.465 365.219 103.9 374.594V374.614ZM177.835 238.31C177.493 231.254 166.798 231.372 172.497 223.078C176.069 217.909 169.762 217.929 167.387 218.793C140.412 228.817 113.607 239.293 93.7938 264.569C128.102 270.504 147.915 238.605 177.835 238.31Z" fill="#F7D9BE"/>
<path d="M514.836 19.2417C530.509 31.1719 547.967 41.3333 553.077 63.2676C553.704 65.9603 557.769 69.9108 559.991 69.7339C576.025 68.5154 587.67 78.4998 600.891 84.9858C613.771 91.2949 626.366 86.9709 638.163 79.6987C649.01 73.0359 659.211 64.4862 673.44 67.6506C681.779 69.5177 684.021 58.9436 691.544 57.332C705.544 54.3445 719.393 55.8382 733.127 57.332C745.76 58.7078 757.443 78.1657 755.468 91.059C750.984 120.541 752.295 151.064 739.282 179.013C733.735 190.923 747.147 190.825 751.953 194.992C761.319 203.089 770.931 223.039 773.685 235.932C778.739 259.517 774.54 285.068 787.667 306.924C790.042 310.894 791.846 318.166 788.484 319.581C771.102 326.932 787.173 335.324 788.351 341.948C789.168 346.645 800.908 349.77 787.61 353.918C786.907 354.134 786.622 355.765 786.147 356.728C801.269 359.814 788.066 371.194 791.903 378.545C797.488 389.237 796.329 399.693 781.455 404.587C773.078 407.338 777.086 415.79 779.726 422.04C785.919 436.702 789.966 451.541 790.118 468.031C790.289 487.017 770.931 499.635 776.098 519.545C759.153 526.425 762.42 540.084 764.396 554.118C765.175 559.621 762.249 565.281 754.556 564.751C747.394 564.24 740.194 564.475 733.032 564.122C728.91 563.925 723.743 560.545 721.843 567.031C720.286 572.357 724.56 575.403 728.264 577.841C737.06 583.619 746.14 588.375 750.186 599.873C757.823 621.552 751.364 637.551 730.126 646.533C720.647 650.542 710.692 650.306 700.776 650.562L699.959 649.108C702.942 647.044 704.043 643.958 704.29 640.44C715.404 643.84 723.8 635.035 733.811 633.443C746.501 634.131 738.067 624.756 739.719 620.196C744.886 616.599 744.297 612.393 741.771 607.165C736.015 595.333 727.162 588.041 714.587 585.525C709.496 578.234 706.399 570.293 707.045 561.115C709.325 559.385 709.97 553.43 714.663 558.029C715.043 560.368 715.423 562.687 715.802 565.026C716.562 563.257 717.322 561.488 718.082 559.719C719.963 558.815 721.862 557.931 723.743 557.026C729.252 557.42 734.761 558.127 740.251 558.068C743.861 558.029 750.965 559.365 750.566 556.437C749.066 545.45 757.823 535.446 752.637 524.38C750.832 520.548 745.969 516.361 749.351 512.155C753.34 507.202 757.101 512.863 760.768 514.671C765.517 517.01 770.779 517.108 770.152 510.524C768.765 495.901 773.495 483.145 776.953 469.427C781.512 451.325 777.352 432.535 767.91 415.593C763.484 407.633 760.141 398.71 768.556 391.025C779.08 381.394 779.194 370.997 768.366 361.386C762.724 356.374 762.629 323.335 768.252 318.638C779.099 309.577 781.816 290.394 771.539 281.687C765.232 276.322 763.56 271.094 764.624 264.333C766.372 253.228 761.47 243.597 756.436 235.637C747.831 222.056 749.066 203.129 733.374 193.262C728.321 190.078 728.948 180.054 731.703 175.553C740.726 160.793 737.44 143.654 741.961 127.97C746.976 110.537 751.022 88.6612 734.286 75.4927C720.913 64.9776 704.024 68.8888 687.915 75.5517C667.076 84.1603 645.249 90.3121 623.744 97.1126C597.13 105.505 577.221 80.2294 551.918 81.1728C550.854 81.2121 549.467 77.7333 548.536 75.7285C536.625 50.2367 522.169 27.6341 492.99 20.5585C489.419 19.6937 473.404 17.0797 473.062 12.5002C484.252 8.37278 505.319 16.4901 514.836 19.2024V19.2417Z" fill="#D7B08F"/>
<path d="M33.4409 544.467C24.6835 545.686 13.0385 538.826 7.77639 549.42C2.24835 560.545 11.3478 567.994 17.5977 577.054C23.1827 585.152 34.9797 588.965 34.8087 602.31C34.7327 607.774 43.0913 605.77 47.7834 606.123C70.1806 607.873 93.0716 602.527 114.975 612.02C120.028 614.201 124.796 616.265 129.507 619.331C143.147 628.234 157.641 635.035 174.567 633.816C197.364 632.165 217.367 643.368 238.016 650.365C256.12 656.498 274.775 660.075 293.107 663.947C314.421 668.467 336.894 667.131 358.874 668.349C341.549 672.084 325.23 674.324 306.424 671.514C286.724 668.565 267.1 666.148 247.325 661.942C228.518 657.932 211.934 648.341 193.488 643.938C188.929 642.857 184.275 639.732 179.507 640.656C154.792 645.354 135.7 632.106 116.21 620.078C108.953 615.597 101.544 612.609 92.8056 612.943C81.2176 613.376 69.6107 613.002 58.0037 612.963C21.492 612.865 8.65023 602.291 0.234694 565.38C-5.27435 541.205 -3.37468 537.687 21.682 537.883C35.8155 537.981 43.7182 525.933 56.009 523.516C50.272 532.557 44.0411 541.067 33.4029 544.467H33.4409Z" fill="#F7D9BE"/>
<path d="M33.4414 544.467C44.0795 541.067 50.2914 532.557 56.0474 523.516C57.3012 522.336 58.574 521.177 59.8278 519.998C62.1834 517.875 64.539 515.752 66.8946 513.629C79.0714 510.78 87.297 498.908 100.025 497.1C103.273 503.37 98.6001 504.667 95.7506 506.75C91.2293 510.052 84.2575 513.846 84.7705 518.72C87.335 543.288 63.9501 542.305 53.6349 553.941C52.552 555.159 47.062 557.911 48.1448 553.017C50.4434 542.679 45.0673 547.121 41.5909 548.693C36.8418 550.835 34.2772 549.715 33.4224 544.467H33.4414Z" fill="#CC884C"/>
<path d="M23.506 314.569C20.4855 320.013 25.2347 320.505 27.8752 323.021C30.0408 325.065 31.2186 328.878 31.6556 332.081C32.5104 338.567 15.9453 360.423 9.52439 361.995C-9.30135 366.575 -9.90924 368.088 -1.74066 387.035C-0.46788 390.003 -0.429886 393.541 0.178009 396.823C-17.337 397.55 -13.6896 380.353 -18.6287 371.331C-22.941 363.469 -12.7208 360.954 -7.2497 357.848C5.55408 350.537 14.9385 341.162 13.5707 324.455C12.9818 317.085 16.5722 313.98 23.506 314.589V314.569Z" fill="#F2E0CF"/>
<path d="M0.177734 396.823C12.9245 399.084 25.6903 403.25 38.4181 403.073C49.8731 402.916 54.3753 413.471 63.8357 416.085C68.11 417.264 62.9998 422.138 59.9604 424.261C47.3276 419.662 34.9797 413.824 21.986 410.896C12.4876 408.753 4.81293 405.943 0.177734 396.823Z" fill="#F2E0CF"/>
<path d="M479.142 8.17603C479.465 8.07775 478.819 8.2743 479.142 8.17603L484.594 11.5762C485.221 15.7233 489.628 19.7721 492.971 20.578C522.15 27.6536 536.607 50.2562 548.518 75.748C549.449 77.7331 550.835 81.2316 551.899 81.1923C577.184 80.2489 597.092 105.524 623.726 97.132C645.249 90.3512 667.057 84.1994 687.897 75.5711C704.006 68.9082 720.913 64.997 734.267 75.5121C751.004 88.661 746.957 110.536 741.942 127.989C737.421 143.674 740.726 160.812 731.684 175.573C728.929 180.074 728.302 190.098 733.356 193.282C749.066 203.148 747.812 222.075 756.418 235.657C761.452 243.597 766.353 253.247 764.605 264.352C763.541 271.113 765.213 276.361 771.52 281.707C781.778 290.433 779.081 309.597 768.234 318.657C762.611 323.355 762.706 356.394 768.348 361.406C779.195 371.017 779.062 381.434 768.538 391.045C760.122 398.729 763.465 407.653 767.892 415.613C777.333 432.555 781.493 451.344 776.934 469.446C773.477 483.165 768.728 495.921 770.133 510.544C770.76 517.128 765.498 517.029 760.749 514.691C757.064 512.882 753.321 507.222 749.332 512.175C745.95 516.361 750.814 520.567 752.618 524.4C757.804 535.465 749.066 545.45 750.548 556.456C750.947 559.404 743.842 558.048 740.232 558.088C735.483 558.147 730.734 557.616 725.985 557.223C724.75 557.125 723.838 556.024 723.933 554.746C724.123 552.073 724.199 549.341 725.073 546.924C731.304 529.431 746.254 514.769 740.973 493.542C740.479 491.557 741.505 487.744 743.994 489.494C756.247 498.083 750.396 485.464 750.092 483.342C748.857 474.655 746.71 466.105 744.849 457.791C744.488 456.219 745.798 454.725 747.337 455C750.339 455.491 752.751 459.245 755.259 456.199C757.937 452.976 754.48 449.89 753.397 446.883C751.194 440.672 743.956 434.442 755.126 429.115C757.975 427.759 755.221 423.808 752.903 422.393C745.855 418.128 739.872 411.701 732.539 409.146C731.361 408.734 730.069 409.382 729.689 410.601C724.066 428.683 726.46 446.745 725.681 464.316C724.674 487.233 707.349 504.411 708.698 527.348C708.793 528.979 709.325 532.989 705.259 533.539C698.801 534.404 698.915 534.542 700.054 540.536C701.384 547.494 702.239 554.609 706.494 560.505C706.798 560.937 706.969 561.448 706.931 561.979C706.532 570.804 709.591 578.489 714.511 585.564C717.664 590.164 720.818 594.782 723.971 599.382L724.104 599.244C699.826 600.05 680.374 588.847 662.27 572.946C660.75 571.61 658.357 572.887 658.623 574.931C659.23 579.57 662.764 583.265 662.897 587.471C662.935 589.024 661.491 590.164 660.047 589.751C648.706 586.449 648.934 587.294 650.568 601.563C650.853 604.079 652.354 607.597 649.504 609.445C648.839 609.877 647.984 609.877 647.32 609.484C643.406 607.184 645.667 601.229 642.133 598.399C641.26 597.691 639.949 597.809 639.189 598.654C633.034 605.573 630.963 613.945 630.944 623.085C630.944 624.736 629.311 625.856 627.848 625.208C617.875 620.785 607.882 616.363 597.814 611.901C596.446 611.292 594.908 612.216 594.718 613.729C593.521 623.399 592.799 624.834 586.264 625.935C584.63 626.21 583.871 628.215 584.858 629.59C590.272 637.098 595.668 644.469 600.873 651.977C603.893 656.34 607.142 660.9 603.608 665.479C602.563 666.836 600.512 666.501 599.828 664.929C591.716 646.238 578.191 633.659 558.016 630.671C548.917 629.335 541.052 627.075 533.567 621.689C529.578 618.82 524.696 613.749 520.725 623.281C518.294 629.099 514.324 623.832 511.36 621.945C501.026 615.38 489.058 611.764 479.883 603.077C478.344 601.622 474.696 599.775 474.279 600.246C459.917 616.52 459.765 596.61 453.04 591.539C452.014 590.773 450.533 591.068 449.887 592.188C447.949 595.608 448.405 599.775 447.911 604.688C447.664 607.125 444.435 607.499 443.599 605.219C438.204 590.498 427.775 587.589 414.553 591.343C412.121 592.031 410.564 588.709 412.653 587.235C414.534 585.918 416.51 584.877 417.839 582.95C418.846 581.496 417.934 579.452 416.206 579.295C401.616 577.998 387.16 576.818 372.722 575.305C367.84 574.794 363.034 573.3 358.209 572.199C354.903 571.433 351.199 570.332 350.439 566.677C349.47 561.96 354.276 562.195 356.803 560.426C362.16 556.692 367.213 552.604 370.215 545.587C370.747 544.31 370.12 542.796 368.847 542.403C361.438 540.123 354.561 543.524 349.527 546.727C335.679 555.552 332.468 549.42 330.891 536.153C330.227 530.512 328.479 525.029 326.351 517.953C325.667 515.693 322.533 515.831 322.039 518.15C320.443 525.795 319.056 532.478 317.518 539.907C317.1 541.932 314.516 542.403 313.452 540.654C302.548 522.71 292.746 506.573 282.982 490.496C282.583 489.847 282.526 489.022 282.83 488.314C289.403 473.298 303.118 462.331 305.892 445.153C306.063 444.564 306.234 443.974 306.424 443.384C306.082 443.817 305.759 444.229 305.417 444.662C303.251 444.426 300.326 445.016 299.034 443.777C294.475 439.414 296.07 427.228 285.679 430.452C284.52 430.805 283.286 430.216 282.887 429.037C282.583 428.152 282.374 427.287 282.564 426.54C288.643 401.992 274.186 377.051 283.932 352.6C285.014 349.868 285.736 347.097 285.736 344.228C285.736 341.692 282.298 341.103 281.424 343.461C280.987 344.64 280.55 345.78 279.847 346.684C278.574 348.276 276.067 347.294 275.953 345.25C275.003 328.19 281.291 312.722 286.496 297.214C289.251 288.999 288.814 284.321 281.728 283.24C280.132 283.004 279.372 281.078 280.265 279.682C282.64 275.987 285.185 272.391 285.812 267.85C285.926 267.005 286.553 266.337 287.332 266.062C289.783 265.217 291.207 263.644 290.58 260.637C293.012 255.193 294.912 250.928 297.324 245.484C307.108 240.845 311.135 229.112 321.868 224.453C327.187 222.134 321.716 220.778 318.563 219.245C317.689 218.832 317.176 217.83 317.328 216.847C320.177 196.662 333.247 186.265 352.491 179.759C354.656 179.032 354.466 175.789 352.244 175.317C345.139 173.804 340.143 176.221 335.09 177.46C331.822 178.246 328.08 178.875 326.161 175.376C324.319 171.996 326.389 169.067 328.707 166.276C334.691 159.083 340.2 151.437 347.855 145.954C348.178 145.718 348.444 145.384 348.615 145.01C353.421 133.571 360.184 124.805 373.843 124.766C376.825 124.766 378.003 121.936 378.782 119.243C378.839 119.047 378.915 118.85 379.029 118.654C384.234 109.888 392.821 111.755 400.742 111.421C406.612 111.185 414.116 112.128 408.968 102.242C408.778 101.869 408.664 101.456 408.683 101.043C408.835 97.4858 409.006 93.9283 409.158 90.3709C409.196 89.3292 409.937 88.4448 410.925 88.2286C417.516 86.7938 418.485 81.4871 418.067 75.0208C417.345 63.8767 417.782 52.9488 424.279 43.3575C424.507 43.0233 424.64 42.6303 424.678 42.2175C424.773 40.8417 424.868 39.4659 424.963 38.0901C425.039 37.127 425.685 36.3015 426.597 36.046C431.27 34.7292 432.144 30.9555 431.517 26.1991C431.479 25.9829 431.498 25.7471 431.517 25.5112C431.593 25.0395 431.669 24.5678 431.745 24.0961C431.859 23.2706 432.961 23.0741 433.132 22.2486C435.259 11.478 437.14 8.15637 440.141 5.46371L441.528 4.97235C447.284 1.4149 448.272 0.844921 457.258 0.0980519C460.278 -0.0395292 466.205 0.17667 466.205 0.17667L469.415 0.943193C474.506 3.00691 479.066 8.25464 479.066 8.25464L479.142 8.17603ZM584.839 207.57C589.361 196.76 604.444 196.19 608.68 184.948C609.041 184.005 608.756 182.943 608.015 182.295C607.313 181.705 606.743 181.214 606.192 181.233C601.708 181.371 597.225 181.685 592.742 181.98C591.412 182.059 590.31 180.919 590.386 179.543C591.07 168.674 585.504 159.358 576.709 156.567C575.436 156.154 574.771 154.739 575.265 153.462C577.906 146.74 585.181 139.939 576.937 133.532C564.988 124.216 558.358 127.616 554.749 143.005C553.894 146.622 552.564 148.921 549.183 149.491C548.746 149.57 548.29 149.491 547.891 149.275C541.698 146.17 535.486 143.064 529.293 139.959C528.438 139.527 527.925 138.583 528.058 137.601C528.21 136.421 528.248 135.321 525.874 135.871C526.519 136.795 527.165 137.718 527.792 138.642C528.077 139.055 528.229 139.546 528.21 140.038C528.096 144.067 527.868 147.998 523.765 149.256C522.568 149.609 521.295 148.941 520.953 147.703C520.725 146.897 520.498 146.111 520.27 145.305C519.871 145.6 519.472 145.875 519.054 146.17C519.738 147.094 520.422 148.017 521.086 148.941C521.39 149.354 521.542 149.845 521.542 150.376C521.352 163.918 521.162 177.44 520.953 190.982C520.934 192.672 519.225 193.753 517.762 193.026C516.774 192.535 515.9 191.965 515.425 191.159C499.848 165.117 476.938 164.036 451.71 170.934C449.222 171.622 444.929 174.512 445.024 174.688C450.647 187.346 438.755 183.631 434.537 186.913C434.025 187.307 433.36 187.425 432.714 187.267C415.066 183.081 407.353 201.89 393.334 206.529C385.108 209.241 379.2 215.57 385.716 226.242C390.769 234.536 388.09 238.939 378.364 238.86C375.819 238.86 372.798 237.819 369.55 240.374C367.992 241.592 368.752 244.147 370.709 244.442C387.274 246.84 392.688 266.553 409.177 268.519C411.02 268.735 412.843 270.936 414.287 272.568C431.365 291.809 442.611 315.513 456.802 336.72C474.089 362.526 496.182 365.199 520.725 368.54C522.549 368.796 526.254 367.282 526.33 366.378C527.26 352.777 544.851 359.597 548.195 349.279C548.613 348.021 549.942 347.412 551.158 347.883C566.185 353.819 582.541 336.897 598.251 347.451C599.866 348.532 601.917 347.156 601.651 345.171C600.417 335.855 606.819 334.892 615.88 334.361C632.616 333.359 649.219 332.415 666.088 337.702C667.684 338.194 669.223 336.72 668.9 335.029C667.437 327.698 662.441 323.61 660.712 318.028C660.37 316.908 660.883 315.729 661.909 315.218C666.487 312.918 673.763 314.117 672.889 304.29C670.97 282.67 663.505 271.447 643.672 264.077C642.95 263.802 642.399 263.192 642.247 262.406C641.393 257.984 636.89 255.114 637.479 249.808C639.531 231.116 616.051 205.271 598.593 209.654C594.528 210.676 590.576 211.383 586.549 210.833C585.086 210.636 584.269 208.985 584.858 207.57H584.839ZM464.4 97.2893C464.932 96.9355 465.616 96.9158 466.224 97.0731C476.672 99.864 482.846 97.4268 481.896 84.4352C481.611 80.583 483.834 79.7771 488.146 79.4627C500.988 78.5193 495.745 66.2156 497.682 59.1793C500.095 50.3741 492.534 49.529 486.076 50.1776C478.344 50.9637 471.638 55.9953 464.438 57.4104C445.1 61.2037 434.765 74.7653 438.679 94.0463C439.23 96.7586 441.243 101.554 442.649 99.6085C449.526 90.0368 458.017 101.476 464.438 97.2696L464.4 97.2893ZM719.545 136.008C721.16 126.81 719.773 120.599 708.318 126.162C705.753 127.42 701.251 128.442 702.581 124.864C706.399 114.664 692.836 115.312 693.577 106.92C694.013 101.928 688.694 99.4316 684.097 99.5102C679.348 99.5692 678.474 104.129 677.315 107.962C676.005 112.305 673.991 116.511 673.25 120.953C671.597 130.78 672.547 145.089 679.975 146.583C689.074 148.41 690.765 162.09 700.529 159.358C701.612 159.063 702.733 159.574 703.208 160.616C712.041 180.821 714.815 158.277 719.45 155.565C728.834 150.081 718.918 142.966 719.545 136.028V136.008ZM573.194 518.916C571.903 518.11 570.212 518.916 569.908 520.43C569.661 521.609 569.528 522.258 569.756 522.749C577.032 539.219 572.302 561.566 594.053 571.217C599.752 573.752 600.379 582.105 604.862 589.397C606.173 591.539 609.421 590.105 608.889 587.628C601.594 553.626 604.976 518.975 584.611 491.321C583.206 489.415 580.242 490.732 580.622 493.09C581.553 498.712 582.94 504.215 584.08 509.757C586.644 522.1 582.56 524.675 573.194 518.857V518.916ZM298.654 409.068C304.03 398.533 307.202 387.035 310.47 375.203C311.249 372.392 315.371 373.375 314.801 376.225C314.44 378.033 313.813 379.783 313.509 381.492C313.034 384.107 316.625 385.286 317.727 382.868C324.679 367.381 333.57 335.01 335.299 319.994C335.546 317.753 332.848 316.535 331.404 318.225C309.444 343.933 290.827 371.39 294.456 408.301C294.684 410.561 297.628 411.112 298.654 409.087V409.068Z" fill="#CC884C"/>
<path d="M306.005 445.075C303.137 462.665 288.813 473.75 282.449 489.376C268.829 506.613 259.862 526.758 249.091 548.418C240.296 535.033 240.942 521.609 240.087 508.342C233.514 509.659 232.526 518.563 225.117 518.956C219.494 515.123 224.642 508.5 221.926 503.33C216.075 499.989 214.27 511.212 207.166 507.399C209.464 497.572 221.945 492.717 221.66 480.924C199.377 486.703 199.605 486.722 203.423 462.194C205.741 447.335 207.242 432.319 209.16 417.087C201.637 417.441 201.087 424.752 194.951 426.757C188.53 410.129 201.239 395.192 198.959 379.331C200.118 376.756 201.922 374.279 202.321 371.567C208.552 330.332 236.819 297.254 278.346 282.886C288.699 282.965 289.706 287.721 286.553 297.096C281.025 313.586 274.262 330.018 276.276 348.355C282.316 347.864 280.474 341.004 284.729 338.312C286.61 343.363 285.793 347.982 284.007 352.483C274.262 376.933 288.718 401.874 282.639 426.423C282.297 427.818 283.304 429.548 283.684 431.12C296.374 425.577 294.284 439.041 299.129 443.66C300.42 444.898 303.327 444.288 305.511 444.544L306.005 445.035V445.075Z" fill="#B26631"/>
<path d="M578.096 681.616C576.063 685.605 573.252 688.357 568.521 688.062C569.509 672.594 559.859 663.475 550.057 653.981C564.893 657.283 576.747 663.592 578.096 681.616Z" fill="#B8784A"/>
<path d="M103.899 374.614C106.464 365.239 114.823 364.492 118.204 358.733C120.882 354.173 131.673 351.245 119.591 343.776C114.006 340.317 121.091 336.74 124.302 334.302C140.259 322.215 160.168 320.21 177.721 312.113C192.728 305.194 207.963 298.787 222.895 292.242C218.222 313.331 150.384 360.895 103.899 374.633V374.614Z" fill="#EBAF81"/>
<path d="M177.835 238.31C147.935 238.605 128.121 270.504 93.7939 264.569C113.627 239.313 140.412 228.817 167.387 218.793C169.762 217.909 176.05 217.889 172.497 223.078C166.798 231.372 177.474 231.254 177.835 238.31Z" fill="#EBAF81"/>
<path d="M290.41 259.615C291.758 263.822 289.555 265.551 286.021 266.357C285.964 263.055 286.99 260.5 290.41 259.615Z" fill="#E5D5C2"/>
<path d="M724.066 599.342C720.913 594.743 717.759 590.124 714.606 585.525C727.182 588.021 736.034 595.313 741.79 607.145C744.336 612.373 744.906 616.579 739.758 620.176C733.736 615.931 728.816 609.032 719.279 610.722C723.079 619.704 733.736 623.046 733.831 633.443C723.838 635.035 715.423 643.82 704.31 640.44C701.194 625.149 691.981 616.972 674.523 611.941C681.856 624.48 696.008 626.623 694.28 640.44C675.853 639.044 655.526 646.69 640.671 627.92C639.189 626.033 634.383 626.957 631.115 626.583C630.565 615.518 632.521 605.396 640.443 597.416C646.94 599.696 642.4 607.971 648.535 609.975C652.791 608.383 650.986 604.335 650.682 601.563C648.953 586.39 648.801 586.41 662.498 590.439C665.196 583.422 656.324 578.469 659.25 570.136C678.227 587.491 698.535 600.089 724.199 599.224C724.56 599.5 724.94 599.794 725.301 600.069C724.883 599.834 724.484 599.598 724.066 599.362V599.342Z" fill="#EBAF81"/>
<path d="M707.045 561.134C702.353 555.12 701.498 547.73 700.112 540.517C698.953 534.522 698.858 534.365 705.317 533.52C709.382 532.989 708.85 528.96 708.755 527.329C707.406 504.392 724.731 487.194 725.738 464.297C726.555 446.057 723.933 427.287 730.43 408.498C738.789 410.424 745.21 417.696 752.96 422.374C755.278 423.769 758.033 427.72 755.183 429.096C744.013 434.422 751.251 440.672 753.454 446.863C754.518 449.87 757.995 452.956 755.316 456.179C752.03 460.15 748.914 452.543 744.45 455.708C746.388 464.651 748.8 473.908 750.149 483.303C750.453 485.425 756.304 498.043 744.051 489.454C741.562 487.725 740.537 491.518 741.03 493.503C746.312 514.73 731.361 529.392 725.13 546.885C724.009 550.01 724.199 553.626 723.781 557.007C721.901 557.891 720.001 558.795 718.12 559.68C716.981 559.11 715.841 558.559 714.701 558.009C710.028 553.41 709.363 559.385 707.083 561.095L707.045 561.134Z" fill="#B26631"/>
<path d="M694.28 640.44C695.989 626.623 681.837 624.48 674.523 611.941C691.981 616.992 701.213 625.168 704.31 640.44C704.044 643.958 702.961 647.044 699.979 649.107C695.59 647.948 694.906 644.213 694.28 640.42V640.44Z" fill="#B8784A"/>
<path d="M733.812 633.443C733.717 623.065 723.06 619.724 719.26 610.722C728.797 609.032 733.717 615.931 739.739 620.176C738.067 624.736 746.502 634.131 733.812 633.423V633.443Z" fill="#CC884C"/>
<path d="M714.663 558.029C715.803 558.579 716.943 559.129 718.082 559.699C717.323 561.488 716.563 563.257 715.803 565.026C715.423 562.687 715.043 560.368 714.663 558.029Z" fill="#CC884C"/>
<path d="M601.253 626.78C600.816 626.308 600.379 625.817 599.942 625.345C600.227 625.424 600.645 625.385 600.797 625.581C601.044 625.896 601.139 626.348 601.291 626.721L601.253 626.78Z" fill="#CC884C"/>
<path d="M601.29 626.741C601.765 626.996 602.24 627.252 602.696 627.507C602.202 627.271 601.727 627.036 601.233 626.8L601.271 626.741H601.29Z" fill="#CC884C"/>
<path d="M642.38 263.606C663.182 270.976 670.914 282.218 672.889 304.29C673.877 315.395 664.493 312.427 660.313 316.319C661.586 323.787 669.128 328.151 669.318 338.803C651.347 332.337 633.699 333.32 615.899 334.401C605.014 335.049 597.947 336.307 603.418 352.031C585.314 332.023 566.052 356.768 548.727 346.744C547.587 360.797 527.374 351.854 526.368 366.438C526.311 367.342 522.587 368.855 520.764 368.6C496.22 365.258 474.127 362.585 456.84 336.779C442.63 315.572 431.403 291.849 414.325 272.627C412.881 270.996 411.058 268.794 409.215 268.578C391.339 266.455 386.457 243.44 366.301 244.285C370.822 237.092 375.04 238.9 378.421 238.92C388.128 238.979 390.826 234.576 385.773 226.301C379.257 215.629 385.165 209.3 393.391 206.588C407.714 201.851 415.446 182.334 433.949 187.621C433.892 192.909 437.425 199.571 428.933 201.635C412.444 198.825 424.488 214.411 418.485 219.58C414.819 222.744 421.563 224.493 424.925 225.378C434.917 228.503 442.725 237.839 454.313 236.463C448.614 244.069 455.187 250.634 455.985 257.69C447.322 265.591 451.767 274.435 455.13 282.454C460.145 294.424 466.262 305.922 471.923 317.616C472.284 346.036 483.511 354.9 509.859 347.373C513.963 346.194 517.8 344.051 521.751 342.341C547.758 337.998 562.1 314.786 582.788 301.794C584.346 300.811 584.08 296.704 584.668 294.05C584.896 292.989 584.915 291.908 584.744 290.827C597.757 297.47 609.953 285.147 622.149 288.508C636.168 292.36 637.916 282.572 639.075 273.865C639.607 269.816 639.721 266.534 642.437 263.586L642.38 263.606Z" fill="#EBAF81"/>
<path d="M574.524 156.037C585.295 158.002 592.077 169.323 590.101 182.157C595.478 181.823 600.835 181.391 606.192 181.234C607.028 181.214 607.92 182.354 609.212 183.258C605.679 197.115 587.081 196.21 583.985 210.322C576.405 211.561 574.543 217.732 572.928 224.08C549.563 235.637 535.068 215.275 517.078 207.472C520.194 203.758 521.846 199.591 520.953 194.579C521.162 179.583 521.39 164.606 521.599 149.61L521.542 149.669C528.191 149.256 528.134 144.224 528.267 139.311L528.153 139.409C534.954 142.809 541.736 146.21 548.518 149.629C546.599 157.806 544.794 166.002 542.724 174.138C541.052 180.703 545.383 183.749 549.695 185.892C554.445 188.25 555.641 182.963 558.32 180.389C565.539 173.47 563.221 159.889 574.543 156.056L574.524 156.037ZM579.805 172.389C579.729 173.195 579.653 173.981 579.577 174.787C579.881 174.414 580.394 174.06 580.432 173.667C580.47 173.274 580.052 172.822 579.805 172.389Z" fill="#EBAF81"/>
<path d="M572.929 224.06C574.562 217.712 576.405 211.541 583.985 210.302C588.924 211.678 593.673 210.892 598.574 209.654C616.032 205.271 639.512 231.116 637.46 249.808C636.834 255.567 642.21 258.475 642.362 263.605C639.645 266.534 639.531 269.816 638.999 273.885C637.84 282.591 636.093 292.379 622.073 288.527C609.877 285.166 597.681 297.47 584.669 290.827C588.183 281.864 598.327 275.437 594.414 263.625C607.18 263.291 618.312 258.692 617.4 243.872C616.621 231.136 606.002 227.677 594.547 228.64C594.167 228.365 593.806 228.109 593.426 227.834C593.844 228.05 594.262 228.286 594.68 228.502C592.723 230.782 590.748 233.043 588.791 235.322C579.786 237.15 576.918 229.741 572.91 224.041L572.929 224.06Z" fill="#B26631"/>
<path d="M520.954 194.579C521.846 199.571 520.194 203.758 517.097 207.472C511.018 207.728 504.92 207.964 498.841 208.2C498.784 205.369 498.67 202.519 498.651 199.689C498.575 190.393 496.125 183.12 485.943 180.742C475.247 178.266 475.969 188.584 471.771 193.4C471.03 190.55 468.523 187.012 466.718 189.842C462.273 196.859 455.795 205.251 468.238 211.482C470.612 213.074 472.968 214.686 475.342 216.278C470.004 224.886 464.115 232.886 454.275 236.482C442.687 237.838 434.898 228.503 424.887 225.397C437.9 219.579 431.042 210.204 428.896 201.655C437.387 199.591 433.854 192.928 433.911 187.641C437.311 183.199 451.008 188.172 445.043 174.748C444.967 174.551 449.241 171.662 451.73 170.994C476.976 164.075 499.886 165.156 515.445 191.218C516.432 192.889 519.054 193.498 520.935 194.618L520.954 194.579Z" fill="#B26631"/>
<path d="M465.103 96.7588C458.606 102.38 449.754 89.7029 442.611 99.6284C441.224 101.574 439.211 96.7785 438.641 94.0662C434.708 74.7852 445.062 61.204 464.4 57.4303C471.6 56.0152 478.325 50.9837 486.037 50.1975C492.496 49.5489 500.057 50.394 497.644 59.1992C495.707 66.2355 500.95 78.5392 488.108 79.4826C483.796 79.7971 481.573 80.6029 481.858 84.4552C482.846 97.9185 476.197 100.061 465.065 96.7785L465.103 96.7588Z" fill="#B26631"/>
<path d="M719.545 136.009C718.918 142.947 728.834 150.062 719.45 155.545C714.682 158.336 711.87 182.177 702.391 158.67C690.955 163.761 689.644 148.509 679.975 146.563C672.547 145.069 671.597 130.761 673.25 120.934C673.991 116.492 676.005 112.305 677.315 107.942C678.474 104.11 679.348 99.5497 684.097 99.4908C688.713 99.4318 694.033 101.928 693.577 106.9C692.836 115.293 706.399 114.644 702.581 124.845C701.232 128.442 705.735 127.4 708.318 126.142C719.773 120.58 721.141 126.791 719.545 135.989V136.009Z" fill="#B26631"/>
<path d="M570.516 517.128C581.781 525.127 586.891 523.28 584.099 509.816C582.427 501.719 580.261 493.719 579.691 485.347C607.522 516.086 600.208 556.948 610.941 596.08C600.246 588.336 601.633 574.617 594.053 571.237C572.302 561.586 577.013 539.239 569.756 522.769C569.395 521.943 570.003 520.666 570.516 517.128Z" fill="#EBAF81"/>
<path d="M295.329 414.964C288.206 372.334 310.451 342.125 335.412 313.528C337.16 323.06 323.444 374.044 315.124 387.939C309.482 381.925 319.379 374.987 312.578 367.597C307.772 384.362 304.163 400.695 295.329 414.944V414.964Z" fill="#EBAF81"/>
<path d="M574.524 156.037C563.221 159.869 565.519 173.45 558.301 180.369C555.622 182.924 554.425 188.231 549.676 185.872C545.383 183.73 541.052 180.664 542.704 174.119C544.775 165.982 546.58 157.786 548.498 149.61C552.393 149.236 553.836 146.858 554.748 143.025C558.358 127.636 564.987 124.236 576.936 133.552C586.226 140.785 575.816 148.509 574.505 156.037H574.524Z" fill="#B26631"/>
<path d="M521.599 149.61C520.764 148.47 519.928 147.33 519.092 146.19C519.491 145.895 519.89 145.62 520.308 145.325C520.726 146.76 521.124 148.214 521.542 149.649L521.599 149.59V149.61Z" fill="#EBAF81"/>
<path d="M528.267 139.291C527.488 138.151 526.69 137.011 525.912 135.871C529.635 135.006 527.412 138.21 528.153 139.389L528.267 139.291Z" fill="#EBAF81"/>
<path d="M305.512 444.583C305.854 444.151 306.177 443.738 306.519 443.306C306.348 443.896 306.158 444.485 305.987 445.075L305.512 444.583Z" fill="#B26631"/>
<path d="M724.066 599.343C724.484 599.579 724.883 599.814 725.301 600.05C724.94 599.775 724.56 599.48 724.199 599.205L724.066 599.343Z" fill="#CC884C"/>
<path d="M454.294 236.462C464.135 232.866 470.024 224.866 475.362 216.258C483.188 213.565 491.015 210.892 498.842 208.199C504.94 207.964 511.018 207.708 517.097 207.472C535.087 215.275 549.582 235.637 572.929 224.08C576.918 229.78 579.787 237.17 588.791 235.362C582.389 246.545 589.836 254.8 594.433 263.645C598.346 275.457 588.202 281.864 584.688 290.846C584.859 291.927 584.84 293.008 584.612 294.07C566.641 295.269 550.475 308.28 531.459 302.757C528.628 302.03 525.817 301.322 522.986 300.595C518.047 280.076 522.739 270.347 541.394 266.101C553.305 263.369 553.419 256.058 550.247 247.096C544.985 232.217 519.529 225.947 507.865 236.482C502.717 241.14 500.551 246.211 506.744 252.225C519.111 264.234 516.907 277.324 508.834 290.65C503.078 289.431 497.303 288.232 491.547 287.014C472.455 286.621 465.141 270.936 455.928 257.709C455.13 250.653 448.557 244.088 454.256 236.482L454.294 236.462Z" fill="#CC884C"/>
<path d="M523.005 300.575C525.835 301.303 528.647 302.01 531.477 302.757C533.738 317.419 525.645 329.33 521.713 342.341C517.762 344.031 513.924 346.193 509.821 347.373C483.473 354.9 472.227 346.016 471.885 317.616C482.561 310.245 492.116 302.089 491.565 286.994C497.321 288.213 503.096 289.412 508.852 290.63C507.466 303.229 514.931 302.364 523.005 300.575Z" fill="#B8784A"/>
<path d="M521.713 342.341C525.646 329.33 533.738 317.4 531.478 302.757C550.493 308.28 566.66 295.269 584.63 294.07C584.042 296.723 584.308 300.831 582.75 301.814C562.081 314.805 547.72 338.017 521.713 342.361V342.341Z" fill="#5F3A2B"/>
<path d="M491.565 286.994C492.116 302.089 482.561 310.226 471.885 317.616C466.243 305.921 460.126 294.443 455.092 282.454C451.729 274.435 447.284 265.591 455.947 257.689C465.16 270.917 472.474 286.601 491.565 286.994Z" fill="#5F3A2B"/>
<path d="M428.915 201.615C431.061 210.165 437.919 219.54 424.906 225.358C421.544 224.473 414.8 222.724 418.466 219.56C424.45 214.391 412.426 198.805 428.915 201.615Z" fill="#CC884C"/>
<path d="M579.825 172.389C580.053 172.821 580.49 173.273 580.452 173.666C580.414 174.06 579.901 174.413 579.597 174.787C579.673 173.981 579.749 173.195 579.825 172.389Z" fill="#CC884C"/>
<path d="M594.433 263.625C589.836 254.78 582.389 246.545 588.791 235.342C590.766 233.062 592.723 230.782 594.699 228.522L594.585 228.64C606.04 227.677 616.64 231.136 617.438 243.872C618.35 258.692 607.199 263.271 594.452 263.625H594.433Z" fill="#5F3A2B"/>
<path d="M594.699 228.522C594.281 228.306 593.863 228.07 593.445 227.854C593.825 228.129 594.186 228.385 594.566 228.66L594.68 228.542L594.699 228.522Z" fill="#5F3A2B"/>
<path d="M498.842 208.199C491.015 210.872 483.188 213.565 475.362 216.258C472.987 214.666 470.631 213.074 468.257 211.482C468.124 205.192 469.169 199.139 471.771 193.419C475.969 188.604 475.229 178.285 485.943 180.762C496.144 183.12 498.576 190.412 498.652 199.709C498.671 202.539 498.785 205.389 498.842 208.219V208.199Z" fill="#5F3A2B"/>
<path d="M471.771 193.4C469.15 199.119 468.124 205.173 468.257 211.462C455.795 205.251 462.292 196.859 466.737 189.823C468.523 186.992 471.049 190.53 471.79 193.38L471.771 193.4Z" fill="#B8784A"/>
<path d="M523.005 300.575C514.932 302.364 507.466 303.229 508.853 290.63C516.926 277.304 519.149 264.215 506.782 252.206C500.589 246.192 502.736 241.121 507.903 236.463C519.567 225.908 545.022 232.198 550.284 247.076C553.457 256.038 553.343 263.35 541.432 266.082C522.796 270.347 518.085 280.056 523.024 300.575H523.005Z" fill="#5F3A2B"/>
</g>
<defs>
<clipPath id="clip0_503_244">
<rect width="795" height="703" fill="white"/>
</clipPath>
</defs>
</svg>
