<svg width="621" height="999" viewBox="0 0 621 999" fill="none" xmlns="http://www.w3.org/2000/svg">
<g clip-path="url(#clip0_588_10)">
<g clip-path="url(#clip1_588_10)">
<path d="M428.832 898.653C426.759 887.284 426.824 876.649 433.394 866.22C451.75 837.088 451.161 825.169 431.517 796.266C428.5 792.5 428.5 792.5 424.816 787.533C424.816 787.533 424.881 787.304 424.86 787.327C424.576 781.001 420.974 776.233 418.137 771.03C397.554 733.234 395.328 694.544 411.174 654.02C424.401 620.189 443.282 591.217 469.168 566.554C488.223 548.401 499.726 526.81 493.571 497.265C489.554 477.943 490.144 457.589 488.681 437.694C489.227 435.173 489.293 432.376 490.406 430.153C511.207 388.644 510.137 378.673 481.369 347.799C484.796 336.178 490.777 328.683 503.764 332.557C513.389 339.02 524.106 333.84 534.169 335.697C567.542 357.197 598.711 381.378 620.537 416.882C605.302 377.711 580.769 348.005 544.733 329.623C548.727 324.718 552.721 319.79 556.716 314.885C558.877 318.69 562.565 319.904 566.32 320.592C614.448 329.485 640.64 364.646 660.415 407.278C666.221 419.793 671.045 432.812 676.327 445.602C677.2 413.215 665.981 385.664 647.952 360.497C628.81 333.772 600.02 322.586 573.13 308.261C578.172 301.958 585.353 299.299 592.097 295.884C592.883 301.499 596.288 303.333 601.373 303.677C625.034 305.35 644.94 316.329 662.729 331.984C672.529 340.602 681.98 349.678 691.584 358.549C673.686 318.048 640.422 300.124 601.81 290.039C605.499 271.473 619.25 268.837 633.939 267.691C653.212 276.882 672.464 286.074 691.737 295.265C682.7 273.1 661.747 270.029 645.486 259.738C660.481 246.466 677.811 250.615 694.116 254.26C709.176 257.629 722.644 259.554 738.053 253.228C781.598 235.35 814.295 278.785 816.259 324.237C799.059 321.257 794.192 295.173 769.877 297.946C785.221 317.91 802.508 330.7 819.467 343.834C846.467 371.224 856.66 406.293 858.821 444.043C860.808 478.997 860.502 513.401 874.689 547.003C886.454 574.852 883.551 605.565 872.921 634.514C864.365 657.825 862.095 681.869 873.271 704.079C889.03 735.343 882.132 765.667 874.537 796.61C860.633 805.663 846.118 805.618 830.883 800.598C818.245 796.426 805.324 793.263 792.533 789.642C800.107 747.284 776.141 721.705 748.443 697.982C734.386 685.926 724.783 669.95 717.405 653.08C709.678 635.362 702.803 638.755 693.832 651.178C680.823 669.17 667.596 687.003 654.478 704.904C641.033 713.843 628.657 723.859 622.676 740.225C596.353 747.743 574.963 767.088 548.138 773.918C539.756 776.05 543.554 791.5 543.554 792.667C543.554 808 543.118 811.325 542.878 820.287C538.905 841.603 531.855 862.346 531.658 884.35C531.593 891.318 529.127 897.209 526.791 903.329C493.221 923.293 460.525 923.04 428.876 898.699L428.832 898.653ZM711.163 306.037C710.421 304.273 710.137 302.233 709.002 301.224C706.557 299.047 702.476 293.844 701.144 300.72C700.227 305.442 705.226 308.238 711.163 306.06V306.037Z" fill="#8E8E8E"/>
<path d="M481.392 347.753C510.159 378.628 511.229 388.598 490.428 430.107C489.315 432.331 489.249 435.127 488.704 437.648C468.688 453.647 458.102 477.416 443.522 497.907C401.571 556.928 346.261 586.885 275.237 585.258C237.782 584.387 203.012 574.004 168.744 559.862C168.656 557.684 168.263 556.034 165.906 558.234L168.46 560.16C197.271 601.99 221.434 646.617 243.239 692.871C249.896 707.013 255.025 720.398 252.493 736.168C245.334 766.492 245.814 797.137 249.765 827.782C250.594 834.223 253.083 840.411 251.882 847.104C245.64 848.8 239.332 849.282 233.198 846.898C211.262 838.44 189.021 831.404 165.426 830.533C157.197 784.897 137.99 741.623 138.426 694.131C138.666 668.506 135.239 644.233 123.671 620.854C115.595 604.534 117.581 585.235 120.79 567.746C126.334 537.629 123.431 512.003 99.7052 490.366C88.9664 480.579 82.2656 465.978 73.513 453.739C64.3239 440.88 62.3376 427.265 68.7547 412.527C82.7676 396.391 98.09 382.066 118.673 375.854C125.439 373.814 128.975 360.13 136.571 366.846C142.639 372.21 133.297 380.897 133.253 388.644C133.253 391.028 131.267 393.388 130.197 395.749C123.409 397.147 116.599 399.737 109.833 399.646C98.1773 399.508 89.3156 404.436 85.8452 415.324C82.1783 426.807 89.3811 435.196 97.4571 442.599C109.265 453.441 124.828 455.733 138.12 463.159C138.251 464.672 138.382 466.185 138.513 467.697C128.342 465.497 118.149 463.32 106.21 460.752C126.094 491.581 145.585 519.773 176.689 536.024C192.055 554.842 213.052 560.114 235.163 562.75C240.205 563.254 245.356 563.277 250.289 564.354C297.915 574.783 340.565 562.727 379.678 533.595C403.972 515.487 418.487 488.303 437.52 465.337C450.419 449.773 466.527 435.379 466.025 411.679C476.611 411.45 479.842 403.061 480.213 394.695C480.606 385.664 472.53 388.988 467.575 388.208C442.3 377.55 422.612 361.231 411.131 333.978C402.116 312.57 385.004 299.07 363.33 292.514C361.169 288.434 358.615 287.724 355.56 291.575C351.98 291.116 348.379 290.658 344.777 290.199C343.228 278.235 334.235 274.98 325.155 271.84C325.111 270.717 325.264 269.617 325.613 268.539C331.157 262.969 325.373 259.623 323.649 255.062C318.563 241.493 302.804 238.238 297.915 224.738C307.912 224.073 317.908 223.408 327.992 222.721C317.537 199.204 335.697 185.268 344.45 168.192C376.819 167.092 400.545 183.48 417.504 210.527C434.42 237.505 432.696 253.457 412.812 278.647C406.722 286.372 406.744 293.019 410.432 302.141C423.878 335.422 447.865 349.449 481.392 347.685V347.753ZM370.773 239.613C372.759 241.011 374.724 242.41 376.71 243.808L377.823 243.418L378.827 244.06C379.133 253.549 384.502 259.761 392.796 258.615C402.858 257.216 409.712 249.286 411.065 238.398C412.419 227.534 411.938 216.715 398.1 214.423C388.082 202.023 376.513 201.404 365.207 212.956C360.143 218.137 355.407 224.302 357.437 232.141C359.117 238.582 364.4 241.241 370.991 239.705L370.773 239.613Z" fill="#6B6B6B"/>
<path d="M252.493 736.191C255.025 720.399 249.896 707.013 243.239 692.894C221.434 646.64 197.271 602.013 168.46 560.183L168.744 559.885C203.012 574.004 237.804 584.41 275.237 585.281C346.262 586.908 401.571 556.951 443.522 497.93C458.081 477.439 468.667 453.67 488.704 437.671C490.166 457.567 489.577 477.943 493.593 497.265C499.748 526.81 488.223 548.401 469.19 566.555C443.326 591.217 424.445 620.189 411.196 654.02C395.35 694.521 397.577 733.234 418.159 771.031C420.997 776.234 424.598 781.024 424.882 787.327C418.399 793.332 411.917 794.662 402.619 792.943C364.793 785.883 327.032 779.74 292.349 760.51C278.707 752.946 271.264 734.266 252.515 736.214L252.493 736.191Z" fill="#E4E3E3"/>
<path d="M344.45 168.238C335.697 185.314 317.537 199.273 327.992 222.767C317.908 223.431 307.912 224.096 297.915 224.784C292.96 224.463 288.005 224.165 283.051 223.844C266.506 217.426 249.961 219.352 236.385 229.872C202.466 256.162 174.004 288.458 148.816 323.893C147.331 321.991 145.847 320.065 144.363 318.163C145.847 311.951 147.353 305.74 148.837 299.528C156.237 290.108 162.719 281.444 145.52 274.889C138.339 272.138 134.192 264.712 134.519 255.818C136.876 255.818 139.234 255.773 141.591 255.75C149.732 263.887 158.943 268.173 168.176 258.867C176.23 250.753 175.008 241.058 168.001 232.21C168.045 229.987 168.089 227.763 168.154 225.54C172.214 228.612 177.714 230.812 180.006 234.961C185.332 244.61 189.785 243.35 197.751 237.826C220.189 222.331 220.604 222.056 203.841 197.737C198.603 190.128 192.469 183.504 184.59 178.874C183.848 170.255 187.362 163.471 192.797 157.42C197.424 152.263 204.43 148.549 202.946 139.565C215.213 125.033 231.081 125.583 246.84 129.388C257.208 131.886 266.768 132.849 276.306 127.302C293.855 117.102 311.404 120.472 328.953 127.325C328.189 143.438 344.908 152.24 344.45 168.215V168.238ZM253.781 208.258C263.254 208.373 274.167 211.421 277.267 203.49C280.497 195.239 272.225 188.294 266.986 180.684C262.032 191.022 257.906 199.64 253.781 208.235V208.258Z" fill="#E4E3E3"/>
<path d="M144.385 318.163C145.869 320.065 147.353 321.99 148.838 323.893C147.833 326.987 145.978 330.104 146 333.176C146.044 337.874 137.946 343.719 145.433 346.653C152.09 349.266 151.937 340.648 154.032 336.316C162.698 318.208 175.27 306.129 195.176 301.958C206.089 299.688 216.217 293.248 226.694 288.687C230.012 290.543 233.351 292.4 236.669 294.279L240.663 300.147C238.153 314.472 227.305 323.595 220.561 335.261C204.081 363.844 205.151 380.14 227.807 403.817C234.661 410.992 238.284 418.349 237.127 428.297C236.691 428.916 236.516 429.626 236.625 430.382C235.097 431.964 233.548 433.546 232.02 435.127C231.19 434.944 230.426 435.081 229.728 435.563C223.049 437.671 216.457 440.055 209.713 441.866C165.622 453.647 133.973 435.242 130.219 395.726C131.289 393.365 133.253 391.005 133.275 388.621C133.319 380.874 142.661 372.187 136.593 366.823C128.975 360.108 125.461 373.791 118.695 375.831C98.1119 382.043 82.8112 396.368 68.7766 412.504C58.0159 418.189 53.4323 414.98 55.4185 402.282C67.5106 396.895 71.5922 380.278 84.6884 377.39C116.556 370.376 133.952 348.326 144.428 318.094L144.385 318.163Z" fill="#E6D6C3"/>
<path d="M428.832 898.653C460.503 922.995 493.2 923.247 526.748 903.283C535.937 928.702 537.705 952.677 518.475 975.048C506.711 988.732 487.503 984.721 475.411 998.038C471.373 1002.48 470.98 990.176 466.178 988.434C463.646 970.258 470.129 952.746 471.504 934.845C456.771 950.523 457.906 969.478 458.648 988.342C429.247 998.702 418.988 997.121 408.817 980.664C407.944 967.805 414.121 956.757 417.046 944.862C423.834 943.624 424.445 938.26 424.489 932.53C425.318 931.109 426.191 929.734 426.955 928.267C426.999 928.175 426.17 927.579 425.733 927.213C425.078 928.771 424.423 930.33 423.769 931.911C416.806 932.736 416.544 938.375 415.955 943.807C401.636 951.806 401.396 966.178 400.916 980.457C396.594 981.328 392.229 981.993 387.973 983.093C377.758 985.752 375.182 982.337 375.226 970.968C375.357 937.458 388.977 915.867 420.669 908.257C425.995 906.974 427.807 903.444 428.789 898.653H428.832Z" fill="#E4E3E3"/>
<path d="M344.45 168.238C344.908 152.262 328.189 143.461 328.953 127.348C333.973 127.416 338.993 127.508 344.035 127.577C345.868 130.74 348.684 131.611 352.002 131.313C356.607 131.405 361.213 131.473 365.84 131.565C366.997 138.235 372.301 141.215 376.884 144.538C416.718 173.35 449.066 208.831 467.881 256.414C469.736 261.09 472.159 264.528 477.572 263.955C471.395 276.447 475.76 285.478 486.193 292.4C500.359 301.797 507.453 314.564 503.808 332.534C490.799 328.66 484.818 336.133 481.413 347.776C447.887 349.541 423.899 335.514 410.454 302.233C406.765 293.087 406.722 286.463 412.833 278.739C432.718 253.549 434.442 237.573 417.526 210.619C400.567 183.572 376.819 167.184 344.472 168.284L344.45 168.238ZM450.943 292.629C449.939 294.004 448.957 295.38 447.953 296.732C459.215 305.465 470.5 314.197 481.762 322.907C476.48 305.992 463.712 299.299 450.943 292.606V292.629Z" fill="#E6D6C3"/>
<path d="M144.385 318.163C133.93 348.395 116.512 370.445 84.6445 377.459C71.5484 380.347 67.4668 396.964 55.3747 402.35C55.7021 396.276 56.0295 390.18 56.3569 384.106C57.732 381.195 57.6229 378.398 55.8331 375.694C52.2753 355.203 54.829 336.614 69.8677 321.188C75.3026 315.618 78.4675 308.261 77.4198 299.734C84.077 284.882 85.0156 268.379 91.1489 253.045C108.021 210.802 139.43 181.188 168.329 149.214C173.458 146.853 178.587 144.492 183.738 142.131C187.907 142.796 191.945 142.934 195.219 139.45C197.795 139.473 200.371 139.518 202.968 139.541C204.452 148.526 197.446 152.262 192.818 157.397C187.384 163.448 183.869 170.232 184.612 178.85C151.042 192.351 124.61 214.171 115.18 251.968C108.458 278.922 119.698 306.221 148.859 299.482C147.375 305.694 145.869 311.905 144.385 318.117V318.163ZM96.1255 331.938C98.5046 331.48 101.167 331.296 101.648 328.11C101.735 327.514 100.207 325.933 99.6177 326.047C96.6056 326.575 96.3437 329.302 96.0381 331.846C94.7504 333.153 93.4844 334.482 92.1966 335.789C79.4716 339.731 72.2469 349.083 68.9728 362.308C78.1838 354.928 89.1845 349.358 92.3712 335.949C93.6372 334.62 94.8813 333.267 96.1473 331.938H96.1255Z" fill="#6B6B6B"/>
<path d="M165.426 830.556C189.021 831.427 211.262 838.463 233.198 846.921C239.331 849.282 245.639 848.801 251.882 847.127C261.966 865.189 256.924 886.413 241.165 892.419C241.929 884.351 238.371 880.041 230.775 879.171C227.589 878.804 226.104 880.66 226.039 883.571C225.821 891.616 229.968 895.628 237.367 896.407C235.577 907.73 225.34 905.667 219.185 906.905C195.001 911.81 171.384 923.064 145.825 916.417C133.929 895.49 150.671 882.104 159.336 866.449C134.519 876.443 128.102 896.063 130.481 920.565C118.105 915.041 108.108 904.842 94.5102 901.358C91.0179 900.464 92.895 893.954 95.7107 891.089C112.932 873.601 124.369 847.746 153.814 847.884C164.269 847.93 164.64 838.624 165.426 830.533V830.556Z" fill="#E4E3E3"/>
<path d="M168.307 149.214C139.408 181.188 107.999 210.802 91.127 253.045C85.0155 268.379 84.077 284.882 77.3979 299.734C64.2582 289.099 56.1167 273.811 44.8977 261.388C78.5329 255.222 84.3389 248.14 88.7697 208.097C90.0139 205.117 91.258 202.138 92.4803 199.181C115.027 197.531 113.696 179.011 115.791 162.897C122.339 151.62 118.367 140.619 114.962 129.594L113.434 129.502L113.259 127.92C107.17 117.262 108.501 102.456 96.6056 95.0521C94.5975 90.2158 90.7123 87.6029 86.3688 85.54C57.5573 50.5171 37.0837 44.5119 3.60132 61.2211C-0.545784 41.876 9.66919 34.1059 25.7338 32.914C50.922 31.0345 73.0762 41.1655 92.6986 56.2702C124.719 80.91 149.361 112.632 168.307 149.214Z" fill="#8E8E8E"/>
<path d="M477.572 263.955C472.158 264.528 469.736 261.09 467.88 256.414C449.066 208.831 416.718 173.35 376.884 144.538C372.301 141.215 366.997 138.258 365.84 131.565C381.992 95.2586 400.632 60.7171 428.789 32.7996C446.708 14.9673 466.811 1.74205 492.196 0.137596C512.647 -1.14596 519.326 6.02822 520.309 29.1782C508.849 19.964 496.736 13.4545 482.002 20.4454C453.191 34.1061 431.604 54.9411 422.153 87.626C416.216 103.098 405.914 118.294 419.381 135.026C422.022 153.386 423.114 172.914 446.97 175.275C448.367 179.171 449.895 182.953 454.653 183.389C454.872 214.836 474.603 226.044 499.944 231.431C492.479 242.272 485.036 253.114 477.572 263.955Z" fill="#8E8E8E"/>
<path d="M422.153 87.6259C431.626 54.941 453.191 34.1061 482.024 20.4453C496.758 13.4774 508.85 19.9869 520.331 29.1781C527.533 47.8356 527.555 66.9056 520.592 85.2193C513.411 104.083 511.207 123.428 511.163 143.346C502.585 144.057 495.055 137.203 486.259 139.587C485.626 121.411 480.344 103.212 490.995 85.5402C496.015 77.197 492.305 67.7308 485.037 60.5795C477.004 52.6489 467.073 51.6633 458.713 56.6371C445.312 64.5906 431.473 73.3234 427.457 91.1328C425.711 89.9639 423.965 88.7949 422.197 87.6489L422.153 87.6259Z" fill="#2D3030"/>
<path d="M3.60154 61.2213C37.084 44.5121 57.5575 50.5174 86.4127 85.5631C85.8015 86.2508 85.234 86.9613 84.6883 87.6719C82.0036 87.8094 79.2971 87.9469 76.6124 88.0844C70.0207 86.755 64.1274 82.9731 56.8373 83.9587C40.1179 86.182 29.0298 103.854 38.1535 118.34C47.1898 132.688 47.9319 147.701 48.9359 163.356C43.763 172.754 33.8317 174.358 25.734 178.965C22.7655 157.993 17.7453 137.937 7.7923 119.004C-1.76786 100.92 -1.72421 81.0248 3.60154 61.2213Z" fill="#2D3030"/>
<path d="M25.712 178.942C33.8097 174.335 43.7409 172.731 48.9139 163.333C56.597 169.338 52.057 184.764 65.1749 186.575C64.5856 203.971 75.0843 207.983 88.7916 208.097C84.3607 248.14 78.5548 255.222 44.9196 261.388C29.9682 255.887 26.1703 242.089 25.1445 228.29C23.9222 211.948 25.4064 195.399 25.6901 178.965L25.712 178.942Z" fill="#6B6B6B"/>
<path d="M486.215 139.587C495.012 137.226 502.564 144.08 511.12 143.346C512.931 163.493 521.291 182.861 516.467 203.857C513.826 215.294 509.81 225.081 499.923 231.385C474.582 225.998 454.872 214.79 454.632 183.343C461.682 175.412 478.161 174.77 472.923 157.328C483.356 156.319 478.62 142.865 486.193 139.541L486.215 139.587Z" fill="#6B6B6B"/>
<path d="M573.13 308.238C600.02 322.563 628.788 333.749 647.952 360.474C665.981 385.641 677.178 413.169 676.327 445.579C671.045 432.789 666.221 419.77 660.415 407.256C640.662 364.623 614.448 329.463 566.32 320.569C562.565 319.882 558.877 318.69 556.716 314.862C561.147 309.82 566.843 308.215 573.151 308.238H573.13Z" fill="#6B6B6B"/>
<path d="M601.81 290.016C640.422 300.101 673.708 318.025 691.584 358.526C681.98 349.656 672.551 340.579 662.729 331.961C644.918 316.306 625.034 305.327 601.374 303.654C596.266 303.287 592.883 301.476 592.097 295.861C595.328 293.913 598.58 291.964 601.81 290.039V290.016Z" fill="#6B6B6B"/>
<path d="M544.733 329.577C580.769 347.96 605.303 377.665 620.538 416.836C598.711 381.332 567.542 357.151 534.169 335.651C537.683 333.634 541.197 331.594 544.711 329.577H544.733Z" fill="#6B6B6B"/>
<path d="M130.503 920.565C128.124 896.063 134.541 876.443 159.358 866.449C150.693 882.081 133.951 895.467 145.847 916.416C140.739 917.792 135.632 919.19 130.503 920.565Z" fill="#E4E3E3"/>
<path d="M458.67 988.342C457.928 969.478 456.793 950.523 471.526 934.845C470.151 952.746 463.668 970.28 466.2 988.433C463.69 988.41 461.18 988.365 458.67 988.342Z" fill="#E4E3E3"/>
<path d="M400.938 980.434C401.418 966.177 401.658 951.806 415.976 943.807L417.046 944.884C414.099 956.757 407.922 967.828 408.817 980.686C406.198 980.617 403.557 980.549 400.938 980.457V980.434Z" fill="#E4E3E3"/>
<path d="M237.367 896.407C229.968 895.651 225.821 891.616 226.039 883.571C226.104 880.66 227.589 878.804 230.775 879.171C238.371 880.042 241.929 884.351 241.165 892.419C239.899 893.748 238.633 895.078 237.367 896.407Z" fill="#E4E3E3"/>
<path d="M55.8331 375.694C57.6448 378.376 57.7321 381.195 56.357 384.106C50.813 381.676 50.0272 378.926 55.8331 375.694Z" fill="#E6D6C3"/>
<path d="M466.003 411.748C466.505 435.425 450.397 449.842 437.497 465.405C418.464 488.372 403.95 515.556 379.656 533.663C340.543 562.795 297.893 574.852 250.267 564.423C245.334 563.345 240.183 563.323 235.141 562.818C235.424 555.713 240.968 557.294 244.897 556.469C258.452 553.627 272.246 547.53 277.463 534.947C289.861 505.035 310.989 489.724 340.368 484.429C370.402 479.937 397.314 466.505 423.79 451.974C428.789 450.461 433.088 448.238 433.656 438.817C408.009 444.02 384.851 435.058 361.431 427.586C334.693 419.037 329.193 402.419 347.353 381.332C355.494 371.866 355.297 364.279 348.99 354.927C335.588 335.009 322.273 315.022 308.915 295.058C311.687 290.016 314.438 284.996 317.21 279.954C326.661 282.612 333.492 292.904 344.755 290.268C348.335 290.726 351.936 291.185 355.516 291.666C357.72 295.333 360.339 295.471 363.264 292.606C384.938 299.161 402.051 312.661 411.065 334.069C422.546 361.322 442.234 377.619 467.531 388.3C467.029 396.116 466.505 403.955 465.982 411.771L466.003 411.748Z" fill="#E6D6C3"/>
<path d="M340.368 484.407C310.989 489.701 289.839 505.012 277.463 534.924C272.247 547.53 258.452 553.604 244.898 556.446C240.947 557.272 235.425 555.69 235.141 562.795C213.052 560.16 192.055 554.888 176.667 536.047C171.668 518.398 173.371 500.841 177.365 483.329C187.013 474.528 196.66 465.703 206.308 456.902C210.76 445.739 225.93 447.55 229.706 435.608C230.405 435.127 231.19 434.99 232.02 435.173C234.792 434.898 236.32 433.316 236.625 430.428C236.516 429.649 236.669 428.961 237.127 428.32C240.423 428.205 243.741 428.067 247.037 427.953C274.277 439.024 299.487 428.365 324.871 419.862C334.955 429.695 352.417 426.119 359.707 440.972C361.104 459.285 349.317 471.158 340.368 484.407Z" fill="#C97E82"/>
<path d="M317.21 279.931C314.438 284.973 311.688 289.993 308.916 295.036C286.347 322.357 272.748 326.849 254.589 312.753C249.677 308.925 245.268 304.387 240.619 300.17C239.288 298.222 237.956 296.25 236.625 294.279C243.915 283.415 258.168 281.352 264.738 269.204C269.322 260.7 267.052 255.681 259.652 251.555C253.934 248.346 246.163 247.475 246.251 255.085C246.534 280.618 230.339 271.886 217.985 271.702C230.885 248.415 242.606 223.569 274.909 227.58C277.441 227.901 280.322 225.15 283.051 223.844C288.005 224.165 292.96 224.463 297.915 224.783C302.804 238.284 318.563 241.539 323.649 255.108C325.351 259.669 331.157 263.015 325.613 268.585C321.575 262.007 316.118 261.25 309.243 263.153C303.764 264.666 299.355 262.671 298.461 255.726C297.5 248.208 294.051 242.96 286.041 244.862C281.239 246.008 276.284 248.415 275.739 254.855C275.084 262.488 279.209 267.416 285.124 270.51C295.514 275.965 306.755 276.745 318.17 276.195C317.821 277.432 317.494 278.67 317.232 279.931H317.21Z" fill="#4B3D2E"/>
<path d="M229.706 435.586C225.93 447.527 210.76 445.717 206.307 456.879C183.564 458.85 161.846 473.153 138.098 463.182C124.806 455.779 109.265 453.464 97.435 442.622C89.3809 435.219 82.1781 426.83 85.8231 415.347C89.2936 404.437 98.1335 399.509 109.811 399.669C116.577 399.761 123.387 397.148 130.175 395.772C133.951 435.288 165.578 453.693 209.669 441.912C216.413 440.101 223.027 437.717 229.684 435.609L229.706 435.586Z" fill="#8E8E8E"/>
<path d="M177.365 483.329C173.371 500.841 171.668 518.398 176.666 536.047C145.563 519.796 126.094 491.604 106.188 460.775C118.127 463.343 128.298 465.543 138.469 467.72C151.435 472.923 164.378 478.103 177.343 483.306L177.365 483.329Z" fill="#E6D6C3"/>
<path d="M318.148 276.195C306.754 276.745 295.492 275.966 285.102 270.51C279.187 267.416 275.062 262.488 275.717 254.856C276.284 248.392 281.217 246.008 286.019 244.862C294.029 242.96 297.478 248.209 298.438 255.727C299.333 262.672 303.721 264.666 309.221 263.153C316.096 261.25 321.553 262.007 325.591 268.585C325.242 269.662 325.089 270.763 325.133 271.886C322.797 273.33 320.462 274.751 318.126 276.195H318.148Z" fill="#2D3030"/>
<path d="M398.1 214.377C411.938 216.692 412.419 227.534 411.065 238.398C409.712 249.263 402.858 257.216 392.796 258.614C384.502 259.76 379.133 253.549 378.805 244.06C398.362 244.885 400.392 242.272 394.521 225.081C393.604 222.4 395.044 218.824 395.394 215.684C396.572 215.89 397.467 215.478 398.1 214.4V214.377Z" fill="#E6D6C3"/>
<path d="M177.365 483.329C164.4 478.126 151.435 472.946 138.492 467.743C138.361 466.231 138.23 464.718 138.121 463.205C161.868 473.176 183.586 458.85 206.33 456.879C196.682 465.703 187.013 474.505 177.365 483.329Z" fill="#4B3D2E"/>
<path d="M395.393 215.661C395.044 218.824 393.604 222.377 394.52 225.058C400.392 242.249 398.362 244.862 378.805 244.037L377.801 243.395L376.688 243.785C374.702 242.387 372.737 240.988 370.751 239.59L370.969 239.682C368.153 213.827 371.755 210.275 395.372 215.638L395.393 215.661Z" fill="#4B3D2E"/>
<path d="M395.394 215.661C371.777 210.275 368.154 213.851 370.991 239.705C364.4 241.241 359.117 238.582 357.437 232.141C355.407 224.302 360.121 218.16 365.207 212.957C376.513 201.405 388.082 202.023 398.1 214.401C397.467 215.432 396.572 215.868 395.394 215.661Z" fill="#D8B190"/>
<path d="M318.148 276.195C320.484 274.751 322.819 273.33 325.155 271.886C334.235 275.026 343.205 278.281 344.777 290.245C333.536 292.881 326.682 282.59 317.231 279.931C317.493 278.67 317.799 277.433 318.17 276.195H318.148Z" fill="#8E8E8E"/>
<path d="M466.003 411.748C466.527 403.909 467.029 396.093 467.553 388.277C472.508 389.057 480.606 385.733 480.191 394.764C479.82 403.13 476.589 411.519 466.003 411.748Z" fill="#4B3D2E"/>
<path d="M363.286 292.583C360.34 295.448 357.742 295.288 355.538 291.643C358.593 287.815 361.125 288.526 363.286 292.583Z" fill="#8E8E8E"/>
<path d="M168.46 560.16L165.906 558.234C168.285 556.034 168.656 557.684 168.743 559.862L168.46 560.16Z" fill="#E4E3E3"/>
<path d="M148.859 299.528C119.698 306.267 108.458 278.968 115.18 252.014C124.609 214.217 151.042 192.397 184.611 178.896C192.491 183.526 198.624 190.151 203.863 197.76C220.626 222.079 220.211 222.354 197.773 237.849C189.806 243.35 185.354 244.633 180.028 234.983C177.736 230.835 172.214 228.634 168.176 225.563C158.703 222.56 148.357 216.968 145.541 233.883L145.847 233.677C131.921 235.35 133.493 245.733 134.562 255.841C134.235 264.758 138.382 272.184 145.563 274.911C162.763 281.49 156.258 290.131 148.881 299.551L148.859 299.528Z" fill="#2D3030"/>
<path d="M283.051 223.844C280.322 225.15 277.463 227.901 274.909 227.58C242.605 223.569 230.884 248.415 217.985 271.702C217.09 279.495 227.261 281.077 226.672 288.686C216.195 293.248 206.067 299.688 195.154 301.957C175.248 306.106 162.675 318.208 154.01 336.316C151.937 340.671 152.068 349.266 145.41 346.653C137.924 343.719 146 337.874 145.978 333.176C145.956 330.081 147.811 326.987 148.815 323.893C174.004 288.457 202.466 256.162 236.385 229.872C249.961 219.351 266.506 217.426 283.051 223.844Z" fill="#6B6B6B"/>
<path d="M145.825 233.654L145.52 233.86C152.788 230.033 160.427 231.385 168.001 232.21C175.008 241.057 176.23 250.753 168.176 258.867C158.943 268.173 149.71 263.887 141.591 255.75C145.083 248.828 149.361 242.066 145.803 233.654H145.825Z" fill="#4B3D2E"/>
<path d="M253.781 208.258C257.906 199.64 262.031 191.044 266.986 180.707C272.224 188.317 280.497 195.262 277.266 203.513C274.167 211.444 263.254 208.395 253.781 208.281V208.258Z" fill="#E6D6C3"/>
<path d="M145.825 233.654C149.383 242.066 145.105 248.827 141.613 255.749C139.256 255.749 136.898 255.795 134.541 255.818C133.471 245.71 131.9 235.35 145.825 233.654Z" fill="#E6D6C3"/>
<path d="M168.001 232.187C160.405 231.385 152.788 230.033 145.52 233.837C148.335 216.922 158.681 222.515 168.154 225.517C168.11 227.74 168.067 229.964 168.001 232.164V232.187Z" fill="#8E8E8E"/>
<path d="M240.641 300.147C245.29 304.364 249.678 308.926 254.611 312.73C272.77 326.85 286.347 322.334 308.938 295.013C322.296 314.977 335.61 334.964 349.012 354.859C355.298 364.21 355.516 371.797 347.375 381.263C329.237 402.35 334.715 418.968 361.453 427.517C384.873 434.99 408.032 443.974 433.678 438.749C433.089 448.192 428.811 450.392 423.812 451.905C402.444 448.238 381.075 444.593 359.707 440.926C352.395 426.073 334.955 429.626 324.871 419.816C305.685 400.494 282.985 383.693 280.541 351.604C281.479 368.176 275.106 381.813 267.576 394.901C261.115 406.155 253.912 416.928 247.037 427.907C243.741 428.022 240.423 428.136 237.127 428.274C238.284 418.326 234.683 410.969 227.807 403.794C205.151 380.094 204.081 363.798 220.561 335.239C227.305 323.572 238.153 314.449 240.663 300.124L240.641 300.147ZM327.796 345.828C321.663 339.41 316.752 328.087 305.533 325.91C299.945 324.833 293.637 332.373 295.711 337.76C300.36 349.908 313.783 350.045 323.562 354.973C326.53 356.463 328.429 351.971 327.796 345.828ZM227.371 366.915C235.752 359.282 242.3 353.323 248.848 347.364C253.999 342.642 254.327 336.155 250.725 331.457C245.465 324.557 240.62 330.517 236.8 334.551C229.029 342.734 223.507 351.971 227.392 366.915H227.371Z" fill="#8E8E8E"/>
<path d="M226.672 288.687C227.261 281.054 217.112 279.495 217.985 271.702C230.339 271.886 246.556 280.619 246.251 255.085C246.163 247.475 253.934 248.346 259.652 251.555C267.052 255.704 269.322 260.7 264.738 269.204C258.19 281.352 243.937 283.415 236.625 294.279C233.307 292.423 229.968 290.566 226.65 288.71L226.672 288.687Z" fill="#2D3030"/>
<path d="M236.603 430.405C236.297 433.293 234.791 434.898 231.998 435.15C233.525 433.568 235.053 431.987 236.603 430.405Z" fill="#8E8E8E"/>
<path d="M424.511 932.53C424.467 938.26 423.856 943.601 417.068 944.861L415.998 943.807C416.566 938.375 416.849 932.736 423.79 931.911L424.511 932.553V932.53Z" fill="#E4E3E3"/>
<path d="M423.791 931.911C424.445 930.353 425.1 928.794 425.755 927.212C426.191 927.579 427.021 928.175 426.977 928.267C426.213 929.734 425.362 931.132 424.511 932.53L423.791 931.888V931.911Z" fill="#E4E3E3"/>
<path d="M450.921 292.629C463.69 299.322 476.458 306.015 481.74 322.93C470.478 314.197 459.193 305.465 447.931 296.755C448.935 295.379 449.917 294.004 450.921 292.652V292.629Z" fill="#8E8E8E"/>
<path d="M92.3496 335.949C89.1847 349.335 78.1621 354.927 68.9512 362.308C72.247 349.083 79.4499 339.731 92.175 335.789L92.3277 335.949H92.3496Z" fill="#4B3D2E"/>
<path d="M96.0166 331.846C96.3222 329.279 96.5841 326.575 99.5962 326.047C100.186 325.933 101.713 327.514 101.626 328.11C101.146 331.296 98.483 331.48 96.1039 331.938L96.0166 331.846Z" fill="#4B3D2E"/>
<path d="M96.1256 331.938C94.8597 333.267 93.6155 334.62 92.3496 335.949L92.1968 335.789C93.4846 334.482 94.7505 333.153 96.0383 331.846L96.1256 331.938Z" fill="#4B3D2E"/>
<path d="M65.1751 186.575C52.0572 184.764 56.5972 169.338 48.9141 163.333C47.9101 147.678 47.168 132.665 38.1317 118.317C29.008 103.831 40.0961 86.1589 56.8155 83.9356C64.1056 82.9729 69.9989 86.7319 76.5906 88.0613C79.0134 89.6887 81.4362 91.2932 83.8589 92.9205C85.9543 95.0751 88.0497 97.2296 90.1669 99.3842C99.1159 107.796 98.9195 124.368 113.303 127.92L113.478 129.502L115.006 129.594C104.376 140.985 118.542 151.712 115.835 162.898C113.74 179.011 115.093 197.531 92.5242 199.181C87.002 186.437 79.2535 178.942 65.197 186.575H65.1751Z" fill="#D8B190"/>
<path d="M65.175 186.575C79.2533 178.942 86.98 186.437 92.5022 199.181C91.2581 202.138 90.014 205.118 88.7917 208.097C75.0844 207.983 64.5857 203.972 65.175 186.575Z" fill="#4B3D2E"/>
<path d="M113.281 127.944C98.8976 124.368 99.094 107.819 90.145 99.4072C92.3059 97.9632 94.4667 96.5192 96.6276 95.0752C108.523 102.479 107.192 117.285 113.281 127.944Z" fill="#4B3D2E"/>
<path d="M115.814 162.898C118.542 151.712 104.354 141.008 114.984 129.594C118.367 140.596 122.362 151.598 115.814 162.898Z" fill="#6B6B6B"/>
<path d="M96.6276 95.0751C94.4667 96.5191 92.3059 97.9631 90.145 99.4071C88.0496 97.2526 85.9543 95.098 83.8589 92.9435C84.1208 91.1786 84.3827 89.4366 84.6665 87.6717C85.2122 86.9611 85.7797 86.2506 86.3908 85.563C90.7562 87.6259 94.6414 90.2388 96.6276 95.0751Z" fill="#2D3030"/>
<path d="M486.215 139.587C478.619 142.911 483.356 156.365 472.944 157.374C457.709 152.858 448.542 157.993 446.97 175.275C423.135 172.914 422.022 153.385 419.381 135.026C418.792 119.738 425.602 105.94 427.392 91.1327C431.43 73.3233 445.246 64.5905 458.648 56.637C467.029 51.6632 476.939 52.6488 484.971 60.5794C492.217 67.7307 495.95 77.1969 490.93 85.5401C480.278 103.212 485.56 121.411 486.193 139.587H486.215Z" fill="#D8B190"/>
<path d="M446.971 175.275C448.542 157.993 457.71 152.836 472.945 157.374C478.183 174.817 461.704 175.458 454.654 183.389C449.917 182.953 448.389 179.194 446.971 175.275Z" fill="#4B3D2E"/>
<path d="M427.414 91.1328C425.624 105.94 418.814 119.738 419.403 135.026C405.936 118.294 416.238 103.097 422.175 87.626C423.9 88.7949 425.668 89.9639 427.414 91.1328Z" fill="#6B6B6B"/>
<path d="M84.6663 87.6719C84.4043 89.4368 84.1424 91.1787 83.8587 92.9436C81.4359 91.3163 79.0131 89.7118 76.5903 88.0844C79.275 87.9469 81.9816 87.8094 84.6663 87.6719Z" fill="#4B3D2E"/>
<path d="M359.707 440.972C381.075 444.639 402.444 448.283 423.812 451.951C397.314 466.505 370.424 479.914 340.368 484.406C349.317 471.158 361.104 459.308 359.707 440.972Z" fill="#4B3D2E"/>
<path d="M247.014 427.953C253.89 416.974 261.093 406.178 267.554 394.947C275.084 381.882 281.435 368.222 280.519 351.65C282.985 383.739 305.685 400.54 324.849 419.862C299.443 428.366 274.254 439.024 246.993 427.953H247.014Z" fill="#836F59"/>
<path d="M327.796 345.828C328.429 351.971 326.53 356.463 323.561 354.973C313.783 350.023 300.359 349.908 295.71 337.76C293.637 332.374 299.966 324.833 305.532 325.91C316.751 328.087 321.662 339.41 327.796 345.828Z" fill="#6B6B6B"/>
<path d="M227.37 366.915C223.485 351.971 229.029 342.734 236.778 334.551C240.619 330.517 245.465 324.557 250.703 331.456C254.305 336.178 253.977 342.665 248.826 347.363C242.3 353.346 235.752 359.282 227.349 366.915H227.37Z" fill="#6B6B6B"/>
</g>
</g>
<defs>
<clipPath id="clip0_588_10">
<rect width="621" height="999" fill="white"/>
</clipPath>
<clipPath id="clip1_588_10">
<rect width="887" height="999" fill="white"/>
</clipPath>
</defs>
</svg>
