<svg width="239" height="499" viewBox="0 0 239 499" fill="none" xmlns="http://www.w3.org/2000/svg">
<rect width="239" height="499" fill="#FFE6E6"/>
<rect x="40" y="107" width="44" height="61" transform="rotate(-90 40 107)" fill="#836F59" fill-opacity="0.63"/>
<rect x="40.5" y="203.5" width="44" height="61" transform="rotate(-90 40.5 203.5)" fill="#836F59" fill-opacity="0.63"/>
<rect x="40.5" y="289.5" width="44" height="61" transform="rotate(-90 40.5 289.5)" fill="#836F59" fill-opacity="0.63"/>
<rect x="138.5" y="289.5" width="44" height="61" transform="rotate(-90 138.5 289.5)" fill="#836F59" fill-opacity="0.63"/>
<rect x="138" y="107" width="44" height="61" transform="rotate(-90 138 107)" fill="#836F59" fill-opacity="0.63"/>
<rect x="138.5" y="203.5" width="44" height="61" transform="rotate(-90 138.5 203.5)" fill="#836F59" fill-opacity="0.63"/>
<rect x="40" y="368" width="44" height="61" transform="rotate(-90 40 368)" fill="#836F59" fill-opacity="0.63"/>
<rect x="40" y="454" width="44" height="61" transform="rotate(-90 40 454)" fill="#836F59" fill-opacity="0.63"/>
<rect x="138" y="368" width="44" height="61" transform="rotate(-90 138 368)" fill="#836F59" fill-opacity="0.63"/>
<rect x="138" y="454" width="44" height="61" transform="rotate(-90 138 454)" fill="#836F59" fill-opacity="0.63"/>
</svg>
