<svg width="94" height="91" viewBox="0 0 94 91" fill="none" xmlns="http://www.w3.org/2000/svg">
<path fill-rule="evenodd" clip-rule="evenodd" d="M45.4804 0.0337292C42.5116 0.445226 41.3379 0.717226 39.3622 1.45221C36.7007 2.44213 34.1195 4.14282 31.8986 6.36947C30.0151 8.2578 28.8853 9.86517 27.7048 12.3357C26.8922 14.0365 25.8599 17.6748 25.8599 18.8382C25.8599 19.0612 25.7953 19.121 25.6138 19.0663C24.1052 18.6108 19.9665 18.52 17.843 18.8959C13.0632 19.7415 9.20222 21.7879 5.87447 25.2394C2.56318 28.6738 0.698876 32.7166 0.113918 37.7307C-0.431096 42.4018 1.00436 47.8049 3.88682 51.9323C5.61469 54.4063 8.98295 57.3005 11.6219 58.5784C12.1781 58.8477 12.6345 59.1176 12.636 59.1781C12.6377 59.2387 12.3236 59.9313 11.9381 60.7172C9.80279 65.0714 9.29111 70.3121 10.5283 75.1586C12.358 82.326 18.1233 88.1541 25.3965 90.1887C29.6395 91.3755 33.6277 91.2628 37.9522 89.8338C41.0348 88.8151 44.0465 86.9369 46.32 84.6152L47.019 83.9015L48.0078 84.864C50.9973 87.774 54.2199 89.5203 58.3498 90.4681C62.1517 91.3408 65.7714 91.1387 69.7197 89.8334C73.5694 88.5606 76.7225 86.4068 79.3336 83.2663C82.0204 80.0349 83.593 76.2742 84.0988 71.8705C84.5061 68.3242 83.76 64.147 82.1061 60.7148C81.7266 59.9275 81.4186 59.2349 81.4217 59.1757C81.4246 59.1165 81.757 58.9135 82.1601 58.7245C85.3538 57.2272 89.0633 53.8707 90.8591 50.8533C92.2338 48.5432 93.1252 46.2791 93.6708 43.712C94.0787 41.7935 94.1135 38.1317 93.7418 36.2616C93.0644 32.8528 92.1238 30.5403 90.3271 27.8665C89.3636 26.4325 87.6597 24.5618 86.4326 23.5904C85.9039 23.1719 85.3976 22.7649 85.3074 22.6859C84.8153 22.2554 82.7351 21.0497 81.6975 20.5936C77.5758 18.7821 73.7558 18.2331 69.6017 18.855C69.0989 18.9304 68.5767 19.0254 68.4414 19.0663C68.2608 19.1207 68.1952 19.0614 68.1952 18.8432C68.1952 18.6797 68.0619 17.9041 67.8987 17.1197C67.0389 12.9835 65.2129 9.49592 62.366 6.55262C60.4678 4.59028 58.8689 3.43484 56.3807 2.22735C54.3183 1.22653 52.453 0.611868 50.5555 0.308247C49.1654 0.0856389 46.2453 -0.0721882 45.4804 0.0337292Z" fill="#FBCED0"/>
<path fill-rule="evenodd" clip-rule="evenodd" d="M65.0626 31.9899C64.518 31.6994 62.9918 31.372 62.3684 31.4118C61.8671 31.4438 60.983 31.7412 60.286 32.1122C59.7053 32.4213 56.8949 34.4749 56.3142 35.0144C55.3857 35.877 54.5457 37.278 54.0408 38.8061C53.4032 40.7357 53.3931 42.9363 54.0117 45.1431C54.3373 46.3046 54.514 46.6095 55.3287 47.4157C56.4673 48.5426 57.0242 48.8246 58.4319 48.9875C59.7442 49.1394 60.8236 48.9471 61.8477 48.3791C64.3658 46.9824 66.0398 44.3553 66.58 40.9527C66.9005 38.9331 67.0842 35.976 66.955 34.9143C66.8468 34.0253 66.5348 33.3377 65.9572 32.715C65.6069 32.3373 65.4004 32.1699 65.0626 31.9899ZM55.0012 21.9323C54.2264 21.4728 53.0253 21.1524 52.1659 21.1758C50.4577 21.2225 48.0801 22.0705 46.2612 23.2819C44.9029 24.1865 43.5699 25.4822 43.0173 26.4351C42.5509 27.2393 41.9575 28.8209 41.8082 29.6577C41.6784 30.3857 41.6108 31.5377 41.67 32.0128C41.7633 32.762 42.4074 34.2024 43.0096 35.0087C43.6789 35.9051 45.1161 36.8823 46.1762 37.1619C46.7184 37.3049 48.112 37.2883 49.1284 37.1267C50.1975 36.9567 51.0172 36.5833 52.1022 35.772C52.9039 35.1726 53.0748 35.0109 53.5655 34.3879C54.3798 33.3539 55.0598 32.1961 56.0297 30.1926C56.8353 28.5285 57.0267 27.9957 57.1009 27.2123C57.1704 26.4783 57.0899 25.8349 56.7879 24.7088C56.5548 23.84 56.3432 23.3654 55.9573 22.8463C55.5834 22.3434 55.402 22.17 55.0012 21.9323ZM37.8363 23.592C37.5878 23.472 37.2231 23.3382 37.0259 23.2947C36.4519 23.1681 35.0375 23.0199 34.6364 23.0444C33.2764 23.1276 31.6148 23.9296 30.4429 25.0684C29.0721 26.4006 28.1806 27.9111 27.8165 29.5184C27.3887 31.4073 27.4851 33.1659 28.132 35.2691C28.4436 36.2827 28.678 36.7332 29.3032 37.521C30.1198 38.5496 30.9345 39.1611 31.7145 39.3305C32.172 39.4298 33.1986 39.3371 33.8197 39.1404C34.8868 38.8024 36.1566 37.9799 36.922 37.1309C37.3904 36.6113 37.4821 36.4688 37.7599 35.8292C38.3643 34.4371 38.8216 32.7137 39.1004 30.7766C39.188 30.1683 39.344 29.2563 39.447 28.7499C39.716 27.4286 39.7373 26.3602 39.5103 25.5879C39.2593 24.7338 38.6181 23.9693 37.8363 23.592ZM64.9509 50.9282C64.318 50.6833 63.1822 50.7368 62.2602 51.055C61.6436 51.2678 60.3271 51.6973 58.3781 52.3213C57.9811 52.4484 56.228 53.3117 55.745 53.6179C55.4862 53.782 55.231 54.037 54.8445 54.518L54.305 55.189L53.9009 56.6022C53.3594 58.4958 53.2658 59.0465 53.3405 59.9017C53.4769 61.4647 54.5139 63.0664 55.897 63.8505C56.6468 64.2757 57.9527 64.6552 58.7671 64.6846C61.9208 64.7986 63.9505 63.7809 65.7242 61.1967C66.6955 59.7815 67.0992 58.773 67.3143 57.2242C67.6826 54.5702 66.5475 51.546 64.9509 50.9282ZM49.3048 41.1776C48.4253 40.5116 47.9896 40.266 47.2302 40.0084C45.5619 39.4423 43.9341 39.5807 40.8479 40.5508C40.1794 40.7609 39.2447 41.0012 38.7706 41.085C37.1629 41.3688 34.7227 41.2891 32.4049 40.8771C30.4175 40.5238 29.4609 40.5894 27.9725 41.1815C27.457 41.3866 26.7708 41.698 26.4475 41.8736L25.8597 42.193L24.9174 43.369L23.9751 44.545L23.7392 45.2403C23.4148 46.1969 23.3049 46.8 23.2972 47.6663C23.2837 49.2026 23.6345 50.5759 24.4063 52.0073C24.8414 52.8146 25.1077 53.1936 25.8165 54.0149C26.8317 55.1912 27.4086 55.622 30.071 57.1911C30.7612 57.5979 31.5925 58.1309 31.9183 58.3756C32.7969 59.0353 34.2432 60.4112 34.8547 61.1694C35.5807 62.0693 36.5224 63.5688 37.0193 64.6161C38.2278 67.163 40.0403 69.1611 42.138 70.259C43.8501 71.1552 45.5993 71.476 46.9954 71.1501C47.9613 70.9246 49.1387 70.4024 49.6547 69.9706C50.555 69.2172 51.5424 67.5795 51.809 66.3974C52.1108 65.059 52.0282 63.231 51.5529 60.7302C51.199 58.8682 50.9753 56.8515 51.0115 55.8478C51.0265 55.4317 51.1589 54.2004 51.3056 53.1116C52.0997 47.2201 52.1337 46.4668 51.6782 44.867C51.3884 43.8489 51.2558 43.5325 50.8448 42.8784C50.3573 42.1023 49.9891 41.6957 49.3048 41.1776Z" fill="#554B43"/>
</svg>
