<svg width="310" height="302" viewBox="0 0 310 302" fill="none" xmlns="http://www.w3.org/2000/svg">
<path fill-rule="evenodd" clip-rule="evenodd" d="M149.989 0.111937C140.198 1.47756 136.327 2.38024 129.812 4.81943C121.034 8.10464 112.522 13.7487 105.197 21.1382C98.9861 27.405 95.26 32.7393 91.367 40.9382C88.6869 46.5827 85.2828 58.657 85.2828 62.518C85.2828 63.2582 85.0694 63.4564 84.4711 63.2749C79.4959 61.7635 65.8469 61.4621 58.8438 62.7093C43.0806 65.5158 30.3477 72.3073 19.3732 83.7616C8.45302 95.1593 2.3048 108.576 0.375687 125.216C-1.4217 140.718 3.31227 158.649 12.8182 172.347C18.5165 180.557 29.6246 190.162 38.3277 194.403C40.1617 195.297 41.6669 196.193 41.672 196.393C41.6775 196.594 40.6418 198.893 39.3704 201.501C32.3283 215.951 30.6409 233.344 34.7208 249.427C40.7549 273.214 59.7683 292.555 83.7544 299.307C97.7472 303.246 110.9 302.872 125.162 298.13C135.328 294.749 145.26 288.516 152.757 280.811L155.063 278.442L158.323 281.636C168.182 291.294 178.81 297.089 192.43 300.235C204.968 303.131 216.906 302.46 229.927 298.129C242.623 293.904 253.021 286.757 261.632 276.334C270.493 265.61 275.679 253.13 277.347 238.515C278.69 226.746 276.23 212.883 270.775 201.493C269.524 198.88 268.508 196.582 268.518 196.385C268.528 196.189 269.624 195.515 270.953 194.888C281.486 189.919 293.719 178.78 299.642 168.766C304.175 161.1 307.115 153.586 308.914 145.066C310.259 138.699 310.374 126.547 309.149 120.341C306.915 109.028 303.812 101.354 297.887 92.4801C294.71 87.7211 289.091 81.5128 285.044 78.2889C283.3 76.9001 281.63 75.5493 281.333 75.2874C279.71 73.8586 272.85 69.8574 269.428 68.3436C255.835 62.3318 243.237 60.5097 229.538 62.5737C227.879 62.824 226.157 63.1393 225.711 63.2749C225.115 63.4555 224.899 63.2586 224.899 62.5347C224.899 61.9919 224.459 59.4181 223.921 56.815C221.086 43.0881 215.064 31.5139 205.675 21.7461C199.415 15.2337 194.142 11.3991 185.936 7.39188C179.135 4.07045 172.983 2.0306 166.726 1.02298C162.141 0.284208 152.511 -0.23957 149.989 0.111937Z" fill="#FBCED0"/>
</svg>
