<svg width="330" height="201" viewBox="0 0 330 201" fill="none" xmlns="http://www.w3.org/2000/svg">
<path d="M153.063 176.313C123.874 171.723 95.2394 165.165 67.5916 155.094C52.2461 149.504 37.4041 143.01 24.2263 133.837C18.811 130.072 13.9184 125.865 10.3218 120.625C4.63739 112.36 5.7801 104.171 13.5333 97.8955C19.2466 93.2771 26.2281 90.5932 33.5509 88.4934C47.4721 84.497 61.9947 82.9263 76.6985 82.1671C78.4615 82.0798 80.2229 81.9291 81.989 81.9683C83.3142 81.9933 83.8216 81.5045 84.2193 80.4763C88.891 68.2755 93.6279 56.0939 98.3426 43.9088C99.877 39.9404 101.346 35.953 102.892 31.9863C107.438 20.3785 121.413 13.9768 135.213 17.5178C139.66 18.6564 143.873 20.6504 148.137 22.3822C158.405 26.5744 168.971 29.7229 180.149 30.9757C189.216 31.9918 198.179 31.4789 207.147 30.8586C209.409 30.7044 211.717 30.6924 213.954 30.3993C226.504 28.7304 243.678 38.1432 244.49 54.5431C245.045 65.7876 245.815 77.0295 246.494 88.2752C246.839 93.9754 247.275 99.6717 247.507 105.364C247.57 106.868 248.209 107.508 249.76 108.054C262.742 112.621 275.327 117.919 287.072 124.754C294.431 129.027 301.34 133.78 306.79 139.964C310.086 143.698 312.548 147.754 312.938 152.498C313.376 157.816 310.904 162.045 306.787 165.595C301.95 169.764 295.982 172.361 289.665 174.419C277.603 178.37 264.906 180.178 252.032 181.229C232.438 182.826 212.743 182.587 193.024 180.886C179.683 179.74 166.371 178.111 153.049 176.698C153.068 176.575 153.066 176.439 153.074 176.314L153.063 176.313ZM246.89 125.352C245.319 126.91 243.948 128.58 242.219 129.915C238.1 133.114 232.984 134.682 227.658 135.767C217.369 137.876 206.812 138.043 196.222 137.476C170.262 136.096 144.732 132.082 119.78 124.779C110.836 122.161 101.946 119.344 93.711 115.151C86.7299 111.594 80.9963 107.023 79.2181 99.7229C79.2111 99.6948 79.0891 99.6759 78.9059 99.6115C79.0927 110.808 83.7645 119.817 95.4719 125.646C106.874 131.319 118.996 135.276 131.46 138.421C147.773 142.531 164.36 145.09 181.1 146.663C191.726 147.659 202.351 148.079 212.916 147.049C220.586 146.3 228.029 144.894 234.73 141.527C241.85 137.946 245.911 132.558 246.89 125.352Z" fill="#74624E" stroke="#FEF4EB" stroke-width="2.89" stroke-miterlimit="10"/>
<path d="M246.89 125.351C245.911 132.557 241.84 137.943 234.73 141.526C228.04 144.895 220.598 146.3 212.916 147.048C202.351 148.078 191.726 147.658 181.1 146.662C164.36 145.089 147.772 142.539 131.46 138.42C118.996 135.275 106.873 131.327 95.4723 125.645C83.776 119.818 79.0931 110.807 78.9063 99.6105C79.0895 99.6749 79.2018 99.6833 79.2185 99.7219C80.9856 107.02 86.7304 111.593 93.7114 115.15C101.945 119.352 110.835 122.169 119.781 124.778C144.734 132.072 170.275 136.088 196.222 137.475C206.813 138.042 217.369 137.875 227.659 135.766C232.985 134.672 238.111 133.115 242.219 129.914C243.937 128.577 245.321 126.9 246.89 125.351Z" fill="#FEF4EB"/>
</svg>
