<svg width="1920" height="230" viewBox="0 0 1920 230" fill="none" xmlns="http://www.w3.org/2000/svg">
<path fill-rule="evenodd" clip-rule="evenodd" d="M0.809041 99.3773L1.61808 198.755L10.3436 208.018C15.6357 213.637 24.7439 219.459 33.481 222.812C45.8312 227.552 51.6337 228.337 74.052 228.305C95.2698 228.274 102.453 227.378 112.086 223.563C126.814 217.725 141.954 205.126 144.169 196.865C145.816 190.71 145.926 190.768 153.138 201.568C166.294 221.273 192.738 230.874 228.565 228.954C259.613 227.292 283.33 215.602 291.458 197.958L295.211 189.814L298.815 197.965C307.802 218.292 338.554 230.744 375.341 228.95C406.279 227.441 429.059 216.929 438.762 199.685L442.709 192.673L449.001 202.339C461.041 220.835 489.332 230.831 524.344 228.954C555.27 227.298 574.136 218.253 585.216 199.772L590.668 190.681L594.353 198.291C609.218 228.974 673.605 239.815 713.868 218.416C723.568 213.26 736.577 199.073 736.977 193.214C737.122 191.106 738.389 192.305 739.793 195.876C743.504 205.317 758.661 218.033 772.52 223.335C789.495 229.831 821.132 231.129 841.198 226.156C859.801 221.543 880.076 207.356 883.274 196.711L885.475 189.383L888.311 195.876C896.64 214.953 920.806 227.426 952.333 228.922C989.447 230.681 1015.63 221.019 1028.08 200.973L1034.83 190.097L1036.84 196.934C1039.47 205.895 1053.62 217.723 1068.47 223.383C1083.48 229.103 1114.73 230.98 1132.64 227.238C1151.28 223.342 1167.86 213.648 1175.22 202.339L1181.51 192.673L1185.46 199.685C1195.16 216.929 1217.94 227.441 1248.88 228.95C1285.2 230.722 1314.15 219.613 1324.15 200.062L1329.19 190.207L1332.85 198.155C1340.89 215.6 1364.74 227.298 1395.66 228.954C1430.67 230.831 1458.96 220.835 1471 202.339L1477.29 192.673L1481.24 199.685C1490.94 216.929 1513.72 227.441 1544.66 228.95C1580.98 230.722 1609.93 219.613 1619.93 200.062L1624.97 190.207L1628.63 198.155C1636.67 215.6 1660.52 227.298 1691.44 228.954C1727.26 230.874 1753.71 221.273 1766.86 201.568C1774.07 190.768 1774.18 190.71 1775.83 196.865C1778.05 205.126 1793.19 217.725 1807.91 223.563C1817.55 227.378 1824.73 228.274 1845.95 228.305C1868.37 228.337 1874.17 227.552 1886.52 222.812C1895.26 219.459 1904.36 213.637 1909.66 208.018L1918.38 198.755L1919.19 99.3773L1920 0H960H0L0.809041 99.3773Z" fill="#9CA066"/>
</svg>
