<svg width="531" height="490" viewBox="0 0 531 490" fill="none" xmlns="http://www.w3.org/2000/svg">
<g clip-path="url(#clip0_557_13)">
<path d="M118.46 444.211C138.962 475.385 197.963 541.904 220.774 572.767C295.726 674.172 243.768 747.503 302.022 784.215C388.321 838.605 587.705 731.46 585.812 677.277C585.594 671.026 582.885 670.889 558.259 631.149C537.929 598.337 527.765 581.933 520.781 565.19C506.88 531.852 515.371 530.013 500.344 488.639C489.755 459.487 483.563 454.981 472.495 424.064C461.923 394.549 466.927 394.599 456.752 365.822C446.609 337.134 440.857 332.972 432.339 303.654C427.744 287.837 424.52 276.442 424.038 260.283C423.412 239.322 428.178 236.564 427.15 217.402C426.301 201.584 425.054 178.406 409.353 168.455C395.455 159.645 382.998 169.292 370.98 158.735C360.817 149.804 366.324 139.909 355.966 133.192C344.123 125.515 331.066 134.643 323.646 126.639C318.718 121.318 323.453 116.164 319.079 104.127C315.113 93.202 305.939 82.9644 300.357 84.5726C294.321 86.3092 297.479 100.416 290.067 104.184C282.775 107.893 274.01 97.1424 251.131 84.4101C243.762 80.3106 228.858 72.1219 208.622 66.4247C188.334 60.7078 185.369 63.8815 172.864 57.4591C160.497 51.1123 156.024 44.2268 146.863 45.6742C140.623 46.6618 133.554 51.2997 131.564 57.2277C129.103 64.577 136.083 69.0024 133.076 74.9936C130.195 80.739 121.053 82.1114 117.9 82.5889C107.282 84.1822 104.592 75.553 93.6281 76.213C89.1189 76.485 81.5692 78.2656 79.6052 82.7461C77.3765 87.8438 84.4325 91.7269 83.304 99.0511C82.4142 104.815 77.1459 108.211 73.4331 111.419C65.1735 118.558 62.0462 128.199 55.7915 147.481C48.2005 170.871 43.1402 186.483 44.5969 201.775C44.8269 204.201 45.6456 211.016 41.7554 213.926C37.5456 217.074 31.4996 212.888 29.0708 215.322C25.5971 218.809 37.092 228.265 37.6709 243.204C38.0504 253.075 33.2075 253.415 30.1776 269.236C27.8682 281.304 30.5091 282.039 28.8413 300.44C27.2884 317.586 24.9691 317.168 25.5762 326.007C26.104 333.741 29.5918 341.545 36.5414 356.832C42.3364 369.586 45.2368 375.961 50.1363 382.214C55.2231 388.714 60.1918 392.685 69.9285 400.368C86.8702 413.746 92.1674 414.554 102.524 424.494C111.206 432.83 115.942 440.382 118.455 444.201L118.46 444.211Z" fill="#C3BAB1"/>
<path d="M94.1595 141.905C82.9156 146.478 80.2685 164.564 78.6686 175.431C74.1755 206.086 88.9378 229.005 97.3458 242.055C106.899 256.885 114.438 268.582 129.883 271.896C131.699 272.284 150.276 275.968 164.179 264.229C177.006 253.395 176.842 237.051 176.78 230.787C176.72 224.949 175.597 210.453 153.435 184.138C138.127 165.96 111.815 134.72 94.1625 141.897L94.1595 141.905Z" fill="url(#paint0_radial_557_13)"/>
<path d="M180.241 102.899C170.324 112.244 173.817 129.058 177.676 147.595C180.212 159.779 184.515 179.116 201.567 195.333C209.738 203.099 220.468 213.305 236.795 212.974C253.459 212.638 265.809 201.545 270.182 197.621C275.683 192.68 276.725 188.452 278.257 178.168C279.26 171.457 284.316 161.807 269.031 142.57C251.979 121.105 243.456 110.372 232.692 105.135C219.968 98.9399 193.034 90.8378 180.239 102.894L180.241 102.899Z" fill="url(#paint1_radial_557_13)"/>
<path d="M327.664 158.093C320.126 162.867 320.013 181.008 323.655 222.414C326.353 253.105 328.093 261.365 336.619 268.835C345.841 276.92 362.48 282.505 376.802 275.861C394.014 267.876 397.282 247.155 398.067 242.157C400.6 226.094 394.14 214.36 381.215 190.896C365.269 161.948 353.091 155.598 349.484 153.867C342.89 150.695 335.617 153.058 327.664 158.093Z" fill="url(#paint2_radial_557_13)"/>
<path d="M92.1927 313.826C108.055 318.398 116.596 328.913 118.759 331.734C121.588 335.434 131.054 348.224 128.639 366.135C128.439 367.59 124.663 393.367 109.175 397.581C97.4765 400.764 86.4861 389.627 76.835 379.851C70.9159 373.853 57.9717 360.341 56.7449 339.708C56.3039 332.318 55.6309 320.884 63.308 314.717C71.7541 307.936 85.0429 311.765 92.1984 313.823L92.1927 313.826Z" fill="url(#paint3_radial_557_13)"/>
<path d="M238.647 279.202C223.389 280.904 199.787 297.727 193.847 311.795C188.42 324.637 196.902 329.869 194.886 351.975C193.607 366.003 189.886 367.269 183.913 388.67C177.134 412.976 173.273 426.809 177.024 442.315C177.944 446.119 186.041 477.396 213.27 482.508C229.911 485.636 250.339 478.36 260.559 465.628C269.604 454.355 267.273 443.005 279.393 435.852C286.954 431.393 295.235 431.454 296.271 431.473C303.498 431.609 307.519 434.365 311.713 435.954C325.256 441.083 340.942 434.196 352.331 429.191C363.541 424.268 368.895 418 377.302 399.808C386.347 380.243 382.483 365.645 379.306 358.334C375.664 349.939 370.185 340.223 356.013 335.421C339.55 329.847 327.125 318.76 310.098 309.244C302.805 305.171 299.349 300.089 273.699 283.871C253.475 271.08 238.639 279.2 238.639 279.2L238.647 279.202Z" fill="url(#paint4_radial_557_13)"/>
</g>
<defs>
<radialGradient id="paint0_radial_557_13" cx="0" cy="0" r="1" gradientUnits="userSpaceOnUse" gradientTransform="translate(123.642 206.336) rotate(63.414) scale(70.8551 40.7901)">
<stop offset="0.0817308" stop-color="#2F2922"/>
<stop offset="0.889423" stop-color="#95826E"/>
</radialGradient>
<radialGradient id="paint1_radial_557_13" cx="0" cy="0" r="1" gradientUnits="userSpaceOnUse" gradientTransform="translate(224.956 151.465) rotate(63.414) scale(64.2759 44.9185)">
<stop offset="0.0817308" stop-color="#2F2922"/>
<stop offset="0.889423" stop-color="#95826E"/>
</radialGradient>
<radialGradient id="paint2_radial_557_13" cx="0" cy="0" r="1" gradientUnits="userSpaceOnUse" gradientTransform="translate(351.69 217.092) rotate(63.414) scale(63.8081 38.6826)">
<stop offset="0.0817308" stop-color="#2F2922"/>
<stop offset="0.889423" stop-color="#95826E"/>
</radialGradient>
<radialGradient id="paint3_radial_557_13" cx="0" cy="0" r="1" gradientUnits="userSpaceOnUse" gradientTransform="translate(94.1556 352.17) rotate(63.414) scale(47.6507 32.1465)">
<stop offset="0.0817308" stop-color="#2F2922"/>
<stop offset="0.889423" stop-color="#95826E"/>
</radialGradient>
<radialGradient id="paint4_radial_557_13" cx="0" cy="0" r="1" gradientUnits="userSpaceOnUse" gradientTransform="translate(262 369.736) rotate(63.414) scale(93.6661 110.129)">
<stop offset="0.0817308" stop-color="#2F2922"/>
<stop offset="0.889423" stop-color="#95826E"/>
</radialGradient>
<clipPath id="clip0_557_13">
<rect width="531" height="490" fill="white"/>
</clipPath>
</defs>
</svg>
