<svg width="1934" height="295" viewBox="0 0 1934 295" fill="none" xmlns="http://www.w3.org/2000/svg">
<rect width="1928.36" height="102.272" transform="matrix(0.999992 0.00397427 0.00248954 0.999997 4.95947 85.6589)" fill="#FBCED0"/>
<path fill-rule="evenodd" clip-rule="evenodd" d="M98.6746 121.136C97.7257 120.779 95.091 120.48 94.0234 120.609C93.165 120.712 91.6629 121.242 90.4856 121.857C89.5047 122.369 84.7853 125.653 83.8159 126.497C82.2659 127.848 80.8945 129.966 80.1043 132.229C79.1066 135.086 79.1988 138.264 80.3701 141.378C80.9866 143.018 81.3049 143.437 82.7429 144.508C84.7525 146.005 85.7219 146.349 88.1452 146.424C90.4042 146.494 92.2465 146.093 93.9752 145.157C98.2258 142.854 100.967 138.872 101.724 133.9C102.174 130.948 102.341 126.659 102.067 125.142C101.837 123.871 101.268 122.914 100.246 122.081C99.6257 121.576 99.263 121.358 98.6746 121.136ZM80.9117 107.766C79.5594 107.191 77.4828 106.865 76.0095 106.996C73.0812 107.258 69.0443 108.753 65.984 110.708C63.6986 112.168 61.4762 114.19 60.5756 115.628C59.8155 116.842 58.8762 119.192 58.6618 120.417C58.4753 121.483 58.4167 123.153 58.5419 123.832C58.7393 124.903 59.9161 126.908 60.9894 128.004C62.1824 129.221 64.6968 130.468 66.5294 130.751C67.4668 130.896 69.857 130.713 71.5927 130.364C73.4185 129.997 74.8062 129.365 76.6273 128.07C77.9729 127.114 78.2581 126.861 79.0688 125.906C80.4145 124.321 81.5234 122.573 83.0877 119.57C84.3868 117.077 84.6888 116.286 84.777 115.147C84.8596 114.08 84.6896 113.16 84.1153 111.569C83.6722 110.342 83.2854 109.681 82.5975 108.976C81.931 108.293 81.6111 108.063 80.9117 107.766ZM51.5452 112.115C51.1129 111.97 50.4805 111.818 50.14 111.778C49.1488 111.66 46.7149 111.607 46.0279 111.689C43.6988 111.963 40.888 113.31 38.9342 115.087C36.6486 117.166 35.1944 119.447 34.6498 121.809C34.0098 124.584 34.2629 127.111 35.4775 130.073C36.0627 131.5 36.4872 132.124 37.5991 133.19C39.0512 134.581 40.4796 135.371 41.8262 135.527C42.616 135.618 44.3727 135.367 45.4284 135.013C47.2424 134.403 49.38 133.072 50.6509 131.759C51.4286 130.956 51.5789 130.74 52.0236 129.785C52.9912 127.707 53.6899 125.168 54.0718 122.34C54.1917 121.452 54.4139 120.118 54.5655 119.376C54.9611 117.438 54.9445 115.894 54.5166 114.805C54.0434 113.601 52.9052 112.57 51.5452 112.115ZM99.4263 148.483C98.3282 148.201 96.3822 148.408 94.8162 148.972C93.769 149.349 91.5316 150.119 88.2189 151.242C87.5441 151.47 84.5795 152.916 83.7661 153.413C83.3302 153.679 82.9051 154.076 82.2658 154.814L81.3737 155.844L80.7508 157.93C79.916 160.724 79.783 161.53 79.9537 162.756C80.2656 164.996 82.1244 167.19 84.5364 168.164C85.844 168.692 88.1035 169.091 89.5021 169.041C94.9185 168.847 98.3502 167.147 101.265 163.215C102.86 161.062 103.503 159.561 103.795 157.301C104.294 153.428 102.196 149.193 99.4263 148.483ZM72.0972 136.191C70.555 135.329 69.7953 135.025 68.4797 134.739C65.5892 134.112 62.8033 134.497 57.5567 136.248C56.4204 136.628 54.8286 137.081 54.0194 137.256C51.2753 137.849 47.0848 138.011 43.0876 137.68C39.6603 137.397 38.0225 137.6 35.4983 138.624C34.6242 138.979 33.4623 139.506 32.9164 139.797L31.9239 140.325L30.3658 142.129L28.8076 143.934L28.4377 144.964C27.9287 146.382 27.7702 147.265 27.8002 148.516C27.8535 150.735 28.5238 152.677 29.9192 154.655C30.706 155.771 31.1817 156.287 32.4386 157.392C34.239 158.974 35.2502 159.53 39.8961 161.492C41.1005 162.001 42.5533 162.675 43.1244 162.991C44.6647 163.843 47.2145 165.665 48.3015 166.689C49.5918 167.906 51.2822 169.963 52.1869 171.418C54.3872 174.956 57.5963 177.634 61.2499 178.979C64.232 180.078 67.2489 180.342 69.6279 179.713C71.274 179.277 73.2679 178.39 74.1316 177.708C75.6388 176.518 77.2511 174.042 77.6497 172.305C78.1008 170.339 77.868 167.71 76.9281 164.155C76.2282 161.508 75.7439 158.623 75.756 157.17C75.761 156.567 75.9268 154.775 76.1243 153.187C77.1932 144.594 77.2141 143.502 76.3529 141.245C75.8049 139.809 75.5617 139.367 74.8241 138.47C73.9489 137.405 73.2969 136.86 72.0972 136.191Z" fill="#836F59"/>
<path fill-rule="evenodd" clip-rule="evenodd" d="M624.578 129.399C623.616 129.074 620.972 128.864 619.91 129.028C619.057 129.16 617.576 129.741 616.424 130.395C615.464 130.94 610.875 134.382 609.94 135.259C608.443 136.662 607.155 138.825 606.453 141.114C605.567 144.004 605.782 147.177 607.072 150.25C607.752 151.868 608.086 152.277 609.564 153.299C611.63 154.727 612.612 155.038 615.036 155.031C617.295 155.025 619.121 154.562 620.812 153.568C624.969 151.123 627.554 147.05 628.118 142.054C628.453 139.088 628.455 134.795 628.122 133.288C627.843 132.025 627.237 131.088 626.184 130.29C625.545 129.806 625.174 129.6 624.578 129.399ZM606.313 116.633C604.94 116.104 602.853 115.849 601.386 116.03C598.47 116.391 594.495 118.021 591.513 120.079C589.286 121.616 587.144 123.712 586.3 125.18C585.587 126.419 584.74 128.8 584.573 130.032C584.428 131.103 584.434 132.775 584.585 133.449C584.824 134.513 586.077 136.478 587.192 137.536C588.431 138.713 590.991 139.874 592.833 140.095C593.775 140.208 596.156 139.945 597.877 139.537C599.687 139.109 601.049 138.43 602.818 137.074C604.126 136.073 604.401 135.811 605.174 134.829C606.457 133.199 607.497 131.414 608.944 128.36C610.146 125.824 610.417 125.023 610.461 123.881C610.502 122.812 610.297 121.898 609.661 120.327C609.171 119.116 608.759 118.468 608.044 117.786C607.352 117.126 607.024 116.907 606.313 116.633ZM577.141 121.973C576.704 121.843 576.066 121.713 575.724 121.684C574.729 121.6 572.296 121.629 571.612 121.733C569.296 122.087 566.54 123.528 564.656 125.37C562.453 127.525 561.089 129.855 560.636 132.234C560.104 135.029 560.454 137.547 561.782 140.466C562.422 141.873 562.871 142.482 564.023 143.51C565.527 144.852 566.985 145.593 568.337 145.704C569.129 145.768 570.875 145.458 571.916 145.068C573.704 144.398 575.789 142.995 577.008 141.64C577.754 140.81 577.895 140.589 578.303 139.62C579.189 137.51 579.789 134.948 580.061 132.109C580.147 131.217 580.317 129.876 580.44 129.129C580.76 127.179 580.684 125.635 580.214 124.561C579.695 123.374 578.518 122.382 577.141 121.973ZM626.386 156.708C625.278 156.464 623.342 156.736 621.799 157.353C620.768 157.766 618.562 158.611 615.296 159.845C614.63 160.096 611.724 161.641 610.931 162.165C610.506 162.446 610.096 162.857 609.486 163.617L608.635 164.676L608.093 166.782C607.367 169.604 607.265 170.413 607.483 171.633C607.882 173.862 609.824 175.992 612.271 176.884C613.598 177.368 615.871 177.691 617.266 177.593C622.67 177.216 626.033 175.401 628.793 171.372C630.304 169.166 630.888 167.644 631.092 165.375C631.441 161.487 629.181 157.324 626.386 156.708ZM598.606 145.344C597.032 144.536 596.261 144.257 594.936 144.016C592.024 143.487 589.255 143.966 584.081 145.894C582.96 146.311 581.387 146.818 580.586 147.02C577.867 147.705 573.687 148.009 569.68 147.814C566.245 147.646 564.616 147.905 562.134 149.014C561.275 149.398 560.134 149.964 559.6 150.273L558.629 150.834L557.142 152.691L555.655 154.547L555.325 155.589C554.871 157.024 554.747 157.912 554.825 159.161C554.965 161.377 555.709 163.296 557.18 165.226C558.009 166.315 558.505 166.815 559.803 167.877C561.663 169.398 562.695 169.919 567.412 171.723C568.636 172.191 570.113 172.816 570.696 173.113C572.268 173.913 574.886 175.647 576.011 176.635C577.348 177.807 579.116 179.806 580.076 181.23C582.411 184.692 585.721 187.26 589.424 188.482C592.446 189.479 595.47 189.641 597.823 188.932C599.45 188.441 601.408 187.486 602.245 186.776C603.704 185.535 605.22 183.006 605.551 181.256C605.925 179.276 605.591 176.656 604.514 173.134C603.713 170.512 603.117 167.644 603.073 166.191C603.055 165.589 603.151 163.792 603.287 162.198C604.023 153.572 604.001 152.48 603.054 150.253C602.451 148.836 602.191 148.403 601.419 147.531C600.503 146.496 599.831 145.974 598.606 145.344Z" fill="#836F59"/>
<path fill-rule="evenodd" clip-rule="evenodd" d="M1167.05 125.201C1166.1 124.854 1163.46 124.584 1162.4 124.725C1161.54 124.838 1160.05 125.384 1158.88 126.012C1157.9 126.535 1153.23 129.872 1152.27 130.728C1150.73 132.096 1149.39 134.229 1148.63 136.5C1147.67 139.369 1147.8 142.545 1149.01 145.647C1149.65 147.279 1149.97 147.696 1151.42 148.751C1153.45 150.225 1154.43 150.558 1156.85 150.606C1159.11 150.65 1160.95 150.229 1162.66 149.274C1166.88 146.924 1169.57 142.911 1170.27 137.93C1170.68 134.974 1170.79 130.683 1170.5 129.168C1170.25 127.9 1169.67 126.949 1168.64 126.128C1168.01 125.63 1167.65 125.415 1167.05 125.201ZM1149.12 112.028C1147.76 111.468 1145.68 111.165 1144.21 111.313C1141.29 111.608 1137.27 113.148 1134.24 115.137C1131.97 116.623 1129.77 118.67 1128.89 120.118C1128.15 121.34 1127.24 123.701 1127.04 124.928C1126.87 125.996 1126.83 127.667 1126.96 128.344C1127.17 129.413 1128.38 131.405 1129.46 132.488C1130.67 133.693 1133.2 134.911 1135.04 135.174C1135.98 135.308 1138.36 135.099 1140.09 134.731C1141.92 134.343 1143.29 133.695 1145.1 132.381C1146.43 131.409 1146.71 131.153 1147.51 130.189C1148.84 128.589 1149.92 126.828 1151.45 123.809C1152.72 121.301 1153.01 120.506 1153.08 119.366C1153.15 118.298 1152.97 117.381 1152.38 115.796C1151.92 114.574 1151.52 113.917 1150.82 113.219C1150.15 112.544 1149.83 112.317 1149.12 112.028ZM1119.82 116.705C1119.38 116.565 1118.75 116.42 1118.41 116.384C1117.41 116.277 1114.98 116.252 1114.29 116.34C1111.97 116.641 1109.18 118.019 1107.25 119.818C1104.99 121.922 1103.56 124.22 1103.05 126.587C1102.44 129.37 1102.73 131.894 1103.98 134.842C1104.58 136.263 1105.02 136.882 1106.14 137.936C1107.61 139.311 1109.05 140.085 1110.4 140.226C1111.19 140.308 1112.94 140.038 1113.99 139.671C1115.8 139.042 1117.92 137.686 1119.17 136.36C1119.94 135.548 1120.09 135.33 1120.52 134.37C1121.46 132.281 1122.13 129.734 1122.47 126.902C1122.58 126.013 1122.79 124.677 1122.93 123.932C1123.3 121.99 1123.26 120.446 1122.82 119.362C1122.33 118.163 1121.18 117.145 1119.82 116.705ZM1168.16 152.539C1167.05 152.27 1165.11 152.498 1163.55 153.08C1162.51 153.469 1160.28 154.263 1156.99 155.423C1156.31 155.659 1153.37 157.137 1152.56 157.643C1152.13 157.915 1151.71 158.316 1151.08 159.062L1150.2 160.102L1149.6 162.194C1148.8 164.998 1148.68 165.805 1148.87 167.029C1149.21 169.266 1151.1 171.439 1153.52 172.386C1154.83 172.9 1157.1 173.274 1158.5 173.208C1163.91 172.953 1167.32 171.215 1170.18 167.251C1171.75 165.08 1172.37 163.571 1172.64 161.308C1173.09 157.43 1170.93 153.218 1168.16 152.539ZM1140.67 140.552C1139.12 139.708 1138.36 139.411 1137.04 139.141C1134.14 138.546 1131.36 138.962 1126.14 140.772C1125 141.164 1123.42 141.635 1122.61 141.819C1119.88 142.442 1115.69 142.651 1111.69 142.365C1108.26 142.12 1106.62 142.342 1104.11 143.394C1103.24 143.758 1102.09 144.299 1101.54 144.595L1100.56 145.134L1099.02 146.956L1097.49 148.778L1097.13 149.812C1096.64 151.236 1096.49 152.12 1096.54 153.371C1096.62 155.59 1097.32 157.524 1098.74 159.487C1099.54 160.594 1100.02 161.105 1101.29 162.196C1103.11 163.758 1104.13 164.303 1108.8 166.213C1110.01 166.708 1111.47 167.366 1112.05 167.676C1113.6 168.511 1116.17 170.304 1117.27 171.316C1118.58 172.518 1120.29 174.556 1121.22 176.001C1123.46 179.515 1126.7 182.157 1130.37 183.462C1133.37 184.527 1136.39 184.757 1138.76 184.101C1140.4 183.648 1142.38 182.738 1143.24 182.046C1144.73 180.84 1146.31 178.345 1146.69 176.604C1147.11 174.633 1146.85 172.007 1145.86 168.462C1145.13 165.823 1144.61 162.943 1144.6 161.49C1144.6 160.888 1144.74 159.094 1144.92 157.503C1145.88 148.898 1145.88 147.806 1144.99 145.559C1144.43 144.129 1144.18 143.69 1143.43 142.801C1142.54 141.746 1141.88 141.208 1140.67 140.552Z" fill="#836F59"/>
<path fill-rule="evenodd" clip-rule="evenodd" d="M1709.18 130.476C1708.22 130.129 1705.59 129.86 1704.52 130C1703.66 130.113 1702.17 130.659 1701 131.287C1700.02 131.811 1695.35 135.147 1694.39 136.003C1692.86 137.371 1691.51 139.504 1690.75 141.775C1689.79 144.644 1689.92 147.82 1691.13 150.922C1691.77 152.554 1692.09 152.971 1693.55 154.026C1695.57 155.5 1696.55 155.833 1698.97 155.881C1701.23 155.925 1703.07 155.504 1704.78 154.549C1709.01 152.199 1711.7 148.186 1712.39 143.205C1712.8 140.249 1712.91 135.958 1712.62 134.443C1712.37 133.175 1711.79 132.225 1710.76 131.403C1710.13 130.905 1709.77 130.691 1709.18 130.476ZM1691.25 117.303C1689.89 116.743 1687.81 116.441 1686.33 116.589C1683.41 116.883 1679.39 118.423 1676.36 120.412C1674.09 121.898 1671.89 123.945 1671.01 125.393C1670.27 126.615 1669.36 128.976 1669.16 130.203C1668.99 131.271 1668.95 132.942 1669.08 133.619C1669.3 134.688 1670.5 136.68 1671.58 137.764C1672.79 138.968 1675.32 140.187 1677.16 140.449C1678.1 140.583 1680.49 140.374 1682.22 140.006C1684.04 139.618 1685.42 138.971 1687.22 137.656C1688.55 136.684 1688.84 136.428 1689.63 135.464C1690.96 133.864 1692.05 132.103 1693.57 129.084C1694.84 126.576 1695.13 125.782 1695.2 124.642C1695.27 123.573 1695.09 122.656 1694.5 121.071C1694.04 119.849 1693.64 119.192 1692.95 118.495C1692.27 117.819 1691.95 117.593 1691.25 117.303ZM1661.94 121.98C1661.5 121.84 1660.87 121.695 1660.53 121.659C1659.54 121.552 1657.1 121.527 1656.42 121.615C1654.09 121.916 1651.3 123.294 1649.37 125.093C1647.11 127.197 1645.68 129.495 1645.17 131.863C1644.57 134.645 1644.85 137.169 1646.1 140.118C1646.71 141.538 1647.14 142.157 1648.26 143.211C1649.73 144.586 1651.17 145.36 1652.52 145.501C1653.31 145.583 1655.06 145.313 1656.12 144.947C1657.92 144.317 1660.04 142.961 1661.3 141.635C1662.06 140.823 1662.21 140.605 1662.64 139.645C1663.58 137.557 1664.25 135.009 1664.6 132.177C1664.7 131.288 1664.91 129.952 1665.05 129.207C1665.42 127.265 1665.39 125.721 1664.94 124.637C1664.46 123.438 1663.3 122.42 1661.94 121.98ZM1710.28 157.814C1709.18 157.545 1707.23 157.773 1705.67 158.355C1704.63 158.744 1702.41 159.538 1699.11 160.698C1698.44 160.934 1695.49 162.413 1694.68 162.919C1694.25 163.19 1693.83 163.592 1693.2 164.337L1692.32 165.377L1691.73 167.469C1690.93 170.273 1690.8 171.08 1690.99 172.304C1691.33 174.541 1693.22 176.714 1695.64 177.662C1696.96 178.175 1699.22 178.549 1700.62 178.483C1706.03 178.228 1709.44 176.49 1712.3 172.526C1713.87 170.355 1714.5 168.846 1714.76 166.583C1715.21 162.705 1713.06 158.493 1710.28 157.814ZM1682.8 145.827C1681.24 144.983 1680.48 144.686 1679.16 144.416C1676.26 143.821 1673.48 144.237 1668.26 146.047C1667.13 146.439 1665.54 146.91 1664.73 147.094C1662 147.717 1657.81 147.927 1653.81 147.64C1650.38 147.395 1648.74 147.617 1646.23 148.669C1645.36 149.033 1644.21 149.574 1643.67 149.87L1642.68 150.409L1641.15 152.231L1639.61 154.053L1639.25 155.088C1638.76 156.511 1638.62 157.396 1638.66 158.647C1638.74 160.865 1639.44 162.8 1640.86 164.762C1641.66 165.869 1642.14 166.38 1643.41 167.471C1645.23 169.033 1646.25 169.578 1650.92 171.488C1652.13 171.983 1653.59 172.641 1654.17 172.951C1655.72 173.786 1658.29 175.579 1659.39 176.591C1660.7 177.793 1662.42 179.831 1663.34 181.276C1665.58 184.79 1668.83 187.432 1672.5 188.737C1675.49 189.802 1678.51 190.033 1680.88 189.377C1682.52 188.923 1684.51 188.013 1685.36 187.321C1686.85 186.115 1688.43 183.621 1688.81 181.88C1689.23 179.909 1688.97 177.282 1687.98 173.737C1687.25 171.098 1686.73 168.218 1686.72 166.765C1686.72 166.163 1686.86 164.369 1687.04 162.778C1688 154.173 1688.01 153.082 1687.12 150.834C1686.55 149.404 1686.3 148.965 1685.55 148.076C1684.66 147.021 1684 146.483 1682.8 145.827Z" fill="#836F59"/>
<path fill-rule="evenodd" clip-rule="evenodd" d="M401.732 115.541C400.645 115.103 397.664 114.652 396.469 114.745C395.509 114.819 393.846 115.335 392.553 115.96C391.476 116.481 386.337 119.89 385.291 120.778C383.617 122.198 382.185 124.474 381.415 126.936C380.442 130.046 380.712 133.559 382.194 137.053C382.974 138.891 383.354 139.37 385.029 140.618C387.369 142.364 388.478 142.788 391.209 142.982C393.755 143.163 395.808 142.806 397.704 141.851C402.367 139.504 405.243 135.233 405.834 129.776C406.185 126.538 406.148 121.809 405.76 120.121C405.434 118.707 404.743 117.624 403.549 116.657C402.825 116.07 402.405 115.813 401.732 115.541ZM381.039 99.9588C379.487 99.2617 377.132 98.8064 375.481 98.8839C372.199 99.0384 367.735 100.503 364.393 102.522C361.898 104.029 359.503 106.16 358.565 107.706C357.773 109.012 356.839 111.564 356.662 112.907C356.509 114.075 356.53 115.917 356.707 116.672C356.985 117.864 358.415 120.133 359.68 121.391C361.087 122.791 363.982 124.283 366.059 124.68C367.122 124.883 369.802 124.791 371.737 124.486C373.773 124.164 375.301 123.53 377.283 122.184C378.747 121.19 379.055 120.924 379.917 119.907C381.348 118.218 382.505 116.338 384.107 113.095C385.439 110.401 385.737 109.542 385.776 108.288C385.813 107.113 385.574 106.09 384.844 104.307C384.281 102.931 383.811 102.183 382.999 101.373C382.214 100.588 381.841 100.319 381.039 99.9588ZM348.217 103.411C347.723 103.231 347.004 103.034 346.618 102.974C345.496 102.799 342.755 102.629 341.986 102.686C339.379 102.883 336.286 104.241 334.181 106.113C331.718 108.304 330.201 110.756 329.712 113.339C329.137 116.374 329.555 119.176 331.077 122.503C331.811 124.106 332.321 124.814 333.629 126.042C335.336 127.646 336.985 128.584 338.509 128.818C339.402 128.955 341.366 128.759 342.536 128.416C344.545 127.827 346.881 126.454 348.242 125.063C349.075 124.212 349.233 123.98 349.683 122.947C350.663 120.696 351.316 117.924 351.598 114.819C351.686 113.844 351.866 112.381 351.998 111.568C352.341 109.447 352.241 107.74 351.703 106.518C351.107 105.167 349.772 103.976 348.217 103.411ZM404.013 145.775C402.763 145.413 400.584 145.552 398.851 146.103C397.692 146.471 395.214 147.219 391.545 148.306C390.798 148.527 387.537 149.987 386.648 150.498C386.171 150.772 385.714 151.191 385.033 151.977L384.083 153.073L383.492 155.348C382.699 158.396 382.591 159.279 382.848 160.641C383.317 163.129 385.524 165.637 388.289 166.824C389.789 167.467 392.352 168.012 393.924 168.021C400.01 168.055 403.782 166.336 406.856 162.128C408.539 159.824 409.183 158.196 409.393 155.713C409.752 151.46 407.168 146.686 404.013 145.775ZM372.611 130.943C370.83 129.921 369.959 129.55 368.464 129.174C365.178 128.349 362.063 128.646 356.25 130.338C354.991 130.705 353.223 131.132 352.322 131.288C349.265 131.816 344.557 131.803 340.041 131.254C336.169 130.783 334.337 130.933 331.55 131.947C330.585 132.299 329.305 132.828 328.706 133.123L327.616 133.661L325.957 135.582L324.299 137.503L323.936 138.624C323.438 140.166 323.306 141.134 323.405 142.517C323.582 144.969 324.438 147.145 326.112 149.394C327.057 150.662 327.619 151.254 329.092 152.532C331.201 154.362 332.368 155.023 337.7 157.403C339.082 158.02 340.752 158.832 341.412 159.207C343.19 160.219 346.155 162.347 347.432 163.529C348.948 164.931 350.959 167.281 352.053 168.929C354.715 172.938 358.468 176.042 362.65 177.696C366.064 179.047 369.473 179.477 372.117 178.891C373.947 178.486 376.144 177.598 377.081 176.884C378.714 175.64 380.399 172.98 380.756 171.08C381.161 168.93 380.761 166.016 379.516 162.047C378.59 159.091 377.893 155.883 377.83 154.279C377.804 153.614 377.897 151.643 378.036 149.898C378.788 140.457 378.754 139.253 377.666 136.721C376.974 135.11 376.677 134.611 375.8 133.586C374.759 132.37 373.997 131.738 372.611 130.943Z" fill="#836F59"/>
<path fill-rule="evenodd" clip-rule="evenodd" d="M927.153 113.567C926.05 113.165 923.055 112.815 921.865 112.948C920.908 113.055 919.266 113.627 917.999 114.295C916.943 114.852 911.941 118.433 910.929 119.357C909.312 120.833 907.969 123.156 907.295 125.644C906.443 128.785 906.85 132.287 908.465 135.729C909.315 137.541 909.714 138.006 911.435 139.198C913.841 140.863 914.965 141.25 917.702 141.351C920.252 141.446 922.289 141.02 924.147 140.002C928.715 137.498 931.423 133.131 931.802 127.657C932.028 124.408 931.808 119.683 931.355 118.008C930.975 116.606 930.242 115.547 929.012 114.62C928.266 114.059 927.837 113.815 927.153 113.567ZM905.876 98.6898C904.298 98.0454 901.929 97.6698 900.282 97.8031C897.009 98.0684 892.605 99.6834 889.344 101.814C886.91 103.405 884.599 105.616 883.722 107.194C882.981 108.525 882.147 111.108 882.022 112.456C881.914 113.629 882.007 115.469 882.212 116.218C882.536 117.4 884.053 119.62 885.366 120.835C886.825 122.186 889.775 123.58 891.866 123.907C892.936 124.074 895.61 123.892 897.532 123.521C899.553 123.131 901.056 122.445 902.983 121.033C904.408 119.99 904.705 119.713 905.527 118.667C906.892 116.931 907.974 115.013 909.45 111.717C910.676 108.979 910.941 108.11 910.932 106.856C910.923 105.68 910.644 104.665 909.846 102.907C909.23 101.551 908.731 100.82 907.89 100.037C907.074 99.2787 906.692 99.0231 905.876 98.6898ZM873.217 103.249C872.717 103.086 871.99 102.914 871.603 102.867C870.475 102.73 867.729 102.652 866.963 102.736C864.366 103.02 861.329 104.482 859.298 106.425C856.922 108.698 855.501 111.2 855.112 113.798C854.656 116.852 855.181 119.639 856.831 122.913C857.626 124.49 858.163 125.181 859.517 126.364C861.285 127.91 862.969 128.792 864.5 128.974C865.398 129.081 867.353 128.818 868.508 128.436C870.493 127.779 872.773 126.328 874.08 124.892C874.879 124.013 875.028 123.776 875.438 122.727C876.33 120.445 876.875 117.652 877.036 114.539C877.087 113.561 877.21 112.093 877.31 111.275C877.571 109.143 877.405 107.441 876.82 106.238C876.172 104.907 874.792 103.762 873.217 103.249ZM930.602 143.71C929.339 143.391 927.167 143.604 925.457 144.213C924.314 144.62 921.867 145.451 918.243 146.662C917.505 146.908 914.304 148.478 913.435 149.019C912.969 149.309 912.528 149.743 911.879 150.552L910.972 151.679L910.469 153.973C909.795 157.046 909.722 157.933 910.031 159.285C910.595 161.757 912.897 164.189 915.706 165.282C917.229 165.875 919.812 166.333 921.382 166.288C927.464 166.117 931.167 164.271 934.075 159.961C935.667 157.601 936.248 155.951 936.361 153.463C936.555 149.199 933.789 144.515 930.602 143.71ZM898.654 129.946C896.836 128.985 895.951 128.643 894.442 128.318C891.127 127.604 888.026 128.006 882.284 129.894C881.041 130.303 879.291 130.79 878.397 130.977C875.363 131.608 870.659 131.754 866.126 131.357C862.239 131.017 860.414 131.229 857.668 132.337C856.718 132.721 855.459 133.293 854.872 133.609L853.805 134.183L852.222 136.159L850.639 138.135L850.32 139.268C849.882 140.826 849.787 141.798 849.94 143.177C850.211 145.623 851.151 147.769 852.911 149.96C853.903 151.196 854.488 151.769 856.009 152.996C858.187 154.754 859.379 155.375 864.797 157.574C866.202 158.144 867.903 158.899 868.576 159.252C870.392 160.203 873.437 162.231 874.758 163.369C876.327 164.719 878.427 167 879.584 168.611C882.399 172.528 886.268 175.504 890.51 177.016C893.974 178.251 897.396 178.566 900.016 177.891C901.828 177.424 903.989 176.462 904.897 175.717C906.481 174.418 908.061 171.702 908.345 169.791C908.666 167.628 908.153 164.729 906.756 160.803C905.716 157.88 904.896 154.697 904.772 153.096C904.72 152.432 904.736 150.458 904.807 148.71C905.193 139.247 905.113 138.045 903.928 135.551C903.174 133.963 902.858 133.475 901.942 132.48C900.855 131.3 900.069 130.694 898.654 129.946Z" fill="#836F59"/>
<path fill-rule="evenodd" clip-rule="evenodd" d="M1470 116.226C1468.91 115.8 1465.92 115.382 1464.73 115.488C1463.77 115.573 1462.11 116.108 1460.83 116.747C1459.76 117.279 1454.66 120.746 1453.63 121.646C1451.97 123.085 1450.57 125.376 1449.83 127.848C1448.9 130.968 1449.21 134.478 1450.74 137.955C1451.54 139.785 1451.93 140.259 1453.62 141.489C1455.98 143.208 1457.1 143.62 1459.83 143.784C1462.38 143.937 1464.43 143.556 1466.31 142.581C1470.94 140.181 1473.76 135.878 1474.28 130.415C1474.59 127.172 1474.5 122.444 1474.09 120.76C1473.74 119.35 1473.04 118.275 1471.83 117.321C1471.1 116.743 1470.68 116.49 1470 116.226ZM1449.11 100.874C1447.55 100.194 1445.19 99.7651 1443.54 99.8611C1440.26 100.052 1435.82 101.567 1432.5 103.623C1430.03 105.158 1427.66 107.315 1426.74 108.873C1425.96 110.187 1425.06 112.749 1424.9 114.094C1424.77 115.264 1424.81 117.106 1425 117.859C1425.29 119.047 1426.75 121.301 1428.03 122.545C1429.45 123.929 1432.37 125.389 1434.45 125.763C1435.52 125.954 1438.19 125.832 1440.12 125.505C1442.16 125.161 1443.68 124.509 1445.64 123.142C1447.09 122.131 1447.4 121.862 1448.24 120.835C1449.65 119.13 1450.79 117.237 1452.35 113.976C1453.64 111.267 1453.93 110.405 1453.95 109.151C1453.98 107.975 1453.72 106.955 1452.97 105.18C1452.39 103.81 1451.91 103.068 1451.09 102.266C1450.29 101.49 1449.92 101.226 1449.11 100.874ZM1416.34 104.692C1415.84 104.518 1415.12 104.33 1414.73 104.274C1413.61 104.111 1410.87 103.971 1410.1 104.038C1407.49 104.263 1404.42 105.655 1402.34 107.551C1399.9 109.769 1398.42 112.239 1397.96 114.827C1397.43 117.869 1397.88 120.666 1399.45 123.976C1400.2 125.571 1400.72 126.274 1402.04 127.487C1403.77 129.072 1405.43 129.991 1406.96 130.208C1407.85 130.335 1409.81 130.117 1410.98 129.761C1412.98 129.149 1415.3 127.751 1416.64 126.345C1417.46 125.484 1417.62 125.251 1418.05 124.212C1419.01 121.951 1419.62 119.171 1419.86 116.063C1419.94 115.087 1420.1 113.622 1420.22 112.808C1420.54 110.682 1420.42 108.977 1419.86 107.761C1419.25 106.416 1417.9 105.241 1416.34 104.692ZM1472.67 146.434C1471.41 146.086 1469.24 146.249 1467.51 146.82C1466.36 147.201 1463.89 147.976 1460.23 149.104C1459.49 149.334 1456.25 150.83 1455.37 151.351C1454.89 151.631 1454.44 152.055 1453.77 152.848L1452.83 153.955L1452.27 156.236C1451.52 159.293 1451.42 160.177 1451.7 161.536C1452.2 164.019 1454.43 166.503 1457.22 167.659C1458.72 168.285 1461.29 168.801 1462.86 168.793C1468.95 168.759 1472.7 166.998 1475.72 162.756C1477.37 160.433 1478 158.797 1478.17 156.312C1478.48 152.055 1475.83 147.31 1472.67 146.434ZM1441.08 131.953C1439.29 130.951 1438.41 130.589 1436.91 130.23C1433.62 129.441 1430.5 129.773 1424.71 131.53C1423.46 131.911 1421.7 132.358 1420.8 132.524C1417.75 133.087 1413.04 133.126 1408.52 132.627C1404.64 132.2 1402.81 132.369 1400.04 133.415C1399.08 133.777 1397.8 134.321 1397.21 134.623L1396.13 135.172L1394.49 137.112L1392.86 139.052L1392.51 140.177C1392.03 141.724 1391.91 142.693 1392.03 144.076C1392.24 146.526 1393.12 148.692 1394.82 150.922C1395.79 152.18 1396.36 152.766 1397.84 154.027C1399.98 155.834 1401.15 156.482 1406.51 158.802C1407.9 159.404 1409.58 160.197 1410.25 160.565C1412.04 161.557 1415.03 163.652 1416.32 164.82C1417.86 166.205 1419.9 168.532 1421.01 170.168C1423.72 174.147 1427.52 177.21 1431.72 178.817C1435.15 180.13 1438.56 180.522 1441.2 179.907C1443.02 179.481 1445.21 178.568 1446.14 177.844C1447.75 176.581 1449.4 173.902 1449.74 171.999C1450.11 169.844 1449.68 166.935 1448.38 162.979C1447.42 160.034 1446.68 156.833 1446.6 155.23C1446.56 154.566 1446.63 152.593 1446.75 150.847C1447.38 141.398 1447.33 140.194 1446.21 137.674C1445.5 136.07 1445.19 135.575 1444.3 134.56C1443.25 133.356 1442.48 132.732 1441.08 131.953Z" fill="#836F59"/>
<path fill-rule="evenodd" clip-rule="evenodd" d="M175.875 144.859C175.257 144.617 173.55 144.39 172.862 144.457C172.31 144.511 171.348 144.829 170.597 145.206C169.971 145.521 166.974 147.556 166.361 148.083C165.381 148.926 164.529 150.261 164.054 151.698C163.454 153.512 163.564 155.545 164.37 157.554C164.794 158.611 165.006 158.884 165.952 159.589C167.274 160.574 167.905 160.807 169.472 160.889C170.932 160.964 172.116 160.734 173.218 160.159C175.927 158.744 177.635 156.235 178.046 153.065C178.29 151.183 178.331 148.442 178.13 147.468C177.961 146.652 177.578 146.032 176.905 145.485C176.497 145.153 176.259 145.009 175.875 144.859ZM164.19 136.061C163.308 135.675 161.961 135.438 161.011 135.501C159.124 135.628 156.54 136.529 154.594 137.737C153.14 138.64 151.736 139.902 151.177 140.81C150.705 141.576 150.136 143.066 150.016 143.847C149.913 144.526 149.901 145.593 149.993 146.029C150.137 146.717 150.929 148.016 151.639 148.731C152.429 149.527 154.073 150.359 155.262 150.565C155.869 150.671 157.41 150.587 158.526 150.388C159.7 150.178 160.586 149.793 161.742 148.99C162.596 148.397 162.777 148.239 163.285 147.639C164.13 146.644 164.819 145.541 165.782 143.642C166.582 142.065 166.764 141.563 166.803 140.836C166.84 140.154 166.716 139.564 166.32 138.538C166.014 137.747 165.754 137.319 165.298 136.858C164.857 136.412 164.647 136.261 164.19 136.061ZM145.288 138.438C145.007 138.339 144.596 138.233 144.375 138.203C143.733 138.114 142.16 138.047 141.718 138.089C140.217 138.233 138.423 139.055 137.189 140.165C135.745 141.463 134.842 142.903 134.527 144.405C134.157 146.172 134.361 147.792 135.192 149.703C135.592 150.624 135.876 151.029 136.611 151.726C137.571 152.636 138.507 153.161 139.379 153.279C139.891 153.348 141.021 153.212 141.698 153C142.86 152.635 144.22 151.813 145.02 150.991C145.51 150.488 145.604 150.352 145.876 149.747C146.468 148.432 146.879 146.817 147.082 145.013C147.145 144.447 147.268 143.597 147.354 143.124C147.579 141.89 147.544 140.902 147.25 140.2C146.926 139.423 146.174 138.748 145.288 138.438ZM176.792 162.361C176.078 162.166 174.824 162.271 173.821 162.611C173.151 162.837 171.718 163.299 169.595 163.971C169.163 164.108 167.271 164.992 166.753 165.299C166.476 165.463 166.207 165.711 165.806 166.174L165.246 166.821L164.876 168.146C164.381 169.922 164.308 170.436 164.437 171.222C164.674 172.66 165.909 174.088 167.483 174.745C168.336 175.101 169.802 175.387 170.705 175.374C174.2 175.325 176.39 174.285 178.211 171.81C179.208 170.455 179.599 169.503 179.752 168.062C180.014 165.592 178.592 162.853 176.792 162.361ZM158.944 154.121C157.934 153.549 157.438 153.344 156.584 153.143C154.707 152.702 152.914 152.91 149.552 153.958C148.824 154.185 147.803 154.453 147.283 154.554C145.519 154.895 142.815 154.941 140.228 154.674C138.009 154.445 136.954 154.553 135.34 155.173C134.781 155.388 134.039 155.709 133.691 155.888L133.058 156.212L132.08 157.344L131.102 158.477L130.879 159.131C130.572 160.031 130.484 160.593 130.523 161.394C130.592 162.814 131.056 164.066 131.988 165.35C132.514 166.075 132.83 166.412 133.659 167.136C134.847 168.173 135.509 168.542 138.541 169.861C139.327 170.203 140.276 170.655 140.65 170.865C141.658 171.431 143.334 172.631 144.053 173.302C144.905 174.097 146.03 175.437 146.637 176.38C148.114 178.673 150.229 180.43 152.611 181.342C154.554 182.085 156.507 182.296 158.034 181.926C159.091 181.67 160.365 181.13 160.912 180.706C161.867 179.966 162.869 178.404 163.099 177.299C163.36 176.047 163.168 174.363 162.505 172.075C162.011 170.373 161.653 168.52 161.638 167.591C161.632 167.206 161.71 166.062 161.813 165.049C162.368 159.567 162.364 158.869 161.773 157.413C161.396 156.487 161.232 156.201 160.741 155.617C160.159 154.924 159.729 154.567 158.944 154.121Z" fill="#836F59"/>
<path fill-rule="evenodd" clip-rule="evenodd" d="M702.638 150.503C702.01 150.282 700.297 150.112 699.612 150.203C699.062 150.276 698.113 150.626 697.377 151.029C696.765 151.364 693.849 153.499 693.257 154.047C692.311 154.922 691.51 156.286 691.092 157.738C690.563 159.572 690.751 161.601 691.634 163.581C692.098 164.624 692.321 164.889 693.293 165.562C694.652 166.502 695.292 166.714 696.86 166.742C698.322 166.769 699.496 166.498 700.575 165.886C703.227 164.381 704.837 161.815 705.124 158.632C705.295 156.743 705.23 154.002 704.991 153.034C704.791 152.224 704.385 151.618 703.691 151.094C703.27 150.776 703.027 150.639 702.638 150.503ZM690.623 142.103C689.726 141.747 688.372 141.556 687.425 141.651C685.544 141.842 682.997 142.829 681.1 144.103C679.682 145.054 678.329 146.364 677.805 147.29C677.363 148.072 676.852 149.581 676.763 150.365C676.686 151.047 676.715 152.114 676.824 152.547C676.995 153.23 677.836 154.502 678.573 155.193C679.393 155.961 681.068 156.737 682.263 156.903C682.875 156.988 684.411 156.852 685.518 156.615C686.683 156.366 687.553 155.951 688.677 155.11C689.508 154.488 689.682 154.324 690.167 153.707C690.972 152.684 691.617 151.558 692.506 149.628C693.245 148.024 693.408 147.516 693.418 146.788C693.429 146.106 693.282 145.52 692.846 144.508C692.51 143.727 692.234 143.308 691.761 142.863C691.303 142.432 691.087 142.288 690.623 142.103ZM671.83 145.118C671.545 145.029 671.13 144.937 670.909 144.914C670.264 144.847 668.689 144.833 668.249 144.89C666.755 145.084 664.994 145.967 663.804 147.118C662.412 148.464 661.565 149.934 661.309 151.447C661.008 153.225 661.274 154.837 662.178 156.719C662.614 157.627 662.913 158.022 663.675 158.694C664.669 159.571 665.624 160.064 666.5 160.153C667.014 160.205 668.138 160.03 668.806 159.795C669.953 159.392 671.28 158.524 672.047 157.675C672.517 157.156 672.606 157.016 672.854 156.403C673.395 155.068 673.744 153.44 673.876 151.63C673.917 151.062 674.007 150.208 674.075 149.732C674.252 148.491 674.179 147.505 673.858 146.813C673.504 146.047 672.727 145.398 671.83 145.118ZM704.23 167.967C703.51 167.796 702.261 167.943 701.272 168.316C700.611 168.566 699.197 169.076 697.103 169.819C696.676 169.971 694.82 170.918 694.314 171.242C694.044 171.416 693.785 171.673 693.402 172.15L692.867 172.815L692.549 174.152C692.123 175.944 692.07 176.46 692.23 177.242C692.522 178.67 693.812 180.057 695.409 180.66C696.275 180.987 697.751 181.224 698.652 181.18C702.143 181.013 704.291 179.899 706.014 177.364C706.958 175.976 707.312 175.011 707.409 173.565C707.575 171.087 706.048 168.398 704.23 167.967ZM686.08 160.334C685.049 159.796 684.546 159.607 683.684 159.435C681.792 159.058 680.008 159.326 676.69 160.487C675.971 160.739 674.961 161.041 674.446 161.159C672.697 161.56 669.997 161.698 667.402 161.518C665.176 161.365 664.127 161.508 662.538 162.182C661.987 162.416 661.258 162.762 660.917 162.952L660.298 163.297L659.364 164.463L658.431 165.628L658.233 166.289C657.962 167.199 657.895 167.764 657.965 168.564C658.09 169.981 658.601 171.216 659.583 172.469C660.136 173.175 660.464 173.501 661.321 174.197C662.548 175.193 663.224 175.54 666.304 176.756C667.103 177.071 668.068 177.491 668.45 177.688C669.479 178.22 671.2 179.363 671.944 180.009C672.826 180.776 674.002 182.076 674.645 182.998C676.209 185.241 678.391 186.926 680.805 187.756C682.776 188.434 684.735 188.579 686.246 188.157C687.292 187.866 688.544 187.283 689.074 186.84C690 186.068 690.941 184.473 691.128 183.361C691.34 182.101 691.083 180.423 690.332 178.16C689.773 176.474 689.343 174.635 689.292 173.707C689.271 173.322 689.306 172.176 689.369 171.159C689.712 165.661 689.681 164.964 689.033 163.529C688.621 162.615 688.446 162.335 687.933 161.768C687.325 161.095 686.882 160.752 686.08 160.334Z" fill="#836F59"/>
<path fill-rule="evenodd" clip-rule="evenodd" d="M1244.55 148.063C1243.93 147.828 1242.22 147.62 1241.54 147.695C1240.98 147.755 1240.03 148.084 1239.28 148.469C1238.66 148.791 1235.69 150.859 1235.08 151.393C1234.11 152.247 1233.28 153.592 1232.82 155.034C1232.24 156.855 1232.38 158.887 1233.21 160.886C1233.65 161.939 1233.86 162.209 1234.82 162.904C1236.15 163.874 1236.79 164.1 1238.36 164.164C1239.82 164.224 1241 163.98 1242.09 163.392C1244.78 161.948 1246.46 159.42 1246.83 156.245C1247.05 154.36 1247.05 151.619 1246.84 150.647C1246.66 149.832 1246.27 149.217 1245.59 148.677C1245.18 148.35 1244.94 148.208 1244.55 148.063ZM1232.76 139.396C1231.87 139.019 1230.52 138.797 1229.57 138.871C1227.69 139.019 1225.11 139.949 1223.18 141.179C1221.74 142.098 1220.35 143.376 1219.81 144.29C1219.34 145.061 1218.79 146.558 1218.68 147.339C1218.59 148.02 1218.59 149.087 1218.69 149.522C1218.84 150.208 1219.65 151.499 1220.37 152.206C1221.17 152.992 1222.82 153.806 1224.02 153.999C1224.62 154.098 1226.16 153.997 1227.28 153.785C1228.45 153.563 1229.33 153.167 1230.47 152.352C1231.32 151.749 1231.5 151.589 1232 150.984C1232.83 149.979 1233.51 148.868 1234.45 146.959C1235.23 145.373 1235.4 144.869 1235.43 144.141C1235.46 143.459 1235.33 142.87 1234.92 141.849C1234.6 141.061 1234.34 140.636 1233.88 140.181C1233.43 139.739 1233.22 139.59 1232.76 139.396ZM1213.89 141.983C1213.61 141.888 1213.19 141.787 1212.97 141.759C1212.33 141.677 1210.76 141.627 1210.31 141.674C1208.82 141.835 1207.03 142.677 1205.81 143.801C1204.39 145.115 1203.5 146.565 1203.21 148.071C1202.86 149.841 1203.08 151.459 1203.94 153.361C1204.35 154.278 1204.64 154.679 1205.38 155.368C1206.35 156.268 1207.3 156.782 1208.17 156.891C1208.68 156.954 1209.81 156.806 1210.48 156.586C1211.64 156.208 1212.99 155.371 1213.78 154.54C1214.26 154.031 1214.36 153.894 1214.62 153.286C1215.2 151.964 1215.59 150.345 1215.77 148.539C1215.82 147.972 1215.93 147.12 1216.01 146.646C1216.22 145.41 1216.18 144.422 1215.87 143.723C1215.54 142.95 1214.78 142.284 1213.89 141.983ZM1245.69 165.555C1244.98 165.368 1243.72 165.487 1242.73 165.838C1242.06 166.072 1240.63 166.55 1238.52 167.246C1238.09 167.387 1236.21 168.292 1235.69 168.605C1235.42 168.772 1235.15 169.023 1234.76 169.491L1234.21 170.144L1233.85 171.473C1233.38 173.255 1233.31 173.769 1233.45 174.554C1233.71 175.989 1234.96 177.404 1236.54 178.043C1237.4 178.389 1238.87 178.659 1239.77 178.636C1243.27 178.548 1245.44 177.483 1247.23 174.988C1248.21 173.622 1248.59 172.666 1248.73 171.223C1248.96 168.75 1247.5 166.027 1245.69 165.555ZM1227.74 157.515C1226.73 156.954 1226.23 156.754 1225.37 156.563C1223.49 156.143 1221.7 156.37 1218.35 157.456C1217.62 157.691 1216.61 157.97 1216.09 158.077C1214.33 158.438 1211.63 158.514 1209.04 158.276C1206.82 158.072 1205.76 158.192 1204.16 158.83C1203.6 159.051 1202.86 159.381 1202.52 159.563L1201.89 159.894L1200.92 161.037L1199.96 162.181L1199.75 162.837C1199.45 163.741 1199.37 164.304 1199.42 165.105C1199.51 166.524 1199.99 167.77 1200.93 169.044C1201.47 169.763 1201.79 170.097 1202.63 170.811C1203.83 171.835 1204.5 172.197 1207.54 173.482C1208.33 173.815 1209.29 174.256 1209.67 174.462C1210.68 175.017 1212.37 176.199 1213.1 176.861C1213.96 177.647 1215.1 178.974 1215.72 179.91C1217.23 182.188 1219.37 183.921 1221.76 184.806C1223.71 185.528 1225.67 185.716 1227.19 185.33C1228.24 185.062 1229.51 184.508 1230.05 184.077C1231 183.326 1231.98 181.753 1232.19 180.646C1232.44 179.391 1232.22 177.709 1231.53 175.429C1231.02 173.732 1230.63 171.883 1230.61 170.954C1230.6 170.569 1230.66 169.424 1230.75 168.41C1231.24 162.922 1231.22 162.224 1230.61 160.775C1230.22 159.853 1230.06 159.569 1229.56 158.99C1228.97 158.304 1228.53 157.951 1227.74 157.515Z" fill="#836F59"/>
<path fill-rule="evenodd" clip-rule="evenodd" d="M1786.67 153.337C1786.05 153.102 1784.34 152.893 1783.66 152.968C1783.11 153.029 1782.15 153.358 1781.4 153.743C1780.78 154.064 1777.81 156.133 1777.2 156.667C1776.23 157.52 1775.4 158.866 1774.94 160.307C1774.37 162.128 1774.5 164.161 1775.33 166.16C1775.77 167.212 1775.99 167.483 1776.94 168.177C1778.28 169.148 1778.91 169.374 1780.48 169.438C1781.94 169.497 1783.12 169.253 1784.21 168.666C1786.9 167.222 1788.58 164.693 1788.95 161.518C1789.17 159.634 1789.18 156.893 1788.96 155.92C1788.78 155.106 1788.39 154.49 1787.71 153.951C1787.3 153.624 1787.06 153.482 1786.67 153.337ZM1774.88 144.669C1773.99 144.293 1772.64 144.071 1771.69 144.145C1769.81 144.293 1767.24 145.222 1765.31 146.453C1763.86 147.371 1762.48 148.65 1761.93 149.563C1761.47 150.334 1760.92 151.831 1760.81 152.613C1760.71 153.293 1760.71 154.361 1760.81 154.796C1760.96 155.482 1761.77 156.772 1762.49 157.48C1763.29 158.266 1764.95 159.08 1766.14 159.273C1766.75 159.372 1768.29 159.271 1769.4 159.059C1770.57 158.836 1771.45 158.441 1772.6 157.625C1773.44 157.023 1773.62 156.863 1774.12 156.257C1774.95 155.253 1775.63 154.142 1776.57 152.232C1777.35 150.647 1777.52 150.143 1777.55 149.415C1777.58 148.733 1777.45 148.144 1777.04 147.123C1776.72 146.335 1776.46 145.91 1776 145.454C1775.55 145.013 1775.34 144.864 1774.88 144.669ZM1756.01 147.257C1755.73 147.161 1755.32 147.06 1755.09 147.032C1754.45 146.951 1752.88 146.901 1752.44 146.948C1750.94 147.109 1749.15 147.951 1747.93 149.075C1746.51 150.389 1745.62 151.838 1745.33 153.345C1744.98 155.115 1745.2 156.733 1746.06 158.635C1746.47 159.552 1746.76 159.953 1747.5 160.642C1748.48 161.541 1749.42 162.056 1750.29 162.164C1750.8 162.228 1751.93 162.079 1752.61 161.859C1753.76 161.482 1755.11 160.644 1755.9 159.813C1756.39 159.305 1756.48 159.168 1756.74 158.56C1757.32 157.238 1757.71 155.618 1757.89 153.813C1757.94 153.246 1758.06 152.394 1758.14 151.92C1758.34 150.684 1758.3 149.696 1757.99 148.997C1757.66 148.224 1756.9 147.557 1756.01 147.257ZM1787.81 170.829C1787.1 170.642 1785.85 170.761 1784.85 171.111C1784.18 171.346 1782.75 171.823 1780.64 172.519C1780.21 172.661 1778.33 173.566 1777.82 173.878C1777.54 174.046 1777.27 174.297 1776.88 174.765L1776.33 175.417L1775.98 176.747C1775.5 178.529 1775.44 179.043 1775.58 179.828C1775.83 181.263 1777.08 182.678 1778.67 183.316C1779.52 183.663 1780.99 183.933 1781.89 183.91C1785.39 183.821 1787.57 182.757 1789.35 180.262C1790.33 178.896 1790.71 177.94 1790.85 176.497C1791.08 174.023 1789.62 171.301 1787.81 170.829ZM1769.86 162.788C1768.85 162.227 1768.35 162.027 1767.49 161.836C1765.61 161.416 1763.82 161.644 1760.47 162.73C1759.75 162.965 1758.73 163.244 1758.21 163.35C1756.45 163.711 1753.75 163.788 1751.16 163.55C1748.94 163.346 1747.88 163.465 1746.28 164.104C1745.72 164.325 1744.98 164.654 1744.64 164.836L1744.01 165.167L1743.05 166.311L1742.08 167.455L1741.87 168.111C1741.57 169.014 1741.49 169.578 1741.54 170.378C1741.63 171.798 1742.11 173.044 1743.06 174.318C1743.59 175.037 1743.91 175.37 1744.75 176.085C1745.95 177.109 1746.62 177.471 1749.67 178.756C1750.46 179.089 1751.41 179.53 1751.79 179.736C1752.8 180.291 1754.49 181.472 1755.22 182.135C1756.08 182.921 1757.22 184.248 1757.84 185.184C1759.35 187.461 1761.49 189.195 1763.88 190.079C1765.83 190.801 1767.79 190.99 1769.31 190.603C1770.36 190.336 1771.63 189.781 1772.17 189.351C1773.12 188.6 1774.1 187.027 1774.32 185.919C1774.56 184.665 1774.35 182.982 1773.65 180.703C1773.14 179.005 1772.76 177.157 1772.73 176.228C1772.72 175.843 1772.78 174.698 1772.87 173.684C1773.36 168.195 1773.35 167.498 1772.73 166.049C1772.35 165.127 1772.18 164.843 1771.68 164.264C1771.09 163.577 1770.66 163.225 1769.86 162.788Z" fill="#836F59"/>
<path fill-rule="evenodd" clip-rule="evenodd" d="M311.172 151.505C310.712 151.318 309.449 151.124 308.943 151.161C308.537 151.192 307.834 151.408 307.287 151.67C306.832 151.889 304.661 153.324 304.22 153.698C303.513 154.297 302.91 155.257 302.587 156.297C302.18 157.611 302.299 159.096 302.932 160.575C303.264 161.353 303.426 161.556 304.137 162.086C305.13 162.827 305.6 163.007 306.756 163.093C307.835 163.172 308.703 163.024 309.504 162.623C311.475 161.636 312.686 159.834 312.929 157.528C313.073 156.159 313.051 154.16 312.884 153.446C312.744 152.848 312.45 152.389 311.943 151.979C311.636 151.73 311.458 151.62 311.172 151.505ZM302.39 144.891C301.732 144.595 300.735 144.399 300.036 144.43C298.647 144.491 296.759 145.105 295.347 145.954C294.293 146.589 293.282 147.486 292.887 148.139C292.554 148.69 292.162 149.768 292.089 150.335C292.026 150.829 292.037 151.608 292.113 151.927C292.233 152.431 292.841 153.392 293.379 153.926C293.976 154.519 295.204 155.154 296.084 155.324C296.534 155.411 297.669 155.376 298.487 155.249C299.349 155.116 299.995 154.849 300.832 154.283C301.45 153.864 301.58 153.752 301.944 153.323C302.547 152.611 303.034 151.818 303.708 150.449C304.268 149.312 304.393 148.949 304.408 148.419C304.422 147.922 304.319 147.489 304.007 146.734C303.767 146.152 303.567 145.835 303.222 145.492C302.888 145.159 302.731 145.045 302.39 144.891ZM288.501 146.31C288.291 146.234 287.986 146.15 287.823 146.124C287.348 146.048 286.187 145.973 285.862 145.996C284.758 146.076 283.451 146.646 282.562 147.435C281.523 148.358 280.884 149.393 280.681 150.485C280.442 151.767 280.622 152.952 281.272 154.361C281.584 155.039 281.801 155.339 282.357 155.86C283.082 156.54 283.781 156.939 284.426 157.039C284.805 157.099 285.636 157.018 286.131 156.875C286.981 156.628 287.967 156.051 288.542 155.464C288.893 155.105 288.96 155.008 289.149 154.571C289.561 153.621 289.833 152.45 289.948 151.137C289.984 150.725 290.058 150.107 290.113 149.764C290.255 148.867 290.21 148.146 289.98 147.628C289.726 147.056 289.16 146.551 288.501 146.31ZM312.181 164.289C311.651 164.135 310.729 164.191 309.996 164.422C309.506 164.576 308.458 164.889 306.906 165.344C306.59 165.437 305.212 166.05 304.836 166.265C304.635 166.38 304.442 166.557 304.155 166.888L303.754 167.35L303.507 168.311C303.175 169.599 303.131 169.972 303.242 170.548C303.444 171.601 304.381 172.664 305.554 173.169C306.19 173.443 307.276 173.676 307.941 173.682C310.517 173.704 312.112 172.982 313.407 171.206C314.116 170.234 314.387 169.547 314.472 168.498C314.618 166.7 313.518 164.678 312.181 164.289ZM298.866 157.98C298.111 157.546 297.742 157.388 297.108 157.227C295.716 156.874 294.397 156.996 291.939 157.704C291.407 157.858 290.659 158.036 290.278 158.101C288.984 158.32 286.991 158.309 285.079 158.071C283.439 157.868 282.663 157.928 281.485 158.354C281.077 158.501 280.536 158.723 280.283 158.848L279.822 159.073L279.123 159.884L278.423 160.694L278.271 161.167C278.063 161.818 278.008 162.227 278.052 162.812C278.13 163.849 278.496 164.77 279.208 165.723C279.609 166.26 279.848 166.511 280.473 167.053C281.369 167.83 281.864 168.11 284.124 169.123C284.71 169.386 285.419 169.731 285.698 169.891C286.452 170.321 287.711 171.224 288.253 171.725C288.897 172.32 289.751 173.316 290.217 174.014C291.35 175.712 292.942 177.029 294.715 177.734C296.162 178.309 297.606 178.495 298.725 178.25C299.499 178.081 300.428 177.709 300.823 177.408C301.513 176.884 302.222 175.761 302.371 174.959C302.539 174.05 302.366 172.818 301.833 171.138C301.437 169.888 301.137 168.53 301.109 167.852C301.097 167.571 301.133 166.738 301.189 166C301.494 162.01 301.478 161.501 301.014 160.429C300.719 159.747 300.593 159.536 300.22 159.101C299.777 158.586 299.454 158.318 298.866 157.98Z" fill="#836F59"/>
<path fill-rule="evenodd" clip-rule="evenodd" d="M838.059 152.573C837.592 152.403 836.323 152.251 835.819 152.306C835.414 152.35 834.72 152.589 834.184 152.87C833.738 153.104 831.625 154.612 831.198 155.001C830.515 155.623 829.95 156.603 829.667 157.654C829.311 158.981 829.488 160.462 830.177 161.918C830.539 162.685 830.709 162.882 831.439 163.388C832.46 164.095 832.937 164.26 834.096 164.306C835.176 164.349 836.038 164.171 836.823 163.743C838.753 162.69 839.894 160.848 840.047 158.535C840.138 157.162 840.039 155.164 839.844 154.456C839.682 153.863 839.37 153.414 838.848 153.021C838.531 152.783 838.349 152.679 838.059 152.573ZM829.029 146.26C828.36 145.985 827.356 145.824 826.659 145.878C825.274 145.986 823.411 146.663 822.034 147.56C821.005 148.23 820.03 149.161 819.66 149.827C819.349 150.389 818.999 151.48 818.948 152.049C818.904 152.545 818.945 153.323 819.034 153.64C819.172 154.14 819.818 155.08 820.375 155.595C820.995 156.168 822.246 156.761 823.132 156.901C823.585 156.973 824.717 156.899 825.53 156.745C826.386 156.583 827.021 156.294 827.835 155.7C828.437 155.261 828.562 155.144 828.909 154.703C829.485 153.971 829.94 153.162 830.561 151.77C831.076 150.615 831.187 150.248 831.181 149.717C831.176 149.22 831.056 148.791 830.716 148.047C830.453 147.473 830.241 147.163 829.884 146.832C829.537 146.51 829.375 146.401 829.029 146.26ZM815.207 148.147C814.995 148.078 814.687 148.004 814.523 147.984C814.045 147.924 812.882 147.888 812.558 147.923C811.459 148.04 810.175 148.654 809.317 149.472C808.314 150.43 807.716 151.486 807.555 152.584C807.366 153.874 807.593 155.053 808.296 156.438C808.634 157.106 808.863 157.399 809.438 157.901C810.188 158.556 810.903 158.931 811.551 159.01C811.932 159.056 812.759 158.947 813.248 158.787C814.087 158.512 815.051 157.902 815.602 157.296C815.939 156.925 816.002 156.826 816.174 156.383C816.549 155.419 816.776 154.239 816.839 152.924C816.86 152.51 816.91 151.89 816.951 151.545C817.059 150.644 816.986 149.924 816.736 149.415C816.46 148.851 815.875 148.366 815.207 148.147ZM839.561 165.319C839.026 165.182 838.107 165.269 837.383 165.525C836.9 165.696 835.865 166.044 834.332 166.551C834.02 166.654 832.667 167.314 832.3 167.542C832.103 167.664 831.917 167.847 831.643 168.187L831.26 168.663L831.051 169.632C830.769 170.93 830.74 171.305 830.872 171.877C831.115 172.922 832.093 173.953 833.284 174.418C833.93 174.671 835.024 174.867 835.689 174.85C838.263 174.785 839.829 174.01 841.054 172.192C841.725 171.196 841.969 170.499 842.013 169.448C842.09 167.646 840.912 165.662 839.561 165.319ZM826.015 159.462C825.243 159.054 824.868 158.908 824.229 158.769C822.824 158.463 821.512 158.629 819.083 159.42C818.557 159.592 817.817 159.795 817.438 159.873C816.154 160.136 814.163 160.192 812.243 160.019C810.597 159.871 809.824 159.958 808.663 160.423C808.261 160.584 807.729 160.824 807.481 160.957L807.03 161.198L806.362 162.032L805.695 162.865L805.561 163.344C805.378 164.002 805.339 164.412 805.406 164.995C805.524 166.03 805.925 166.938 806.673 167.866C807.095 168.389 807.343 168.632 807.989 169.153C808.914 169.899 809.419 170.163 811.717 171.099C812.312 171.341 813.033 171.662 813.319 171.812C814.089 172.217 815.381 173.077 815.943 173.56C816.609 174.133 817.501 175.099 817.993 175.781C819.19 177.44 820.833 178.703 822.631 179.347C824.099 179.873 825.549 180.011 826.657 179.729C827.424 179.534 828.338 179.129 828.721 178.816C829.39 178.269 830.056 177.122 830.173 176.315C830.306 175.401 830.085 174.175 829.488 172.514C829.043 171.278 828.692 169.931 828.637 169.254C828.614 168.974 828.618 168.139 828.646 167.4C828.796 163.401 828.761 162.893 828.255 161.837C827.934 161.166 827.8 160.959 827.41 160.537C826.948 160.037 826.615 159.78 826.015 159.462Z" fill="#836F59"/>
<path fill-rule="evenodd" clip-rule="evenodd" d="M1379.92 153.198C1379.45 153.016 1378.19 152.836 1377.68 152.879C1377.28 152.914 1376.58 153.138 1376.03 153.407C1375.58 153.63 1373.43 155.09 1372.99 155.469C1372.29 156.075 1371.7 157.042 1371.39 158.086C1371 159.404 1371.14 160.888 1371.79 162.36C1372.13 163.134 1372.3 163.335 1373.02 163.857C1374.02 164.587 1374.49 164.762 1375.65 164.835C1376.73 164.903 1377.59 164.744 1378.39 164.334C1380.35 163.326 1381.54 161.51 1381.75 159.201C1381.88 157.831 1381.83 155.832 1381.65 155.119C1381.5 154.523 1381.2 154.067 1380.69 153.663C1380.38 153.417 1380.2 153.31 1379.92 153.198ZM1371.05 146.682C1370.39 146.393 1369.39 146.209 1368.69 146.247C1367.3 146.324 1365.42 146.959 1364.02 147.824C1362.98 148.47 1361.98 149.379 1361.59 150.036C1361.26 150.591 1360.89 151.673 1360.82 152.241C1360.76 152.735 1360.79 153.514 1360.86 153.833C1360.99 154.336 1361.61 155.29 1362.16 155.818C1362.76 156.404 1364 157.025 1364.88 157.186C1365.33 157.268 1366.46 157.219 1367.28 157.084C1368.14 156.941 1368.78 156.667 1369.61 156.091C1370.23 155.666 1370.35 155.552 1370.71 155.119C1371.31 154.4 1371.78 153.602 1372.44 152.225C1372.98 151.081 1373.1 150.717 1373.11 150.187C1373.12 149.69 1373.01 149.258 1372.69 148.507C1372.44 147.927 1372.24 147.613 1371.89 147.273C1371.55 146.944 1371.39 146.832 1371.05 146.682ZM1357.18 148.256C1356.97 148.182 1356.66 148.101 1356.5 148.077C1356.03 148.007 1354.86 147.945 1354.54 147.972C1353.44 148.064 1352.14 148.649 1351.26 149.448C1350.23 150.382 1349.6 151.424 1349.42 152.518C1349.19 153.803 1349.39 154.986 1350.06 156.387C1350.38 157.062 1350.6 157.36 1351.16 157.875C1351.89 158.547 1352.6 158.937 1353.24 159.031C1353.62 159.086 1354.45 158.996 1354.95 158.847C1355.79 158.591 1356.77 158.003 1357.34 157.41C1357.69 157.047 1357.75 156.949 1357.93 156.51C1358.33 155.555 1358.59 154.381 1358.69 153.067C1358.72 152.655 1358.79 152.036 1358.84 151.691C1358.97 150.793 1358.91 150.072 1358.68 149.558C1358.42 148.988 1357.84 148.49 1357.18 148.256ZM1381.09 165.971C1380.56 165.823 1379.63 165.889 1378.9 166.128C1378.42 166.288 1377.37 166.612 1375.83 167.084C1375.51 167.181 1374.14 167.809 1373.77 168.029C1373.57 168.146 1373.38 168.325 1373.1 168.659L1372.7 169.126L1372.47 170.09C1372.15 171.381 1372.11 171.755 1372.23 172.329C1372.44 173.38 1373.4 174.432 1374.58 174.924C1375.21 175.191 1376.3 175.413 1376.97 175.411C1379.54 175.404 1381.13 174.664 1382.4 172.875C1383.1 171.895 1383.36 171.204 1383.43 170.154C1383.56 168.354 1382.43 166.345 1381.09 165.971ZM1367.69 159.81C1366.93 159.385 1366.56 159.231 1365.93 159.077C1364.53 158.74 1363.21 158.876 1360.76 159.612C1360.23 159.771 1359.49 159.958 1359.11 160.027C1357.82 160.261 1355.83 160.272 1353.91 160.056C1352.27 159.87 1351.49 159.94 1350.32 160.378C1349.91 160.53 1349.38 160.758 1349.12 160.885L1348.67 161.116L1347.98 161.934L1347.29 162.752L1347.14 163.227C1346.94 163.881 1346.89 164.291 1346.94 164.875C1347.04 165.911 1347.41 166.828 1348.14 167.773C1348.55 168.306 1348.79 168.554 1349.42 169.089C1350.33 169.855 1350.82 170.131 1353.1 171.118C1353.69 171.374 1354.4 171.712 1354.68 171.868C1355.44 172.29 1356.71 173.179 1357.26 173.674C1357.91 174.262 1358.78 175.248 1359.25 175.941C1360.41 177.626 1362.01 178.926 1363.8 179.61C1365.25 180.169 1366.7 180.339 1367.81 180.082C1368.58 179.905 1369.51 179.522 1369.9 179.217C1370.58 178.685 1371.28 177.554 1371.42 176.75C1371.57 175.84 1371.38 174.609 1370.83 172.936C1370.42 171.689 1370.1 170.335 1370.06 169.658C1370.05 169.377 1370.07 168.543 1370.12 167.805C1370.37 163.811 1370.35 163.302 1369.87 162.235C1369.57 161.557 1369.44 161.347 1369.06 160.917C1368.61 160.406 1368.29 160.142 1367.69 159.81Z" fill="#836F59"/>
<path fill-rule="evenodd" clip-rule="evenodd" d="M1922.03 158.471C1921.56 158.289 1920.3 158.109 1919.79 158.152C1919.39 158.187 1918.69 158.411 1918.14 158.68C1917.69 158.904 1915.54 160.363 1915.1 160.742C1914.4 161.348 1913.81 162.315 1913.5 163.359C1913.11 164.677 1913.25 166.161 1913.9 167.633C1914.24 168.408 1914.41 168.608 1915.13 169.131C1916.13 169.86 1916.6 170.036 1917.76 170.108C1918.84 170.176 1919.7 170.018 1920.5 169.607C1922.46 168.599 1923.65 166.783 1923.86 164.474C1923.99 163.104 1923.94 161.105 1923.76 160.393C1923.61 159.796 1923.31 159.341 1922.8 158.936C1922.49 158.691 1922.31 158.583 1922.03 158.471ZM1913.16 151.955C1912.5 151.666 1911.5 151.482 1910.8 151.52C1909.41 151.597 1907.53 152.232 1906.13 153.097C1905.09 153.743 1904.09 154.652 1903.7 155.309C1903.37 155.864 1903 156.946 1902.93 157.514C1902.87 158.009 1902.89 158.787 1902.97 159.106C1903.1 159.609 1903.72 160.563 1904.27 161.091C1904.87 161.677 1906.11 162.298 1906.99 162.459C1907.44 162.541 1908.57 162.493 1909.39 162.357C1910.25 162.214 1910.89 161.94 1911.72 161.365C1912.33 160.939 1912.46 160.826 1912.82 160.392C1913.42 159.674 1913.89 158.875 1914.55 157.498C1915.09 156.355 1915.21 155.99 1915.22 155.46C1915.23 154.963 1915.12 154.532 1914.8 153.78C1914.55 153.201 1914.35 152.886 1914 152.546C1913.66 152.217 1913.5 152.105 1913.16 151.955ZM1899.29 153.529C1899.08 153.455 1898.77 153.374 1898.61 153.35C1898.14 153.28 1896.97 153.218 1896.65 153.245C1895.55 153.337 1894.25 153.922 1893.37 154.721C1892.34 155.655 1891.71 156.698 1891.53 157.791C1891.3 159.076 1891.5 160.259 1892.17 161.66C1892.49 162.336 1892.71 162.633 1893.27 163.148C1894 163.82 1894.71 164.211 1895.35 164.304C1895.73 164.359 1896.56 164.269 1897.06 164.12C1897.9 163.864 1898.88 163.276 1899.45 162.683C1899.8 162.32 1899.86 162.222 1900.04 161.783C1900.44 160.828 1900.7 159.654 1900.8 158.34C1900.83 157.928 1900.9 157.309 1900.95 156.965C1901.08 156.067 1901.02 155.346 1900.79 154.831C1900.53 154.262 1899.95 153.763 1899.29 153.529ZM1923.2 171.244C1922.67 171.096 1921.74 171.162 1921.01 171.401C1920.53 171.561 1919.48 171.885 1917.94 172.358C1917.62 172.454 1916.25 173.082 1915.88 173.302C1915.68 173.419 1915.49 173.598 1915.21 173.932L1914.81 174.399L1914.58 175.363C1914.26 176.654 1914.22 177.028 1914.34 177.603C1914.55 178.653 1915.51 179.706 1916.68 180.198C1917.32 180.464 1918.41 180.686 1919.08 180.684C1921.65 180.677 1923.24 179.937 1924.51 178.148C1925.21 177.168 1925.47 176.477 1925.54 175.427C1925.67 173.628 1924.54 171.618 1923.2 171.244ZM1909.8 165.084C1909.04 164.658 1908.67 164.504 1908.04 164.35C1906.64 164.013 1905.32 164.149 1902.87 164.885C1902.34 165.044 1901.6 165.231 1901.22 165.3C1899.93 165.534 1897.94 165.545 1896.02 165.329C1894.38 165.143 1893.6 165.213 1892.43 165.652C1892.02 165.803 1891.49 166.032 1891.23 166.159L1890.78 166.39L1890.09 167.207L1889.4 168.025L1889.25 168.501C1889.05 169.154 1889 169.564 1889.05 170.148C1889.15 171.184 1889.52 172.101 1890.25 173.046C1890.66 173.579 1890.9 173.827 1891.53 174.362C1892.44 175.129 1892.93 175.404 1895.21 176.391C1895.8 176.647 1896.51 176.985 1896.79 177.141C1897.55 177.563 1898.82 178.452 1899.37 178.947C1900.02 179.535 1900.89 180.521 1901.36 181.214C1902.52 182.899 1904.12 184.199 1905.91 184.884C1907.36 185.442 1908.81 185.612 1909.92 185.356C1910.69 185.178 1911.62 184.795 1912.01 184.49C1912.69 183.958 1913.39 182.828 1913.53 182.023C1913.68 181.113 1913.49 179.882 1912.94 178.209C1912.53 176.962 1912.21 175.609 1912.17 174.931C1912.16 174.65 1912.18 173.816 1912.23 173.078C1912.48 169.084 1912.46 168.575 1911.98 167.509C1911.68 166.83 1911.55 166.62 1911.17 166.19C1910.72 165.679 1910.4 165.415 1909.8 165.084Z" fill="#836F59"/>
<path fill-rule="evenodd" clip-rule="evenodd" d="M244.199 107.294C243.474 107.036 241.442 106.862 240.613 106.987C239.945 107.088 238.769 107.538 237.842 108.047C237.069 108.472 233.33 111.156 232.558 111.841C231.323 112.937 230.206 114.629 229.535 116.423C228.688 118.688 228.676 121.178 229.501 123.595C229.935 124.867 230.171 125.189 231.255 125.996C232.772 127.124 233.513 127.371 235.387 127.375C237.133 127.378 238.57 127.021 239.932 126.247C243.282 124.343 245.508 121.156 246.225 117.238C246.65 114.912 246.892 111.543 246.719 110.359C246.575 109.367 246.159 108.63 245.39 108C244.923 107.617 244.648 107.455 244.199 107.294ZM230.801 97.2123C229.769 96.7922 228.17 96.5843 227.027 96.7213C224.753 96.9939 221.59 98.2591 219.17 99.8634C217.363 101.061 215.59 102.699 214.855 103.848C214.235 104.817 213.446 106.683 213.248 107.648C213.076 108.489 212.987 109.8 213.066 110.33C213.191 111.166 214.049 112.712 214.851 113.547C215.742 114.474 217.656 115.395 219.067 115.575C219.789 115.667 221.643 115.469 222.996 115.155C224.419 114.825 225.509 114.297 226.953 113.24C228.019 112.459 228.247 112.254 228.899 111.486C229.982 110.212 230.886 108.815 232.176 106.424C233.246 104.438 233.501 103.81 233.599 102.915C233.691 102.075 233.583 101.358 233.181 100.123C232.87 99.1703 232.588 98.6606 232.074 98.1231C231.576 97.6024 231.334 97.4295 230.801 97.2123ZM207.957 101.298C207.627 101.194 207.141 101.09 206.879 101.066C206.115 100.997 204.232 101.011 203.698 101.09C201.888 101.36 199.678 102.481 198.119 103.919C196.295 105.603 195.11 107.426 194.627 109.291C194.059 111.483 194.188 113.46 195.051 115.755C195.466 116.862 195.779 117.341 196.611 118.152C197.699 119.21 198.784 119.797 199.822 119.889C200.431 119.942 201.797 119.705 202.623 119.403C204.043 118.883 205.733 117.789 206.751 116.73C207.374 116.082 207.496 115.909 207.865 115.15C208.668 113.498 209.275 111.49 209.645 109.262C209.761 108.563 209.968 107.511 210.105 106.925C210.462 105.396 210.489 104.185 210.187 103.34C209.852 102.407 208.998 101.624 207.957 101.298ZM244.064 128.731C243.222 128.535 241.71 128.742 240.483 129.221C239.663 129.541 237.911 130.196 235.317 131.153C234.789 131.347 232.457 132.55 231.814 132.958C231.47 133.177 231.13 133.498 230.616 134.092L229.899 134.92L229.362 136.571C228.643 138.783 228.519 139.418 228.619 140.375C228.801 142.126 230.183 143.804 232.024 144.513C233.022 144.898 234.76 145.159 235.844 145.087C240.042 144.811 242.742 143.398 245.101 140.247C246.393 138.521 246.929 137.328 247.214 135.549C247.702 132.499 246.189 129.224 244.064 128.731ZM223.234 119.715C222.063 119.075 221.483 118.853 220.472 118.659C218.251 118.233 216.085 118.599 211.978 120.094C211.089 120.417 209.845 120.81 209.214 120.965C207.074 121.493 203.827 121.717 200.742 121.549C198.096 121.405 196.823 121.603 194.843 122.464C194.157 122.762 193.244 123.203 192.814 123.443L192.032 123.88L190.779 125.331L189.525 126.783L189.212 127.6C188.781 128.723 188.635 129.42 188.626 130.401C188.609 132.14 189.077 133.649 190.105 135.168C190.684 136.026 191.039 136.42 191.983 137.258C193.335 138.458 194.103 138.871 197.648 140.303C198.567 140.675 199.673 141.171 200.107 141.405C201.277 142.039 203.203 143.409 204.017 144.188C204.984 145.112 206.238 146.687 206.901 147.808C208.511 150.534 210.925 152.561 213.717 153.532C215.996 154.326 218.325 154.464 220.182 153.915C221.468 153.536 223.034 152.794 223.721 152.239C224.918 151.271 226.231 149.292 226.585 147.92C226.986 146.367 226.875 144.31 226.24 141.543C225.768 139.482 225.469 137.229 225.516 136.089C225.536 135.617 225.711 134.207 225.905 132.956C226.958 126.19 227.003 125.334 226.395 123.583C226.009 122.468 225.832 122.127 225.285 121.44C224.635 120.625 224.145 120.213 223.234 119.715Z" fill="#836F59"/>
<path fill-rule="evenodd" clip-rule="evenodd" d="M769.443 110.645C768.709 110.412 766.672 110.306 765.848 110.459C765.186 110.583 764.027 111.072 763.121 111.613C762.365 112.063 758.734 114.873 757.988 115.584C756.797 116.72 755.746 118.45 755.145 120.265C754.387 122.558 754.471 125.048 755.389 127.435C755.872 128.692 756.119 129.006 757.235 129.776C758.793 130.853 759.543 131.075 761.415 131.015C763.161 130.959 764.582 130.554 765.913 129.734C769.187 127.718 771.288 124.457 771.852 120.516C772.187 118.177 772.298 114.801 772.08 113.623C771.897 112.637 771.453 111.914 770.66 111.31C770.179 110.944 769.898 110.79 769.443 110.645ZM755.667 101.02C754.62 100.635 753.015 100.481 751.877 100.657C749.616 101.006 746.505 102.378 744.149 104.063C742.39 105.322 740.682 107.018 739.992 108.191C739.41 109.182 738.694 111.073 738.534 112.045C738.394 112.891 738.356 114.205 738.455 114.732C738.612 115.563 739.53 117.08 740.363 117.887C741.29 118.784 743.237 119.639 744.654 119.771C745.378 119.839 747.224 119.578 748.563 119.219C749.972 118.841 751.041 118.277 752.442 117.171C753.478 116.354 753.697 116.142 754.319 115.352C755.352 114.042 756.201 112.615 757.397 110.181C758.39 108.16 758.62 107.524 758.683 106.626C758.743 105.784 758.608 105.07 758.157 103.849C757.81 102.907 757.508 102.407 756.974 101.888C756.456 101.384 756.208 101.219 755.667 101.02ZM733.002 105.876C732.668 105.784 732.179 105.696 731.915 105.681C731.149 105.637 729.269 105.715 728.739 105.812C726.941 106.143 724.775 107.338 723.274 108.829C721.517 110.573 720.403 112.436 719.992 114.316C719.51 116.526 719.716 118.498 720.666 120.763C721.124 121.855 721.455 122.324 722.318 123.106C723.445 124.128 724.552 124.678 725.593 124.734C726.203 124.767 727.559 124.484 728.373 124.153C729.772 123.586 731.417 122.436 732.393 121.343C732.991 120.674 733.106 120.497 733.445 119.726C734.184 118.047 734.713 116.019 734.996 113.78C735.085 113.077 735.251 112.019 735.365 111.428C735.663 109.888 735.644 108.676 735.308 107.842C734.938 106.92 734.055 106.167 733.002 105.876ZM770.138 132.078C769.288 131.911 767.786 132.168 766.579 132.688C765.772 133.036 764.047 133.75 761.492 134.794C760.972 135.006 758.688 136.287 758.062 136.717C757.727 136.947 757.4 137.28 756.909 137.891L756.224 138.743L755.752 140.411C755.119 142.646 755.019 143.285 755.156 144.239C755.407 145.983 756.852 147.614 758.719 148.26C759.731 148.611 761.478 148.813 762.558 148.705C766.741 148.286 769.384 146.783 771.619 143.554C772.843 141.785 773.333 140.575 773.549 138.786C773.918 135.721 772.28 132.499 770.138 132.078ZM748.977 123.769C747.782 123.169 747.194 122.966 746.177 122.807C743.942 122.456 741.791 122.896 737.746 124.528C736.87 124.882 735.642 125.316 735.018 125.493C732.901 126.093 729.665 126.426 726.576 126.363C723.928 126.308 722.663 126.548 720.718 127.476C720.044 127.797 719.149 128.269 718.729 128.523L717.964 128.986L716.768 130.48L715.572 131.973L715.291 132.8C714.903 133.938 714.785 134.639 714.813 135.62C714.864 137.359 715.389 138.851 716.475 140.336C717.088 141.173 717.457 141.555 718.433 142.361C719.83 143.514 720.613 143.901 724.21 145.213C725.143 145.553 726.268 146.012 726.71 146.232C727.903 146.825 729.88 148.13 730.724 148.881C731.726 149.773 733.04 151.305 733.745 152.402C735.459 155.072 737.949 157.017 740.777 157.894C743.085 158.61 745.416 158.669 747.251 158.058C748.521 157.636 750.057 156.841 750.722 156.263C751.881 155.255 753.116 153.232 753.417 151.849C753.757 150.284 753.566 148.231 752.825 145.486C752.274 143.442 751.887 141.201 751.891 140.06C751.892 139.587 752.013 138.171 752.159 136.915C752.948 130.116 752.96 129.258 752.285 127.528C751.856 126.428 751.666 126.093 751.093 125.425C750.412 124.632 749.907 124.236 748.977 123.769Z" fill="#836F59"/>
<path fill-rule="evenodd" clip-rule="evenodd" d="M1312.39 109.735C1311.66 109.485 1309.63 109.333 1308.8 109.468C1308.13 109.576 1306.96 110.039 1306.04 110.559C1305.28 110.992 1301.57 113.718 1300.81 114.412C1299.59 115.521 1298.49 117.226 1297.84 119.027C1297.03 121.301 1297.05 123.792 1297.9 126.199C1298.35 127.466 1298.59 127.786 1299.69 128.581C1301.22 129.692 1301.96 129.931 1303.83 129.914C1305.58 129.897 1307.01 129.525 1308.37 128.735C1311.69 126.794 1313.88 123.582 1314.54 119.656C1314.94 117.325 1315.14 113.954 1314.95 112.771C1314.79 111.781 1314.37 111.048 1313.59 110.427C1313.12 110.05 1312.84 109.89 1312.39 109.735ZM1298.86 99.8023C1297.83 99.3938 1296.23 99.2037 1295.08 99.3535C1292.81 99.6515 1289.67 100.952 1287.27 102.583C1285.48 103.801 1283.73 105.458 1283.01 106.616C1282.4 107.592 1281.63 109.466 1281.45 110.434C1281.29 111.277 1281.21 112.589 1281.3 113.118C1281.43 113.952 1282.31 115.489 1283.13 116.315C1284.03 117.233 1285.95 118.132 1287.37 118.296C1288.09 118.38 1289.94 118.161 1291.29 117.832C1292.71 117.487 1293.79 116.947 1295.22 115.873C1296.28 115.08 1296.5 114.873 1297.15 114.098C1298.21 112.811 1299.1 111.404 1300.36 108.998C1301.4 107 1301.65 106.37 1301.73 105.473C1301.82 104.633 1301.7 103.917 1301.28 102.686C1300.96 101.737 1300.67 101.231 1300.15 100.699C1299.64 100.184 1299.4 100.014 1298.86 99.8023ZM1276.08 104.143C1275.74 104.043 1275.26 103.944 1274.99 103.923C1274.23 103.862 1272.35 103.898 1271.82 103.983C1270.01 104.272 1267.81 105.418 1266.27 106.874C1264.47 108.578 1263.31 110.415 1262.85 112.285C1262.31 114.483 1262.46 116.458 1263.36 118.745C1263.79 119.846 1264.1 120.322 1264.95 121.124C1266.05 122.17 1267.14 122.745 1268.18 122.825C1268.79 122.871 1270.15 122.619 1270.97 122.307C1272.39 121.772 1274.06 120.659 1275.07 119.589C1275.68 118.934 1275.8 118.76 1276.16 117.996C1276.94 116.335 1277.52 114.32 1277.87 112.089C1277.97 111.388 1278.17 110.334 1278.3 109.746C1278.63 108.213 1278.64 107.002 1278.33 106.161C1277.98 105.231 1277.12 104.458 1276.08 104.143ZM1312.53 131.173C1311.68 130.987 1310.17 131.211 1308.95 131.703C1308.14 132.032 1306.39 132.707 1303.81 133.692C1303.29 133.893 1300.97 135.121 1300.33 135.537C1299.99 135.76 1299.66 136.085 1299.15 136.684L1298.44 137.521L1297.93 139.177C1297.24 141.397 1297.12 142.033 1297.23 142.99C1297.44 144.739 1298.84 146.401 1300.69 147.09C1301.69 147.463 1303.44 147.705 1304.52 147.621C1308.71 147.298 1311.39 145.855 1313.71 142.678C1314.98 140.937 1315.5 139.739 1315.76 137.956C1316.21 134.901 1314.66 131.643 1312.53 131.173ZM1291.59 122.389C1290.41 121.762 1289.82 121.547 1288.81 121.365C1286.58 120.964 1284.42 121.354 1280.34 122.894C1279.45 123.228 1278.21 123.634 1277.58 123.797C1275.45 124.348 1272.21 124.608 1269.12 124.475C1266.47 124.361 1265.2 124.572 1263.23 125.455C1262.55 125.761 1261.65 126.212 1261.22 126.457L1260.44 126.903L1259.21 128.368L1257.97 129.834L1257.67 130.654C1257.25 131.783 1257.12 132.481 1257.12 133.462C1257.12 135.201 1257.61 136.705 1258.66 138.213C1259.25 139.064 1259.61 139.454 1260.56 140.281C1261.93 141.466 1262.7 141.871 1266.27 143.264C1267.19 143.625 1268.3 144.108 1268.74 144.338C1269.92 144.958 1271.86 146.307 1272.68 147.077C1273.66 147.991 1274.94 149.552 1275.61 150.665C1277.26 153.373 1279.7 155.373 1282.5 156.314C1284.79 157.082 1287.12 157.194 1288.97 156.624C1290.25 156.231 1291.81 155.471 1292.49 154.909C1293.67 153.927 1294.96 151.933 1295.3 150.558C1295.68 149 1295.54 146.944 1294.87 144.184C1294.37 142.128 1294.04 139.879 1294.08 138.739C1294.09 138.266 1294.25 136.854 1294.43 135.601C1295.39 128.823 1295.43 127.966 1294.8 126.222C1294.4 125.112 1294.21 124.773 1293.66 124.092C1293 123.284 1292.5 122.877 1291.59 122.389Z" fill="#836F59"/>
<path fill-rule="evenodd" clip-rule="evenodd" d="M1854.5 115.01C1853.77 114.759 1851.73 114.608 1850.91 114.742C1850.24 114.851 1849.07 115.314 1848.15 115.834C1847.38 116.267 1843.68 118.993 1842.91 119.686C1841.69 120.795 1840.6 122.501 1839.95 124.302C1839.13 126.576 1839.15 129.067 1840.01 131.474C1840.46 132.741 1840.7 133.061 1841.79 133.856C1843.32 134.967 1844.07 135.206 1845.94 135.188C1847.69 135.172 1849.12 134.799 1850.47 134.01C1853.8 132.069 1855.98 128.857 1856.65 124.93C1857.04 122.6 1857.24 119.228 1857.05 118.046C1856.9 117.056 1856.47 116.323 1855.7 115.701C1855.22 115.325 1854.95 115.165 1854.5 115.01ZM1840.97 105.077C1839.93 104.668 1838.33 104.478 1837.19 104.628C1834.92 104.926 1831.77 106.227 1829.38 107.858C1827.58 109.076 1825.83 110.733 1825.11 111.89C1824.5 112.867 1823.74 114.741 1823.55 115.709C1823.39 116.551 1823.32 117.864 1823.41 118.393C1823.54 119.227 1824.42 120.764 1825.23 121.59C1826.14 122.507 1828.06 123.406 1829.47 123.571C1830.2 123.655 1832.05 123.436 1833.4 123.107C1834.81 122.761 1835.9 122.221 1837.33 121.148C1838.38 120.355 1838.61 120.147 1839.25 119.372C1840.32 118.086 1841.2 116.678 1842.46 114.273C1843.51 112.275 1843.75 111.645 1843.84 110.748C1843.92 109.908 1843.81 109.192 1843.39 107.961C1843.06 107.012 1842.78 106.505 1842.25 105.974C1841.75 105.458 1841.51 105.288 1840.97 105.077ZM1818.18 109.418C1817.85 109.318 1817.36 109.219 1817.1 109.198C1816.34 109.137 1814.45 109.172 1813.92 109.258C1812.12 109.547 1809.92 110.693 1808.38 112.149C1806.58 113.853 1805.42 115.689 1804.96 117.56C1804.42 119.758 1804.57 121.733 1805.46 124.019C1805.89 125.121 1806.21 125.597 1807.05 126.398C1808.15 127.445 1809.25 128.02 1810.29 128.099C1810.9 128.146 1812.26 127.894 1813.08 127.582C1814.49 127.047 1816.17 125.934 1817.17 124.864C1817.79 124.209 1817.91 124.034 1818.27 123.271C1819.05 121.61 1819.63 119.595 1819.97 117.363C1820.08 116.663 1820.27 115.609 1820.4 115.021C1820.74 113.488 1820.75 112.276 1820.44 111.435C1820.09 110.505 1819.23 109.732 1818.18 109.418ZM1854.63 136.448C1853.79 136.262 1852.28 136.485 1851.06 136.978C1850.24 137.307 1848.5 137.982 1845.92 138.967C1845.39 139.168 1843.08 140.396 1842.44 140.812C1842.1 141.034 1841.76 141.36 1841.26 141.959L1840.55 142.795L1840.03 144.452C1839.34 146.672 1839.23 147.308 1839.34 148.265C1839.55 150.013 1840.95 151.676 1842.8 152.365C1843.8 152.738 1845.54 152.98 1846.63 152.896C1850.82 152.572 1853.5 151.13 1855.82 147.952C1857.09 146.212 1857.61 145.013 1857.87 143.231C1858.32 140.176 1856.77 136.918 1854.63 136.448ZM1833.69 127.664C1832.51 127.037 1831.93 126.822 1830.92 126.639C1828.69 126.238 1826.53 126.628 1822.44 128.169C1821.56 128.502 1820.32 128.908 1819.69 129.071C1817.56 129.623 1814.31 129.883 1811.23 129.75C1808.58 129.635 1807.31 129.847 1805.34 130.73C1804.66 131.036 1803.75 131.487 1803.32 131.732L1802.55 132.177L1801.31 133.643L1800.08 135.108L1799.78 135.929C1799.36 137.057 1799.22 137.755 1799.23 138.736C1799.23 140.476 1799.72 141.979 1800.77 143.488C1801.36 144.338 1801.72 144.729 1802.67 145.556C1804.04 146.741 1804.81 147.146 1808.37 148.538C1809.3 148.899 1810.41 149.383 1810.85 149.613C1812.02 150.233 1813.97 151.582 1814.79 152.352C1815.77 153.266 1817.04 154.827 1817.72 155.94C1819.37 158.647 1821.8 160.647 1824.61 161.588C1826.9 162.356 1829.23 162.468 1831.08 161.899C1832.36 161.505 1833.92 160.746 1834.59 160.183C1835.78 159.202 1837.07 157.208 1837.4 155.832C1837.78 154.275 1837.65 152.219 1836.98 149.459C1836.48 147.403 1836.15 145.154 1836.18 144.013C1836.2 143.541 1836.35 142.129 1836.53 140.876C1837.5 134.098 1837.53 133.241 1836.9 131.497C1836.5 130.387 1836.32 130.048 1835.76 129.367C1835.1 128.559 1834.61 128.152 1833.69 127.664Z" fill="#836F59"/>
<path fill-rule="evenodd" clip-rule="evenodd" d="M474.98 107.318C474.481 107.135 473.089 106.995 472.523 107.072C472.067 107.133 471.268 107.427 470.64 107.764C470.116 108.044 467.59 109.829 467.07 110.286C466.238 111.018 465.494 112.156 465.056 113.367C464.503 114.897 464.524 116.589 465.117 118.239C465.429 119.108 465.594 119.329 466.346 119.889C467.397 120.671 467.907 120.847 469.189 120.868C470.384 120.888 471.362 120.661 472.285 120.149C474.554 118.891 476.04 116.748 476.483 114.094C476.747 112.518 476.873 110.232 476.74 109.426C476.63 108.751 476.337 108.245 475.803 107.809C475.479 107.545 475.289 107.431 474.98 107.318ZM465.695 100.33C464.984 100.034 463.888 99.8757 463.107 99.957C461.555 100.119 459.405 100.945 457.769 102.01C456.547 102.805 455.353 103.899 454.864 104.672C454.451 105.325 453.934 106.584 453.81 107.238C453.702 107.807 453.657 108.697 453.717 109.058C453.812 109.627 454.418 110.686 454.976 111.261C455.597 111.901 456.917 112.546 457.884 112.683C458.379 112.753 459.646 112.638 460.567 112.439C461.537 112.229 462.277 111.882 463.252 111.179C463.972 110.659 464.125 110.522 464.562 110.007C465.288 109.153 465.89 108.213 466.744 106.602C467.453 105.264 467.62 104.84 467.676 104.233C467.729 103.663 467.647 103.175 467.357 102.332C467.133 101.681 466.934 101.332 466.576 100.962C466.229 100.603 466.062 100.483 465.695 100.33ZM450.115 102.869C449.888 102.795 449.554 102.719 449.375 102.7C448.851 102.645 447.563 102.635 447.199 102.684C445.964 102.848 444.465 103.586 443.416 104.548C442.188 105.672 441.399 106.899 441.09 108.161C440.727 109.644 440.839 110.988 441.457 112.557C441.754 113.313 441.973 113.642 442.552 114.201C443.309 114.932 444.058 115.341 444.769 115.414C445.187 115.457 446.118 115.31 446.68 115.113C447.645 114.775 448.788 114.049 449.472 113.34C449.891 112.907 449.972 112.79 450.216 112.278C450.746 111.164 451.138 109.806 451.364 108.297C451.435 107.823 451.564 107.111 451.651 106.714C451.877 105.679 451.882 104.856 451.665 104.279C451.425 103.641 450.831 103.101 450.115 102.869ZM475.141 121.88C474.562 121.738 473.531 121.863 472.697 122.175C472.14 122.384 470.949 122.811 469.186 123.434C468.827 123.561 467.245 124.354 466.811 124.625C466.578 124.77 466.349 124.984 466.004 125.383L465.523 125.938L465.176 127.054C464.71 128.549 464.632 128.979 464.712 129.631C464.858 130.822 465.823 131.976 467.091 132.477C467.778 132.748 468.97 132.944 469.711 132.907C472.579 132.762 474.41 131.83 475.987 129.714C476.85 128.555 477.203 127.75 477.377 126.544C477.675 124.477 476.601 122.237 475.141 121.88ZM460.784 115.539C459.975 115.092 459.576 114.935 458.882 114.793C457.358 114.481 455.88 114.707 453.088 115.68C452.484 115.89 451.637 116.144 451.207 116.243C449.75 116.579 447.531 116.698 445.418 116.552C443.607 116.427 442.738 116.548 441.394 117.112C440.928 117.308 440.309 117.598 440.017 117.756L439.487 118.045L438.647 119.018L437.807 119.991L437.602 120.543C437.321 121.302 437.229 121.774 437.234 122.44C437.243 123.621 437.581 124.651 438.302 125.694C438.709 126.282 438.956 126.554 439.612 127.133C440.551 127.962 441.082 128.251 443.523 129.261C444.156 129.523 444.919 129.871 445.219 130.035C446.027 130.477 447.36 131.428 447.927 131.966C448.599 132.604 449.476 133.687 449.942 134.455C451.076 136.323 452.751 137.725 454.673 138.415C456.242 138.977 457.836 139.095 459.101 138.742C459.976 138.497 461.039 138.009 461.502 137.64C462.31 136.994 463.184 135.663 463.41 134.735C463.666 133.684 463.566 132.286 463.099 130.399C462.751 128.994 462.52 127.461 462.539 126.687C462.547 126.366 462.65 125.41 462.768 124.562C463.408 119.976 463.429 119.395 462.992 118.199C462.715 117.438 462.59 117.205 462.207 116.732C461.753 116.172 461.413 115.886 460.784 115.539Z" fill="#836F59"/>
<path fill-rule="evenodd" clip-rule="evenodd" d="M1000.01 102.871C999.506 102.705 998.11 102.613 997.547 102.708C997.095 102.785 996.307 103.106 995.692 103.463C995.18 103.761 992.726 105.631 992.223 106.106C991.42 106.865 990.721 108.028 990.33 109.253C989.837 110.801 989.924 112.492 990.58 114.121C990.926 114.979 991.099 115.195 991.872 115.729C992.952 116.475 993.468 116.633 994.75 116.612C995.944 116.591 996.913 116.331 997.815 115.788C1000.03 114.453 1001.44 112.262 1001.78 109.593C1001.98 108.01 1002.02 105.72 1001.85 104.919C1001.72 104.248 1001.4 103.752 1000.85 103.334C1000.52 103.081 1000.33 102.974 1000.01 102.871ZM990.464 96.1995C989.743 95.9276 988.642 95.8068 987.865 95.9144C986.32 96.1285 984.205 97.0275 982.611 98.1472C981.421 98.9833 980.27 100.117 979.812 100.906C979.424 101.572 978.956 102.848 978.857 103.506C978.772 104.079 978.761 104.97 978.835 105.329C978.952 105.894 979.598 106.933 980.178 107.489C980.823 108.107 982.167 108.707 983.139 108.812C983.636 108.865 984.897 108.707 985.81 108.477C986.771 108.235 987.496 107.862 988.443 107.126C989.143 106.583 989.291 106.441 989.708 105.911C990.4 105.033 990.965 104.073 991.756 102.433C992.412 101.072 992.562 100.643 992.595 100.034C992.626 99.4631 992.525 98.9776 992.203 98.1446C991.954 97.5019 991.742 97.1596 991.37 96.8014C991.009 96.4543 990.838 96.3401 990.464 96.1995ZM974.997 99.264C974.767 99.1978 974.431 99.1331 974.251 99.1203C973.725 99.083 972.439 99.1167 972.076 99.1774C970.849 99.3831 969.38 100.172 968.368 101.169C967.185 102.334 966.444 103.587 966.185 104.859C965.88 106.354 966.044 107.693 966.721 109.241C967.047 109.986 967.279 110.308 967.879 110.847C968.663 111.552 969.428 111.936 970.141 111.985C970.56 112.013 971.485 111.835 972.039 111.619C972.99 111.249 974.104 110.485 974.76 109.753C975.161 109.305 975.238 109.186 975.462 108.666C975.948 107.535 976.287 106.164 976.455 104.648C976.508 104.172 976.609 103.455 976.68 103.056C976.866 102.013 976.839 101.191 976.6 100.622C976.335 99.9921 975.721 99.4721 974.997 99.264ZM1000.74 117.421C1000.15 117.3 999.126 117.459 998.306 117.8C997.757 118.027 996.584 118.494 994.846 119.177C994.492 119.316 992.943 120.161 992.519 120.447C992.292 120.6 992.072 120.822 991.743 121.232L991.284 121.803L990.98 122.93C990.572 124.44 990.511 124.873 990.616 125.521C990.808 126.707 991.816 127.829 993.103 128.286C993.8 128.534 994.999 128.69 995.737 128.627C998.597 128.386 1000.39 127.393 1001.88 125.224C1002.7 124.036 1003.02 123.22 1003.15 122.008C1003.37 119.933 1002.21 117.729 1000.74 117.421ZM986.146 111.568C985.321 111.149 984.916 111.005 984.217 110.887C982.682 110.626 981.215 110.902 978.463 111.969C977.867 112.2 977.031 112.482 976.606 112.596C975.163 112.981 972.95 113.175 970.834 113.1C969.019 113.036 968.156 113.186 966.834 113.796C966.377 114.007 965.769 114.318 965.484 114.487L964.966 114.793L964.164 115.794L963.362 116.795L963.179 117.354C962.927 118.122 962.854 118.596 962.884 119.262C962.939 120.443 963.317 121.461 964.078 122.479C964.507 123.053 964.764 123.317 965.442 123.873C966.412 124.67 966.953 124.941 969.432 125.868C970.075 126.108 970.85 126.43 971.156 126.584C971.98 126.999 973.349 127.905 973.936 128.423C974.633 129.038 975.551 130.091 976.046 130.843C977.251 132.672 978.979 134.017 980.926 134.641C982.515 135.151 984.113 135.214 985.362 134.819C986.227 134.545 987.27 134.021 987.718 133.636C988.501 132.963 989.323 131.603 989.513 130.668C989.728 129.609 989.573 128.214 989.034 126.344C988.632 124.951 988.342 123.427 988.331 122.652C988.326 122.331 988.393 121.372 988.478 120.521C988.94 115.915 988.938 115.333 988.456 114.153C988.149 113.401 988.015 113.172 987.615 112.713C987.139 112.168 986.788 111.894 986.146 111.568Z" fill="#836F59"/>
<path fill-rule="evenodd" clip-rule="evenodd" d="M1543.13 107.182C1542.63 107.005 1541.23 106.881 1540.67 106.964C1540.21 107.03 1539.42 107.333 1538.79 107.676C1538.27 107.963 1535.77 109.776 1535.26 110.239C1534.43 110.98 1533.7 112.126 1533.28 113.343C1532.75 114.879 1532.79 116.57 1533.41 118.214C1533.73 119.079 1533.9 119.299 1534.65 119.85C1535.72 120.62 1536.23 120.79 1537.51 120.798C1538.7 120.804 1539.68 120.566 1540.6 120.044C1542.85 118.76 1544.31 116.601 1544.72 113.942C1544.96 112.363 1545.06 110.076 1544.91 109.271C1544.79 108.597 1544.49 108.095 1543.96 107.664C1543.63 107.404 1543.44 107.292 1543.13 107.182ZM1533.75 100.298C1533.04 100.01 1531.94 99.8639 1531.16 99.9539C1529.61 100.133 1527.47 100.984 1525.85 102.067C1524.64 102.876 1523.46 103.983 1522.98 104.761C1522.58 105.418 1522.07 106.683 1521.96 107.339C1521.86 107.909 1521.82 108.8 1521.89 109.16C1521.99 109.727 1522.61 110.78 1523.18 111.349C1523.81 111.982 1525.13 112.612 1526.1 112.738C1526.6 112.803 1527.86 112.673 1528.78 112.464C1529.75 112.244 1530.48 111.888 1531.45 111.174C1532.16 110.646 1532.31 110.508 1532.75 109.988C1533.46 109.125 1534.05 108.179 1534.88 106.558C1535.57 105.212 1535.74 104.787 1535.78 104.179C1535.83 103.609 1535.74 103.121 1535.44 102.281C1535.21 101.633 1535.01 101.286 1534.64 100.92C1534.29 100.565 1534.12 100.447 1533.75 100.298ZM1518.21 103.011C1517.98 102.939 1517.65 102.867 1517.47 102.85C1516.94 102.801 1515.65 102.806 1515.29 102.858C1514.06 103.036 1512.57 103.791 1511.53 104.764C1510.32 105.903 1509.55 107.138 1509.25 108.404C1508.91 109.891 1509.04 111.234 1509.68 112.796C1509.98 113.548 1510.21 113.875 1510.79 114.428C1511.56 115.15 1512.31 115.551 1513.02 115.616C1513.44 115.654 1514.37 115.497 1514.93 115.294C1515.89 114.944 1517.02 114.206 1517.7 113.49C1518.11 113.051 1518.19 112.934 1518.43 112.419C1518.95 111.299 1519.32 109.937 1519.53 108.425C1519.59 107.95 1519.71 107.237 1519.79 106.839C1520.01 105.801 1520 104.978 1519.78 104.404C1519.53 103.769 1518.93 103.235 1518.21 103.011ZM1543.47 121.743C1542.89 121.607 1541.86 121.744 1541.03 122.065C1540.48 122.281 1539.29 122.721 1537.54 123.364C1537.18 123.494 1535.61 124.305 1535.18 124.58C1534.95 124.728 1534.72 124.945 1534.38 125.347L1533.91 125.908L1533.58 127.028C1533.13 128.528 1533.06 128.959 1533.15 129.61C1533.31 130.799 1534.29 131.943 1535.56 132.43C1536.25 132.693 1537.45 132.876 1538.19 132.83C1541.05 132.653 1542.87 131.701 1544.42 129.567C1545.27 128.399 1545.61 127.59 1545.77 126.382C1546.04 124.312 1544.94 122.083 1543.47 121.743ZM1529.04 115.562C1528.22 115.124 1527.82 114.971 1527.13 114.837C1525.6 114.542 1524.12 114.785 1521.35 115.788C1520.74 116.006 1519.9 116.269 1519.47 116.373C1518.02 116.726 1515.8 116.869 1513.69 116.746C1511.87 116.641 1511.01 116.772 1509.67 117.352C1509.21 117.552 1508.59 117.849 1508.3 118.011L1507.78 118.306L1506.95 119.288L1506.12 120.271L1505.92 120.825C1505.65 121.587 1505.57 122.059 1505.58 122.726C1505.6 123.907 1505.95 124.933 1506.69 125.968C1507.1 126.552 1507.35 126.821 1508.02 127.392C1508.97 128.211 1509.5 128.494 1511.96 129.476C1512.59 129.731 1513.36 130.071 1513.66 130.232C1514.47 130.665 1515.82 131.601 1516.39 132.132C1517.07 132.763 1517.96 133.836 1518.44 134.599C1519.6 136.455 1521.29 137.838 1523.22 138.506C1524.8 139.051 1526.39 139.151 1527.65 138.784C1528.52 138.53 1529.58 138.03 1530.04 137.655C1530.84 137.001 1531.7 135.659 1531.91 134.729C1532.15 133.675 1532.03 132.278 1531.54 130.396C1531.18 128.995 1530.93 127.464 1530.94 126.69C1530.94 126.369 1531.03 125.412 1531.14 124.563C1531.72 119.97 1531.73 119.388 1531.28 118.197C1530.99 117.439 1530.86 117.207 1530.48 116.739C1530.02 116.184 1529.67 115.902 1529.04 115.562Z" fill="#836F59"/>
<path fill-rule="evenodd" clip-rule="evenodd" d="M529.24 156.655C528.741 156.471 527.349 156.332 526.783 156.409C526.328 156.47 525.528 156.764 524.9 157.1C524.376 157.381 521.85 159.166 521.33 159.623C520.498 160.354 519.754 161.493 519.316 162.704C518.763 164.234 518.785 165.926 519.378 167.576C519.69 168.445 519.855 168.666 520.606 169.226C521.657 170.008 522.167 170.184 523.449 170.205C524.644 170.225 525.622 169.998 526.545 169.486C528.815 168.227 530.3 166.085 530.744 163.431C531.007 161.855 531.133 159.569 531.001 158.763C530.89 158.087 530.597 157.582 530.063 157.146C529.739 156.881 529.549 156.768 529.24 156.655ZM519.955 149.666C519.244 149.37 518.148 149.212 517.367 149.294C515.815 149.455 513.666 150.282 512.029 151.347C510.807 152.142 509.613 153.236 509.124 154.009C508.712 154.661 508.194 155.92 508.07 156.574C507.962 157.143 507.917 158.034 507.977 158.394C508.072 158.963 508.678 160.023 509.236 160.598C509.857 161.238 511.177 161.883 512.145 162.02C512.639 162.09 513.906 161.974 514.828 161.775C515.797 161.566 516.537 161.219 517.512 160.515C518.232 159.996 518.385 159.859 518.823 159.344C519.549 158.489 520.151 157.549 521.004 155.938C521.714 154.6 521.88 154.177 521.937 153.569C521.99 153 521.908 152.512 521.617 151.668C521.394 151.018 521.195 150.669 520.837 150.298C520.49 149.939 520.322 149.819 519.955 149.666ZM504.376 152.205C504.148 152.132 503.815 152.056 503.635 152.037C503.111 151.982 501.824 151.972 501.459 152.02C500.224 152.184 498.725 152.923 497.676 153.884C496.448 155.009 495.659 156.235 495.35 157.497C494.988 158.981 495.1 160.325 495.717 161.894C496.014 162.65 496.233 162.979 496.813 163.538C497.569 164.268 498.318 164.678 499.03 164.751C499.447 164.794 500.379 164.647 500.94 164.45C501.906 164.111 503.049 163.386 503.732 162.677C504.151 162.243 504.232 162.127 504.476 161.615C505.006 160.501 505.398 159.143 505.624 157.634C505.696 157.16 505.825 156.447 505.911 156.051C506.137 155.015 506.142 154.193 505.925 153.616C505.685 152.978 505.091 152.438 504.376 152.205ZM529.401 171.216C528.823 171.075 527.791 171.2 526.957 171.512C526.4 171.721 525.209 172.148 523.446 172.771C523.087 172.898 521.506 173.69 521.071 173.961C520.838 174.106 520.609 174.321 520.265 174.719L519.784 175.275L519.436 176.39C518.97 177.885 518.893 178.315 518.972 178.967C519.118 180.158 520.083 181.313 521.351 181.814C522.038 182.085 523.231 182.281 523.971 182.243C526.84 182.099 528.67 181.167 530.247 179.051C531.11 177.892 531.463 177.087 531.637 175.881C531.935 173.814 530.861 171.574 529.401 171.216ZM515.044 164.875C514.235 164.428 513.836 164.272 513.142 164.13C511.618 163.817 510.14 164.043 507.348 165.016C506.744 165.227 505.897 165.48 505.468 165.58C504.01 165.916 501.791 166.035 499.679 165.889C497.867 165.763 496.999 165.884 495.654 166.449C495.188 166.644 494.569 166.934 494.277 167.093L493.748 167.382L492.907 168.355L492.067 169.328L491.862 169.88C491.581 170.639 491.489 171.11 491.494 171.777C491.503 172.958 491.841 173.988 492.563 175.031C492.969 175.619 493.217 175.891 493.872 176.47C494.811 177.299 495.342 177.588 497.784 178.597C498.417 178.859 499.18 179.208 499.479 179.372C500.287 179.814 501.621 180.765 502.187 181.302C502.859 181.941 503.736 183.024 504.202 183.792C505.336 185.66 507.012 187.062 508.934 187.751C510.502 188.314 512.097 188.432 513.361 188.079C514.236 187.834 515.299 187.346 515.762 186.976C516.57 186.331 517.445 185 517.671 184.072C517.926 183.021 517.826 181.622 517.359 179.736C517.012 178.331 516.78 176.797 516.799 176.023C516.807 175.702 516.91 174.746 517.029 173.899C517.669 169.313 517.689 168.732 517.253 167.536C516.975 166.775 516.85 166.541 516.468 166.069C516.014 165.508 515.673 165.223 515.044 164.875Z" fill="#836F59"/>
<path fill-rule="evenodd" clip-rule="evenodd" d="M1056.13 150.354C1055.63 150.187 1054.23 150.095 1053.67 150.191C1053.21 150.268 1052.43 150.588 1051.81 150.946C1051.3 151.244 1048.85 153.113 1048.34 153.588C1047.54 154.347 1046.84 155.51 1046.45 156.736C1045.96 158.284 1046.04 159.974 1046.7 161.604C1047.05 162.461 1047.22 162.677 1047.99 163.211C1049.07 163.957 1049.59 164.116 1050.87 164.094C1052.06 164.074 1053.03 163.814 1053.94 163.271C1056.15 161.936 1057.56 159.744 1057.9 157.076C1058.1 155.492 1058.14 153.203 1057.97 152.401C1057.84 151.73 1057.52 151.235 1056.97 150.817C1056.64 150.563 1056.45 150.456 1056.13 150.354ZM1046.58 143.682C1045.86 143.41 1044.76 143.289 1043.98 143.397C1042.44 143.611 1040.32 144.51 1038.73 145.63C1037.54 146.466 1036.39 147.599 1035.93 148.389C1035.54 149.055 1035.08 150.331 1034.98 150.989C1034.89 151.561 1034.88 152.453 1034.96 152.811C1035.07 153.377 1035.72 154.415 1036.3 154.971C1036.94 155.59 1038.29 156.19 1039.26 156.294C1039.76 156.347 1041.02 156.189 1041.93 155.959C1042.89 155.717 1043.62 155.345 1044.56 154.609C1045.26 154.065 1045.41 153.923 1045.83 153.394C1046.52 152.515 1047.08 151.555 1047.88 149.916C1048.53 148.554 1048.68 148.125 1048.72 147.516C1048.75 146.946 1048.65 146.46 1048.32 145.627C1048.07 144.984 1047.86 144.642 1047.49 144.284C1047.13 143.937 1046.96 143.823 1046.58 143.682ZM1031.12 146.746C1030.89 146.68 1030.55 146.616 1030.37 146.603C1029.85 146.565 1028.56 146.599 1028.2 146.66C1026.97 146.866 1025.5 147.655 1024.49 148.651C1023.31 149.817 1022.56 151.069 1022.3 152.341C1022 153.836 1022.16 155.176 1022.84 156.723C1023.17 157.469 1023.4 157.79 1024 158.33C1024.78 159.034 1025.55 159.419 1026.26 159.467C1026.68 159.496 1027.61 159.318 1028.16 159.102C1029.11 158.731 1030.22 157.967 1030.88 157.235C1031.28 156.788 1031.36 156.669 1031.58 156.149C1032.07 155.017 1032.41 153.646 1032.57 152.13C1032.63 151.654 1032.73 150.938 1032.8 150.538C1032.99 149.496 1032.96 148.673 1032.72 148.104C1032.46 147.475 1031.84 146.955 1031.12 146.746ZM1056.86 164.904C1056.27 164.782 1055.25 164.942 1054.43 165.282C1053.88 165.51 1052.7 165.977 1050.97 166.659C1050.61 166.798 1049.06 167.644 1048.64 167.929C1048.41 168.082 1048.19 168.304 1047.86 168.714L1047.4 169.285L1047.1 170.412C1046.69 171.923 1046.63 172.355 1046.74 173.004C1046.93 174.19 1047.94 175.311 1049.22 175.769C1049.92 176.017 1051.12 176.172 1051.86 176.11C1054.72 175.868 1056.51 174.875 1058 172.706C1058.82 171.519 1059.14 170.702 1059.27 169.491C1059.49 167.415 1058.33 165.212 1056.86 164.904ZM1042.27 159.05C1041.44 158.631 1041.04 158.488 1040.34 158.369C1038.8 158.109 1037.33 158.385 1034.58 159.451C1033.99 159.682 1033.15 159.964 1032.73 160.078C1031.28 160.464 1029.07 160.657 1026.95 160.583C1025.14 160.519 1024.28 160.669 1022.95 161.279C1022.5 161.49 1021.89 161.8 1021.6 161.969L1021.09 162.275L1020.28 163.277L1019.48 164.278L1019.3 164.836C1019.05 165.604 1018.97 166.079 1019 166.745C1019.06 167.925 1019.44 168.943 1020.2 169.961C1020.63 170.536 1020.88 170.799 1021.56 171.356C1022.53 172.153 1023.07 172.423 1025.55 173.35C1026.19 173.59 1026.97 173.913 1027.28 174.067C1028.1 174.482 1029.47 175.387 1030.06 175.905C1030.75 176.52 1031.67 177.573 1032.17 178.325C1033.37 180.155 1035.1 181.499 1037.05 182.124C1038.64 182.633 1040.23 182.697 1041.48 182.301C1042.35 182.027 1043.39 181.503 1043.84 181.118C1044.62 180.446 1045.44 179.086 1045.63 178.15C1045.85 177.091 1045.69 175.697 1045.15 173.826C1044.75 172.434 1044.46 170.909 1044.45 170.135C1044.45 169.814 1044.51 168.855 1044.6 168.003C1045.06 163.398 1045.06 162.816 1044.58 161.635C1044.27 160.884 1044.14 160.655 1043.73 160.196C1043.26 159.651 1042.91 159.377 1042.27 159.05Z" fill="#836F59"/>
<path fill-rule="evenodd" clip-rule="evenodd" d="M1598.01 155.913C1597.51 155.735 1596.11 155.611 1595.55 155.694C1595.09 155.761 1594.3 156.063 1593.67 156.407C1593.15 156.693 1590.65 158.506 1590.14 158.969C1589.31 159.71 1588.58 160.857 1588.16 162.073C1587.63 163.609 1587.67 165.301 1588.29 166.944C1588.61 167.809 1588.78 168.029 1589.54 168.58C1590.6 169.35 1591.11 169.521 1592.39 169.528C1593.59 169.535 1594.56 169.296 1595.48 168.774C1597.73 167.49 1599.19 165.331 1599.6 162.672C1599.84 161.093 1599.94 158.806 1599.79 158.001C1599.68 157.327 1599.38 156.825 1598.84 156.395C1598.51 156.134 1598.32 156.023 1598.01 155.913ZM1588.63 149.028C1587.92 148.74 1586.82 148.594 1586.04 148.684C1584.49 148.863 1582.35 149.714 1580.73 150.797C1579.52 151.606 1578.34 152.713 1577.86 153.491C1577.46 154.148 1576.96 155.413 1576.84 156.069C1576.74 156.639 1576.7 157.53 1576.77 157.89C1576.87 158.458 1577.49 159.51 1578.06 160.079C1578.69 160.712 1580.01 161.342 1580.98 161.468C1581.48 161.533 1582.74 161.403 1583.66 161.194C1584.63 160.974 1585.36 160.618 1586.33 159.904C1587.04 159.376 1587.2 159.238 1587.63 158.718C1588.34 157.855 1588.93 156.909 1589.76 155.288C1590.46 153.942 1590.62 153.517 1590.67 152.909C1590.71 152.339 1590.62 151.851 1590.32 151.011C1590.09 150.363 1589.89 150.016 1589.52 149.65C1589.17 149.295 1589 149.177 1588.63 149.028ZM1573.09 151.741C1572.86 151.67 1572.53 151.597 1572.35 151.58C1571.82 151.531 1570.54 151.536 1570.17 151.588C1568.94 151.766 1567.45 152.522 1566.41 153.495C1565.2 154.633 1564.43 155.868 1564.13 157.134C1563.79 158.621 1563.92 159.964 1564.56 161.526C1564.86 162.278 1565.09 162.605 1565.67 163.158C1566.44 163.88 1567.19 164.281 1567.9 164.346C1568.32 164.384 1569.25 164.227 1569.81 164.024C1570.77 163.675 1571.91 162.936 1572.58 162.22C1572.99 161.781 1573.07 161.664 1573.31 161.15C1573.83 160.029 1574.2 158.667 1574.41 157.155C1574.47 156.681 1574.59 155.967 1574.67 155.569C1574.89 154.531 1574.88 153.709 1574.66 153.134C1574.41 152.499 1573.81 151.965 1573.09 151.741ZM1598.35 170.473C1597.77 170.338 1596.74 170.474 1595.91 170.796C1595.36 171.011 1594.18 171.451 1592.42 172.094C1592.06 172.225 1590.49 173.035 1590.06 173.311C1589.83 173.458 1589.6 173.676 1589.26 174.078L1588.79 174.638L1588.46 175.758C1588.01 177.258 1587.94 177.689 1588.03 178.34C1588.19 179.529 1589.17 180.673 1590.44 181.16C1591.13 181.424 1592.33 181.606 1593.07 181.56C1595.93 181.384 1597.75 180.432 1599.3 178.298C1600.15 177.129 1600.49 176.32 1600.65 175.112C1600.92 173.042 1599.82 170.814 1598.35 170.473ZM1583.92 164.292C1583.1 163.854 1582.7 163.702 1582.01 163.567C1580.48 163.272 1579 163.515 1576.23 164.519C1575.62 164.736 1574.78 164.999 1574.35 165.103C1572.9 165.456 1570.68 165.599 1568.57 165.477C1566.76 165.372 1565.89 165.502 1564.55 166.082C1564.09 166.283 1563.47 166.579 1563.18 166.741L1562.66 167.036L1561.83 168.019L1561 169.001L1560.8 169.555C1560.53 170.317 1560.45 170.79 1560.46 171.456C1560.48 172.637 1560.84 173.663 1561.57 174.698C1561.98 175.282 1562.24 175.551 1562.9 176.123C1563.85 176.942 1564.38 177.224 1566.84 178.207C1567.47 178.461 1568.24 178.801 1568.54 178.962C1569.35 179.395 1570.7 180.331 1571.27 180.863C1571.95 181.493 1572.84 182.566 1573.32 183.329C1574.48 185.185 1576.17 186.568 1578.1 187.236C1579.68 187.781 1581.27 187.881 1582.53 187.514C1583.4 187.26 1584.46 186.76 1584.92 186.385C1585.72 185.731 1586.58 184.39 1586.79 183.459C1587.03 182.406 1586.91 181.008 1586.42 179.126C1586.06 177.725 1585.81 176.195 1585.82 175.42C1585.82 175.099 1585.91 174.142 1586.02 173.293C1586.6 168.7 1586.61 168.119 1586.16 166.928C1585.87 166.17 1585.75 165.938 1585.36 165.47C1584.9 164.914 1584.55 164.633 1583.92 164.292Z" fill="#836F59"/>
</svg>
