<svg width="788" height="628" viewBox="0 0 788 628" fill="none" xmlns="http://www.w3.org/2000/svg">
<g clip-path="url(#clip0_557_40)">
<path d="M325.112 109.834C286.385 128.35 201.268 184.753 162.519 205.867C35.2025 275.249 -39.5866 207.876 -90.7443 267.451C-166.536 355.707 -77.36 590.859 -15.5432 596.035C-8.41173 596.633 -7.81493 593.651 41.3074 571.717C81.8654 553.611 102.141 544.558 122.286 539.072C162.394 528.154 163.099 537.803 212.513 526.717C247.332 518.905 253.454 512.654 290.353 504.548C325.58 496.803 324.708 502.337 359.033 494.933C393.251 487.552 398.912 481.742 433.581 476.245C452.285 473.28 465.745 471.24 484.168 472.875C508.064 474.995 510.42 480.643 532.339 482.076C550.435 483.259 576.95 484.989 590.802 468.939C603.066 454.733 594.142 439.645 608.083 427.755C619.875 417.701 630.212 425.126 639.524 414.559C650.166 402.475 641.929 386.793 652.224 379.652C659.067 374.909 664.146 380.844 678.523 377.616C691.571 374.691 704.686 365.907 703.769 359.51C702.78 352.594 686.252 354.198 683.181 345.485C680.158 336.912 693.788 328.65 711.966 305.026C717.82 297.416 729.542 282.013 739.303 260.371C749.095 238.674 745.975 234.965 755.302 221.981C764.52 209.139 773.064 205.11 772.913 194.772C772.807 187.73 768.693 179.281 762.287 176.282C754.345 172.57 748.185 179.705 741.873 175.572C735.82 171.61 735.75 161.303 735.721 157.748C735.641 145.778 745.874 143.958 746.91 131.729C747.335 126.699 746.543 118.101 741.776 115.325C736.352 112.173 730.795 119.465 722.665 117.232C716.266 115.473 713.268 109.184 710.232 104.642C703.471 94.5385 693.035 89.7817 672.164 80.2682C646.848 68.7238 629.948 61.0252 612.352 60.5859C609.56 60.5148 601.691 60.5067 599.021 55.8088C596.132 50.7249 601.868 44.5921 599.5 41.576C596.107 37.2617 583.501 48.7205 566.449 47.3566C555.182 46.452 555.583 41.0438 538.116 35.5656C524.793 31.3888 523.528 34.2143 502.91 29.8979C483.7 25.8773 484.552 23.3653 474.418 22.8511C465.553 22.3976 456.126 25.2121 437.641 30.8554C422.219 35.5602 414.509 37.916 406.614 42.5018C398.407 47.2619 393.09 52.2306 382.783 61.9805C364.838 78.944 363.059 84.701 350.089 94.8342C339.213 103.329 329.868 107.559 325.125 109.829L325.112 109.834Z" fill="#CFA075"/>
<path d="M672.467 126.131C669.106 113.067 649.006 107.709 636.929 104.479C602.861 95.3895 574.441 108.659 558.257 116.218C539.867 124.805 525.361 131.583 519.085 148.24C518.349 150.199 511.142 170.274 522.206 187.244C532.416 202.9 550.998 204.913 558.118 205.685C564.756 206.401 581.395 207.104 614.875 186.096C638.003 171.586 677.75 146.644 672.476 126.136L672.467 126.131Z" fill="url(#paint0_radial_557_40)"/>
<path d="M702.735 226.682C693.74 214.446 674.084 216.057 652.413 217.843C638.169 219.015 615.517 221.184 594.331 237.889C584.185 245.894 570.853 256.405 568.57 274.528C566.239 293.024 576.821 308.188 580.565 313.557C585.278 320.311 589.909 322.033 601.333 325.108C608.788 327.12 618.92 334.014 643.247 319.671C670.389 303.671 683.962 295.675 691.659 284.459C700.762 271.202 714.344 242.466 702.741 226.68L702.735 226.682Z" fill="url(#paint1_radial_557_40)"/>
<path d="M616.081 382.51C611.888 373.522 591.313 370.962 543.715 369.437C508.435 368.306 498.775 369.124 488.907 377.562C478.228 386.688 469.179 404.362 474.39 421.112C480.653 441.242 503.644 447.642 509.19 449.181C527.013 454.142 541.384 448.564 570.125 437.402C605.582 423.631 614.773 410.999 617.326 407.237C622 400.362 620.502 391.992 616.081 382.51Z" fill="url(#paint2_radial_557_40)"/>
<path d="M477.621 100.879C469.849 117.83 456.522 125.876 452.967 127.891C448.306 130.527 432.246 139.293 412.307 134.214C410.687 133.798 382.039 126.157 379.777 108.442C378.068 95.0615 392.499 84.3869 405.168 75.0126C412.941 69.2636 430.387 56.7445 454.01 58.1555C462.471 58.6589 475.56 59.4484 481.311 68.7766C487.635 79.0388 481.124 93.2392 477.623 100.886L477.621 100.879Z" fill="url(#paint3_radial_557_40)"/>
<path d="M493.086 267.69C493.638 250.567 478.383 222.175 463.38 213.71C449.685 205.978 442.364 214.667 417.597 209.468C401.881 206.169 401.049 201.879 377.727 192.392C351.238 181.625 336.162 175.492 317.95 177.566C313.482 178.073 276.657 182.841 266.422 212.305C260.163 230.311 265.097 253.907 277.887 266.932C289.212 278.46 302.476 277.402 308.623 291.782C312.454 300.753 311.037 309.913 310.847 311.058C309.516 319.042 305.733 323.124 303.247 327.555C295.219 341.862 300.484 360.156 304.312 373.438C308.075 386.511 314.32 393.28 333.603 405.031C354.341 417.672 371.541 415.353 380.358 412.816C390.481 409.91 402.403 405.148 410.161 390.1C419.169 372.619 433.777 360.35 447.352 342.773C453.162 335.245 459.494 332.1 482.081 305.875C499.892 285.199 493.09 267.682 493.09 267.682L493.086 267.69Z" fill="url(#paint4_radial_557_40)"/>
</g>
<defs>
<radialGradient id="paint0_radial_557_40" cx="0" cy="0" r="1" gradientUnits="userSpaceOnUse" gradientTransform="translate(594.525 150.129) rotate(70.9584) scale(45.3198 81.555)">
<stop offset="0.0288462" stop-color="#836F59"/>
<stop offset="1" stop-color="#514942"/>
</radialGradient>
<radialGradient id="paint1_radial_557_40" cx="0" cy="0" r="1" gradientUnits="userSpaceOnUse" gradientTransform="translate(640.323 269.675) rotate(70.9584) scale(49.9066 73.9822)">
<stop offset="0.0288462" stop-color="#836F59"/>
<stop offset="1" stop-color="#514942"/>
</radialGradient>
<radialGradient id="paint2_radial_557_40" cx="0" cy="0" r="1" gradientUnits="userSpaceOnUse" gradientTransform="translate(545.194 401.194) rotate(70.9584) scale(42.9782 73.4438)">
<stop offset="0.0288462" stop-color="#836F59"/>
<stop offset="1" stop-color="#514942"/>
</radialGradient>
<radialGradient id="paint3_radial_557_40" cx="0" cy="0" r="1" gradientUnits="userSpaceOnUse" gradientTransform="translate(433.773 97.9064) rotate(70.9584) scale(35.7163 54.8465)">
<stop offset="0.0288462" stop-color="#836F59"/>
<stop offset="1" stop-color="#514942"/>
</radialGradient>
<radialGradient id="paint4_radial_557_40" cx="0" cy="0" r="1" gradientUnits="userSpaceOnUse" gradientTransform="translate(386.51 281.397) rotate(70.9584) scale(122.359 107.811)">
<stop offset="0.0288462" stop-color="#836F59"/>
<stop offset="1" stop-color="#514942"/>
</radialGradient>
<clipPath id="clip0_557_40">
<rect width="788" height="628" fill="white"/>
</clipPath>
</defs>
</svg>
