<svg width="152" height="170" viewBox="0 0 152 170" fill="none" xmlns="http://www.w3.org/2000/svg">
<path fill-rule="evenodd" clip-rule="evenodd" d="M141.594 38.7606C139.783 37.796 134.711 36.7084 132.639 36.8408C130.972 36.947 128.033 37.9346 125.717 39.1667C123.787 40.1935 114.445 47.0135 112.515 48.8054C109.429 51.6703 106.637 56.3232 104.959 61.398C102.839 67.8065 102.806 75.1151 104.862 82.444C105.944 86.3014 106.531 87.314 109.239 89.9916C113.024 93.734 114.875 94.6709 119.554 95.2119C123.916 95.7162 127.504 95.0776 130.908 93.1913C139.277 88.5524 144.842 79.8277 146.637 68.5272C147.703 61.8198 148.313 51.9989 147.884 48.4728C147.524 45.5206 146.487 43.237 144.567 41.1689C143.403 39.9145 142.716 39.3585 141.594 38.7606ZM108.151 5.35827C105.576 3.83222 101.583 2.76794 98.7266 2.84566C93.0489 3.00076 85.146 5.81721 79.1002 9.84035C74.5853 12.8446 70.1545 17.1478 68.3178 20.3125C66.7677 22.9832 64.7953 28.2361 64.2991 31.0152C63.8676 33.433 63.6428 37.2589 63.8395 38.8368C64.1497 41.3248 66.2905 46.1088 68.2922 48.7865C70.517 51.7634 75.294 55.0088 78.8175 55.9374C80.6197 56.4125 85.2521 56.3573 88.6304 55.8206C92.184 55.256 94.9085 54.0158 98.5149 51.3215C101.18 49.3307 101.748 48.7939 103.379 46.7247C106.085 43.2907 108.346 39.4454 111.57 32.7915C114.247 27.2648 114.884 25.4953 115.13 22.8937C115.361 20.4559 115.094 18.319 114.09 14.5791C113.315 11.6938 112.611 10.1175 111.329 8.39361C110.086 6.72346 109.483 6.14743 108.151 5.35827ZM51.0969 10.8701C50.271 10.4715 49.0587 10.0274 48.4031 9.88286C46.4951 9.46229 41.7941 8.97014 40.4608 9.05159C35.9403 9.32786 30.4173 11.9914 26.5222 15.7734C21.9657 20.1979 19.0024 25.2143 17.7923 30.5524C16.3702 36.8259 16.6908 42.6662 18.8408 49.6512C19.8768 53.0175 20.6558 54.5138 22.734 57.13C25.448 60.5462 28.1563 62.577 30.7488 63.1395C32.2694 63.4695 35.6817 63.1615 37.746 62.5082C41.293 61.3856 45.5136 58.654 48.0578 55.8345C49.6147 54.1087 49.9197 53.6357 50.8428 51.5114C52.8518 46.8881 54.3718 41.1645 55.2985 34.731C55.5896 32.7111 56.1081 29.6822 56.4507 28.0001C57.3446 23.6121 57.4155 20.0638 56.661 17.4987C55.8266 14.6622 53.6954 12.1233 51.0969 10.8701ZM141.223 101.657C139.119 100.844 135.344 101.022 132.279 102.078C130.229 102.785 125.853 104.211 119.375 106.284C118.056 106.706 112.229 109.573 110.623 110.59C109.763 111.135 108.915 111.982 107.63 113.579L105.837 115.808L104.494 120.501C102.694 126.79 102.383 128.619 102.631 131.459C103.084 136.65 106.531 141.97 111.128 144.574C113.621 145.986 117.961 147.246 120.668 147.344C131.151 147.722 137.897 144.343 143.793 135.76C147.021 131.06 148.363 127.711 149.078 122.567C150.302 113.753 146.529 103.709 141.223 101.657ZM89.2168 69.2741C86.2932 67.0623 84.8451 66.2466 82.3211 65.3911C76.7758 63.511 71.3652 63.9706 61.1069 67.1923C58.8851 67.8901 55.7781 68.6884 54.2023 68.9667C48.8586 69.9092 40.7477 69.6445 33.0434 68.2761C26.4375 67.1028 23.258 67.3208 18.3106 69.2871C16.5975 69.9681 14.3164 71.0023 13.2418 71.5857L11.2881 72.6463L8.15593 76.552L5.02376 80.4577L4.23995 82.7667C3.16152 85.9437 2.79634 87.9467 2.77078 90.824C2.72578 95.926 3.89191 100.487 6.45715 105.241C7.90355 107.922 8.78869 109.181 11.1444 111.908C14.5189 115.815 16.4364 117.246 25.2858 122.457C27.5801 123.808 30.3432 125.578 31.4261 126.391C34.3465 128.582 39.1537 133.151 41.1864 135.669C43.5993 138.658 46.7295 143.638 48.3812 147.116C52.3983 155.575 58.4227 162.211 65.3951 165.857C71.0861 168.833 76.9001 169.899 81.5405 168.816C84.7513 168.068 88.6646 166.333 90.3796 164.899C93.3723 162.397 96.6541 156.958 97.5403 153.032C98.5435 148.587 98.2689 142.516 96.6891 134.211C95.5129 128.027 94.7693 121.329 94.8896 117.996C94.9395 116.614 95.3795 112.524 95.8672 108.908C98.5066 89.342 98.6198 86.8402 97.1057 81.527C96.1423 78.1459 95.7016 77.0951 94.3357 74.9228C92.715 72.3453 91.4912 70.9948 89.2168 69.2741Z" fill="#554B43"/>
</svg>
