<svg width="778" height="565" viewBox="0 0 778 565" fill="none" xmlns="http://www.w3.org/2000/svg">
<g clip-path="url(#clip0_557_24)">
<path d="M472.707 89.3814C512.901 106.591 602.042 159.648 642.392 179.378C774.965 244.207 847.339 177.416 902.222 234.207C983.534 318.339 905.119 548.132 842.728 554.348C835.53 555.066 834.773 552.185 783.869 531.863C741.839 515.086 720.828 506.699 700.131 501.767C658.924 491.954 658.7 501.325 608.052 491.53C572.364 484.627 565.84 478.682 528.028 471.534C491.93 464.704 493.095 470.054 457.929 463.538C422.871 457.041 416.837 451.515 381.419 446.854C362.311 444.341 348.565 442.622 329.975 444.564C305.863 447.083 303.762 452.606 281.619 454.42C263.338 455.917 236.552 458.108 221.695 442.81C208.542 429.269 216.818 414.462 202.084 403.2C189.62 393.677 179.521 401.079 169.545 391.01C158.143 379.496 165.694 364.127 154.896 357.4C147.719 352.932 142.873 358.787 128.137 355.934C114.763 353.35 101.023 345.084 101.627 338.862C102.278 332.135 119.111 333.371 121.78 324.861C124.408 316.488 110.172 308.738 90.5454 286.178C84.2252 278.91 71.5603 264.198 60.5649 243.397C49.5353 222.543 52.509 218.885 42.3954 206.473C32.3985 194.195 23.5331 190.453 23.1608 180.424C22.9091 173.592 26.6492 165.318 32.9889 162.285C40.85 158.531 47.4567 165.332 53.6438 161.202C59.5773 157.242 59.1233 147.244 58.9716 143.796C58.4438 132.184 47.9787 130.617 46.3065 118.776C45.6196 113.907 45.9851 105.552 50.675 102.767C56.0122 99.6052 62.0154 106.57 70.1428 104.247C76.5382 102.418 79.2567 96.2598 82.1033 91.7963C88.4414 81.866 98.7763 77.0507 119.446 67.42C144.518 55.7336 161.255 47.94 179.067 47.1735C181.893 47.0506 189.869 46.8906 192.336 42.2825C195.005 37.2958 188.879 31.4587 191.125 28.4877C194.345 24.2377 207.705 35.1075 224.919 33.4548C236.293 32.3595 235.61 27.122 253.035 21.4709C266.327 17.1622 267.752 19.8781 288.43 15.2929C307.696 11.0219 306.705 8.602 316.95 7.90726C325.911 7.29593 335.609 9.84331 354.633 14.959C370.503 19.2238 378.437 21.3595 386.673 25.6545C395.233 30.1124 400.875 34.8286 411.818 44.0854C430.87 60.1908 432.966 65.74 446.628 75.3171C458.083 83.3457 467.77 87.2676 472.694 89.3774L472.707 89.3814Z" fill="#554B43"/>
<path d="M121.469 111.907C124.211 99.1714 144.31 93.5845 156.386 90.2174C190.454 80.7411 219.934 93.0607 236.722 100.078C255.797 108.05 270.845 114.343 278.052 130.378C278.898 132.263 287.224 151.595 276.874 168.268C267.321 183.652 248.59 185.964 241.413 186.851C234.722 187.674 217.893 188.679 182.891 168.952C158.712 155.327 117.158 131.906 121.46 111.912L121.469 111.907Z" fill="url(#paint0_radial_557_24)"/>
<path d="M95.9132 210.009C104.407 197.967 124.411 199.149 146.467 200.461C160.963 201.322 184.032 202.986 206.355 218.778C217.045 226.345 231.093 236.281 234.328 253.814C237.631 271.709 227.677 286.621 224.156 291.902C219.722 298.544 215.117 300.303 203.694 303.508C196.24 305.603 186.322 312.486 160.936 299.046C132.612 284.054 118.45 276.562 110.078 265.832C100.177 253.151 84.9491 225.543 95.9067 210.007L95.9132 210.009Z" fill="url(#paint1_radial_557_24)"/>
<path d="M191.677 359.467C195.47 350.668 216.193 347.787 264.358 345.385C300.058 343.604 309.89 344.21 320.322 352.203C331.609 360.848 341.679 377.814 337.25 394.161C331.926 413.807 308.949 420.46 303.407 422.061C285.595 427.218 270.745 422.086 241.047 411.817C204.409 399.147 194.451 387.074 191.672 383.475C186.586 376.897 187.678 368.75 191.677 359.467Z" fill="url(#paint2_radial_557_24)"/>
<path d="M317.67 83.6527C326.409 99.9425 340.326 107.488 344.031 109.374C348.889 111.84 365.612 120.031 385.563 114.718C387.184 114.283 415.831 106.317 417.223 89.0914C418.274 76.0802 403.105 66.0066 389.788 57.16C381.618 51.7347 363.299 39.9306 339.427 41.757C330.877 42.4094 317.651 43.4288 312.297 52.5878C306.41 62.6638 313.73 76.3105 317.668 83.6592L317.67 83.6527Z" fill="url(#paint3_radial_557_24)"/>
<path d="M310.495 245.736C309.065 229.14 323.082 201.307 337.857 192.806C351.344 185.041 359.206 193.327 384.043 187.804C399.804 184.3 400.429 180.123 423.584 170.47C449.883 159.513 464.85 153.273 483.415 154.931C487.969 155.336 525.534 159.247 537.406 187.625C544.666 204.968 540.865 227.948 528.564 240.829C517.673 252.229 504.175 251.46 498.677 265.526C495.25 274.302 497.153 283.158 497.403 284.265C499.158 291.983 503.2 295.869 505.945 300.118C514.809 313.838 510.403 331.683 507.199 344.639C504.05 357.392 498.065 364.078 479.119 375.849C458.744 388.511 441.193 386.595 432.128 384.305C421.72 381.683 409.395 377.296 400.767 362.852C390.748 346.071 375.318 334.455 360.666 317.671C354.394 310.482 347.817 307.554 323.591 282.558C304.487 262.85 310.49 245.728 310.49 245.728L310.495 245.736Z" fill="url(#paint4_radial_557_24)"/>
</g>
<defs>
<radialGradient id="paint0_radial_557_24" cx="0" cy="0" r="1" gradientTransform="matrix(-12.8071 41.8378 79.49 24.3126 201.687 133.672)" gradientUnits="userSpaceOnUse">
<stop offset="0.389423" stop-color="#CABAA8"/>
<stop offset="1" stop-color="#846E56"/>
</radialGradient>
<radialGradient id="paint1_radial_557_24" cx="0" cy="0" r="1" gradientTransform="matrix(-14.1033 46.0717 72.1085 22.0548 161.356 250.498)" gradientUnits="userSpaceOnUse">
<stop offset="0.389423" stop-color="#CABAA8"/>
<stop offset="1" stop-color="#846E56"/>
</radialGradient>
<radialGradient id="paint2_radial_557_24" cx="0" cy="0" r="1" gradientTransform="matrix(-12.1454 39.676 71.584 21.8945 264.474 376.215)" gradientUnits="userSpaceOnUse">
<stop offset="0.389423" stop-color="#CABAA8"/>
<stop offset="1" stop-color="#846E56"/>
</radialGradient>
<radialGradient id="paint3_radial_557_24" cx="0" cy="0" r="1" gradientTransform="matrix(-10.0932 32.9719 53.4575 16.3503 361.96 79.9194)" gradientUnits="userSpaceOnUse">
<stop offset="0.389423" stop-color="#CABAA8"/>
<stop offset="1" stop-color="#846E56"/>
</radialGradient>
<radialGradient id="paint4_radial_557_24" cx="0" cy="0" r="1" gradientTransform="matrix(-34.577 112.954 105.078 32.1386 419.209 256.964)" gradientUnits="userSpaceOnUse">
<stop offset="0.389423" stop-color="#CABAA8"/>
<stop offset="1" stop-color="#846E56"/>
</radialGradient>
<clipPath id="clip0_557_24">
<rect width="779" height="565" fill="white"/>
</clipPath>
</defs>
</svg>
