<svg width="1361" height="702" viewBox="0 0 1361 702" fill="none" xmlns="http://www.w3.org/2000/svg">
<g clip-path="url(#clip0_500_198)">
<path d="M266.793 132.807C269.977 132.598 273.337 131.62 276.303 132.314C286.775 134.779 291.313 128.578 295.007 120.563C308.538 91.1705 328.437 67.1347 356.802 51.2808C376.216 40.4245 397.661 34.2986 419.315 29.2423C431.701 26.3507 444.161 24.4619 456.932 23.8518C480.182 22.7403 501.334 29.3259 521.292 40.3326C525.303 42.5473 527.861 42.5724 531.362 40.1822C560.48 20.2832 593.433 9.43534 627.564 3.70217C661.796 -2.04771 696.504 -0.802458 730.953 5.25664C756.962 9.82813 781.708 18.1437 806.036 28.0054C808.886 29.1588 811.577 29.2758 814.519 28.7242C840.519 23.81 866.326 22.0717 892.844 26.8772C918.41 31.5155 941.401 41.3271 962.67 55.3174C992.874 75.1912 1019.46 98.9429 1036.76 131.52C1038.55 134.888 1040.9 136.175 1044.54 135.247C1056.82 132.105 1068.73 134.704 1080.3 138.348C1085.88 140.103 1092.59 139.451 1096.88 144.7C1098.65 150.842 1102.18 155.848 1106.86 160.111C1110.4 166.437 1114.26 172.605 1117.42 179.115C1133.31 211.809 1145.48 245.899 1155.23 280.892C1156.61 285.847 1155.32 288.58 1150.74 291.455C1134.88 301.384 1121.13 313.937 1109.91 328.88C1086.08 360.629 1064.27 393.708 1045.81 428.917C1045.25 429.486 1044.69 430.046 1044.14 430.614L1044.12 430.647C1033.73 434.032 1025.36 440.551 1017.43 447.763C1015.32 448.674 1013.14 449.435 1011.13 450.521C989.305 462.372 966.055 470.955 941.86 475.56C886.509 486.09 830.214 489.751 774.119 490.888C722.763 491.932 671.683 496.52 620.477 498.083C547.492 500.306 474.022 502.696 402.483 482.948C367.29 473.228 333.735 462.222 311.797 427.798C288.689 391.535 263.533 356.166 233.463 324.935C222.666 313.719 212.453 301.793 199.541 292.767L199.441 292.65C197.711 288.497 196.073 282.647 199.884 280.658C209.118 275.852 208.4 269.024 206.653 261.043C206.168 258.845 206.511 256.396 206.812 254.098C208.784 238.871 213.214 224.387 220.209 210.698C220.384 210.096 220.568 209.503 220.744 208.901C223.543 202.24 230.162 197.669 231.098 189.98C236.238 185.91 239.339 180.478 241.578 174.452C246.451 170.014 250.178 164.849 251.841 158.356C252.51 157.227 253.179 156.107 253.855 154.988C254.357 154.369 254.867 153.759 255.368 153.141C260.098 146.873 266.266 141.415 266.809 132.79L266.793 132.807ZM344.759 329.08C342.72 327.701 342.728 326.59 342.987 325.428C346.447 309.541 347.166 293.311 347.575 277.198C348.152 254.599 349.405 231.85 345.904 209.394C342.109 185.099 335.206 161.966 314.915 145.519C311.555 142.794 307.117 138.406 303.741 142.209C300.122 146.288 306.206 149.279 308.914 151.477C321.809 161.966 329.69 175.572 333.409 191.351C338.583 213.297 339.469 235.628 339.502 258.226C339.535 281.209 336.393 303.866 335.231 326.69C334.897 333.209 335.432 340.588 330.626 346.589C327.785 350.132 327.25 350.559 324.409 346.138C309.031 322.185 292.157 299.462 267.085 284.452C253.981 276.604 239.548 272.701 224.663 270.244C221.738 269.759 218.178 270.604 217.584 273.821C216.857 277.724 220.744 278.083 223.46 278.627C228.549 279.638 233.906 279.696 238.779 281.293C266.768 290.444 287.845 308.688 304.844 332.231C324.175 359.016 339.059 388.284 352.849 418.145C354.871 422.516 361.072 426.728 358.532 430.831C356.626 433.915 349.765 433.99 345.076 435.277C340.906 436.422 333.343 435.47 335.098 441.637C336.702 447.279 343.346 444.546 347.96 442.707C348.503 442.49 348.996 442.072 349.548 442.005C356.894 441.094 363.546 438.102 371.026 444.914C377.77 451.048 386.429 456.146 396.107 458.093C410.515 460.993 424.229 466.609 438.98 468.348C462.473 471.131 485.89 474.507 509.324 477.716C524.234 479.755 539.277 480.299 554.195 481.887C567.867 483.341 581.498 483.408 595.021 482.488C621.263 480.7 647.488 478.652 673.789 477.666C677.859 477.516 681.503 477.574 681.26 483.282C681.177 485.388 682.121 487.478 684.704 487.478C686.994 487.478 689.058 485.514 689.05 483.817C688.983 473.83 696.12 475.827 701.82 476.045C707.135 476.245 712.166 474.348 717.314 474.34C753.819 474.223 790.049 470.094 826.386 467.495C858.688 465.189 890.797 461.938 922.747 456.798C955.859 451.466 988.979 446.334 1019.96 432.419C1023.04 431.032 1025.42 429.762 1024.6 426.368C1023.6 422.29 1020.03 423.368 1017.41 424.154C1014.39 425.065 1011.69 427.062 1008.67 428.032C1005.56 429.034 1002.03 430.296 1003.45 424.112C1005.44 415.404 1006 406.202 1009.84 398.112C1022.64 371.109 1038.02 346.037 1061.53 326.473C1083.91 307.844 1106.66 290.62 1136.86 287.394C1139.9 287.068 1141.72 285.455 1141.59 282.279C1141.44 278.334 1138.38 278.869 1135.84 278.794C1127.86 278.56 1120.33 281.234 1113.12 283.8C1087.66 292.876 1066.35 308.805 1047.35 327.517C1041 333.769 1038.8 331.303 1035.45 326.005C1025.79 310.694 1012.93 298.049 1000.43 285.204C996.576 281.251 994.921 277.724 995.172 272.467C996.016 254.816 994.529 237.166 996.727 219.448C999.418 197.685 1008.11 179.132 1021.65 162.334C1023.88 159.567 1030.6 157.344 1026.64 153.107C1022.2 148.36 1018.92 155.439 1015.04 157.052C1014.33 157.344 1013.89 158.33 1013.34 158.999C994.671 181.681 987.308 208.266 986.564 237.065C986.313 246.944 986.497 256.839 986.506 266.726C986.506 270.654 985.544 272.492 981.508 269.542C977.789 266.826 974.061 263.985 969.975 261.92C951.505 252.627 933.152 243.2 913.337 236.714C884.938 227.413 856.364 219.515 826.378 217.601C819.475 217.158 812.614 216.08 805.727 215.294C799.927 214.634 797.729 211.951 797.846 205.6C798.306 181.472 798.072 157.328 798.038 133.191C798.013 113.443 800.504 94.0037 805 74.7984C806.772 67.2434 808.752 59.7301 810.131 52.0998C810.65 49.2248 811.443 44.7954 807.248 44.06C803.496 43.3997 802.384 46.9934 801.465 50.2946C793.793 77.6984 790.642 105.796 789.522 134.052C788.619 156.993 789.321 179.993 789.313 202.967C789.313 214.584 788.494 215.487 776.476 215.879C768.637 216.138 760.706 215.445 752.95 216.322C721.1 219.924 689.426 225.607 657.208 224.579C619.165 223.368 581.398 226.51 543.865 232.126C536.644 233.204 535.984 231.165 536.243 225.44C537.196 204.881 535.892 184.33 537.622 163.688C539.369 142.894 539.143 121.759 537.58 100.94C536.661 88.6717 538.299 75.8849 533.577 64.0007C532.549 61.4266 533.694 56.4289 528.63 57.4903C524.15 58.4347 524.317 61.9866 525.529 65.7892C529.198 77.2722 528.295 89.3821 528.905 101.091C530.201 126.18 529.507 151.386 529.215 176.541C529.014 194.117 528.003 211.676 527.66 229.251C527.56 234.282 525.654 236.188 520.757 237.274C509.207 239.823 497.565 242.431 486.433 246.35C460.968 255.318 434.768 262.58 411.701 277.44C395.906 287.619 379.166 296.236 365.076 309.106C358.022 315.55 352.163 323.355 344.801 329.063L344.759 329.08ZM695.15 46.7427C694.708 56.9889 700.282 62.7889 708.581 60.2482C714.983 58.2926 721.125 57.4318 727.585 57.624C732.993 57.7828 735.726 54.8911 738.057 50.3447C739.745 47.0519 742.211 43.4917 738.626 41.1934C734.38 38.4689 733.101 43.0404 731.522 46.0574C730.118 48.7318 727.82 51.3058 725.128 47.9796C718.911 40.2908 719.011 40.0568 712.776 48.0799C711.08 50.2612 709.726 52.6096 706.608 51.3309C703.098 49.8851 704.736 47.1689 705.263 44.6617C705.848 41.8871 705.305 39.2294 702.162 38.3937C698.92 37.5329 697.432 39.9231 696.429 42.447C695.694 44.294 695.293 46.2663 695.159 46.7427H695.15ZM854.041 125.102C858.454 125.887 861.73 123.012 864.621 119.644C866.911 116.978 868.984 114.855 873.054 114.504C881.178 113.819 885.465 108.663 887.42 100.773C888.808 95.1654 888.825 88.6717 883.442 87.6772C876.247 86.34 878.963 93.753 878.344 97.7812C877.534 103.088 876.506 108.596 869.368 104.576C862.691 100.807 861.63 103.807 860.643 109.657C859.54 116.226 855.019 118.307 849.16 115.073C846.687 113.71 844.296 111.78 842.466 114.471C840.251 117.722 842.617 120.547 845.374 122.502C847.748 124.191 850.406 125.402 854.041 125.102ZM597.461 131.896C597.168 128.812 597.837 126.447 595.221 125.636C593.307 125.043 591.92 126.297 590.691 127.542C589.48 128.779 588.326 130.083 587.248 131.428C585.184 134.002 582.175 137.119 579.501 134.587C576.484 131.729 577.612 127.634 581.607 125.227C584.398 123.539 586.471 121.207 583.788 118.299C580.838 115.106 577.387 116.151 574.804 119.176C573.35 120.881 572.564 123.146 571.353 125.076C567.809 130.718 568.753 136.234 572.539 141.064C575.815 145.234 580.554 146.689 585.66 144.407C591.636 141.741 596.174 137.629 597.461 131.896ZM313.201 189.821C306.95 189.253 304.025 193.314 302.913 198.354C301.944 202.733 304.827 203.937 308.805 202.541C308.805 207.815 320.297 206.636 315.566 214.668C314.196 216.991 316.252 218.378 317.723 219.724C319.77 221.588 321.483 220.443 322.971 218.888C326.172 215.537 330.902 211.308 327.283 207.096C322.428 201.446 323.915 190.49 313.21 189.838L313.201 189.821ZM928.865 169.053C929.157 172.413 928.205 175.965 931.088 178.873C934.615 182.425 937.573 185.801 943.716 183.486C951.421 180.586 957.731 176.667 960.138 168.493C960.782 166.312 961.225 162.902 957.572 162.108C954.614 161.473 952.458 162.877 951.722 165.894C950.895 169.262 948.63 171.677 945.88 173.131C941.518 175.43 936.813 177.243 937.54 168.777C937.824 165.468 938.459 160.796 933.57 160.612C927.845 160.395 929.274 165.518 928.865 169.053ZM1052.47 233.413C1058.97 234.107 1062.91 229.519 1066.8 224.655C1068.74 222.231 1069.16 219.832 1067.09 217.685C1064.25 214.734 1062.57 217.902 1060.69 219.415C1057.71 221.813 1054.43 227.446 1050.97 223.518C1048.14 220.317 1053.82 217.735 1056.71 215.787C1059.47 213.924 1059.96 211.96 1058.07 209.294C1056.13 206.561 1053.52 206.678 1051.25 208.341C1047.25 211.275 1044.04 214.893 1042.39 219.832C1039.58 228.257 1043.03 233.355 1052.48 233.422L1052.47 233.413ZM374.185 114.755C363.972 114.521 358.632 122.904 361.716 134.019C362.719 137.646 364.298 141.265 368.368 140.237C372.012 139.317 370.742 135.373 369.747 132.832C368.143 128.737 369.321 125.327 373.049 124.45C377.929 123.296 377.144 127.859 377.528 130.818C377.862 133.392 379.049 135.289 381.807 135.364C384.105 135.423 385.325 133.885 385.994 131.721C388.092 124.884 381.197 114.922 374.193 114.763L374.185 114.755ZM490.896 97.5556C490.896 90.1426 485.255 83.4985 479.296 83.5737C472.877 83.6489 466.576 90.3933 466.476 97.4971C466.426 100.873 465.698 105.261 470.613 105.612C475.042 105.93 475.092 102.06 475.176 98.7841C475.234 96.3438 475.46 93.9703 478.753 94.0288C482.079 94.0873 482.087 96.5778 482.162 98.9513C482.271 102.261 482.463 106.055 486.926 105.545C491.824 104.985 490.629 100.548 490.888 97.5639L490.896 97.5556ZM700.307 166.822C700.282 171.376 701.786 173.85 704.887 173.9C710.06 173.992 708.857 170.006 708.999 167.039C709.141 164.014 709.283 160.871 713.077 160.453C716.361 160.086 717.406 162.66 718.025 165.392C718.217 166.228 718.626 167.022 719.036 167.783C720.106 169.772 720.941 172.613 723.933 171.443C726.357 170.49 727.886 168.71 727.443 165.351C726.307 156.626 721.234 151.126 713.821 151.402C706.742 151.67 700.349 158.949 700.307 166.813V166.822ZM1038.96 366.212C1038.3 370.842 1039.58 375.188 1044.44 375.388C1050.41 375.639 1046.23 370.123 1047.61 367.558C1047.74 367.324 1047.66 366.981 1047.74 366.705C1048.4 364.524 1048.75 361.891 1051.36 361.306C1054.32 360.638 1054.25 363.295 1054.74 365.167C1055.28 367.24 1056.83 367.817 1058.7 367.558C1061.47 367.173 1062.54 364.85 1062.82 362.635C1063.42 357.821 1060.17 354.261 1057.11 351.536C1054.21 348.954 1049.64 349.489 1046.64 351.963C1042.27 355.565 1037.69 359.501 1038.95 366.22L1038.96 366.212ZM278.234 245.573C281.836 246.15 284.845 244.813 287.736 242.548C289.934 240.835 290.845 238.854 289.45 236.614C288.196 234.6 285.931 235.026 283.95 235.87C281.752 236.806 279.563 240.183 277.223 237.316C275.15 234.775 275.643 231.182 277.34 228.307C278.735 225.933 280.574 223.744 277.056 221.88C274.473 220.518 271.79 221.061 269.96 223.292C265.598 228.624 267.06 234.968 268.197 240.718C269.133 245.431 273.796 245.974 278.217 245.565L278.234 245.573ZM312.549 369.379C307.702 369.664 303.649 368.828 302.746 373.533C301.777 378.556 305.621 378.105 308.789 378.263C313.051 378.481 312.75 380.478 310.727 383.228C309.14 385.376 309.089 387.599 311.313 389.295C313.335 390.841 315.759 391.017 317.581 389.103C321.174 385.325 322.419 381.222 320.631 375.756C318.926 370.55 316.026 368.886 312.549 369.396V369.379ZM443.777 202.524C442.816 200.727 445.524 196.616 441.638 195.629C437.099 194.476 437.074 199.006 436.03 201.789C434.701 205.307 434.116 209.244 428.867 209.026C426.519 208.926 422.833 208.115 423.318 212.328C423.669 215.445 426.268 217.091 429.427 217.66C437.183 219.055 443.727 212.52 443.785 202.533L443.777 202.524Z" fill="#DBD9D7"/>
<path d="M1010.96 662.515C1010.43 662.707 1009.89 662.849 1009.33 662.933C1004 658.988 999.652 661.144 994.579 664.262C985.152 670.062 973.585 668.959 963.305 670.496C949.658 672.536 935.868 677.224 921.602 675.001C919.371 674.65 916.512 674.433 914.766 675.502C906.233 680.726 896.229 678.444 887.053 681.094C880.643 682.949 873.898 686.275 866.368 685.431C843.427 682.865 820.862 689.2 797.98 688.933C796.835 688.916 795.623 689.041 794.561 689.418C783.839 693.203 772.799 695.234 761.45 695.861C741.701 696.948 721.668 693.036 702.212 699.229L702.062 699.187C701.435 698.644 700.817 698.109 700.198 697.566C700.014 673.522 702.146 649.595 703.316 625.617C704.402 603.403 704.853 581.047 702.446 558.7C700.466 540.338 698.034 522.078 695.075 503.867C724.836 503.867 754.588 503.917 784.349 503.792C787.399 503.775 791.687 505.689 792.79 500.382C808.527 497.85 824.147 494.197 840.318 496.646C842.257 496.939 845.157 495.601 846.544 494.055C852.537 487.369 859.574 489.308 866.393 491.481C868.775 492.242 870.388 491.824 872.611 491.623C881.804 490.788 890.32 487.211 899.898 487.085C915.418 486.885 930.787 482.973 946.34 481.335C951.396 480.8 955.968 478.068 960.782 481.678C962.42 482.907 964.091 483.107 965.127 481.11C970.451 470.855 980.079 470.437 989.74 470.462C992.874 470.471 995.272 469.092 995.983 466.727C997.462 461.762 1000.92 461.888 1004.83 461.963C1010.93 462.08 1017.03 461.996 1023.13 461.996C1027.39 461.52 1030.5 457.024 1035.32 458.511C1035.73 484.578 1034.63 510.553 1031.96 536.502C1028.99 565.478 1025.64 594.31 1019.06 622.801C1016.02 635.905 1010.07 648.567 1010.96 662.515ZM942.646 615.43C950.151 610.925 945.989 604.481 944.986 598.899C944.476 596.066 929.023 590.583 926.934 591.787C926.466 592.054 926.015 592.555 925.823 593.048C923.449 599.149 918.577 602.166 911.882 603.821C919.045 602.693 916.997 611.502 922.104 611.953C922.488 614.627 921.376 618.188 925.747 618.605C931.673 619.165 938.225 622.859 942.654 615.43H942.646ZM984.742 496.855C984.776 493.763 980.898 492.543 981.224 489.183C981.566 485.706 980.906 482.656 976.259 482.965C972.465 483.224 968.913 481.987 966.556 487.578C964.718 491.924 964.292 496.345 962.879 500.616C962.035 503.165 963.03 505.873 965.236 506.416C968.253 507.151 969.749 504.285 970.501 501.752C970.986 500.139 970.652 498.292 970.785 496.562C971.003 493.855 969.925 490.002 974.488 490.236C978.984 490.462 977.312 494.415 977.797 496.997C977.797 499.32 977.797 501.644 977.789 503.976C971.797 508.58 974.931 513.127 977.889 517.665C978.081 520.356 976.694 524.251 980.973 524.518C987.074 524.894 994.194 526.983 997.989 519.712C1003.12 509.876 1002.03 504.469 995.44 498.894C992.005 495.986 988.302 497.44 984.734 496.872L984.742 496.855ZM736.929 657.451C738.843 660.417 733.126 667.137 741.083 666.727C743.013 666.627 745.654 664.981 747.994 664.07C754.998 661.328 756.535 648.659 750.785 643.552C749.365 639.883 746.657 635.939 742.93 637.602C738.392 639.633 731.831 640.243 730.561 646.77C729.549 651.968 732.023 655.553 736.929 657.451ZM799.802 567.04C799.81 579.51 800.863 580.68 812.079 580.663C820.085 580.654 827.69 573.593 827.632 566.221C827.565 558.073 820.545 552.716 810.064 552.816C801.682 552.9 799.793 555.515 799.802 567.04Z" fill="#FBCED0"/>
<path d="M1035.32 458.511C1030.5 457.024 1027.39 461.528 1023.13 461.996C1018.19 456.781 1015.87 452.193 1025.81 450.338C1026.19 450.263 1026.33 448.808 1026.58 447.998C1028.91 447.989 1030.06 446.803 1030.07 444.488C1034.15 440.225 1039.18 437.25 1044.05 434.066C1048.77 432.871 1057.06 437.969 1056.27 427.104C1058.22 425.792 1061.81 425.525 1061.02 422.24C1060.22 418.922 1056.85 420.51 1054.56 420.117C1054.3 415.304 1060.37 417.727 1061.49 413.732C1064.71 402.291 1073.45 394.594 1080.69 385.175C1083.13 388.969 1082.53 391.31 1080.81 393.984C1076.98 399.943 1078.68 403.052 1085.94 402.659C1085.2 405.743 1088.06 410.256 1082.46 411.392C1082.25 409.855 1082.95 407.924 1080.92 407.18C1080.58 407.055 1079.46 407.949 1079.31 408.526C1078.65 411.125 1079.54 412.863 1082.45 413.131C1080.68 416.482 1079.7 420.477 1075.48 421.873C1075.26 420.335 1075.97 418.404 1073.93 417.66C1073.59 417.535 1072.48 418.429 1072.34 419.006C1071.68 421.613 1072.57 423.343 1075.48 423.611C1077.41 426.887 1080.25 428.834 1082.64 424.848C1085.47 420.134 1089.8 417 1093.09 412.847C1097.22 415.37 1101.49 417.385 1106.53 416.482C1109.39 416.265 1113.25 418.12 1113.76 413.022L1113.74 413.047C1116.3 413.097 1117.39 411.793 1117.17 409.295C1117.19 408.25 1117.21 407.214 1117.22 406.169C1118.16 405.726 1119.8 405.434 1119.92 404.823C1120.33 402.851 1118.52 402.943 1117.22 402.684C1117.15 401.572 1117.07 400.469 1117 399.358C1122.62 398.188 1121.25 393.775 1120.27 390.624C1119.39 387.799 1116.43 386.98 1113.18 388.042C1111.08 388.727 1108.73 388.644 1106.5 388.911C1104.43 388.911 1102.36 388.911 1100.27 388.911C1098.99 388.852 1097.71 388.794 1096.43 388.735C1096.43 386.404 1096.43 384.072 1096.42 381.749C1097.55 381.54 1099.31 381.155 1098.93 380.044C1097.9 377.085 1095.04 378.698 1092.98 378.264C1090.34 377.712 1086.22 379.835 1085.36 376.542C1084.59 373.634 1085.44 369.823 1088.32 367.232C1091.29 364.558 1093.87 361.398 1098.17 360.805C1101.67 363.83 1102.93 360.855 1103.04 358.398C1103.23 354.077 1099.74 353.843 1096.47 353.835C1098.76 348.302 1103.06 348.461 1107.8 349.815C1109.48 350.3 1111.33 350.76 1112.7 349.397C1114.62 347.483 1112.91 345.845 1112.05 344.032C1109.39 338.432 1109.3 334.17 1117.51 335.524C1119.89 335.917 1121.32 334.596 1120.62 332.858C1117.77 325.796 1120.62 324.283 1127.24 324.283C1128.47 324.283 1132.96 323.665 1133.78 320.146C1131.79 318.308 1127.34 319.252 1128.09 314.823C1128.64 311.572 1131.43 312.474 1133.5 311.806C1135.63 311.12 1138.71 310.184 1139.33 308.571C1142.63 300.039 1151.62 300.465 1157.57 296.219C1166.82 303.189 1175.88 310.393 1182.3 320.222C1188.55 329.766 1197.29 339.243 1197.16 350.592C1196.98 366.948 1204.59 381.289 1206 397.31C1206.95 408.033 1208.03 419.666 1211.04 430.781C1214.02 441.838 1211.59 454.358 1211.53 466.233C1209.4 494.515 1198.98 520.172 1186.66 545.261C1166.82 585.627 1134.31 612.956 1096.1 634.86C1072.76 648.232 1048.91 659.64 1021.97 663.351C1020.53 663.551 1019.17 664.103 1017.83 663.125C1020.04 654.5 1022.3 645.884 1024.44 637.242C1033.26 601.648 1038.63 565.528 1040.62 528.905C1041.3 516.511 1041.14 504.009 1042.88 491.765C1044.97 476.989 1043.36 462.28 1044.05 447.563C1044.17 444.931 1043.29 442.916 1040.21 442.992C1037.52 443.058 1035.79 444.588 1035.6 447.246C1035.33 450.998 1035.4 454.776 1035.33 458.545L1035.32 458.511ZM1154.01 304.944C1155.02 304.234 1155.93 302.989 1154.5 302.42C1152.53 301.643 1152.53 303.624 1152.27 304.944C1148.26 304.56 1144.97 306.9 1144.89 310.168C1144.84 312.901 1149.32 313.661 1151.81 313.385C1158.92 312.6 1152.11 307.518 1154.01 304.944ZM1092.98 563.121C1097.95 571.628 1099.83 572.013 1106.11 565.803C1112.92 559.059 1113.97 551.136 1109.33 543.113C1105.36 536.235 1099.15 538.399 1093.32 538.926C1088.3 539.386 1089.72 543.121 1089.73 546.122C1085.93 552.724 1083.57 559.051 1092.99 563.121H1092.98ZM1152.32 336.393C1150.87 336.351 1149.31 336.644 1147.99 336.193C1142.99 334.504 1137.3 330.752 1137.88 340.981C1137.97 342.636 1136.19 343.154 1134.63 343.104C1132.52 343.037 1131.69 341.759 1131.38 339.786C1130.98 337.212 1132.29 334.128 1129.16 331.345C1126.87 336.727 1128.32 342.176 1125.01 346.715C1123.25 349.13 1126.69 350.517 1129.17 350.25C1136.9 349.406 1144.08 349.857 1148.82 357.262C1161.84 367.382 1171.18 353.517 1183.04 352.122C1177.21 350.851 1176.36 347.216 1176.57 342.444C1176.85 336.059 1173.28 333.226 1166.96 332.766C1161.56 332.373 1156.79 333.535 1152.32 336.385L1152.32 336.393ZM1148.82 441.905C1148.7 451.859 1151.37 454.901 1159.44 454.859C1164.59 454.834 1172.62 448.65 1172.75 444.621C1172.91 439.565 1166.92 433.865 1161.15 434.041C1155.26 434.225 1147.09 431.642 1148.82 441.905ZM1159.14 321.885C1160.52 321.55 1160.83 320.222 1160.82 318.726C1160.82 317.104 1160.06 315.801 1158.4 315.842C1156.13 315.893 1155.76 317.714 1155.96 319.528C1156.13 321.074 1156.95 322.169 1159.14 321.885ZM1151.25 323.874C1150.71 322.637 1149.62 322.42 1148.47 322.553C1147.39 322.679 1145.91 322.737 1146.27 324.375C1146.54 325.662 1147.84 325.855 1148.99 325.712C1150.07 325.579 1151.37 325.545 1151.25 323.874ZM1073.26 406.913C1073.05 407.389 1072.85 407.874 1072.65 408.35C1073.12 408.559 1073.71 409.027 1074.06 408.893C1074.4 408.76 1074.5 408.016 1074.71 407.531C1074.23 407.322 1073.75 407.122 1073.27 406.913H1073.26Z" fill="#FBCED0"/>
<path d="M151.101 483.04C151.026 482.388 150.943 481.736 150.867 481.093C152.405 479.714 151.979 478.109 151.686 476.312C149.931 465.431 149.923 454.558 151.762 443.643C155.639 420.56 162.935 398.413 169.337 375.982C175.914 352.932 184.589 330.76 193.365 308.571C194.451 305.822 195.855 303.256 199.357 303.039C201.538 308.396 207.714 304.718 210.347 307.543C215.604 313.184 224.203 316.561 224.095 326.222C224.078 327.801 225.173 329.189 226.744 329.097C237.366 328.453 235.887 335.624 234.658 342.836C240.667 339.326 243.877 340.764 244.846 346.815C244.846 347.985 244.846 349.146 244.846 350.316C242.523 350.316 240.199 350.316 237.876 350.316C230.371 351.578 236.012 357.236 234.575 360.579C233.898 362.15 235.294 363.78 237.366 364.047C239.857 364.373 241.085 363.162 241.361 360.78C246.961 359.643 244.094 355.13 244.854 352.055C246.025 352.055 247.186 352.055 248.356 352.055C253.187 361.089 260.825 367.758 267.762 375.012C270.963 378.364 275.033 380.996 270.294 386.429C268.381 388.618 268.414 392.22 271.113 395.003C273.579 392.964 275.743 391.167 277.858 389.42C280.541 391.059 276.813 394.552 280.699 395.906C284.652 397.285 283.649 399.591 280.273 401.021C278.451 401.789 276.955 403.544 277.808 404.957C279.103 407.105 281.309 406.01 282.989 404.706C288.321 400.569 289.692 403.202 290.461 408.567C290.92 411.76 290.728 414.685 290.511 417.827C290.285 421.028 287.954 425.692 293.712 427.096C294.071 429.929 292.55 433.949 297.732 433.832C299.336 433.798 300.414 432.712 300.448 431.115C300.556 425.934 296.545 427.455 293.712 427.096C293.946 420.259 302.629 420.418 302.629 421.312C302.587 428.575 309.791 431.333 311.312 437.35C312.533 442.197 313.769 447.295 320.088 448.892C321.483 449.243 326.28 450.889 323.397 455.026C321.65 455.026 319.904 455.026 318.149 455.026C313.109 454.123 312.115 455.118 311.17 462.004C306.666 462.681 305.512 459.288 303.883 456.229C302.487 453.622 301.71 449.251 297.732 450.354C293.712 451.474 296.027 455.736 295.509 458.595C295.308 459.698 295.475 460.868 295.475 462.013C291.505 462.055 287.527 462.096 283.558 462.138C280.875 462.029 279.73 463.358 279.997 465.982C279.939 466.985 279.889 467.98 279.83 468.983C274.323 472.501 274.264 475.995 279.889 479.455C280.064 481.527 281.201 482.647 283.265 482.839C287.912 488.664 292.567 488.648 297.222 482.848C299.294 482.655 300.406 481.511 300.607 479.446C301.802 479.446 303.005 479.446 304.2 479.446C304.568 482.488 306.365 483.307 309.089 482.488C310.786 481.979 311.17 480.508 310.936 479.037C310.243 474.691 306.49 476.488 304.008 475.736C304.008 474.641 304.016 473.546 304.025 472.451C313.293 473.688 310.869 466.91 311.187 462.004C312.349 462.004 313.51 462.004 314.672 462.004C314.58 465.648 314.237 469.476 319.795 468.983C319.26 475.593 317.672 482.321 318.391 488.798C320.731 509.834 320.614 531.02 321.116 552.038C321.976 587.858 327.476 622.725 335.499 657.4C330.117 655.678 325.996 650.697 320.121 650.622C308.872 650.472 299.696 644.154 289.449 641.086C278.953 637.944 270.879 628.325 258.744 629.587C258.744 629.587 258.786 629.62 258.786 629.612C258.644 627.372 259.421 623.461 257.24 623.427C249.175 623.319 245.891 616.106 240.066 613.156C225.607 605.818 214.768 594.736 204.112 583.028C200.895 579.492 199.081 573.467 192.621 573.634C180.101 558.825 170.273 542.494 164.515 523.857C165.209 517.665 161.673 512.324 160.437 506.558C158.707 498.509 156.041 490.16 151.151 483.04H151.101ZM210.272 423.418C212.353 423.402 214.425 423.385 216.506 423.377C225.131 425.123 226.995 416.916 226.485 413.089C225.783 407.79 224.003 400.578 216.03 399.157C209.962 398.079 207.806 403.244 203.845 405.341C197.652 408.617 199.181 413.064 199.875 416.941C200.778 421.973 204.823 424.421 210.272 423.427V423.418ZM210.063 523.105C210.013 532.407 212.403 535.148 220.56 535.148C227.254 535.148 233.831 528.746 233.973 522.086C234.065 517.439 226.418 511.121 220.643 511.079C212.578 511.02 210.104 513.82 210.063 523.105ZM290.126 604.857C289.909 610.933 289.383 616.298 297.665 615.63C303.69 615.145 311.045 608.91 310.769 603.344C310.418 596.224 305.646 595.029 299.487 594.494C290.436 593.7 289.274 598.556 290.135 604.857H290.126ZM307.125 489.918C307.685 489.241 308.538 488.648 308.471 488.171C308.396 487.628 307.552 486.868 306.967 486.792C305.838 486.642 304.727 487.185 305.078 488.572C305.212 489.099 306.265 489.383 307.117 489.918H307.125ZM221.479 339.368C220.994 339.159 220.409 338.674 220.058 338.817C219.707 338.959 219.607 339.702 219.39 340.187C219.874 340.396 220.459 340.881 220.802 340.747C221.153 340.605 221.262 339.861 221.471 339.376L221.479 339.368Z" fill="#FBCED0"/>
<path d="M1098.17 360.78C1093.87 361.373 1091.29 364.532 1088.32 367.207C1085.44 369.798 1084.6 373.608 1085.36 376.517C1086.23 379.81 1090.35 377.679 1092.98 378.238C1095.04 378.673 1097.91 377.06 1098.93 380.019C1099.31 381.13 1097.55 381.523 1096.42 381.724C1087.95 386.203 1085.87 393.892 1085.94 402.65C1078.68 403.043 1076.98 399.934 1080.81 393.975C1082.53 391.301 1083.13 388.961 1080.69 385.167C1073.45 394.586 1064.7 402.291 1061.49 413.724C1060.37 417.719 1054.3 415.295 1054.56 420.109C1054.77 422.524 1053.74 425.249 1056.27 427.096C1057.07 437.952 1048.77 432.854 1044.05 434.057C1044.07 432.921 1044.09 431.784 1044.11 430.639L1044.13 430.606C1044.69 430.038 1045.25 429.478 1045.8 428.909C1064.26 393.7 1086.08 360.621 1109.9 328.871C1121.12 313.928 1134.87 301.376 1150.73 291.447C1155.31 288.572 1156.6 285.839 1155.22 280.883C1145.48 245.891 1133.3 211.801 1117.41 179.107C1114.24 172.597 1110.39 166.429 1106.85 160.102C1107.05 156.425 1108.52 154.085 1112.68 154.595C1121.04 157.612 1126.93 164.172 1133.65 169.488C1155.12 186.478 1171.38 207.472 1181.38 233.121C1182.54 236.088 1184.12 238.896 1183.66 242.239C1183.61 256.329 1191.9 268.782 1191.73 282.923C1191.73 283.257 1193.2 283.608 1193.99 283.959C1194.04 285.121 1194.1 286.282 1194.15 287.444C1191.32 296.712 1191.61 306.006 1193.98 315.307C1193.94 317.088 1193.91 318.868 1193.89 320.639C1191.63 318.024 1189.19 315.541 1187.16 312.758C1182.19 305.939 1176.65 299.537 1170.08 294.355C1166.09 291.221 1160.38 286.558 1157.56 296.161C1151.61 300.398 1142.62 299.98 1139.32 308.513C1138.69 310.126 1135.62 311.062 1133.5 311.747C1131.42 312.416 1128.63 311.513 1128.08 314.764C1127.34 319.185 1131.78 318.249 1133.77 320.088C1132.95 323.606 1128.46 324.225 1127.23 324.225C1120.62 324.225 1117.76 325.737 1120.61 332.799C1121.31 334.538 1119.89 335.858 1117.5 335.465C1109.29 334.12 1109.38 338.374 1112.04 343.973C1112.9 345.787 1114.61 347.425 1112.69 349.339C1111.32 350.701 1109.48 350.241 1107.79 349.757C1103.05 348.403 1098.75 348.252 1096.46 353.776C1097.03 356.1 1097.59 358.423 1098.16 360.746L1098.17 360.78ZM1169.67 255.978C1169.94 250.688 1167.69 246.309 1162.96 246.342C1157.68 246.384 1156.09 251.139 1155.79 256.271C1155.48 261.904 1158.22 262.957 1163.09 263.082C1168.73 263.224 1170.22 260.533 1169.66 255.978H1169.67Z" fill="#FBCED0"/>
<path d="M258.703 629.587C270.846 628.325 278.911 637.944 289.408 641.087C299.654 644.154 308.83 650.472 320.079 650.623C325.955 650.698 330.075 655.679 335.457 657.4C339.343 657.693 342.143 661.295 346.238 660.927C347.976 660.977 349.84 660.643 351.445 661.145C367.023 666.075 382.918 667.964 399.274 668.131C412.637 668.265 425.909 668.407 439.473 670.455C455.97 672.945 473.145 673.137 490.002 674.817C497.189 675.536 505.271 673.263 511.58 675.77C528.128 682.347 545.645 683.434 562.644 684.737C581.749 686.208 600.695 691.415 620.084 688.933C620.928 688.824 621.998 688.791 622.65 689.209C633.423 696.154 646.084 690.955 657.851 695.042C667.897 698.527 680.082 695.853 691.323 695.903C694.281 696.454 697.24 697.014 700.198 697.566C700.825 698.109 701.443 698.644 702.07 699.187C680.358 699.797 658.704 699.204 637.092 696.714C612.646 693.897 588.151 691.515 563.722 688.582C540.163 685.749 516.703 681.946 493.111 679.506C465.757 676.681 438.395 673.948 410.907 672.36C388.167 671.04 365.084 672.176 343.037 664.253C317.48 655.069 290.879 648.692 266.801 635.596C263.859 633.991 260.015 633.457 258.703 629.595V629.587Z" fill="#FBCED0"/>
<path d="M241.562 174.469C239.33 180.495 236.221 185.935 231.082 189.997C230.538 175.581 225.691 172.63 213.514 179.316C202.023 180.177 209.035 190.833 205.424 195.563C201.664 195.764 204.246 189.704 200.502 191.167C198.63 191.894 199.649 194.802 199.44 196.733C193.156 198.538 191.969 203.252 192.47 208.926C191.885 209.511 191.292 210.105 190.707 210.69C185.166 221.011 174.301 228.675 175.02 242.114C170.357 242.707 171.861 246.359 171.56 249.117C171.552 250.27 171.544 251.432 171.527 252.585C167.808 253.296 166.972 254.959 169.78 257.842C168.117 260.517 167.858 263.475 168.017 266.517C166.529 266.785 164.741 267.37 164.858 268.932C165.451 277.156 162.15 284.77 161.406 292.659C160.905 297.974 157.052 301.71 157.344 307.335C157.954 319.144 159.701 331.504 150.625 341.541C148.703 340.396 148.987 338.499 148.987 336.694C149.112 335.382 149.229 334.07 149.346 332.758C150.993 331.187 150.583 329.214 150.408 327.284C155.029 265.197 173.324 208.776 218.345 163.454C220.15 161.64 222.34 160.203 224.345 158.59C228.248 160.253 227.764 156.4 229.092 154.812L229.067 154.829C231.683 154.879 234.366 155.013 234.174 151.16L234.149 151.194C241.779 152.155 244.671 146.254 248.314 141.432C248.849 141.24 249.384 141.039 249.927 140.847C254.7 140.446 257.708 141.374 255.51 147.266C254.858 149.004 255.36 151.177 255.335 153.149C254.833 153.768 254.323 154.378 253.822 154.996C250.671 154.637 250.838 156.258 251.808 158.356C244.562 161.281 243.083 167.883 241.545 174.452L241.562 174.469Z" fill="#FBCED0"/>
<path d="M1035.32 458.511C1035.4 454.742 1035.32 450.973 1035.59 447.212C1035.77 444.554 1037.5 443.033 1040.2 442.958C1043.29 442.883 1044.15 444.897 1044.04 447.53C1043.35 462.247 1044.97 476.956 1042.87 491.732C1041.13 503.975 1041.28 516.478 1040.61 528.872C1038.62 565.494 1033.25 601.606 1024.43 637.209C1022.29 645.85 1020.03 654.458 1017.82 663.092C1015.54 662.899 1013.25 662.707 1010.97 662.515C1010.07 648.575 1016.03 635.913 1019.07 622.801C1025.66 594.31 1028.99 565.477 1031.97 536.502C1034.64 510.553 1035.74 484.578 1035.33 458.511H1035.32Z" fill="#FBCED0"/>
<path d="M199.348 303.039C195.855 303.256 194.443 305.822 193.356 308.571C184.581 330.768 175.898 352.941 169.329 375.982C162.927 398.413 155.631 420.56 151.753 443.643C149.923 454.558 149.923 465.431 151.678 476.312C151.97 478.101 152.388 479.705 150.859 481.093C147.742 473.387 146.939 465.297 146.889 457.073C146.948 446.485 147.015 435.904 147.073 425.324V425.349C153.174 418.563 149.43 410.23 150.608 402.675C153.107 400.352 153.291 397.017 154.277 394.059C165.167 361.231 173.365 327.442 189.077 296.336C191.518 296.177 193.248 294.999 194.225 292.742C195.964 292.717 197.702 292.684 199.44 292.659L199.541 292.776C199.474 296.202 199.415 299.62 199.348 303.047V303.039Z" fill="#FBCED0"/>
<path d="M702.212 699.237C721.668 693.036 741.701 696.956 761.45 695.869C772.799 695.243 783.839 693.22 794.561 689.426C795.631 689.05 796.843 688.933 797.98 688.941C820.862 689.208 843.427 682.874 866.368 685.439C873.907 686.283 880.651 682.949 887.053 681.102C896.229 678.452 906.233 680.734 914.766 675.511C916.512 674.441 919.371 674.658 921.602 675.009C935.868 677.224 949.649 672.535 963.305 670.505C973.585 668.975 985.152 670.07 994.579 664.27C999.652 661.153 1004 658.997 1009.33 662.941C999.51 669.803 987.717 670.714 976.602 672.469C924.519 680.701 872.227 687.286 819.709 692.309C788.285 695.309 757.154 701.577 725.404 700.892C717.665 700.725 709.767 702.162 702.212 699.246V699.237Z" fill="#FBCED0"/>
<path d="M1157.56 296.186C1160.39 286.583 1166.09 291.238 1170.08 294.38C1176.65 299.562 1182.18 305.964 1187.16 312.783C1189.19 315.566 1191.63 318.048 1193.89 320.664C1202.03 358.273 1211.96 395.563 1213.48 434.333C1213.9 445.064 1213.5 455.678 1211.51 466.225C1211.57 454.341 1214 441.821 1211.02 430.764C1208.02 419.649 1206.93 408.016 1205.99 397.293C1204.57 381.272 1196.96 366.931 1197.15 350.575C1197.27 339.218 1188.53 329.749 1182.29 320.205C1175.86 310.376 1166.8 303.172 1157.56 296.202L1157.56 296.186Z" fill="#FBCED0"/>
<path d="M192.571 573.634C199.031 573.467 200.845 579.493 204.062 583.028C214.718 594.745 225.557 605.827 240.016 613.156C245.841 616.107 249.125 623.327 257.19 623.428C259.371 623.453 258.594 627.372 258.736 629.612C242.372 623.77 228.833 613.432 216.389 601.79C207.422 593.391 197.46 585.577 192.571 573.626V573.634Z" fill="#FBCED0"/>
<path d="M150.608 402.675C149.43 410.23 153.174 418.554 147.073 425.349C147.232 398.271 147.374 371.185 147.591 344.107C147.608 341.608 146.923 338.858 148.995 336.702C148.995 338.507 148.711 340.404 150.633 341.549C150.625 361.925 150.617 382.3 150.608 402.684V402.675Z" fill="#FBCED0"/>
<path d="M255.351 153.157C255.376 151.185 254.883 149.012 255.527 147.274C257.725 141.373 254.716 140.454 249.944 140.855C254.624 136.2 260.633 134.328 266.793 132.807C266.249 141.44 260.082 146.898 255.351 153.157Z" fill="#FBCED0"/>
<path d="M1193.99 283.967C1193.2 283.624 1191.73 283.265 1191.73 282.931C1191.91 268.79 1183.62 256.338 1183.66 242.247C1189.69 255.51 1193.81 269.25 1193.99 283.959V283.967Z" fill="#FBCED0"/>
<path d="M151.101 483.04C155.999 490.161 158.656 498.51 160.386 506.558C161.632 512.324 165.167 517.665 164.465 523.858C156.96 511.255 153.709 497.256 151.093 483.04H151.101Z" fill="#FBCED0"/>
<path d="M1112.68 154.612C1108.52 154.11 1107.05 156.442 1106.85 160.119C1102.18 155.857 1098.64 150.851 1096.87 144.708C1102.52 147.407 1109.49 147.992 1112.68 154.612Z" fill="#FBCED0"/>
<path d="M1193.98 315.324C1191.61 306.022 1191.32 296.729 1194.15 287.46C1196.2 296.762 1195.6 306.047 1193.98 315.324Z" fill="#FBCED0"/>
<path d="M248.331 141.44C244.687 146.263 241.787 152.163 234.166 151.202C237.843 146.43 242.172 142.61 248.331 141.44Z" fill="#FBCED0"/>
<path d="M147.081 425.324C147.023 435.905 146.956 446.493 146.898 457.074C144.541 446.477 144.148 435.888 147.081 425.324Z" fill="#FBCED0"/>
<path d="M229.109 154.82C227.789 156.4 228.274 160.261 224.362 158.598C224.412 155.414 226.761 155.113 229.109 154.82Z" fill="#FBCED0"/>
<path d="M234.191 151.168C234.374 155.021 231.7 154.887 229.084 154.837C230.179 152.765 231.867 151.528 234.191 151.168Z" fill="#FBCED0"/>
<path d="M150.424 327.284C150.591 329.214 151.001 331.187 149.363 332.758C148.77 330.744 149.012 328.905 150.424 327.284Z" fill="#FBCED0"/>
<path d="M344.75 329.08C352.113 323.372 357.972 315.566 365.025 309.123C379.116 296.252 395.856 287.636 411.651 277.457C434.718 262.597 460.918 255.335 486.383 246.367C497.515 242.448 509.157 239.84 520.707 237.291C525.604 236.205 527.518 234.307 527.61 229.268C527.944 211.692 528.964 194.134 529.164 176.558C529.449 151.402 530.151 126.196 528.855 101.107C528.245 89.3988 529.148 77.2889 525.479 65.8059C524.267 62.0033 524.1 58.4514 528.579 57.507C533.644 56.4372 532.507 61.4433 533.527 64.0174C538.257 75.91 536.611 88.6884 537.53 100.957C539.093 121.775 539.319 142.911 537.572 163.704C535.842 184.347 537.146 204.898 536.193 225.457C535.926 231.182 536.594 233.221 543.815 232.143C581.356 226.527 619.115 223.384 657.158 224.596C689.375 225.624 721.058 219.933 752.9 216.339C760.656 215.462 768.587 216.155 776.426 215.896C788.452 215.503 789.263 214.601 789.263 202.984C789.271 180.01 788.569 157.01 789.472 134.069C790.592 105.813 793.742 77.7068 801.415 50.3113C802.342 47.0101 803.445 43.4164 807.198 44.0767C811.385 44.8121 810.599 49.2415 810.081 52.1165C808.702 59.7384 806.721 67.2601 804.95 74.8151C800.453 94.0204 797.963 113.46 797.988 133.208C798.021 157.344 798.264 181.489 797.796 205.617C797.67 211.968 799.877 214.651 805.677 215.311C812.555 216.097 819.425 217.175 826.328 217.618C856.306 219.54 884.888 227.438 913.286 236.731C933.102 243.216 951.455 252.652 969.924 261.937C974.011 263.993 977.739 266.834 981.458 269.559C985.486 272.509 986.455 270.67 986.455 266.742C986.455 256.856 986.263 246.961 986.514 237.082C987.249 208.283 994.621 181.698 1013.29 159.016C1013.84 158.347 1014.28 157.361 1014.99 157.069C1018.87 155.456 1022.15 148.377 1026.59 153.124C1030.55 157.361 1023.83 159.584 1021.6 162.35C1008.07 179.149 999.376 197.702 996.676 219.465C994.478 237.191 995.966 254.833 995.122 272.484C994.871 277.741 996.534 281.259 1000.38 285.221C1012.88 298.066 1025.74 310.702 1035.4 326.021C1038.75 331.32 1040.95 333.777 1047.3 327.534C1066.3 308.822 1087.6 292.893 1113.07 283.817C1120.28 281.243 1127.8 278.576 1135.79 278.811C1138.33 278.886 1141.4 278.351 1141.54 282.296C1141.66 285.471 1139.85 287.084 1136.81 287.41C1106.6 290.636 1083.86 307.861 1061.48 326.489C1037.97 346.054 1022.6 371.126 1009.79 398.129C1005.95 406.219 1005.39 415.42 1003.4 424.129C1001.98 430.313 1005.52 429.051 1008.62 428.048C1011.64 427.079 1014.34 425.073 1017.36 424.17C1019.99 423.385 1023.56 422.307 1024.55 426.385C1025.38 429.778 1023 431.049 1019.91 432.436C988.929 446.351 955.809 451.474 922.697 456.814C890.747 461.963 858.629 465.205 826.336 467.512C789.99 470.111 753.769 474.24 717.264 474.357C712.116 474.373 707.085 476.27 701.769 476.061C696.07 475.844 688.933 473.847 688.999 483.834C689.008 485.53 686.943 487.494 684.654 487.494C682.079 487.494 681.127 485.405 681.21 483.299C681.444 477.591 677.8 477.532 673.739 477.683C647.446 478.669 621.221 480.717 594.97 482.505C581.448 483.424 567.817 483.357 554.145 481.903C539.227 480.315 524.175 479.772 509.274 477.733C485.84 474.524 462.414 471.147 438.93 468.364C424.179 466.618 410.464 461.01 396.056 458.11C386.387 456.163 377.72 451.065 370.976 444.93C363.496 438.119 356.844 441.111 349.497 442.022C348.946 442.089 348.444 442.507 347.909 442.724C343.296 444.562 336.652 447.295 335.047 441.654C333.292 435.495 340.856 436.439 345.026 435.294C349.715 434.007 356.576 433.932 358.482 430.848C361.022 426.745 354.813 422.532 352.799 418.162C339.009 388.301 324.124 359.033 304.794 332.248C287.803 308.705 266.726 290.461 238.729 281.309C233.856 279.713 228.491 279.655 223.41 278.643C220.693 278.1 216.816 277.741 217.534 273.838C218.128 270.62 221.696 269.776 224.613 270.261C239.497 272.718 253.939 276.621 267.035 284.468C292.107 299.478 308.972 322.21 324.358 346.154C327.2 350.575 327.735 350.149 330.576 346.606C335.382 340.613 334.847 333.225 335.181 326.707C336.351 303.874 339.485 281.226 339.452 258.243C339.418 235.636 338.532 213.305 333.359 191.367C329.64 175.588 321.768 161.983 308.864 151.494C306.156 149.288 300.072 146.304 303.691 142.226C307.067 138.423 311.505 142.811 314.864 145.535C335.156 161.983 342.068 185.108 345.854 209.411C349.355 231.867 348.11 254.616 347.525 277.214C347.116 293.327 346.397 309.549 342.937 325.445C342.686 326.606 342.669 327.718 344.709 329.097L344.75 329.08ZM678.745 231.533C648.683 234.099 618.463 232.444 588.427 235.202C574.929 236.439 561.432 237.918 548.002 239.723C519.537 243.551 492.801 253.78 465.69 262.547C436.247 272.074 409.905 287.745 384.139 304.501C363.555 317.89 349.514 337.571 334.178 356.041C332.323 358.281 332.791 359.76 334.045 362.15C343.898 380.996 353.434 400.018 363.237 418.889C366.647 425.458 368.845 432.478 375.246 437.618C389.396 448.975 406.319 452.803 423.143 456.572C447.371 462.004 472.192 464.01 496.763 467.453C519.085 470.587 541.45 473.446 563.965 474.056C585.953 474.649 607.866 473.68 629.871 471.197C656.481 468.197 683.509 469.075 710.244 466.944C724.744 465.782 739.311 466.835 753.644 465.097C781.215 461.745 808.986 461.344 836.582 458.536C846.636 457.516 856.682 456.438 866.761 455.695C886.083 454.265 905.138 450.922 924.243 447.981C941.885 445.265 959.294 441.044 976.794 437.885C991.595 435.211 994.696 428.884 996.71 415.028C1000.14 391.334 1012.1 370.575 1027.26 351.72C1030.3 347.934 1037.67 343.421 1032.83 336.635C1011.51 306.766 987.375 279.889 953.962 262.756C932.475 251.741 909.818 243.718 886.777 237.283C867.413 231.867 847.38 228.716 827.373 225.582C802.367 221.663 777.638 222.992 752.925 225.206C728.195 227.421 703.591 231.048 678.728 231.541L678.745 231.533Z" fill="#BDBDBD"/>
<path d="M199.348 303.039C199.407 299.612 199.474 296.194 199.541 292.768C212.453 301.794 222.666 313.72 233.463 324.935C263.533 356.167 288.689 391.535 311.797 427.798C333.735 462.222 367.29 473.229 402.483 482.948C474.031 502.705 547.492 500.306 620.477 498.083C671.683 496.521 722.763 491.932 774.119 490.888C830.214 489.751 886.509 486.099 941.86 475.56C966.055 470.955 989.297 462.372 1011.13 450.522C1013.13 449.435 1015.32 448.675 1017.43 447.764C1020.48 447.839 1023.54 447.914 1026.59 447.989C1026.34 448.8 1026.2 450.254 1025.82 450.329C1015.87 452.185 1018.2 456.773 1023.14 461.988C1017.03 461.988 1010.94 462.071 1004.84 461.954C1000.93 461.879 997.47 461.754 995.991 466.718C995.289 469.083 992.89 470.462 989.748 470.454C980.079 470.429 970.459 470.847 965.136 481.101C964.099 483.107 962.428 482.906 960.79 481.67C955.976 478.051 951.404 480.792 946.348 481.327C930.795 482.965 915.426 486.876 899.906 487.077C890.329 487.202 881.821 490.779 872.619 491.615C870.396 491.815 868.775 492.233 866.401 491.473C859.582 489.3 852.545 487.361 846.553 494.047C845.165 495.593 842.265 496.93 840.326 496.638C824.155 494.189 808.527 497.841 792.798 500.373C793.441 493.612 789.931 491.464 784.541 494.515C780.362 496.88 776.317 496.855 772.03 496.863C754.045 496.897 736.06 496.813 718.075 496.947C715.459 496.964 712.375 495.702 708.539 500.373H792.79C791.686 505.68 787.399 503.766 784.349 503.783C754.588 503.917 724.836 503.858 695.075 503.858C692.158 503.524 689.25 501.443 686.333 503.867C678.318 499.989 670.479 498.844 662.122 503.566C659.882 504.836 655.904 504.744 653.221 502.162C650.839 499.864 646.978 499.178 645.516 501.51C640.292 509.817 632.353 506.733 625.257 507.36C624.163 502.062 619.875 503.967 616.833 503.95C592.304 503.808 567.775 503.875 543.238 503.875C540.923 503.783 537.99 504.56 536.393 503.441C529.875 498.869 522.428 502.421 515.667 500.507C514.43 500.156 512.266 499.462 511.48 502.02C509.667 507.92 509.6 507.903 502.37 505.973C501.994 502.805 507.794 504.627 506.608 500.892C491.957 498.033 477.257 505.02 462.631 500.449C461.871 500.215 460.65 500.281 460.099 500.749C454.316 505.689 447.404 503.574 440.935 503.783C435.094 503.967 426.218 506.29 434.041 493.621C429.544 495.167 426.669 497.415 423.819 493.487C419.482 487.52 413.983 488.991 408.768 492.643C406.653 494.13 403.937 496.863 402.399 493.261C398.722 484.661 390.056 485.23 383.62 483.349C368.544 478.937 353.601 474.858 341.875 463.726C337.521 459.589 332.665 457.909 326.849 458.486C325.687 457.324 324.525 456.163 323.364 454.993C326.247 450.856 321.45 449.209 320.054 448.858C313.736 447.271 312.507 442.164 311.279 437.317C309.758 431.3 302.562 428.542 302.596 421.279C302.596 420.385 293.912 420.226 293.678 427.062C287.92 425.658 290.252 420.987 290.477 417.786C290.695 414.643 290.887 411.718 290.427 408.526C289.65 403.16 288.288 400.528 282.956 404.665C281.268 405.968 279.07 407.063 277.774 404.915C276.922 403.503 278.418 401.756 280.24 400.979C283.616 399.55 284.619 397.235 280.666 395.864C276.78 394.51 280.507 391.017 277.824 389.379C275.718 391.126 273.545 392.922 271.08 394.962C268.38 392.179 268.347 388.577 270.261 386.387C275 380.955 270.921 378.314 267.729 374.971C260.8 367.717 253.162 361.047 248.323 352.013C248.331 349.481 248.356 346.94 244.821 346.781C243.852 340.722 240.642 339.293 234.633 342.803C235.862 335.591 237.341 328.429 226.719 329.064C225.148 329.156 224.053 327.768 224.07 326.189C224.187 316.528 215.579 313.143 210.322 307.51C207.689 304.685 201.513 308.354 199.332 303.005L199.348 303.039Z" fill="#FBCED0"/>
<path d="M199.44 292.651C197.702 292.676 195.964 292.709 194.225 292.734C193.64 292.149 193.055 291.564 192.479 290.979C192.195 282.145 190.389 280.474 180.737 284.619C174.661 287.227 173.24 284.937 171.535 280.516L171.828 280.223C189.896 281.569 193.381 280.382 192.378 263.166C193.373 263.651 194.66 263.885 195.295 264.662C197.426 267.269 193.774 275.083 200.569 272.793C206.402 270.821 199.674 266.843 199.365 263.625C198.981 259.672 202.031 254.608 195.095 252.042C190.707 250.421 186.687 248.791 182.015 249.1C182.015 246.443 182.015 243.476 185.133 242.699C188.71 241.813 192.596 241.052 195.83 243.802C198.63 246.184 202.065 246.501 204.655 244.846C208.057 242.673 205.708 240.066 203.878 237.651C202.073 235.26 204.447 233.547 205.374 231.516C206.636 228.75 210.606 226.711 209.035 223.268C206.344 217.359 210.322 214.309 213.422 210.715H220.2C213.205 224.396 208.784 238.879 206.803 254.106C206.502 256.396 206.16 258.845 206.645 261.051C208.4 269.033 207.84 277.908 204.154 284.201C202.884 286.366 197.702 288.505 199.432 292.659L199.44 292.651Z" fill="#FBCED0"/>
<path d="M695.15 46.7428C695.284 46.2665 695.694 44.2941 696.421 42.4471C697.424 39.9232 698.911 37.533 702.154 38.3938C705.296 39.2296 705.839 41.8872 705.254 44.6619C704.728 47.1691 703.09 49.8852 706.6 51.331C709.717 52.6097 711.071 50.2697 712.768 48.08C719.002 40.0569 718.894 40.2909 725.12 47.9797C727.811 51.306 730.109 48.7319 731.513 46.0575C733.101 43.0405 734.372 38.469 738.617 41.1935C742.202 43.4918 739.737 47.0521 738.049 50.3449C735.717 54.8829 732.976 57.7746 727.577 57.6242C721.117 57.4403 714.974 58.2927 708.572 60.2484C700.273 62.789 694.699 56.989 695.142 46.7428H695.15Z" fill="#BDBDBD"/>
<path d="M854.041 125.102C850.406 125.402 847.748 124.182 845.374 122.502C842.625 120.547 840.251 117.73 842.466 114.471C844.296 111.78 846.687 113.71 849.16 115.073C855.019 118.307 859.54 116.226 860.643 109.657C861.63 103.799 862.683 100.807 869.369 104.576C876.506 108.596 877.534 103.08 878.344 97.7813C878.963 93.753 876.238 86.34 883.442 87.6772C888.825 88.6801 888.808 95.1738 887.42 100.773C885.465 108.663 881.178 113.819 873.054 114.504C868.984 114.847 866.911 116.97 864.622 119.644C861.73 123.012 858.454 125.896 854.041 125.102Z" fill="#BDBDBD"/>
<path d="M597.461 131.905C596.166 137.63 591.636 141.741 585.66 144.416C580.554 146.689 575.815 145.243 572.539 141.073C568.753 136.242 567.809 130.726 571.353 125.085C572.564 123.155 573.35 120.89 574.804 119.185C577.387 116.168 580.838 115.115 583.788 118.307C586.471 121.216 584.407 123.556 581.607 125.236C577.604 127.651 576.484 131.738 579.501 134.596C582.175 137.137 585.184 134.019 587.248 131.437C588.326 130.083 589.48 128.779 590.691 127.551C591.92 126.305 593.307 125.052 595.221 125.645C597.829 126.456 597.16 128.821 597.461 131.905Z" fill="#BDBDBD"/>
<path d="M313.184 189.813C323.899 190.482 322.419 201.438 327.267 207.088C330.885 211.3 326.155 215.529 322.954 218.88C321.467 220.434 319.753 221.588 317.706 219.716C316.235 218.379 314.179 216.983 315.55 214.66C320.28 206.628 308.797 207.806 308.788 202.533C304.819 203.92 301.935 202.725 302.896 198.346C304.008 193.315 306.933 189.253 313.176 189.805L313.184 189.813Z" fill="#BDBDBD"/>
<path d="M928.856 169.053C929.274 165.518 927.837 160.395 933.561 160.612C938.45 160.796 937.815 165.468 937.531 168.777C936.804 177.243 941.509 175.43 945.872 173.132C948.621 171.677 950.886 169.262 951.714 165.894C952.449 162.885 954.614 161.473 957.564 162.108C961.216 162.894 960.773 166.312 960.13 168.493C957.723 176.667 951.413 180.586 943.707 183.486C937.556 185.801 934.606 182.425 931.079 178.873C928.196 175.965 929.149 172.413 928.856 169.053Z" fill="#BDBDBD"/>
<path d="M1052.46 233.413C1043.02 233.355 1039.57 228.257 1042.37 219.824C1044.02 214.893 1047.23 211.274 1051.23 208.333C1053.5 206.67 1056.11 206.553 1058.05 209.285C1059.94 211.951 1059.45 213.915 1056.69 215.779C1053.8 217.726 1048.12 220.309 1050.95 223.51C1054.42 227.438 1057.69 221.796 1060.67 219.406C1062.55 217.894 1064.23 214.726 1067.07 217.676C1069.14 219.832 1068.73 222.223 1066.79 224.646C1062.88 229.519 1058.96 234.098 1052.45 233.405L1052.46 233.413Z" fill="#BDBDBD"/>
<path d="M374.185 114.755C381.189 114.914 388.083 124.876 385.986 131.712C385.326 133.877 384.105 135.423 381.799 135.356C379.041 135.281 377.854 133.384 377.52 130.81C377.135 127.86 377.921 123.288 373.04 124.442C369.321 125.319 368.143 128.729 369.739 132.824C370.734 135.365 372.004 139.309 368.36 140.229C364.29 141.257 362.71 137.638 361.708 134.011C358.632 122.887 363.972 114.513 374.177 114.747L374.185 114.755Z" fill="#BDBDBD"/>
<path d="M220.2 210.706C217.944 210.706 215.679 210.706 213.422 210.706C209.185 208.926 204.981 210.038 200.878 211.107C198.413 211.751 196.315 212.662 195.964 208.951C196.047 204.572 206.436 203.118 199.441 196.724C199.649 194.794 198.63 191.885 200.502 191.158C204.254 189.696 201.664 195.747 205.424 195.554C209.035 190.824 202.015 180.168 213.514 179.308C215.044 183.804 209.486 190.139 217.083 193.047L217.116 193.072L216.949 196.658C216.933 197.844 216.924 199.039 216.907 200.226C214.333 200.627 210.773 199.023 210.163 203.419C210.013 204.497 210.138 206.252 211.55 206.009C214.175 205.55 215.863 203.594 216.774 201.079C216.866 200.811 216.866 200.519 216.916 200.235H220.443C220.543 203.126 220.643 206.018 220.744 208.909C220.568 209.511 220.384 210.105 220.209 210.706H220.2Z" fill="#FBCED0"/>
<path d="M490.896 97.5474C490.637 100.531 491.832 104.969 486.935 105.529C482.472 106.038 482.271 102.244 482.171 98.9347C482.096 96.5612 482.087 94.0791 478.761 94.0122C475.468 93.9537 475.243 96.3272 475.184 98.7676C475.109 102.044 475.05 105.913 470.621 105.596C465.707 105.245 466.434 100.857 466.484 97.4805C466.584 90.3768 472.886 83.6324 479.304 83.5571C485.255 83.4903 490.904 90.1344 490.904 97.539L490.896 97.5474Z" fill="#BDBDBD"/>
<path d="M700.299 166.814C700.349 158.958 706.742 151.67 713.813 151.402C721.217 151.127 726.298 156.626 727.435 165.351C727.87 168.711 726.349 170.491 723.925 171.443C720.933 172.614 720.097 169.772 719.028 167.783C718.618 167.022 718.2 166.22 718.016 165.393C717.398 162.66 716.353 160.086 713.069 160.454C709.274 160.871 709.141 164.014 708.99 167.039C708.848 169.998 710.052 173.992 704.878 173.901C701.778 173.842 700.274 171.377 700.299 166.822V166.814Z" fill="#BDBDBD"/>
<path d="M1038.95 366.204C1037.69 359.493 1042.27 355.548 1046.64 351.946C1049.64 349.481 1054.21 348.937 1057.11 351.52C1060.16 354.244 1063.41 357.805 1062.82 362.619C1062.54 364.833 1061.47 367.157 1058.7 367.541C1056.83 367.8 1055.28 367.223 1054.74 365.151C1054.24 363.287 1054.32 360.629 1051.36 361.29C1048.75 361.875 1048.4 364.516 1047.74 366.689C1047.66 366.964 1047.74 367.299 1047.61 367.541C1046.23 370.098 1050.41 375.623 1044.44 375.372C1039.58 375.163 1038.3 370.825 1038.96 366.195L1038.95 366.204Z" fill="#BDBDBD"/>
<path d="M278.234 245.573C273.813 245.975 269.141 245.44 268.213 240.726C267.077 234.976 265.614 228.633 269.977 223.301C271.807 221.07 274.49 220.526 277.072 221.889C280.591 223.744 278.752 225.942 277.356 228.315C275.66 231.19 275.167 234.784 277.239 237.325C279.579 240.191 281.761 236.815 283.967 235.879C285.948 235.035 288.213 234.617 289.466 236.623C290.862 238.862 289.951 240.852 287.753 242.556C284.853 244.813 281.844 246.158 278.251 245.582L278.234 245.573Z" fill="#BDBDBD"/>
<path d="M312.549 369.371C316.026 368.861 318.926 370.525 320.631 375.731C322.419 381.197 321.174 385.309 317.581 389.078C315.759 390.992 313.335 390.816 311.312 389.27C309.089 387.574 309.14 385.359 310.727 383.203C312.75 380.462 313.051 378.456 308.789 378.238C305.621 378.08 301.785 378.539 302.746 373.508C303.649 368.803 307.702 369.639 312.549 369.355V369.371Z" fill="#BDBDBD"/>
<path d="M217.083 193.056C209.478 190.139 215.035 183.804 213.514 179.316C225.691 172.63 230.547 175.58 231.09 189.997C230.162 197.686 223.543 202.257 220.743 208.918C220.643 206.026 220.543 203.135 220.443 200.243C220.426 197.936 219.197 196.808 216.958 196.666C217.016 195.471 217.066 194.276 217.125 193.081C219.682 193.039 222.281 193.264 224.797 192.888C227.488 192.487 228.474 190.097 228.349 187.79C228.198 185.116 226.936 182.751 223.635 182.843C221.228 182.91 218.036 181.882 217.283 185.392C216.757 187.849 217.125 190.49 217.1 193.047L217.083 193.056Z" fill="#FBCED0"/>
<path d="M443.777 202.524C443.718 212.511 437.175 219.047 429.419 217.651C426.268 217.083 423.669 215.445 423.31 212.319C422.833 208.107 426.511 208.918 428.859 209.018C434.107 209.235 434.701 205.299 436.021 201.781C437.074 198.998 437.099 194.468 441.629 195.621C445.507 196.616 442.799 200.728 443.769 202.516L443.777 202.524Z" fill="#BDBDBD"/>
<path d="M1026.58 447.997C1023.53 447.922 1020.48 447.847 1017.42 447.772C1025.35 440.559 1033.72 434.041 1044.11 430.656C1044.1 431.792 1044.08 432.937 1044.05 434.074C1039.18 437.258 1034.14 440.233 1030.07 444.496C1027.83 444.604 1026.64 445.741 1026.58 448.014V447.997Z" fill="#FBCED0"/>
<path d="M241.562 174.469C243.091 167.9 244.57 161.298 251.825 158.373C250.17 164.858 246.434 170.023 241.562 174.469Z" fill="#FBCED0"/>
<path d="M251.833 158.364C250.864 156.266 250.688 154.645 253.847 155.004C253.179 156.124 252.51 157.244 251.833 158.364Z" fill="#FBCED0"/>
<path d="M1045.81 428.926C1045.25 429.494 1044.69 430.054 1044.14 430.622C1044.7 430.054 1045.26 429.494 1045.81 428.926Z" fill="#FBCED0"/>
<path d="M686.325 503.883C689.233 501.46 692.15 503.541 695.067 503.875C698.025 522.086 700.449 540.347 702.438 558.708C704.853 581.047 704.394 603.412 703.307 625.625C702.137 649.603 700.006 673.53 700.19 697.574C697.231 697.023 694.273 696.463 691.314 695.911C692.568 666.986 694.273 638.07 694.925 609.136C695.426 586.58 695.393 564.057 692.05 541.5C690.194 528.972 686.066 516.737 686.325 503.892V503.883Z" fill="#FBCED0"/>
<path d="M799.802 567.032C799.793 555.507 801.682 552.891 810.064 552.808C820.545 552.707 827.565 558.064 827.632 566.213C827.69 573.584 820.093 580.646 812.079 580.654C800.855 580.671 799.81 579.501 799.802 567.032ZM814.444 559.727C809.906 559.284 806.145 559.794 806.596 565.778C806.864 569.33 805.51 573.718 811.594 573.701C817.21 573.684 820.077 570.893 820.62 565.461C821.088 560.822 818.714 559.193 814.444 559.727Z" fill="#FBCED0"/>
<path d="M736.929 657.442C732.023 655.537 729.549 651.96 730.561 646.762C731.831 640.234 738.391 639.633 742.929 637.593C746.657 635.922 749.365 639.867 750.785 643.544C750.702 656.164 749.64 657.233 736.929 657.442Z" fill="#FBCED0"/>
<path d="M977.906 517.648C974.947 513.101 971.813 508.563 977.805 503.958C978.624 503.716 979.694 503.733 980.237 503.206C984.157 499.37 988.411 499.345 992.548 502.429C996.735 505.555 995.765 510.41 994.871 514.405C993.601 520.063 988.369 517.339 984.784 517.848C982.544 518.166 980.204 517.74 977.906 517.656V517.648Z" fill="#FBCED0"/>
<path d="M977.906 517.648C980.204 517.74 982.544 518.158 984.784 517.84C988.369 517.339 993.601 520.063 994.871 514.397C995.765 510.402 996.735 505.547 992.548 502.421C988.411 499.329 984.157 499.354 980.237 503.198C979.694 503.725 978.633 503.716 977.805 503.95C977.805 501.627 977.805 499.304 977.814 496.972C980.129 496.93 982.435 496.888 984.75 496.847C988.319 497.415 992.03 495.969 995.456 498.869C1002.04 504.444 1003.14 509.851 998.005 519.687C994.211 526.958 987.09 524.869 980.99 524.493C976.711 524.234 978.098 520.331 977.906 517.64V517.648Z" fill="#FBCED0"/>
<path d="M922.103 611.961C916.997 611.51 919.045 602.701 911.882 603.829C918.585 602.166 923.449 599.157 925.822 593.056C926.015 592.563 926.466 592.062 926.934 591.795C929.023 590.591 944.476 596.074 944.986 598.907C945.997 604.481 950.159 610.933 942.654 615.438C941.693 610.849 945.797 605.066 939.662 601.731C931.271 597.177 923.382 601.84 922.103 611.969V611.961Z" fill="#FBCED0"/>
<path d="M922.104 611.961C923.382 601.84 931.272 597.168 939.662 601.723C945.797 605.058 941.702 610.841 942.654 615.429C938.217 622.859 931.664 619.165 925.747 618.605C921.385 618.195 922.488 614.635 922.104 611.953V611.961ZM930.653 615.245C932.074 611.643 938.509 613.883 939.102 608.735C939.545 604.874 936.253 605.074 933.645 605.083C929.249 605.108 926.608 607.69 925.956 611.702C925.597 613.891 927.661 615.162 930.661 615.237L930.653 615.245Z" fill="#FBCED0"/>
<path d="M984.742 496.855C982.427 496.897 980.121 496.939 977.806 496.98C977.321 494.398 978.992 490.445 974.496 490.219C969.933 489.994 971.011 493.838 970.794 496.546C970.652 498.276 970.986 500.123 970.51 501.736C969.757 504.268 968.261 507.135 965.244 506.399C963.03 505.856 962.044 503.157 962.888 500.599C964.3 496.329 964.726 491.908 966.565 487.562C968.922 481.979 972.474 483.207 976.268 482.948C980.915 482.639 981.566 485.69 981.232 489.166C980.906 492.526 984.784 493.746 984.751 496.838L984.742 496.855Z" fill="#FBCED0"/>
<path d="M736.929 657.442C749.64 657.233 750.71 656.163 750.785 643.543C756.535 648.65 754.997 661.32 747.994 664.061C745.654 664.98 743.013 666.618 741.082 666.718C733.126 667.128 738.851 660.409 736.929 657.442Z" fill="#FBCED0"/>
<path d="M1152.33 336.385C1156.8 333.535 1161.58 332.373 1166.97 332.766C1173.29 333.226 1176.87 336.059 1176.59 342.444C1176.38 347.216 1177.22 350.851 1183.05 352.122C1171.2 353.517 1161.85 367.374 1148.84 357.262C1148.8 353.777 1148.76 350.291 1148.72 346.815C1148.75 345.653 1148.78 344.491 1148.81 343.338C1149.98 341.023 1151.16 338.708 1152.34 336.393L1152.33 336.385ZM1169.81 346.364C1170.3 341.842 1168.71 338.374 1163.97 338.783C1158.89 339.226 1152.74 340.605 1152.89 347.049C1153 351.93 1157.3 354.161 1162.7 354.094C1168.4 354.027 1170.62 351.737 1169.81 346.364Z" fill="#FBCED0"/>
<path d="M1117.22 406.144C1117.21 407.188 1117.19 408.225 1117.18 409.269C1115.03 409.587 1113.75 410.724 1113.75 413.022L1113.76 412.997C1110.9 413.189 1107.49 412.245 1106.54 416.457C1101.49 417.359 1097.22 415.345 1093.09 412.83C1093.03 411.768 1092.98 410.707 1092.92 409.645C1092.88 407.322 1092.84 404.999 1092.79 402.675C1091.88 398.455 1095.45 395.856 1096.51 392.346C1098.7 392.22 1099.95 391.05 1100.28 388.894C1102.36 388.894 1104.43 388.894 1106.51 388.894C1110.01 392.379 1113.5 395.864 1117 399.341C1117.07 400.452 1117.15 401.555 1117.22 402.667C1117.22 403.829 1117.22 404.99 1117.22 406.144ZM1110.35 402.575C1109.06 399.09 1107.08 395.847 1103.21 396.14C1099.7 396.407 1096.46 398.948 1096.76 402.909C1097.02 406.495 1099.55 409.604 1103.5 409.378C1107.23 409.161 1109.34 406.219 1110.35 402.567L1110.35 402.575Z" fill="#FBCED0"/>
<path d="M1148.82 441.896C1147.09 431.634 1155.26 434.208 1161.15 434.032C1166.92 433.857 1172.9 439.556 1172.75 444.613C1172.62 448.649 1164.59 454.825 1159.44 454.85C1151.37 454.892 1148.7 451.85 1148.82 441.896ZM1165.55 443.033C1164.12 440.551 1162.75 438.019 1159.55 437.751C1156.52 437.5 1155.63 439.632 1155.63 442.172C1155.63 444.679 1155.15 447.655 1158.97 447.93C1162.43 448.181 1163.68 445.348 1165.55 443.033Z" fill="#FBCED0"/>
<path d="M1092.98 563.112C1083.57 559.042 1085.92 552.715 1089.72 546.113C1092.61 545.971 1095.53 545.528 1098.39 545.762C1101.29 546.004 1105.51 544.324 1106.41 548.746C1107.18 552.573 1108.06 556.769 1105.14 560.412C1101.78 564.6 1097.16 562.786 1092.98 563.12V563.112Z" fill="#FBCED0"/>
<path d="M1152.33 336.385C1151.15 338.7 1149.98 341.015 1148.8 343.33C1147.54 343.58 1145.81 343.539 1146.16 345.411C1146.28 346.021 1147.82 346.347 1148.71 346.806C1148.76 350.291 1148.8 353.776 1148.83 357.253C1144.08 349.849 1136.9 349.397 1129.17 350.241C1126.7 350.509 1123.26 349.121 1125.02 346.706C1128.33 342.168 1126.88 336.719 1129.17 331.337C1132.3 334.12 1130.99 337.204 1131.39 339.778C1131.7 341.759 1132.53 343.029 1134.64 343.096C1136.2 343.146 1137.98 342.628 1137.89 340.973C1137.31 330.744 1143.01 334.496 1148 336.184C1149.32 336.627 1150.88 336.335 1152.33 336.385Z" fill="#FBCED0"/>
<path d="M1096.51 392.346C1095.46 395.856 1091.88 398.463 1092.79 402.676C1088.01 405.091 1087.99 407.414 1092.92 409.646C1092.98 410.707 1093.03 411.768 1093.09 412.83C1089.8 416.983 1085.47 420.117 1082.64 424.831C1080.25 428.817 1077.4 426.879 1075.48 423.594C1075.48 423.017 1075.48 422.432 1075.48 421.856C1079.71 420.46 1080.68 416.474 1082.45 413.114C1082.45 412.537 1082.45 411.961 1082.45 411.384C1088.06 410.247 1085.2 405.726 1085.93 402.651C1085.87 393.892 1087.94 386.203 1096.41 381.724C1096.41 384.055 1096.41 386.387 1096.41 388.71C1096.44 389.922 1096.46 391.126 1096.49 392.338L1096.51 392.346Z" fill="#FBCED0"/>
<path d="M1089.73 546.113C1089.73 543.113 1088.3 539.369 1093.32 538.917C1099.15 538.391 1105.36 536.218 1109.33 543.104C1113.98 551.128 1112.92 559.059 1106.11 565.795C1099.84 572.004 1097.95 571.62 1092.98 563.112C1097.16 562.786 1101.78 564.591 1105.14 560.404C1108.06 556.769 1107.19 552.573 1106.41 548.737" fill="#FBCED0"/>
<path d="M1117 399.341C1113.5 395.856 1110 392.371 1106.51 388.894C1108.74 388.635 1111.09 388.719 1113.19 388.033C1116.44 386.972 1119.4 387.791 1120.27 390.616C1121.25 393.767 1122.62 398.179 1117.01 399.349L1117 399.341Z" fill="#FBCED0"/>
<path d="M1154.01 304.944C1152.11 307.51 1158.92 312.591 1151.81 313.385C1149.32 313.661 1144.84 312.9 1144.89 310.168C1144.96 306.9 1148.26 304.56 1152.27 304.944C1152.85 304.944 1153.44 304.944 1154.01 304.944Z" fill="#FBCED0"/>
<path d="M1098.17 360.78C1097.6 358.457 1097.04 356.133 1096.47 353.81C1099.74 353.818 1103.23 354.061 1103.04 358.373C1102.93 360.83 1101.67 363.805 1098.17 360.78Z" fill="#FBCED0"/>
<path d="M1056.27 427.104C1053.73 425.257 1054.77 422.533 1054.56 420.117C1056.86 420.51 1060.22 418.931 1061.02 422.24C1061.81 425.516 1058.22 425.784 1056.27 427.104Z" fill="#FBCED0"/>
<path d="M1159.14 321.876C1156.95 322.161 1156.13 321.066 1155.96 319.52C1155.77 317.706 1156.13 315.884 1158.4 315.834C1160.06 315.792 1160.82 317.096 1160.82 318.717C1160.83 320.222 1160.52 321.55 1159.14 321.876Z" fill="#FBCED0"/>
<path d="M1075.49 421.864C1075.49 422.441 1075.49 423.026 1075.49 423.602C1072.58 423.335 1071.68 421.605 1072.34 418.998C1072.49 418.421 1073.6 417.527 1073.94 417.652C1075.97 418.396 1075.27 420.335 1075.49 421.864Z" fill="#FBCED0"/>
<path d="M1106.54 416.465C1107.49 412.253 1110.9 413.198 1113.76 413.005C1113.25 418.112 1109.4 416.248 1106.54 416.465Z" fill="#FBCED0"/>
<path d="M1082.46 411.392C1082.46 411.969 1082.46 412.545 1082.46 413.122C1079.55 412.855 1078.66 411.116 1079.32 408.517C1079.47 407.94 1080.58 407.046 1080.93 407.172C1082.96 407.915 1082.26 409.854 1082.47 411.384L1082.46 411.392Z" fill="#FBCED0"/>
<path d="M1151.26 323.865C1151.37 325.537 1150.07 325.57 1149 325.704C1147.85 325.846 1146.55 325.654 1146.27 324.367C1145.92 322.729 1147.41 322.67 1148.48 322.545C1149.62 322.411 1150.71 322.62 1151.26 323.874V323.865Z" fill="#FBCED0"/>
<path d="M1026.59 448.006C1026.65 445.733 1027.84 444.596 1030.08 444.487C1030.07 446.802 1028.92 447.989 1026.59 448.006Z" fill="#FBCED0"/>
<path d="M1113.75 413.022C1113.75 410.724 1115.03 409.595 1117.18 409.27C1117.4 411.76 1116.31 413.064 1113.75 413.022Z" fill="#FBCED0"/>
<path d="M1073.26 406.904C1073.75 407.113 1074.22 407.314 1074.7 407.523C1074.49 407.999 1074.39 408.751 1074.05 408.885C1073.7 409.019 1073.12 408.551 1072.64 408.342C1072.85 407.865 1073.05 407.381 1073.26 406.904Z" fill="#FBCED0"/>
<path d="M1096.51 392.346C1096.48 391.134 1096.46 389.931 1096.43 388.719C1097.71 388.777 1099 388.836 1100.27 388.894C1099.94 391.05 1098.69 392.22 1096.5 392.346H1096.51Z" fill="#FBCED0"/>
<path d="M1154.01 304.944C1153.44 304.944 1152.85 304.944 1152.27 304.944C1152.52 303.624 1152.53 301.643 1154.5 302.42C1155.93 302.989 1155.02 304.234 1154.01 304.944Z" fill="#FBCED0"/>
<path d="M1117.22 406.144C1117.22 404.982 1117.22 403.82 1117.22 402.667C1118.52 402.918 1120.33 402.834 1119.92 404.798C1119.8 405.408 1118.16 405.701 1117.22 406.144H1117.22Z" fill="#FBCED0"/>
<path d="M346.246 660.927C342.151 661.295 339.343 657.693 335.457 657.4C327.434 622.717 321.935 587.85 321.074 552.039C320.564 531.02 320.689 509.825 318.349 488.798C317.631 482.33 319.218 475.594 319.753 468.983C319.26 463.768 321.325 460.642 326.824 460.325C328.855 463.45 328.988 467.011 328.487 470.437C325.879 488.314 327.325 506.098 328.236 524.041C329.314 545.102 330.075 566.154 331.788 587.207C333.836 612.421 339.552 636.732 346.246 660.935V660.927Z" fill="#FBCED0"/>
<path d="M210.063 523.105C210.113 513.82 212.578 511.021 220.643 511.079C226.427 511.121 234.074 517.439 233.973 522.086C233.84 528.747 227.262 535.157 220.56 535.148C212.403 535.148 210.013 532.399 210.063 523.105ZM216.782 523.456C216.807 525.888 217.008 528.228 220.267 528.27C224.12 528.329 224.053 525.529 224.045 522.871C224.036 520.464 223.811 518.074 220.568 518.024C216.69 517.957 216.916 520.857 216.79 523.456H216.782Z" fill="#FBCED0"/>
<path d="M210.272 423.419C204.823 424.405 200.778 421.964 199.875 416.933C199.181 413.055 197.644 408.609 203.845 405.333C207.815 403.235 209.971 398.071 216.03 399.149C223.994 400.569 225.775 407.782 226.485 413.08C226.995 416.908 225.131 425.115 216.515 423.377C214.425 421.329 212.344 421.371 210.28 423.419H210.272ZM216.949 406.085C207.798 403.946 207.489 410.582 206.527 416.574C207.881 422.85 212.821 419.591 216.23 420.051C218.921 420.418 220.702 418.58 220.376 415.905C219.949 412.445 223.05 407.59 216.949 406.077V406.085Z" fill="#FBCED0"/>
<path d="M290.127 604.858C289.274 598.556 290.436 593.7 299.478 594.494C305.638 595.029 310.41 596.224 310.761 603.345C311.037 608.911 303.682 615.137 297.657 615.63C289.374 616.299 289.901 610.933 290.118 604.858H290.127ZM297.999 601.464C296.294 601.54 293.47 601.757 293.77 605.417C294.029 608.543 296.453 610.967 299.169 610.9C301.342 610.841 303.615 608.468 303.916 605.626C304.301 601.974 301.819 601.439 298.008 601.464H297.999Z" fill="#FBCED0"/>
<path d="M283.524 462.138C287.494 462.096 291.472 462.054 295.442 462.013C298.058 465.682 302.621 467.763 303.983 472.451C303.983 473.546 303.975 474.641 303.966 475.736L304.016 475.811C301.593 475.811 300.632 477.206 300.573 479.455C300.373 481.51 299.261 482.655 297.188 482.856C292.533 482.856 287.878 482.856 283.232 482.848C281.167 482.655 280.039 481.536 279.855 479.463C279.838 475.97 279.822 472.484 279.797 468.991C279.855 467.988 279.905 466.994 279.964 465.982C282.137 465.615 283.34 464.353 283.524 462.146V462.138ZM290.093 479.413C293.737 478.535 296.495 476.304 296.77 472.744C297.071 468.857 293.946 466.283 290.486 465.982C286.666 465.648 284.059 468.824 283.783 472.326C283.482 476.128 286.65 478.076 290.093 479.413Z" fill="#FBCED0"/>
<path d="M303.983 472.451C302.612 467.763 298.058 465.682 295.442 462.013C295.442 460.868 295.275 459.698 295.475 458.595C295.993 455.736 293.678 451.474 297.698 450.354C301.676 449.243 302.454 453.614 303.849 456.229C305.487 459.288 306.632 462.681 311.137 462.004C310.819 466.91 313.235 473.688 303.975 472.451H303.983Z" fill="#FBCED0"/>
<path d="M326.824 460.316C321.324 460.634 319.252 463.759 319.753 468.974C314.196 469.468 314.547 465.64 314.63 461.996C319.302 461.419 317.781 457.759 318.115 455.018C319.862 455.018 321.609 455.018 323.364 455.018C324.525 456.179 325.687 457.341 326.849 458.511C326.849 459.113 326.832 459.714 326.824 460.316Z" fill="#FBCED0"/>
<path d="M241.344 360.788C241.068 363.17 239.84 364.382 237.349 364.056C235.277 363.788 233.89 362.159 234.558 360.588C235.996 357.245 230.346 351.587 237.859 350.325C237.099 354.453 239.021 357.688 241.344 360.788Z" fill="#FBCED0"/>
<path d="M241.345 360.788C239.021 357.688 237.107 354.453 237.859 350.325C240.183 350.325 242.506 350.325 244.83 350.325C244.83 350.901 244.83 351.486 244.83 352.063C244.077 355.139 246.936 359.652 241.336 360.788H241.345Z" fill="#FBCED0"/>
<path d="M318.124 455.018C317.789 457.759 319.31 461.428 314.639 461.996C313.477 461.996 312.315 461.996 311.154 461.996C312.098 455.11 313.092 454.115 318.132 455.018H318.124Z" fill="#FBCED0"/>
<path d="M303.966 475.736C306.449 476.488 310.201 474.691 310.895 479.037C311.129 480.516 310.744 481.979 309.048 482.489C306.323 483.308 304.526 482.489 304.159 479.447C304.108 478.235 304.058 477.015 304.008 475.803L303.958 475.728L303.966 475.736Z" fill="#FBCED0"/>
<path d="M293.695 427.104C296.528 427.463 300.548 425.934 300.431 431.124C300.398 432.729 299.311 433.807 297.715 433.84C292.533 433.949 294.063 429.937 293.695 427.104Z" fill="#FBCED0"/>
<path d="M283.223 482.839C287.878 482.839 292.533 482.848 297.18 482.848C292.525 488.648 287.87 488.656 283.223 482.839Z" fill="#FBCED0"/>
<path d="M279.797 468.983C279.813 472.476 279.83 475.961 279.855 479.455C274.231 475.995 274.289 472.501 279.797 468.983Z" fill="#FBCED0"/>
<path d="M307.125 489.918C306.273 489.384 305.22 489.099 305.086 488.573C304.727 487.185 305.847 486.651 306.975 486.793C307.56 486.868 308.404 487.628 308.479 488.172C308.546 488.64 307.694 489.241 307.134 489.918H307.125Z" fill="#FBCED0"/>
<path d="M244.829 352.063C244.829 351.487 244.829 350.902 244.829 350.325C244.829 349.155 244.829 347.993 244.829 346.823C248.365 346.982 248.339 349.523 248.331 352.055C247.161 352.055 245.999 352.055 244.829 352.055V352.063Z" fill="#FBCED0"/>
<path d="M304.016 475.811C304.067 477.023 304.117 478.243 304.167 479.455C302.972 479.455 301.768 479.455 300.573 479.455C300.632 477.207 301.593 475.819 304.016 475.811Z" fill="#FBCED0"/>
<path d="M283.524 462.138C283.34 464.344 282.137 465.606 279.964 465.974C279.696 463.35 280.841 462.029 283.524 462.138Z" fill="#FBCED0"/>
<path d="M210.272 423.419C212.336 421.371 214.417 421.329 216.506 423.377C214.425 423.393 212.344 423.402 210.272 423.419Z" fill="#FBCED0"/>
<path d="M221.479 339.377C221.27 339.861 221.161 340.605 220.81 340.747C220.468 340.881 219.874 340.405 219.398 340.187C219.607 339.703 219.716 338.95 220.067 338.817C220.409 338.683 221.003 339.159 221.487 339.377H221.479Z" fill="#FBCED0"/>
<path d="M1169.67 255.987C1170.23 260.542 1168.74 263.233 1163.1 263.091C1158.23 262.965 1155.48 261.912 1155.8 256.279C1156.09 251.148 1157.69 246.384 1162.97 246.351C1167.69 246.317 1169.95 250.697 1169.67 255.987H1169.67Z" fill="#FBCED0"/>
<path d="M326.824 460.316C326.824 459.714 326.84 459.113 326.849 458.511C332.666 457.934 337.521 459.614 341.875 463.751C353.592 474.883 368.544 478.962 383.621 483.374C390.056 485.255 398.722 484.686 402.4 493.286C403.946 496.888 406.653 494.155 408.768 492.668C413.975 489.015 419.474 487.536 423.82 493.512C426.669 497.431 429.544 495.192 434.041 493.645C426.218 506.315 435.094 503.992 440.935 503.808C447.404 503.599 454.316 505.722 460.099 500.774C460.642 500.306 461.871 500.231 462.631 500.473C477.257 505.045 491.957 498.058 506.608 500.916C507.795 504.652 501.994 502.83 502.371 505.998C509.6 507.92 509.675 507.945 511.48 502.045C512.266 499.487 514.43 500.181 515.667 500.532C522.428 502.446 529.875 498.894 536.394 503.465C537.99 504.585 540.923 503.808 543.238 503.9C544.341 509.199 548.62 507.285 551.671 507.301C576.2 507.443 600.729 507.377 625.258 507.377C632.345 506.75 640.284 509.834 645.516 501.526C646.987 499.195 650.84 499.88 653.221 502.178C655.904 504.761 659.874 504.853 662.122 503.582C670.479 498.86 678.319 500.005 686.333 503.883C686.074 516.729 690.203 528.964 692.058 541.491C695.401 564.048 695.435 586.571 694.933 609.128C694.29 638.061 692.576 666.978 691.323 695.902C680.082 695.852 667.897 698.527 657.851 695.042C646.084 690.955 633.423 696.153 622.65 689.208C621.998 688.79 620.928 688.832 620.084 688.932C600.687 691.415 581.749 686.208 562.644 684.737C545.645 683.433 528.128 682.338 511.58 675.77C505.271 673.262 497.189 675.536 490.002 674.817C473.145 673.129 455.97 672.945 439.473 670.454C425.917 668.407 412.637 668.265 399.274 668.131C382.918 667.964 367.023 666.075 351.445 661.144C349.848 660.634 347.976 660.977 346.238 660.927C339.544 636.724 333.836 612.412 331.788 587.198C330.083 566.146 329.323 545.094 328.236 524.033C327.317 506.098 325.879 488.313 328.487 470.429C328.988 467.01 328.855 463.442 326.824 460.316ZM639.256 538.742C643.903 547.016 648.466 539.887 653.063 538.667C658.879 539.619 660.643 536.803 660.175 531.421C659.757 526.632 661.863 520.381 653.255 521.242C648.625 516.528 642.248 516.378 638.111 520.882C634.158 525.178 634.76 534.63 639.256 538.742ZM365.251 533.017C366.513 535.324 368.034 535.29 370.082 533.853C374.603 530.694 373.834 526.039 373.834 521.559C373.525 514.322 367.073 505.63 361.766 506.273C355.063 507.076 351.628 511.087 353.25 518.241C353.208 522.186 352.966 526.147 353.158 530.084C353.417 535.299 355.615 536.912 360.053 533.184L365.251 533.017ZM513.536 573.718C513.895 575.882 512.817 578.648 515.408 579.919C518.392 581.381 520.122 578.941 522.027 577.219C523.297 576.074 524.518 574.578 526.039 574.069C533.402 571.595 531.596 567.257 528.429 562.803C525.905 559.251 522.537 556.919 518.25 555.348C515.266 554.253 513.294 551.988 509.959 554.947C504.903 559.443 506.725 565.043 506.892 570.283C507.034 574.528 510.795 573.534 513.528 573.709L513.536 573.718ZM429.72 629.319C429.686 624.037 423.519 616.073 419.407 616.023C415.002 615.964 408.885 624.23 408.86 630.005C408.835 637.016 412.562 639.741 419.181 639.833C426.435 639.933 429.77 636.39 429.72 629.328V629.319ZM612.972 657.375C617.878 658.052 622.107 657.283 621.589 649.995C621.179 644.304 618.772 640.409 612.93 640.568C606.888 640.727 602.133 645.156 601.782 650.413C601.406 656.021 606.846 657.935 612.981 657.367L612.972 657.375ZM352.381 480.666C351.745 478.928 350.575 477.307 348.578 476.797C346.698 476.312 346.238 477.842 346.213 479.338C346.188 481.235 346.973 482.614 349.079 482.756C350.525 482.856 351.904 482.731 352.381 480.675V480.666Z" fill="#FBCED0"/>
<path d="M171.535 280.516C173.24 284.937 174.661 287.227 180.737 284.619C190.39 280.474 192.195 282.154 192.479 290.979C188.183 291.322 183.695 290.185 179.049 292.057C181.815 296.37 186.913 292.626 189.077 296.336C173.357 327.442 165.167 361.231 154.277 394.059C153.299 397.018 153.116 400.352 150.608 402.676C150.617 382.3 150.625 361.925 150.633 341.541C159.701 331.504 157.955 319.135 157.353 307.335C157.06 301.71 160.913 297.974 161.414 292.659C162.158 284.77 165.459 277.164 164.866 268.932C164.749 267.37 166.546 266.785 168.025 266.517C169.555 271.097 164.565 277.306 171.535 280.516Z" fill="#FBCED0"/>
<path d="M195.964 208.959C196.306 212.67 198.413 211.759 200.878 211.116C204.981 210.046 209.185 208.934 213.422 210.715C210.322 214.308 206.335 217.359 209.035 223.267C210.606 226.719 206.636 228.758 205.374 231.516C204.447 233.547 202.073 235.26 203.878 237.65C205.709 240.066 208.065 242.673 204.656 244.846C202.065 246.501 198.63 246.183 195.83 243.801C192.604 241.052 188.71 241.812 185.133 242.698C182.007 243.475 182.007 246.442 182.015 249.1C178.146 249.142 175.772 253.671 171.527 252.593C171.535 251.44 171.544 250.278 171.56 249.125C176.199 248.515 174.711 244.871 175.02 242.122C174.302 228.675 185.166 221.019 190.707 210.698C191.3 210.698 191.894 210.698 192.487 210.706C193.649 210.121 194.811 209.544 195.964 208.959ZM183.846 232.185C181.414 232.569 179.55 234.149 179.341 236.464C179.124 238.787 181.522 238.728 183.11 238.545C185.016 238.327 188.308 239.832 188.033 236.012C187.891 234.073 186.044 232.711 183.846 232.176V232.185Z" fill="#FBCED0"/>
<path d="M171.535 252.585C175.781 253.663 178.154 249.134 182.024 249.092C186.696 248.783 190.715 250.404 195.103 252.034C202.04 254.599 198.989 259.672 199.374 263.617C199.683 266.835 206.411 270.813 200.577 272.785C193.783 275.083 197.435 267.261 195.304 264.653C194.668 263.876 193.373 263.642 192.387 263.157L192.412 263.141C192.454 260.784 191.292 259.622 188.944 259.622C188.902 257.107 187.573 256.037 185.108 256.263C183.01 256.254 180.904 256.237 178.806 256.229C175.63 255.828 172.588 256.129 169.789 257.834C166.98 254.959 167.816 253.287 171.535 252.577V252.585Z" fill="#FBCED0"/>
<path d="M169.788 257.842C172.588 256.137 175.63 255.836 178.806 256.237C170.089 260.132 171.201 267.779 171.585 275.15C171.677 276.838 171.752 278.535 171.828 280.231L171.535 280.524C164.565 277.306 169.554 271.097 168.025 266.525C167.866 263.483 168.125 260.525 169.788 257.85V257.842Z" fill="#FBCED0"/>
<path d="M195.964 208.96C194.802 209.545 193.64 210.121 192.487 210.706C192.487 210.113 192.479 209.52 192.47 208.935C191.969 203.26 193.156 198.546 199.44 196.741C206.436 203.135 196.047 204.589 195.964 208.968V208.96Z" fill="#FBCED0"/>
<path d="M175.028 242.122C174.711 244.871 176.207 248.515 171.569 249.125C171.878 246.375 170.365 242.723 175.028 242.122Z" fill="#FBCED0"/>
<path d="M192.47 208.935C192.47 209.528 192.479 210.121 192.487 210.706C191.894 210.706 191.3 210.706 190.707 210.698C191.292 210.113 191.885 209.52 192.47 208.935Z" fill="#FBCED0"/>
<path d="M189.077 296.336C186.913 292.625 181.823 296.37 179.049 292.057C183.695 290.185 188.175 291.322 192.479 290.979C193.064 291.564 193.649 292.149 194.226 292.734C193.248 294.991 191.518 296.169 189.077 296.328V296.336Z" fill="#FBCED0"/>
<path d="M678.745 231.533C703.617 231.04 728.221 227.413 752.942 225.198C777.655 222.984 802.384 221.663 827.389 225.574C847.397 228.708 867.43 231.859 886.794 237.275C909.827 243.718 932.492 251.733 953.979 262.748C987.391 279.881 1011.52 306.758 1032.85 336.627C1037.69 343.414 1030.32 347.926 1027.27 351.712C1012.12 370.567 1000.16 391.326 996.727 415.02C994.721 428.876 991.612 435.211 976.811 437.877C959.311 441.036 941.894 445.257 924.26 447.973C905.155 450.915 886.1 454.257 866.778 455.687C856.707 456.43 846.653 457.5 836.599 458.528C809.003 461.336 781.24 461.737 753.66 465.089C739.319 466.827 724.761 465.782 710.261 466.936C683.517 469.075 656.498 468.189 629.888 471.19C607.874 473.672 585.97 474.641 563.981 474.048C541.467 473.446 519.102 470.579 496.78 467.445C472.209 464.002 447.396 461.988 423.159 456.564C406.336 452.795 389.412 448.967 375.263 437.61C368.861 432.47 366.663 425.45 363.254 418.881C353.442 400.01 343.915 380.997 334.061 362.142C332.808 359.752 332.34 358.273 334.195 356.033C349.522 337.563 363.563 317.882 384.155 304.493C409.921 287.737 436.255 272.067 465.707 262.539C492.818 253.772 519.553 243.543 548.019 239.715C561.457 237.91 574.946 236.431 588.443 235.194C618.48 232.436 648.7 234.091 678.762 231.525L678.745 231.533ZM506.708 336.886C521.96 334.764 536.628 336.101 550.685 338.633C575.598 343.129 600.252 340.622 625.032 339.703C628.751 339.569 632.428 338.558 636.139 338.015C638.721 337.639 640.752 336.452 640.652 333.677C640.535 330.401 638.078 329.381 635.17 329.457C633.74 329.49 632.32 329.875 630.891 330.075C610.473 332.9 589.831 334.53 569.422 332.482C538.934 329.423 508.58 324.877 477.934 329.44C459.756 332.148 444.237 341.023 430.038 352.222C428.333 353.568 424.722 356.267 428.107 359.418C430.589 361.733 433.397 360.914 435.971 358.9C456.965 342.477 479.981 332.398 506.708 336.861V336.886ZM928.831 334.672C927.419 328.888 922.722 330.877 919.22 331.822C895.611 338.207 871.408 342.302 848.274 350.584C825.827 358.616 804.206 368.118 785.494 383.203C782.819 385.359 778.223 388.017 782.109 392.271C785.46 395.94 788.879 393.391 791.812 390.549C795.339 387.131 798.54 383.412 802.894 380.829C822.584 369.129 843.427 359.861 865.491 354.144C883.618 349.448 901.544 343.689 920.223 341.124C923.499 340.672 928.154 340.313 928.823 334.688L928.831 334.672ZM545.553 282.204C550.76 283.115 553.894 276.981 558.733 277.223C567.934 277.691 571.135 271.507 574.629 264.979C576.542 261.411 575.974 258.636 572.489 257.115C568.879 255.527 568.277 258.745 567.458 261.219C565.92 265.84 563.02 268.79 558.599 264.963C553.042 260.157 551.111 261.377 549.774 268.113C549.297 270.529 547.124 275.76 543.33 270.495C541.375 267.788 539.62 265.539 536.552 267.136C532.975 268.991 534.037 272.961 535.148 275.635C536.878 279.78 540.121 282.764 545.553 282.196V282.204ZM938.685 392.797C939.596 402.425 940.39 408.86 951.229 399.843C953.795 397.711 954.806 400.904 953.853 403.662C953.176 405.618 952.809 407.882 955.007 409.019C956.068 409.571 958.283 409.537 959.001 408.81C961.642 406.127 963.982 402.885 963.314 398.907C962.754 395.564 961.592 392.404 957.313 391.402C953.728 390.557 950.051 389.981 946.683 387.983C937.632 382.618 928.656 386.813 926.458 396.901C925.965 399.174 925.806 400.904 928.046 402.024C930.202 403.102 931.999 402.3 933.328 400.478C935.166 397.954 936.913 395.371 938.693 392.814L938.685 392.797ZM525.972 414.861C525.529 411.451 526.59 407.64 522.771 406.98C519.37 406.395 518.057 409.554 517.013 412.379C516.52 413.707 515.768 414.969 514.974 416.165C513.528 418.329 512.065 421.079 508.881 419.725C505.162 418.137 507.469 415.521 508.288 413.214C509.09 410.958 511.714 408.217 507.962 406.595C504.61 405.141 502.011 406.587 500.206 410.047C497.106 416.006 496.788 421.672 500.858 427.221C503.984 431.467 508.63 431.634 512.659 429.854C519.361 426.895 525.178 422.575 525.972 414.869V414.861ZM658.328 418.847C659.339 413.624 657.325 409.253 652.737 407.247C647.497 404.949 641.972 405.074 637.785 410.239C633.565 415.446 632.504 421.154 635.378 427.213C636.34 429.244 638.437 431.183 641.07 429.937C643.343 428.859 642.783 426.519 642.206 424.547C640.844 419.884 642.232 415.671 646.979 415.387C652.06 415.078 651.45 419.198 650.238 422.959C649.277 425.943 650.622 428.241 653.907 428.483C656.732 428.692 658.044 426.703 658.294 424.112C658.462 422.382 658.328 420.627 658.328 418.856V418.847ZM767.442 263.057C759.536 263.032 754.254 267.378 752.975 275.318C752.39 278.945 752.992 282.747 757.179 283.658C761.617 284.619 761.082 280.758 761.55 277.975C762.076 274.875 763.882 272.25 767.108 272.242C771.169 272.225 769.757 275.852 770.091 278.192C770.4 280.332 769.397 283.382 772.841 283.583C775.824 283.75 777.529 281.393 778.449 278.894C781.048 271.841 774.88 263.091 767.433 263.066L767.442 263.057ZM786.647 337.588C788.018 336.535 788.795 335.758 789.723 335.248C793.383 333.234 793.885 330.326 791.252 327.451C788.553 324.501 786.079 326.64 783.839 328.713C781.048 331.304 778.357 334.045 777.479 337.839C776.677 341.307 776.317 345.703 780.83 346.314C785.678 346.974 791.428 349.013 795.431 344.199C797.219 342.051 795.765 339.603 793.3 338.641C791.486 337.931 789.38 337.981 786.639 337.58L786.647 337.588Z" fill="#DBD9D7"/>
<path d="M792.781 500.39H708.531C712.367 495.718 715.45 496.98 718.066 496.964C736.051 496.838 754.036 496.922 772.022 496.88C776.309 496.872 780.354 496.897 784.533 494.532C789.923 491.481 793.433 493.629 792.79 500.39H792.781Z" fill="#FBCED0"/>
<path d="M625.258 507.369C600.729 507.369 576.2 507.427 551.671 507.293C548.629 507.277 544.341 509.191 543.238 503.892C567.767 503.892 592.304 503.825 616.833 503.967C619.875 503.984 624.163 502.07 625.258 507.377V507.369Z" fill="#FBCED0"/>
<path d="M171.828 280.223C171.744 278.526 171.669 276.838 171.585 275.142C171.193 267.771 170.089 260.124 178.806 256.229C180.912 256.246 183.01 256.254 185.116 256.262C185.484 258.419 186.662 259.647 188.944 259.622C189.019 261.862 190.122 263.082 192.412 263.141C192.412 263.141 192.395 263.157 192.387 263.157C193.39 280.382 189.905 281.56 171.836 280.215L171.828 280.223ZM185.534 268.297C185.567 265.447 184.966 262.681 181.422 263.316C178.221 263.893 175.797 266.333 175.338 269.601C174.878 272.877 177.67 275.752 180.11 275.618C183.653 275.426 185.81 272.309 185.534 268.297Z" fill="#FBCED0"/>
<path d="M216.916 200.243C216.874 200.527 216.874 200.828 216.774 201.087C215.854 203.611 214.175 205.558 211.55 206.018C210.138 206.268 210.013 204.505 210.163 203.427C210.782 199.031 214.342 200.636 216.907 200.234L216.916 200.243Z" fill="#FBCED0"/>
<path d="M216.949 196.666C219.197 196.8 220.418 197.928 220.434 200.243C219.256 200.243 218.086 200.243 216.907 200.243C216.924 199.056 216.933 197.861 216.949 196.674V196.666Z" fill="#FBCED0"/>
<path d="M217.083 193.055C217.116 190.498 216.74 187.857 217.267 185.4C218.019 181.882 221.212 182.918 223.618 182.851C226.911 182.759 228.182 185.124 228.332 187.799C228.457 190.105 227.471 192.495 224.78 192.897C222.273 193.273 219.665 193.055 217.108 193.089L217.075 193.055H217.083Z" fill="#FBCED0"/>
<path d="M814.452 559.728C818.714 559.201 821.096 560.831 820.628 565.461C820.085 570.893 817.218 573.684 811.602 573.701C805.518 573.718 806.872 569.33 806.604 565.778C806.153 559.794 809.914 559.285 814.452 559.728Z" fill="#FBCED0"/>
<path d="M930.653 615.237C927.653 615.162 925.597 613.891 925.948 611.702C926.6 607.69 929.241 605.108 933.637 605.083C936.244 605.066 939.537 604.865 939.094 608.735C938.501 613.875 932.074 611.643 930.645 615.245L930.653 615.237Z" fill="#FBCED0"/>
<path d="M1169.81 346.363C1170.62 351.737 1168.4 354.027 1162.7 354.094C1157.29 354.161 1153 351.929 1152.89 347.049C1152.75 340.613 1158.89 339.226 1163.97 338.783C1168.71 338.365 1170.3 341.842 1169.81 346.363Z" fill="#FBCED0"/>
<path d="M1148.71 346.815C1147.83 346.355 1146.28 346.029 1146.16 345.419C1145.81 343.538 1147.54 343.589 1148.8 343.338C1148.77 344.5 1148.74 345.661 1148.71 346.815Z" fill="#FBCED0"/>
<path d="M1110.35 402.583C1109.34 406.236 1107.22 409.177 1103.49 409.395C1099.54 409.62 1097.02 406.511 1096.75 402.926C1096.46 398.965 1099.69 396.424 1103.2 396.157C1107.07 395.856 1109.05 399.098 1110.34 402.592L1110.35 402.583Z" fill="#FBCED0"/>
<path d="M1092.92 409.654C1087.98 407.414 1088.01 405.091 1092.79 402.684C1092.84 405.007 1092.88 407.33 1092.92 409.654Z" fill="#FBCED0"/>
<path d="M1165.56 443.033C1163.7 445.348 1162.44 448.173 1158.98 447.931C1155.16 447.655 1155.63 444.688 1155.63 442.173C1155.63 439.632 1156.53 437.501 1159.55 437.752C1162.75 438.019 1164.13 440.551 1165.56 443.033Z" fill="#FBCED0"/>
<path d="M216.774 523.448C216.907 520.849 216.682 517.957 220.56 518.024C223.811 518.074 224.028 520.473 224.036 522.871C224.053 525.529 224.12 528.329 220.259 528.27C216.999 528.22 216.799 525.88 216.765 523.448H216.774Z" fill="#FBCED0"/>
<path d="M206.536 416.574C207.497 410.581 207.798 403.937 216.958 406.085C218.445 414.509 215.328 418.362 206.536 416.574Z" fill="#FBCED0"/>
<path d="M206.536 416.574C215.328 418.362 218.445 414.51 216.958 406.085C223.058 407.59 219.958 412.454 220.384 415.914C220.71 418.58 218.93 420.427 216.239 420.059C212.829 419.591 207.898 422.85 206.536 416.582V416.574Z" fill="#FBCED0"/>
<path d="M297.999 601.464C301.81 601.439 304.292 601.974 303.908 605.626C303.615 608.468 301.334 610.841 299.161 610.9C296.445 610.975 294.021 608.551 293.762 605.417C293.461 601.757 296.278 601.539 297.991 601.464H297.999Z" fill="#FBCED0"/>
<path d="M290.093 479.413C286.658 478.076 283.491 476.128 283.783 472.326C284.059 468.824 286.658 465.657 290.486 465.983C293.937 466.283 297.071 468.858 296.771 472.744C296.495 476.312 293.737 478.535 290.093 479.413Z" fill="#FBCED0"/>
<path d="M513.544 573.709C510.803 573.534 507.042 574.528 506.909 570.283C506.741 565.043 504.911 559.443 509.976 554.947C513.31 551.989 515.291 554.262 518.266 555.348C522.554 556.919 525.922 559.243 528.445 562.803C531.613 567.257 533.426 571.595 526.055 574.069C524.534 574.579 523.314 576.074 522.044 577.219C520.138 578.941 518.408 581.381 515.425 579.919C512.842 578.649 513.912 575.882 513.553 573.718C514.689 573.651 515.826 573.617 516.954 573.5C521.793 572.974 520.807 569.238 520.523 566.338C520.23 563.321 517.857 560.488 515.141 561.056C512.291 561.658 513.653 565.369 513.461 567.742C513.302 569.715 513.502 571.72 513.544 573.709Z" fill="#FBCED0"/>
<path d="M429.728 629.311C429.778 636.373 426.444 639.917 419.19 639.816C412.571 639.724 408.843 637 408.868 629.988C408.893 624.213 415.011 615.956 419.415 616.006C423.527 616.056 429.695 624.021 429.728 629.303V629.311ZM417.66 633.055C421.212 633.331 423.076 631.818 422.917 628.141C422.8 625.508 422.758 622.349 419.098 622.934C415.588 623.494 412.905 625.91 412.771 629.804C412.663 633.089 415.429 632.871 417.66 633.047V633.055Z" fill="#FBCED0"/>
<path d="M612.98 657.367C606.854 657.935 601.414 656.021 601.782 650.413C602.133 645.156 606.888 640.727 612.93 640.568C618.772 640.409 621.187 644.304 621.589 649.995C622.107 657.275 617.878 658.052 612.972 657.375L612.98 657.367Z" fill="#FBCED0"/>
<path d="M353.258 518.25C351.637 511.087 355.072 507.076 361.774 506.274C367.081 505.638 373.533 514.33 373.842 521.559C370.934 521.534 370.625 516.261 366.806 518.083C364.048 518.133 361.29 518.183 358.532 518.225C356.777 518.225 355.013 518.241 353.258 518.25Z" fill="#FBCED0"/>
<path d="M358.54 518.225C361.298 518.175 364.056 518.124 366.814 518.074C366.814 523.105 368.276 528.287 365.259 533.009C363.529 533.067 361.799 533.117 360.061 533.176C358.114 528.337 357.128 523.398 358.54 518.225Z" fill="#FBCED0"/>
<path d="M653.272 521.242C661.871 520.381 659.774 526.632 660.183 531.421C660.651 536.812 658.888 539.628 653.071 538.675C653.071 536.352 653.071 534.02 653.071 531.697C653.071 530.61 653.054 529.524 653.046 528.437C653.046 526.114 653.046 523.791 653.046 521.467L653.272 521.233V521.242Z" fill="#FBCED0"/>
<path d="M639.264 538.742C634.768 534.63 634.166 525.178 638.12 520.882C642.265 516.378 648.641 516.528 653.271 521.242C653.271 521.242 653.046 521.476 653.046 521.467C647.288 521.451 640.568 519.537 639.331 528.429C639.315 529.532 639.29 530.644 639.273 531.747C639.273 534.079 639.273 536.41 639.273 538.742H639.264Z" fill="#FBCED0"/>
<path d="M639.264 538.742C639.264 536.41 639.264 534.079 639.264 531.747C643.878 536.076 648.483 536.135 653.062 531.697C653.062 534.02 653.062 536.352 653.062 538.675C648.466 539.887 643.903 547.024 639.256 538.742H639.264Z" fill="#FBCED0"/>
<path d="M365.259 533.017C368.276 528.295 366.814 523.114 366.814 518.083C370.633 516.269 370.942 521.534 373.842 521.568C373.842 526.047 374.603 530.702 370.082 533.861C368.034 535.29 366.513 535.332 365.251 533.026L365.259 533.017Z" fill="#FBCED0"/>
<path d="M358.54 518.225C357.128 523.406 358.114 528.345 360.061 533.176C355.623 536.903 353.425 535.299 353.166 530.075C352.974 526.139 353.208 522.186 353.258 518.241C355.022 518.241 356.777 518.233 358.54 518.225Z" fill="#FBCED0"/>
<path d="M352.389 480.658C351.913 482.714 350.534 482.84 349.088 482.739C346.982 482.597 346.196 481.227 346.221 479.321C346.238 477.834 346.706 476.304 348.586 476.781C350.584 477.29 351.754 478.912 352.389 480.65V480.658Z" fill="#FBCED0"/>
<path d="M183.846 232.193C186.044 232.728 187.891 234.082 188.033 236.029C188.308 239.84 185.007 238.344 183.11 238.562C181.522 238.746 179.124 238.804 179.341 236.481C179.558 234.166 181.414 232.586 183.846 232.202V232.193Z" fill="#FBCED0"/>
<path d="M192.404 263.149C190.114 263.09 189.011 261.862 188.935 259.63C191.284 259.63 192.445 260.792 192.404 263.149Z" fill="#FBCED0"/>
<path d="M188.944 259.63C186.662 259.647 185.484 258.418 185.116 256.271C187.573 256.037 188.902 257.106 188.944 259.63Z" fill="#FBCED0"/>
<path d="M506.708 336.886C479.981 332.415 456.965 342.502 435.971 358.925C433.397 360.939 430.589 361.758 428.107 359.443C424.722 356.284 428.333 353.584 430.037 352.247C444.245 341.048 459.765 332.164 477.934 329.465C508.589 324.902 538.934 329.448 569.422 332.507C589.831 334.555 610.473 332.925 630.89 330.1C632.32 329.9 633.74 329.523 635.169 329.482C638.078 329.406 640.535 330.426 640.652 333.702C640.752 336.468 638.73 337.664 636.139 338.04C632.428 338.575 628.751 339.586 625.032 339.728C600.252 340.647 575.59 343.146 550.685 338.658C536.628 336.126 521.96 334.789 506.708 336.911V336.886Z" fill="#BDBDBD"/>
<path d="M928.831 334.671C928.163 340.296 923.508 340.664 920.231 341.107C901.553 343.681 883.618 349.431 865.499 354.127C843.435 359.844 822.592 369.112 802.902 380.813C798.548 383.403 795.347 387.122 791.82 390.532C788.887 393.374 785.469 395.923 782.117 392.254C778.231 388 782.828 385.342 785.502 383.186C804.214 368.101 825.835 358.599 848.283 350.567C871.416 342.285 895.619 338.198 919.229 331.805C922.722 330.86 927.419 328.871 928.84 334.655L928.831 334.671Z" fill="#BDBDBD"/>
<path d="M545.553 282.204C540.121 282.764 536.878 279.788 535.148 275.643C534.037 272.969 532.975 268.999 536.552 267.144C539.62 265.547 541.375 267.796 543.33 270.503C547.133 275.769 549.297 270.537 549.774 268.122C551.103 261.385 553.042 260.165 558.599 264.971C563.02 268.798 565.92 265.848 567.458 261.227C568.285 258.753 568.879 255.535 572.489 257.123C575.974 258.653 576.534 261.419 574.629 264.988C571.135 271.515 567.934 277.699 558.733 277.231C553.894 276.98 550.752 283.123 545.553 282.212V282.204Z" fill="#BDBDBD"/>
<path d="M938.676 392.797C936.888 395.354 935.149 397.945 933.311 400.461C931.982 402.283 930.185 403.093 928.029 402.007C925.798 400.887 925.948 399.157 926.441 396.884C928.639 386.788 937.615 382.601 946.666 387.966C950.042 389.964 953.72 390.54 957.297 391.385C961.576 392.387 962.737 395.547 963.297 398.89C963.966 402.868 961.626 406.119 958.985 408.793C958.266 409.52 956.051 409.554 954.99 409.002C952.792 407.874 953.16 405.6 953.837 403.645C954.789 400.887 953.778 397.694 951.212 399.826C940.373 408.843 939.579 402.408 938.668 392.78L938.676 392.797Z" fill="#BDBDBD"/>
<path d="M525.963 414.869C525.17 422.574 519.353 426.895 512.65 429.854C508.622 431.634 503.967 431.466 500.85 427.221C496.771 421.68 497.097 416.005 500.198 410.047C501.994 406.587 504.602 405.141 507.953 406.595C511.706 408.225 509.082 410.957 508.279 413.214C507.46 415.521 505.154 418.145 508.873 419.724C512.057 421.078 513.528 418.337 514.965 416.164C515.759 414.977 516.511 413.715 517.004 412.378C518.049 409.545 519.361 406.386 522.763 406.979C526.582 407.64 525.521 411.451 525.963 414.86V414.869Z" fill="#BDBDBD"/>
<path d="M658.319 418.855C658.319 420.636 658.453 422.391 658.286 424.112C658.035 426.703 656.723 428.692 653.898 428.483C650.614 428.241 649.268 425.943 650.229 422.959C651.441 419.198 652.051 415.078 646.97 415.387C642.231 415.671 640.836 419.883 642.198 424.547C642.775 426.519 643.335 428.859 641.061 429.937C638.429 431.183 636.339 429.252 635.37 427.213C632.495 421.154 633.556 415.446 637.777 410.239C641.964 405.074 647.488 404.957 652.728 407.247C657.308 409.253 659.331 413.624 658.319 418.847V418.855Z" fill="#BDBDBD"/>
<path d="M767.433 263.065C774.88 263.09 781.048 271.84 778.448 278.894C777.529 281.393 775.824 283.758 772.841 283.583C769.397 283.382 770.4 280.34 770.091 278.192C769.757 275.852 771.169 272.225 767.108 272.242C763.873 272.258 762.076 274.874 761.55 277.975C761.073 280.758 761.617 284.619 757.179 283.658C752.992 282.747 752.39 278.953 752.975 275.317C754.254 267.378 759.527 263.023 767.442 263.057L767.433 263.065Z" fill="#BDBDBD"/>
<path d="M786.63 337.597C789.363 337.998 791.478 337.948 793.291 338.658C795.748 339.619 797.202 342.068 795.422 344.216C791.411 349.029 785.661 346.99 780.822 346.33C776.309 345.72 776.668 341.324 777.471 337.856C778.348 334.053 781.039 331.32 783.831 328.729C786.07 326.657 788.536 324.517 791.244 327.467C793.876 330.342 793.375 333.242 789.714 335.265C788.787 335.775 788.009 336.544 786.639 337.605L786.63 337.597Z" fill="#BDBDBD"/>
<path d="M185.542 268.297C185.81 272.309 183.653 275.434 180.11 275.618C177.678 275.752 174.878 272.877 175.338 269.601C175.797 266.333 178.221 263.893 181.422 263.316C184.957 262.681 185.567 265.447 185.534 268.297H185.542Z" fill="#FBCED0"/>
<path d="M513.544 573.709C513.503 571.72 513.302 569.714 513.461 567.742C513.653 565.36 512.291 561.649 515.141 561.056C517.857 560.488 520.23 563.321 520.523 566.338C520.807 569.23 521.793 572.974 516.954 573.5C515.826 573.626 514.681 573.651 513.553 573.718L513.544 573.709Z" fill="#FBCED0"/>
<path d="M417.66 633.055C415.429 632.88 412.654 633.097 412.771 629.813C412.905 625.91 415.588 623.503 419.098 622.943C422.767 622.358 422.808 625.517 422.917 628.149C423.076 631.827 421.212 633.339 417.66 633.064V633.055Z" fill="#FBCED0"/>
<path d="M653.063 531.697C648.483 536.143 643.878 536.084 639.265 531.747C639.281 530.644 639.306 529.532 639.323 528.429C643.895 524.242 648.475 524.041 653.046 528.429C653.046 529.515 653.063 530.602 653.071 531.688L653.063 531.697Z" fill="#FBCED0"/>
<path d="M653.046 528.438C648.474 524.042 643.903 524.242 639.323 528.438C640.56 519.545 647.288 521.459 653.037 521.476C653.037 523.799 653.037 526.123 653.037 528.446L653.046 528.438Z" fill="#FBCED0"/>
</g>
<path d="M275 613.203H0L93.7444 561.382C107 554.055 116.647 541.585 120.411 526.914L147.53 421.203L275 613.203Z" fill="#FBCED0"/>
<path d="M1086 621.203H1361L1267.26 569.382C1254 562.055 1244.35 549.585 1240.59 534.914L1213.47 429.203L1086 621.203Z" fill="#FBCED0"/>
<defs>
<clipPath id="clip0_500_198">
<rect width="1068.63" height="701.093" fill="white" transform="translate(145)"/>
</clipPath>
</defs>
</svg>
