<svg width="1955" height="112" viewBox="0 0 1955 112" fill="none" xmlns="http://www.w3.org/2000/svg">
<path d="M0.00292877 49.9133C0.00271225 13 64.2016 10.5228 97.3777 7.5C145.165 3.14588 153.914 50.4592 201.904 49.9133C247.362 49.3963 272.204 38.6679 315.602 25.3648C342.365 17.161 354.794 -1.96289 382.903 0.816292C399.815 2.4884 404.643 15.7956 418.593 25.3648C450.386 47.1733 461.936 74.6462 500.171 80.9747C551.378 89.4504 568.815 30.33 620.497 25.3648C667.098 20.8877 692.817 37.0188 737.764 49.9133C773.069 60.0418 789.707 81.6496 826.479 80.9747C873.59 80.1101 891.293 3.89399 933.04 25.3648C956.771 37.5702 945.824 74.5082 971.789 80.9747C1004.2 89.0465 1006.61 9.76483 1036.03 25.3648C1056.77 36.3579 1033.46 82.9862 1056.93 80.9747C1073.51 79.5546 1069.61 54.7878 1085.49 49.9133C1108.66 42.799 1116 73.3865 1139.02 80.9747C1205.46 102.877 1239.24 24.9246 1309.31 25.3648C1378.07 25.7967 1407.34 83.9243 1476.04 80.9747C1520.55 79.0635 1541.64 43.1349 1585.66 49.9133C1614.52 54.3586 1624.58 85.2934 1653.47 80.9747C1684.37 76.3548 1679.13 20.9775 1710.06 25.3648C1737.38 29.2385 1726.69 71.0771 1752.38 80.9747C1796.2 97.8551 1794.74 8.84702 1841.1 0.816292C1888.86 -7.45913 1954.79 49.9133 1954.79 49.9133V112.537H0C0 112.537 0.00308179 76 0.00292877 49.9133Z" fill="#9CA066"/>
<path fill-rule="evenodd" clip-rule="evenodd" d="M949.454 44.0349C949.843 44.0829 950.011 44.3425 949.754 44.5001C949.692 44.5377 948.794 44.7358 947.757 44.9402C944.194 45.6429 941.426 46.5762 938.648 48.0123C936.38 49.1845 935.399 49.8655 933.871 51.3273C929.064 55.9272 926.481 61.1325 924.839 69.5282C924.392 71.813 923.736 76.4228 923.781 76.9598C923.812 77.3339 923.88 77.2032 924.239 76.0811C926.743 68.2492 929.538 63.6292 932.7 62.0958C933.874 61.5266 934.971 61.3601 937.064 61.4338C939.232 61.5103 940.619 61.8365 942.473 62.7061C945.492 64.1228 948.719 67.0484 949.875 69.4172C950.167 70.0169 950.18 70.181 949.934 70.181C949.721 70.181 949.762 70.2254 948.619 68.7373C946.553 66.0494 943.684 63.9733 940.928 63.1734C939.554 62.7745 938.654 62.6489 937.172 62.6489C935.577 62.6489 934.904 62.8481 933.405 63.7642C931.874 64.7001 929.897 67.0369 928.455 69.6161C927.4 71.5012 925.771 75.681 924.491 79.7844C923.438 83.1564 923.147 84.5266 922.985 86.8536C922.832 89.0673 922.776 102.631 922.91 105.017C922.953 105.776 923.025 107.302 923.07 108.406C923.114 109.511 923.188 110.969 923.233 111.647C923.279 112.324 923.291 112.903 923.26 112.933C923.23 112.964 922.961 112.988 922.664 112.988H922.122L922.056 112.455C921.981 111.843 921.884 109.611 921.78 106.084C921.584 99.3999 919.199 88.6478 916.384 81.7506C914.793 77.851 913.087 74.8978 910.907 72.2677C910.514 71.7928 910.192 71.3268 910.192 71.2321C910.192 70.8693 910.56 71.0921 911.413 71.9698C916.034 76.7277 919.653 84.2051 921.408 92.6214C921.586 93.4758 921.69 92.8268 921.776 90.3194C921.825 88.8934 921.89 87.4085 921.92 87.0194C921.951 86.6304 922.037 85.4366 922.112 84.3664C922.764 75.0982 924.271 66.7719 926.299 61.237C926.944 59.4775 928.447 56.4173 929.39 54.9432C932.827 49.5707 937.399 46.1773 943.182 44.7062C945.061 44.2283 948.251 43.8868 949.454 44.0349ZM884.039 52.5276C885.288 53.5642 886.596 55.233 887.868 57.4137C890.395 61.7479 891.635 66.5648 892.315 74.7002C892.586 77.9369 892.826 82.6153 892.824 84.6172C892.819 88.9703 892.302 95.9659 891.55 101.878C891.098 105.428 889.965 112.672 889.828 112.894C889.718 113.071 889.017 112.993 888.941 112.796C888.9 112.69 889.077 111.01 889.334 109.061C890.603 99.445 890.913 96.8311 891.237 93.0283C891.806 86.3567 891.646 78.2811 890.847 73.3193C889.906 67.482 888.207 61.8919 885.98 57.3136C885.163 55.6341 883.828 53.2589 883.354 52.6429C883.079 52.2845 883.051 51.9735 883.296 51.9812C883.344 51.9826 883.678 52.2285 884.039 52.5276ZM924.082 56.4188C924.195 56.7098 924.093 56.8041 922.961 57.4478C919.861 59.2116 916.045 61.8443 913.874 63.7159C907.911 68.8578 904.378 73.3225 901.4 79.4767C898.532 85.4051 896.998 91.6573 896.627 98.9284C896.436 102.683 896.709 106.082 897.544 110.324L897.946 112.367L897.686 112.624C897.544 112.766 897.196 112.912 896.913 112.95C896.498 113.005 896.377 112.974 896.276 112.783C896.128 112.504 895.669 108.117 895.485 105.211C895.257 101.615 895.367 96.4283 895.746 92.9028C897.207 79.3333 902.828 68.7073 912.145 61.9028C915.181 59.6849 918.839 57.8057 922.279 56.6965C923.686 56.2426 923.996 56.1949 924.082 56.4188ZM909.136 72.8486C909.439 73.3265 909.471 87.7467 909.18 92.7772C908.888 97.8261 908.208 104.353 907.46 109.285C906.876 113.132 906.944 112.926 906.253 112.926C905.944 112.926 905.701 112.869 905.712 112.8C905.74 112.633 905.974 106.922 906.14 102.381C906.213 100.378 906.296 98.4577 906.324 98.1124C906.353 97.7672 906.411 96.8916 906.453 96.1667C906.813 90.035 908.379 73.6415 908.669 72.9741C908.806 72.6595 908.985 72.6113 909.136 72.8486ZM932.443 88.5195C932.613 88.7906 932.657 93.9063 932.512 96.4177C932.271 100.572 931.94 102.791 931.021 106.398C930.406 108.811 929.677 111.111 929.157 112.274L928.838 112.988L927.976 112.988L927.113 112.988L926.809 110.885C926.244 106.984 926.172 106.403 925.984 104.201C925.881 102.993 925.763 101.213 925.723 100.247C925.682 99.2799 925.618 98.2005 925.582 97.8477C925.461 96.6864 925.858 96.0596 926.15 96.9513C926.643 98.4596 927.81 104.392 927.81 105.389C927.81 105.625 927.866 105.852 927.934 105.893C928.07 105.977 928.115 105.814 928.324 104.452C928.827 101.187 931.342 90.085 931.886 88.7287C932.027 88.3756 932.292 88.2764 932.443 88.5195ZM903.219 90.2979C903.214 93.733 902.819 99.6844 902.388 102.82C901.996 105.666 900.778 111.446 900.317 112.643C900.206 112.932 900.109 112.988 899.724 112.988C899.304 112.988 899.27 112.962 899.338 112.694C899.379 112.532 899.527 111.247 899.667 109.838C900.189 104.586 900.536 101.922 901.203 98.0497C901.689 95.2289 902.839 89.2403 902.919 89.1106C903.125 88.7816 903.22 89.1593 903.219 90.2979ZM914.67 98.5832C916.056 103.721 916.626 107.742 916.509 111.545L916.466 112.926L916.082 112.963L915.699 113L915.158 109.762C914.457 105.557 914.139 102.575 913.919 98.1438C913.864 97.0298 913.879 96.4177 913.96 96.4177C914.029 96.4177 914.348 97.3921 914.67 98.5832Z" fill="#595C37"/>
<path fill-rule="evenodd" clip-rule="evenodd" d="M333.111 26.0807C332.628 26.1404 332.421 26.464 332.739 26.6604C332.816 26.7073 333.929 26.9542 335.213 27.2089C339.627 28.0848 343.055 29.248 346.497 31.0379C349.307 32.499 350.522 33.3478 352.415 35.1696C358.37 40.9029 361.57 47.3907 363.604 57.8548C364.157 60.7026 364.97 66.4481 364.915 67.1175C364.876 67.5838 364.792 67.4209 364.347 66.0222C361.245 56.2608 357.782 50.5025 353.866 48.5913C352.411 47.8818 351.052 47.6744 348.46 47.7662C345.774 47.8615 344.055 48.2682 341.759 49.352C338.018 51.1177 334.021 54.7641 332.589 57.7165C332.227 58.464 332.211 58.6684 332.516 58.6684C332.78 58.6684 332.73 58.7238 334.146 56.8691C336.704 53.5189 340.259 50.9313 343.673 49.9343C345.375 49.4373 346.49 49.2806 348.326 49.2806C350.302 49.2806 351.135 49.5289 352.992 50.6708C354.889 51.8372 357.338 54.7498 359.125 57.9644C360.431 60.314 362.45 65.5236 364.036 70.6379C365.339 74.8407 365.7 76.5485 365.9 79.4489C366.09 82.2079 366.16 99.1129 365.993 102.087C365.94 103.034 365.851 104.935 365.796 106.312C365.74 107.689 365.649 109.506 365.593 110.35C365.537 111.195 365.522 111.916 365.559 111.954C365.597 111.992 365.93 112.023 366.299 112.023H366.97L367.051 111.358C367.145 110.595 367.264 107.814 367.393 103.417C367.637 95.0863 370.59 81.685 374.077 73.0886C376.049 68.2282 378.162 64.5474 380.863 61.2693C381.35 60.6774 381.749 60.0966 381.749 59.9785C381.749 59.5263 381.292 59.8041 380.236 60.8981C374.511 66.8282 370.028 76.1478 367.854 86.6377C367.634 87.7026 367.505 86.8937 367.398 83.7685C367.337 81.9912 367.257 80.1404 367.219 79.6555C367.182 79.1707 367.075 77.6827 366.982 76.3488C366.175 64.7971 364.307 54.4195 361.795 47.5209C360.996 45.3279 359.135 41.5138 357.966 39.6764C353.709 32.9802 348.045 28.7509 340.88 26.9173C338.553 26.3216 334.601 25.896 333.111 26.0807ZM414.148 36.6657C412.599 37.9577 410.979 40.0377 409.404 42.7556C406.273 48.1577 404.738 54.1614 403.894 64.3011C403.559 68.3352 403.262 74.1663 403.264 76.6615C403.271 82.087 403.91 90.8062 404.843 98.1755C405.403 102.6 406.805 111.628 406.976 111.905C407.112 112.125 407.98 112.028 408.074 111.783C408.125 111.651 407.906 109.556 407.588 107.128C406.016 95.1425 405.631 91.8846 405.23 87.1448C404.525 78.8296 404.723 68.7643 405.714 62.58C406.879 55.3045 408.984 48.3372 411.743 42.6309C412.754 40.5376 414.409 37.5771 414.996 36.8094C415.337 36.3627 415.371 35.9751 415.068 35.9847C415.009 35.9864 414.594 36.2929 414.148 36.6657ZM364.541 41.5157C364.401 41.8783 364.529 41.9958 365.93 42.7982C369.77 44.9965 374.498 48.2779 377.187 50.6106C384.574 57.0193 388.951 62.584 392.64 70.2544C396.193 77.6434 398.094 85.4361 398.553 94.4986C398.79 99.1785 398.451 103.414 397.417 108.702L396.919 111.248L397.241 111.569C397.418 111.745 397.849 111.928 398.198 111.975C398.713 112.044 398.863 112.004 398.988 111.767C399.172 111.419 399.739 105.951 399.968 102.329C400.251 97.8471 400.114 91.3825 399.644 86.9884C397.835 70.0757 390.871 56.8317 379.33 48.3508C375.568 45.5864 371.037 43.2443 366.776 41.8617C365.032 41.296 364.649 41.2365 364.541 41.5157ZM383.058 61.9933C382.682 62.589 382.642 80.5619 383.002 86.8319C383.364 93.1247 384.207 101.26 385.134 107.407C385.856 112.201 385.772 111.944 386.628 111.944C387.011 111.944 387.312 111.874 387.298 111.788C387.264 111.58 386.974 104.461 386.769 98.8014C386.678 96.3058 386.575 93.9119 386.54 93.4816C386.505 93.0513 386.433 91.96 386.38 91.0564C385.935 83.4141 383.995 62.9815 383.635 62.1498C383.466 61.7577 383.244 61.6976 383.058 61.9933ZM354.184 81.5251C353.974 81.8631 353.919 88.2391 354.099 91.3694C354.397 96.5472 354.807 99.3125 355.946 103.808C356.708 106.816 357.611 109.683 358.254 111.132L358.649 112.023L359.718 112.022L360.787 112.022L361.164 109.401C361.863 104.539 361.952 103.815 362.185 101.07C362.313 99.5641 362.459 97.3463 362.509 96.1415C362.56 94.9367 362.638 93.5913 362.684 93.1516C362.833 91.7042 362.342 90.923 361.98 92.0343C361.369 93.9142 359.923 101.308 359.923 102.552C359.923 102.845 359.854 103.128 359.77 103.18C359.601 103.284 359.546 103.081 359.286 101.383C358.663 97.3137 355.548 83.4764 354.874 81.786C354.699 81.3458 354.371 81.2222 354.184 81.5251ZM390.388 83.7418C390.393 88.0232 390.882 95.4408 391.417 99.349C391.902 102.896 393.411 110.101 393.982 111.592C394.12 111.953 394.239 112.023 394.717 112.023C395.237 112.023 395.279 111.99 395.195 111.656C395.144 111.454 394.961 109.852 394.787 108.096C394.14 101.55 393.71 98.2295 392.884 93.4034C392.283 89.8876 390.858 82.4235 390.758 82.2619C390.504 81.8518 390.386 82.3226 390.388 83.7418ZM376.202 94.0684C374.485 100.472 373.778 105.483 373.924 110.223L373.977 111.944L374.452 111.991L374.927 112.037L375.596 108.001C376.466 102.76 376.86 99.0434 377.131 93.5207C377.199 92.1323 377.182 91.3694 377.081 91.3694C376.995 91.3694 376.6 92.5838 376.202 94.0684Z" fill="#595C37"/>
</svg>
